<svg xmlns="http://www.w3.org/2000/svg" xmlns:xlink="http://www.w3.org/1999/xlink" viewBox="0 0 100 100" version="1.1" x="0px" y="0px"><title>83</title><desc>Created with Sketch.</desc><g stroke="none" stroke-width="1"  fill-rule="evenodd"><g ><path d="M24.7635646,62.2231637 C25.1108662,62.7682965 25.3643679,63.2913053 25.4673941,63.7762611 C25.8452302,65.5556858 25.0853843,68.0570133 24.3503613,70.4758186 C23.3330597,73.8244912 22.2810498,77.287323 23.7486793,80.198385 C25.5752531,83.821615 29.6749941,84.9674115 33.2921154,85.9782522 C35.25884,86.5278097 37.2925646,87.0961726 38.2815285,87.9375442 C39.507299,88.9802434 40.6621154,90.8264823 41.7789285,92.6118805 C43.4381121,95.2645354 45.269958,98.192854 47.9442466,99.3541372 L47.9442466,81.0851106 L24.7635646,62.2231637 Z M47.9443344,0.215022124 C45.2702656,1.37652655 43.4382,4.30440265 41.7792361,6.95705752 C40.6626426,8.74245575 39.5076066,10.5889159 38.2818361,11.631615 C37.2928721,12.4729867 35.2591475,13.0413496 33.292423,13.5909071 C30.9757607,14.2382522 28.4620525,14.9422345 26.4733607,16.3159071 L47.9443344,33.7864823 L47.9443344,0.215022124 Z M47.9443344,60.2799779 L22.800223,39.8204646 C22.5324426,40.1202434 22.2596098,40.4202434 21.9878754,40.7184735 C19.6499049,43.2852876 17,46.1948009 17,49.7846239 C17,49.9346239 17.0063705,50.0826327 17.015377,50.2301991 L47.9443344,75.396792 L47.9443344,60.2799779 Z M47.9443344,39.4747788 L23.6072984,19.6721239 C22.3536295,22.519469 23.3678557,25.8595133 24.3502295,29.0935841 C25.0850328,31.5126106 25.8448787,34.0141593 25.4672623,35.7935841 C25.4387049,35.9272124 25.3958689,36.0646018 25.3457836,36.2037611 L47.9443344,54.5918142 L47.9443344,39.4747788 Z M74.0662285,16.1064159 C72.1311367,14.8692478 69.7582384,14.2048673 67.5623957,13.5911504 C65.5956711,13.0413717 63.5621662,12.4732301 62.5732023,11.6318584 C61.3474318,10.5891593 60.1926154,8.74269912 59.0758023,6.95707965 C57.3008515,4.11969027 55.3277564,0.968141593 52.337799,0 L52.337799,33.7865044 L74.0662285,16.1064159 Z M52.337777,75.3967699 L83.853918,49.7523009 C83.8381016,46.1773009 81.1976426,43.2773009 78.8667016,40.7180088 C78.5132492,40.3299558 78.1578197,39.9390265 77.8149115,39.5494248 L52.337777,60.2799558 L52.337777,75.3967699 Z M52.337777,54.5916814 L75.3967607,35.8288496 C75.3941246,35.8169027 75.3897311,35.8047345 75.3873148,35.7930088 C75.0094787,34.0138053 75.7693246,31.5122566 76.5043475,29.0932301 C77.5216492,25.7447788 78.573659,22.2819469 77.1058098,19.370885 C77.0998787,19.3591593 77.0932885,19.3480973 77.0873574,19.3363717 L52.337777,39.4748673 L52.337777,54.5916814 Z M52.337777,99.5691814 C55.3277344,98.6010398 57.3008295,95.4497124 59.0757803,92.6121018 C60.1925934,90.8267035 61.3471902,88.9804646 62.5729607,87.9377655 C63.5619246,87.0963938 65.5956492,86.5278097 67.5623738,85.9782522 C71.1794951,84.9674115 75.2794557,83.821615 77.1058098,80.198385 C78.5738787,77.2871018 77.5218689,73.8242699 76.5045672,70.4755973 C75.7695443,68.0565708 75.0096984,65.5550221 75.3875344,63.7758186 C75.5601967,62.9627655 76.1491377,62.0446239 76.9096426,61.0910841 L52.337777,81.0851106 L52.337777,99.5691814 Z"></path></g></g></svg>