<svg xmlns="http://www.w3.org/2000/svg" xmlns:xlink="http://www.w3.org/1999/xlink" xmlns:xodm="http://www.corel.com/coreldraw/odm/2003" xml:space="preserve" version="1.1"  viewBox="0 0 20.209 24.759" x="0px" y="0px" fill-rule="evenodd" clip-rule="evenodd"><defs></defs><g><path  d="M1.583 20.117l-0.621 2.433 -0.005 0.019c-0.028,0.119 -0.16,0.715 -0.264,1.196l-0.082 0.375c0.08,0.035 0.149,0.05 0.206,0.042 0.075,-0.01 0.148,-0.073 0.22,-0.196 0.083,-0.141 0.16,-0.263 0.243,-0.393 0.242,-0.38 0.523,-0.824 0.613,-1.144l0.602 -2.136c0.026,-0.091 0.093,-0.16 0.175,-0.191 0.012,-0.005 4.206,-1.591 6.738,-3.06 2.038,-1.182 4.37,-5.497 5.136,-6.998l-2.855 0.552c-0.156,0.03 -0.307,-0.072 -0.337,-0.228 -0.024,-0.125 0.037,-0.247 0.142,-0.306l3.679 -2.066c0.146,-0.082 0.26,-0.196 0.36,-0.331 0.111,-0.151 0.211,-0.334 0.318,-0.53l3.561 -6.533c-6.042,0.571 -10.211,2.368 -13.041,4.658 -2.377,1.924 -3.811,4.195 -4.617,6.377 -0.807,2.183 -0.989,4.274 -0.862,5.839 0.094,1.157 0.349,2.003 0.638,2.36 0.061,0.076 0.078,0.174 0.053,0.261zm1.047 -1.23c-0.058,0.148 -0.226,0.22 -0.373,0.162 -0.148,-0.059 -0.22,-0.226 -0.161,-0.374 1.337,-3.371 2.809,-6.239 4.718,-8.753 1.914,-2.519 4.261,-4.677 7.344,-6.621 0.135,-0.084 0.313,-0.044 0.397,0.09 0.085,0.135 0.044,0.312 -0.09,0.397 -3.024,1.907 -5.323,4.019 -7.193,6.481 -1.874,2.468 -3.323,5.292 -4.642,8.618zm-2.227 3.521l0.59 -2.311c-0.316,-0.481 -0.581,-1.388 -0.676,-2.556 -0.133,-1.633 0.056,-3.812 0.895,-6.082 0.84,-2.27 2.329,-4.631 4.796,-6.627 2.994,-2.423 7.428,-4.307 13.891,-4.832l0 0.001c0.053,-0.004 0.109,0.006 0.16,0.034 0.139,0.076 0.191,0.251 0.115,0.39l-3.818 7.005c-0.118,0.216 -0.227,0.416 -0.361,0.597 -0.146,0.197 -0.315,0.365 -0.541,0.492l-2.125 1.194 1.68 -0.325c0.058,-0.011 0.121,-0.004 0.179,0.024 0.143,0.069 0.203,0.241 0.134,0.384 -0.009,0.018 -2.995,6.238 -5.626,7.765 -2.308,1.338 -5.944,2.762 -6.686,3.047l-0.562 1.996c-0.114,0.405 -0.419,0.886 -0.681,1.298 -0.094,0.147 -0.181,0.285 -0.234,0.375 -0.169,0.287 -0.382,0.44 -0.639,0.475 -0.23,0.032 -0.474,-0.041 -0.736,-0.203 -0.094,-0.048 -0.158,-0.145 -0.158,-0.258 0,-0.03 0.005,-0.058 0.013,-0.086 0.02,-0.112 0.064,-0.323 0.116,-0.562 0.1,-0.458 0.234,-1.061 0.268,-1.206 0.002,-0.01 0.004,-0.02 0.006,-0.029z"></path></g></svg>