<svg xmlns="http://www.w3.org/2000/svg"  viewBox="0 0 120 120" x="0px" y="0px"><path  fill-rule="evenodd" d="M47.836 66.044c1.43-1.454 2.51-3.351 3.045-5.583 2.048-8.55 3.3-20.412-1.52-30.32-4.822-9.907-14.696-15.765-22.482-19.008-6.27-2.611-13.111 1.08-14.76 7.965-2.048 8.549-3.3 20.411 1.52 30.319 4.822 9.907 14.696 15.766 22.482 19.009 1.442.6 2.914.867 4.346.84a77.086 77.086 0 0 1 1.818 11.082c.195 2.22 2.122 3.874 4.305 3.696 2.182-.178 3.794-2.122 3.6-4.342-.357-4.064-1.083-8.667-2.354-13.658Zm-3.732-11.516c-2.899-7.34-7.007-15.176-12.747-23.135-1.301-1.803-3.785-2.207-5.549-.9-1.763 1.306-2.138 3.826-.838 5.63 6.064 8.406 10.135 16.62 12.817 24.13-6.822-3.06-13.786-7.81-17.107-14.635-3.553-7.302-2.841-16.778-.932-24.747.266-1.109.875-1.775 1.518-2.123.645-.348 1.514-.479 2.524-.058 7.258 3.023 14.977 7.95 18.53 15.25 2.951 6.066 2.96 13.632 1.784 20.588Zm7.828 47.423a11.43 11.43 0 0 0 3.83 2.356c8.207 3.068 19.89 5.722 30.464 1.854 10.575-3.867 17.789-13.433 22.08-21.072 3.397-6.047.728-13.345-5.769-15.773-8.207-3.068-19.89-5.722-30.465-1.854-10.574 3.867-17.788 13.433-22.08 21.072-1.108 1.973-1.57 4.078-1.465 6.104-4.305 2.693-7.952 5.476-10.967 8.131a4 4 0 1 0 5.286 6.004c2.505-2.205 5.526-4.535 9.086-6.822Zm8.12-4.602c7.373 2.545 16.09 3.982 23.426 1.299 7.837-2.866 13.844-10.34 17.854-17.478.55-.979.542-1.88.287-2.577-.255-.697-.83-1.39-1.882-1.784-7.668-2.865-17.08-4.7-24.917-1.834-6.55 2.396-11.823 8.012-15.718 13.959 7.343-3.388 15.994-6.288 26.027-8.11a4 4 0 0 1 1.43 7.87c-10.474 1.903-19.272 5.054-26.508 8.655Zm15.556-41.97c7.54-.484 17.116-2.472 23.937-8.714 6.821-6.242 9.525-15.494 10.558-22.855.956-6.82-4.424-12.506-11.408-12.058-7.54.483-17.116 2.471-23.936 8.714-6.821 6.242-9.526 15.493-10.558 22.855-.257 1.832-.057 3.582.51 5.154a72.041 72.041 0 0 0-4.772 8.242c-.971 1.977-.148 4.374 1.838 5.354 1.987.98 4.385.173 5.357-1.804a62.975 62.975 0 0 1 3.238-5.779c1.564.682 3.341 1.012 5.236.89Zm-.157-7.943c6.774-.482 13.896-2.281 18.596-6.582 4.787-4.382 7.123-11.415 8.066-18.137.145-1.038-.186-1.782-.638-2.26-.452-.478-1.183-.856-2.246-.788-6.885.441-14.185 2.227-18.972 6.608-3.078 2.816-5.142 6.728-6.474 10.949 4.673-4.875 10.44-9.766 17.512-14.308 1.855-1.191 4.334-.651 5.539 1.206a3.98 3.98 0 0 1-1.178 5.52c-8.832 5.672-15.392 11.89-20.205 17.792Z" clip-rule="evenodd"></path></svg>