<svg xmlns="http://www.w3.org/2000/svg" xmlns:xlink="http://www.w3.org/1999/xlink" version="1.1" x="0px" y="0px" viewBox="0 0 100 100" enable-background="new 0 0 100 100" xml:space="preserve"><path d="M92.1,6.718c-0.212-0.13-0.478-0.139-0.698-0.023c-2.647,1.378-5.103,3.052-7.301,4.977  c-7.754,6.793-9.988,14.517-10.164,15.167c-2.779,2.091-5.383,4.708-8.136,8.298c1.464-6.8,0.427-15.293,0.369-15.749  c-0.035-0.279-0.234-0.512-0.505-0.592c-0.271-0.081-0.574,0.016-0.746,0.224c-9.353,11.112-7.099,25.608-6.704,27.743  c-0.093,0.162-0.182,0.308-0.275,0.472l-0.001,0l-0.008,0.013c-0.645,1.119-1.312,2.305-1.992,3.533l-0.231,0.415  c-0.006,0.009-0.006,0.021-0.013,0.03c-0.769,1.396-1.566,2.873-2.392,4.42c1.674-10.347-1.297-16.461-1.444-16.755  c-0.116-0.231-0.349-0.38-0.608-0.391c-0.259-0.011-0.503,0.122-0.638,0.345c-7.533,12.509-3.803,24.547-3.02,26.737  c-1.621,2.141-3.538,4.163-5.637,6.06l-1.095,0.959c-0.007,0.006-0.008,0.015-0.014,0.021c-0.093,0.079-0.187,0.157-0.28,0.235  c4.259-10.235,1.802-18.013,1.685-18.367c-0.081-0.242-0.283-0.423-0.533-0.474c-0.25-0.052-0.503,0.03-0.677,0.227  c-9.457,10.736-7.669,21.144-7.091,23.526c-1.831,1.202-3.699,2.32-5.562,3.345c-0.003,0-0.006-0.001-0.006-0.001l-4.07,2.102  c-0.381,0.185-0.761,0.364-1.138,0.541c8.65-12.788,3.904-22.546,3.689-22.971c-0.106-0.211-0.31-0.354-0.543-0.384  c-0.233-0.03-0.472,0.063-0.621,0.232c-11.501,12.873-9.739,23.379-9.101,25.854c-3.986,1.446-7.318,2.244-9.284,2.284  c-0.394,0.009-0.705,0.33-0.698,0.726c0.007,0.391,0.333,0.704,0.725,0.696c2.274-0.045,6.317-1.078,11.098-2.93  c1.039-0.305,1.801-0.646,2.356-0.958c1.114-0.472,2.258-0.983,3.419-1.534c1.69,1.584,9.793,8.027,24.182,1.983  c0.072-0.029,0.138-0.07,0.195-0.12c0.111-0.096,0.189-0.228,0.224-0.375c0.05-0.225-0.007-0.458-0.158-0.628  c-0.167-0.191-4.024-4.399-17.378-4.603c1.238-0.729,2.474-1.484,3.688-2.289c0.073-0.021,0.148-0.039,0.211-0.085l2.345-1.674  c0.068-0.05,0.136-0.098,0.205-0.148l1.343-0.959c0.02-0.013,0.038-0.026,0.055-0.043c0.046-0.039,0.076-0.09,0.109-0.138  c0.738-0.568,1.46-1.148,2.167-1.743c2.168,0.951,13.75,5.499,22.199-1.9l0.001-0.002c0.16-0.141,0.321-0.289,0.481-0.438  c0.157-0.146,0.239-0.358,0.223-0.573c-0.019-0.216-0.132-0.408-0.309-0.531c-0.294-0.201-6.874-4.573-16.946-2.042  c0.664-0.762,1.298-1.538,1.89-2.329c0.019-0.024,0.04-0.043,0.056-0.067l0.051-0.084c1.004-1.364,1.901-2.769,2.648-4.216  c1.758-3.409,3.38-6.455,4.909-9.244c2.356,1.195,10.571,4.167,21.559-5.273c0.003-0.002,0.004-0.002,0.004-0.002  c0.192-0.168,0.277-0.424,0.23-0.672c-0.047-0.25-0.227-0.456-0.468-0.54c-0.352-0.118-8.208-2.732-17.751,0.236l3.72-6.006  c0.009-0.014,0.016-0.03,0.024-0.045c1.18-1.768,2.309-3.331,3.42-4.742c0.711-0.262,4.808-0.963,6.241-0.96  c0.771,0.002,1.873,0.168,3.043,0.344c2.187,0.33,4.667,0.703,6.578,0.303c0.651-0.136,1.253-0.373,1.784-0.583  c1.735-0.684,3.294-1.624,4.629-2.793l0.305-0.274c0.151-0.14,0.234-0.338,0.228-0.544c-0.007-0.205-0.101-0.396-0.26-0.527  c-0.073-0.061-6.433-5.125-14.919-2.596c0.252-0.189,0.511-0.366,0.765-0.545L76,27.169c3.414-1.405,6.376-3.196,8.808-5.326  c7.52-6.586,7.633-14.195,7.634-14.516C92.442,7.079,92.313,6.848,92.1,6.718z M41.21,56.243c0.547,2.859,1.249,10.086-3.106,18.571  l-2.882,2.06C34.692,73.993,33.901,65.264,41.21,56.243z M46.727,85.891c-12.12,4.651-19.018,0.056-21.11-1.753l3.269-1.685  C39.854,82.233,44.896,84.665,46.727,85.891z M64.929,21.305c0.317,3.897,0.73,13.357-2.206,18.15  c-1.075,1.615-2.192,3.398-3.358,5.354C58.864,40.567,58.461,30.077,64.929,21.305z M51.1,40.857  c0.918,2.767,2.494,9.715-0.315,19.567l-2.206,3.598C47.554,60.531,45.618,50.982,51.1,40.857z M17.935,85.926  c-0.548-2.486-1.748-11.961,8.06-23.473c0.969,2.893,2.809,11.571-5.039,22.008c-0.046,0.048-0.414,0.434-1.415,0.885  c-0.17,0.07-0.344,0.144-0.513,0.211C18.71,85.68,18.359,85.804,17.935,85.926z M62.381,71.218  c-7.127,5.947-16.657,2.929-19.736,1.709l2.917-2.555C53.986,67.613,60.23,70.113,62.381,71.218z M76.188,47.036  c-9.771,7.806-16.874,5.253-18.896,4.237l1.757-3.117C66.606,45.342,73.44,46.398,76.188,47.036z M88.297,31.042  c-1.122,0.912-2.409,1.655-3.826,2.213c-0.479,0.188-1.022,0.402-1.556,0.515c-1.661,0.347-4.006-0.006-6.075-0.317  c-1.223-0.185-2.376-0.359-3.252-0.36c-0.661-0.002-2.838,0.243-4.641,0.573l2.398-2.69C79.494,26.137,86.176,29.64,88.297,31.042z   M83.869,20.773c-2.194,1.922-4.855,3.556-7.954,4.884c-0.021-0.001-0.043,0.001-0.062,0c1.031-2.631,3.662-8.076,9.186-12.915  c1.786-1.564,3.751-2.956,5.852-4.151C90.528,10.942,89.147,16.15,83.869,20.773z"></path></svg>