<svg xmlns="http://www.w3.org/2000/svg" xmlns:xlink="http://www.w3.org/1999/xlink" version="1.1" x="0px" y="0px" viewBox="0 0 100 100" enable-background="new 0 0 100 100" xml:space="preserve"><g><path  d="M67.341,15.73c-21.022,3.356-42.265,16.781-46.882,38.045c-2.085,9.596-1.346,16.462-2.716,25.161   c3.46-6.065,7.035-11.342,10.608-15.976c-0.867-3.127-2.078-9.248-0.454-15.489c0,0,0.919,7.821,3.313,11.944   c1.947-2.338,3.88-4.494,5.791-6.453C36.617,48.404,36.189,36.499,41.46,31c0,0-3.179,11.777-1.307,18.86   c15.618-14.737,28.69-17.744,28.69-17.744c-7.738,4.404-14.346,9.203-20.053,14.2c6.153-0.45,18.834-4.706,18.834-4.706   c-9.613,5.786-19.027,8.014-23.242,8.784c-3.865,3.779-7.245,7.64-10.188,11.519c10.716,0.672,32.158-7.52,32.158-7.52   c-10.182,7.26-28.57,10.889-35.421,12.039c-0.762,1.13-6.125,10.553-9.364,18.193c4.954-1.826,12.638-4.511,20.654-6.746   c13.584-3.795,31.581-9.035,40.456-29.437c8.813-20.251,4.678-35.8,9.484-43.271C91.432,6.289,86.484,12.675,67.341,15.73z"></path><path  d="M92.163,5.171C92.234,5.061,92.268,5,92.268,5C92.23,5.055,92.199,5.115,92.163,5.171z"></path></g></svg>