<svg xmlns="http://www.w3.org/2000/svg" xmlns:xlink="http://www.w3.org/1999/xlink" viewBox="0 0 60 60" version="1.1" x="0px" y="0px"><title>46 -Leaf- (Solid)</title><desc>Created with Sketch.</desc><g stroke="none" stroke-width="1"  fill-rule="evenodd"><g transform="translate(-720.000000, -810.000000)" ><g transform="translate(720.000000, 810.000000)"><path d="M59.707,0.2935 C59.439,0.0255 59.043,-0.0695 58.684,0.0515 C54.317,1.5075 47.533,2.5615 40.35,3.6775 C27.405,5.6885 12.732,7.9675 7.23,13.4715 C0.363,20.3375 -0.411,27.5615 0.149,32.4115 C0.784,37.9205 3.314,42.2665 4.76,43.7105 C6.198,45.1495 7.62,46.0495 8.874,46.8435 C9.508,47.2445 10.077,47.6115 10.586,48.0015 L14,44.5865 L14,26.0005 C14,25.4485 14.447,25.0005 15,25.0005 C15.553,25.0005 16,25.4485 16,26.0005 L16,42.5865 L21,37.5865 L21,24.0005 C21,23.4485 21.447,23.0005 22,23.0005 C22.553,23.0005 23,23.4485 23,24.0005 L23,35.5865 L28,30.5865 L28,21.0005 C28,20.4485 28.447,20.0005 29,20.0005 C29.553,20.0005 30,20.4485 30,21.0005 L30,28.5865 L36,22.5865 L36,16.0005 C36,15.4485 36.447,15.0005 37,15.0005 C37.553,15.0005 38,15.4485 38,16.0005 L38,20.5865 L46.293,12.2935 C46.684,11.9025 47.316,11.9025 47.707,12.2935 C48.098,12.6845 48.098,13.3165 47.707,13.7075 L39.414,22.0005 L44,22.0005 C44.553,22.0005 45,22.4485 45,23.0005 C45,23.5525 44.553,24.0005 44,24.0005 L37.414,24.0005 L31.414,30.0005 L39,30.0005 C39.553,30.0005 40,30.4485 40,31.0005 C40,31.5525 39.553,32.0005 39,32.0005 L29.414,32.0005 L24.414,37.0005 L36,37.0005 C36.553,37.0005 37,37.4485 37,38.0005 C37,38.5525 36.553,39.0005 36,39.0005 L22.414,39.0005 L17.414,44.0005 L34,44.0005 C34.553,44.0005 35,44.4485 35,45.0005 C35,45.5525 34.553,46.0005 34,46.0005 L15.414,46.0005 L11.999,49.4155 C12.389,49.9235 12.756,50.4935 13.157,51.1265 C13.951,52.3805 14.852,53.8025 16.29,55.2415 C17.735,56.6865 22.08,59.2155 27.589,59.8515 C28.378,59.9425 29.229,59.9985 30.132,59.9985 C34.779,59.9985 40.78,58.5205 46.529,52.7705 C52.032,47.2675 54.312,32.5955 56.323,19.6505 C57.439,12.4675 58.493,5.6835 59.948,1.3165 C60.068,0.9575 59.975,0.5615 59.707,0.2935"></path></g></g></g></svg>