<svg xmlns="http://www.w3.org/2000/svg" xmlns:xlink="http://www.w3.org/1999/xlink" xmlns:sketch="http://www.bohemiancoding.com/sketch/ns" viewBox="0 0 70 70" version="1.1" x="0px" y="0px"><title>leaf-nature-plant-green</title><desc>Created with Sketch.</desc><g stroke="none" stroke-width="1"  fill-rule="evenodd" sketch:type="MSPage"><g sketch:type="MSArtboardGroup" transform="translate(-95.000000, -795.000000)"><path d="M99.1406251,848.396013 C104.44784,847.658409 105.826304,836.069195 114.479383,835.837535 C119.947734,835.691137 132.629178,830.875207 117.642523,826.644975 C121.122396,825.97674 136.836119,828.41424 130.905563,821.181374 C143.798901,824.258257 139.593479,820.608547 137.806261,818.477658 C143.952149,821.484138 148.817055,819.4702 146.783746,816.434097 C149.374187,818.199515 154.518227,819.729492 152.64518,815.186109 C155.386391,815.186109 163.6837,818.466886 164.476289,815.726237 C165.947092,810.640431 154.857365,811.667969 154.857365,811.667969 C161.147187,807.059186 151.031519,806.274769 146.379287,809.591708 C151.956649,804.262755 138.742785,802.679303 133.172635,808.138672 C134.924154,802.241122 126.787142,806.791815 122.606175,811.20786 C120.496148,801.295899 112.044271,817.0654 109.998427,821.706498 C111.634874,810.172229 99.5041232,813.217182 101.117784,826.644975 C102.186227,835.535833 95.5013047,845.20765 97.0941715,847.795343 C96.1179318,850.257811 95.6122747,851.993723 95.4439562,852.539182 C94.119956,855.975072 96.7180991,855.755326 96.7180991,855.755326 C96.7180991,855.755326 97.3790446,852.781604 99.1406251,848.396013 L99.1406251,848.396013 Z M101.48749,838.827869 C106.680664,831.003419 118.677734,813.927246 149.748265,812.635121 C114.69873,810.073242 100.349121,838.066894 101.48749,838.827869 Z"  sketch:type="MSShapeGroup"></path></g></g></svg>