<svg xmlns="http://www.w3.org/2000/svg" xmlns:xlink="http://www.w3.org/1999/xlink" version="1.1" x="0px" y="0px" viewBox="0 0 95 95" enable-background="new 0 0 95 95" xml:space="preserve"><path d="M32.809,62.381c0.195,0.195,0.451,0.293,0.707,0.293c0.256,0,0.512-0.098,0.707-0.293l4.79-4.79  c2.412,2.077,5.446,3.222,8.662,3.222c3.552,0,6.892-1.383,9.402-3.896c5.03-5.03,5.396-22.454,5.409-23.193  c0.005-0.271-0.102-0.533-0.293-0.725c-0.191-0.191-0.476-0.297-0.726-0.293c-0.739,0.014-18.165,0.379-23.197,5.405  C33.328,43.06,33.112,50.96,37.6,56.175l-4.792,4.791C32.418,61.357,32.418,61.99,32.809,62.381z M39.686,39.525  c3.463-3.458,15.309-4.587,20.771-4.79c-0.202,5.462-1.331,17.304-4.794,20.768c-2.134,2.134-4.972,3.31-7.988,3.31  c-2.681,0-5.218-0.933-7.248-2.636l10.511-10.511c0.391-0.391,0.391-1.023,0-1.414c-0.392-0.391-1.023-0.391-1.414,0l-10.509,10.51  C35.302,50.329,35.522,43.694,39.686,39.525z"></path><path d="M21.202,66.463c0.194,0,0.391-0.057,0.564-0.175c0.456-0.313,0.572-0.935,0.26-1.392  c-3.516-5.133-5.374-11.148-5.374-17.396c0-17.002,13.832-30.834,30.834-30.834c5.045,0,9.936,1.233,14.34,3.554l-5.049,0.12  c-0.553,0.014-0.988,0.472-0.977,1.023c0.014,0.545,0.458,0.977,1,0.977c0.008,0,0.016,0,0.023,0l8.732-0.209  c0.356-0.009,0.682-0.207,0.854-0.521c0.171-0.313,0.162-0.695-0.024-1l-4.547-7.459c-0.288-0.472-0.904-0.622-1.374-0.333  c-0.472,0.287-0.62,0.902-0.333,1.374l2.582,4.236c-4.68-2.457-9.874-3.763-15.229-3.763c-18.104,0-32.834,14.729-32.834,32.834  c0,6.651,1.979,13.06,5.724,18.528C20.57,66.311,20.883,66.463,21.202,66.463z"></path><path d="M73.234,28.711c-0.457,0.313-0.572,0.935-0.262,1.39c3.516,5.136,5.375,11.152,5.375,17.399  c0,17.002-13.832,30.834-30.834,30.834c-5.045,0-9.937-1.232-14.341-3.554l5.05-0.12c0.552-0.014,0.989-0.473,0.976-1.023  c-0.013-0.553-0.484-0.99-1.023-0.977l-8.732,0.209c-0.357,0.009-0.683,0.207-0.854,0.521c-0.171,0.313-0.162,0.694,0.024,1  l4.546,7.459c0.188,0.309,0.518,0.479,0.855,0.479c0.177,0,0.357-0.047,0.52-0.146c0.472-0.287,0.621-0.902,0.333-1.373  l-2.582-4.236c4.679,2.457,9.873,3.763,15.229,3.763c18.104,0,32.833-14.729,32.833-32.834c0-6.652-1.979-13.06-5.724-18.528  C74.313,28.517,73.689,28.398,73.234,28.711z"></path></svg>