<svg xmlns="http://www.w3.org/2000/svg" xmlns:xlink="http://www.w3.org/1999/xlink" version="1.1" x="0px" y="0px" viewBox="0 0 32 32" enable-background="new 0 0 32 32" xml:space="preserve"><g display="none"><rect x="-84.243" y="31.996" display="inline"  width="437.207" height="10"></rect></g><g display="none"><path display="inline"  stroke="#535A66" stroke-miterlimit="10" d="M22.002,21.667c0,0,0-8.861-6.97-14.122"></path><path display="inline"  stroke="#535A66" stroke-miterlimit="10" d="M20.835,15.084c0,0-0.969-5.503,4.965-8.232   C25.8,6.852,28.063,12.169,20.835,15.084z"></path><path display="inline"  stroke="#535A66" stroke-miterlimit="10" d="M19.989,15.393c0,0-4.167,2.686-9.488-1.55   C10.502,13.843,15.594,9.888,19.989,15.393z"></path><path display="inline"  stroke="#535A66" stroke-miterlimit="10" d="M18.365,0.655c0,0-4.306,1.718-3.018,6.567   C15.347,7.222,20.227,4.856,18.365,0.655z"></path><path display="inline"  stroke="#535A66" stroke-miterlimit="10" d="M7.165,5.728c0,0,3.823,5.728,7.811,2.116   C14.976,7.843,11.617,3.991,7.165,5.728z"></path><path display="inline"  d="M21.717,31.997c-3.053,0-7.516-1.127-9.343-2.009c-1.313-0.635-4.095,0.479-5.053,0.961   l-0.726,0.365v-8.91l0.359-0.104c0.173-0.051,4.312-1.23,10.137-0.01c5.524,1.155,6.588,2.104,6.907,2.717   c0.147,0.282,0.163,0.589,0.046,0.865c-0.132,0.309-0.367,0.862-6.221,0.457c3.157,1.262,7.906-0.093,9.936-1.102   c1.494-0.74,3.354-1.078,4.022-0.293c0.152,0.178,0.447,0.674-0.094,1.434c-0.916,1.286-5.89,5.338-9.162,5.599   C22.27,31.987,22,31.997,21.717,31.997z M11.353,28.797c0.526,0,1.027,0.083,1.457,0.29c1.854,0.895,6.828,2.108,9.636,1.883   c2.884-0.23,7.63-4.063,8.428-5.183C30.999,25.612,31,25.534,31,25.533c-0.157-0.118-1.331-0.137-2.795,0.591   c-1.763,0.874-9.076,3.422-12.665-0.091l-0.997-0.977l1.39,0.121c2.856,0.247,6.186,0.38,7.125,0.202   c-0.241-0.275-1.328-1.099-6.171-2.111c-4.615-0.964-8.183-0.345-9.291-0.098v6.552C8.484,29.344,10,28.797,11.353,28.797z"></path><path display="inline"  d="M5.398,31.998H0v-9.69h5.398V31.998z M1,30.998h3.398v-7.69H1V30.998z"></path></g><g><g><path d="M25.948,10.225c0.92-2.221,0.116-4.158,0.082-4.239l-0.102-0.237l-0.233,0.107c-4.641,2.135-5.168,5.969-5.16,7.658    c-0.966-2.227-2.493-4.582-4.857-6.522c0.956-0.545,4.615-2.936,2.916-6.772L18.496,0l-0.224,0.089    c-0.044,0.018-4.301,1.792-3.228,6.566c-0.867-0.842-3.964-3.443-7.841-1.929l-0.29,0.112l0.173,0.259    C7.17,5.223,9.158,8.16,11.835,8.491c0.162,0.02,0.323,0.029,0.482,0.029c1.03,0,2.012-0.417,2.929-1.238    c2.544,2.047,4.095,4.59,5.036,6.933c-4.446-5.224-9.556-1.378-9.608-1.338l-0.251,0.195l0.249,0.197    c2.384,1.898,4.561,2.431,6.253,2.431c2.138,0,3.501-0.851,3.525-0.866l0.063-0.04c1.211,3.308,1.239,6.056,1.239,6.105h0.5    c0-0.051-0.027-2.921-1.302-6.361C23.51,13.502,25.192,12.05,25.948,10.225z M18.233,0.657c1.269,3.271-1.758,5.31-2.721,5.858    C14.675,2.74,17.407,1.069,18.233,0.657z M11.897,7.995c-2.005-0.247-3.66-2.199-4.205-2.913c3.53-1.182,6.342,1.273,7.052,1.977    C13.846,7.802,12.885,8.112,11.897,7.995z M11.247,13.084c1.065-0.699,5.054-2.841,8.685,1.468    C18.998,15.03,15.567,16.363,11.247,13.084z M21.047,13.956c-0.086-1.162-0.029-5.254,4.608-7.527    c0.172,0.562,0.489,2.016-0.169,3.604C24.811,11.663,23.319,12.983,21.047,13.956z"></path><path d="M30.503,24.485c-0.822,0-1.848,0.299-2.743,0.742c-1.445,0.718-4.267,1.611-6.913,1.611c-1.071,0-2.113-0.146-3.022-0.51    c1.468,0.102,2.583,0.143,3.431,0.143c2.534,0,2.691-0.369,2.79-0.6c0.117-0.276,0.102-0.583-0.046-0.865    c-0.319-0.613-1.384-1.562-6.907-2.717c-1.972-0.413-3.751-0.551-5.248-0.551c-2.925,0-4.775,0.527-4.889,0.561l-0.359,0.104v8.91    l0.726-0.365c0.755-0.38,2.641-1.152,4.05-1.152c0.379,0,0.724,0.056,1.003,0.191c1.827,0.882,6.29,2.009,9.343,2.009    c0.283,0,0.553-0.01,0.809-0.03c3.272-0.261,8.246-4.313,9.162-5.599c0.541-0.76,0.246-1.256,0.094-1.434    C31.514,24.619,31.054,24.485,30.503,24.485z M31.281,26.078c-0.856,1.202-5.721,5.145-8.795,5.39    c-0.243,0.019-0.499,0.029-0.769,0.029c-3.093,0-7.471-1.16-9.125-1.959c-0.33-0.16-0.741-0.24-1.221-0.24    c-1.488,0-3.447,0.788-4.275,1.205l-0.001,0v-7.724l0,0c0.075-0.022,1.873-0.54,4.748-0.54c1.702,0,3.433,0.182,5.145,0.54    c3.936,0.823,6.146,1.65,6.567,2.459c0.054,0.103,0.103,0.263,0.017,0.469c-0.028,0.027-0.327,0.265-2.318,0.265    c-0.895,0-2.038-0.048-3.396-0.142l-3.181-0.22l2.961,1.183c0.906,0.362,1.985,0.546,3.208,0.546c2.603,0,5.524-0.862,7.135-1.663    c0.872-0.432,1.815-0.69,2.521-0.69c0.429,0,0.748,0.097,0.899,0.275C31.567,25.452,31.525,25.735,31.281,26.078z"></path><path d="M5.398,22.308H0v9.69h5.398V22.308z M4.898,31.498H0.5v-8.69h4.398V31.498z"></path></g></g></svg>