<svg xmlns="http://www.w3.org/2000/svg" xmlns:xlink="http://www.w3.org/1999/xlink" version="1.1" x="0px" y="0px" viewBox="0 0 100 100" enable-background="new 0 0 100 100" xml:space="preserve"><path d="M64.871,89.186c0.847-1.48-4.964-8.167-13.264-10.488c-2.224-0.622-6.095-1.651-10.545-0.26  c-7.282,2.277-11.835,9.697-10.806,11.09c0.397,0.538,1.322-0.233,3.542,0.167c2.91,0.525,3.536,1.756,5.952,2.989  c2.242,1.144,2.689,1.969,6.707,2.327c3.377,0.301,4.849,0.106,6.204-1.195c1.326-1.273,2.247-1.589,3.881-2.762  C60.196,88.432,64.167,90.415,64.871,89.186z"></path><path d="M98,6.371c0,0-14.894-10.35-23.668,0.804c0,0-6.112,7.959-0.32,10.565c0,0,3.318,3.018,12.742-1.007  C86.754,16.732,89.784,9.194,98,6.371z"></path><path d="M89.913,39.321c0,0,1.956-14.426-15.373-13.309c0,0-7.187,1.376-10.946,10.667l-2.129,4.067c0,0,5.801,2.158,10.993,2.348  c0,0,6.358,0.072,11.275-3.452C83.733,39.642,86.9,36.599,89.913,39.321z"></path><path d="M88.563,51.635c0,0-13.631-12.395-23.896-6.864c0,0-6.329,3.243-10.894,15.376c0,0,5.572-3.575,11.268-1.38  C65.041,58.767,74.229,66.039,88.563,51.635z"></path><path d="M43.682,8.652c0,0,12.192-1.831,13.05,16.423c0,0,0.591,2.051-2.554,10.501c0,0-8.207,0.4-11.967-8.659  c0,0-2.115-4.607,0.893-11.405C43.104,15.512,46.418,10.429,43.682,8.652z"></path><path d="M31.416,36.381c0,0-0.322-8.626,10.391-3.846c0,0,8.507,3.698,6.858,14.019c0,0-0.549,3.199-2.002,5.792  c0,0-12.672-3.384-12.291-12.224c0,0,0.399-4.404-1.278-4.072L31.416,36.381z"></path><path d="M24.63,50.194c0,0,11.726-7.707,17.252,8.664c0,0,2.997,10.277-10.588,11.758c0,0-9.596-1.047-4.867-12.269  C26.427,58.348,30.544,51.654,24.63,50.194z"></path><path d="M9.756,62.667c0,0,16.585-0.887,16.934,12.582c0,0,0.171,11.416-11.782,10.55c0,0-8.632-0.86-5.11-12.687  C9.798,73.111,14.56,63.309,9.756,62.667z"></path><path d="M73.358,21.182c-0.001-0.225-0.044-3.355-1.812-4.24c-2.283-1.143-6.003,2.178-7.374,3.402  c-6.38,5.695-8.625,12.789-9.48,15.443c-1.103,3.424-5.138,15.954-8.484,23.27C35.79,81.841,13.379,94.905,8.734,97.098  c-0.504,0.238-3.011,1.393-2.892,1.632c0.184,0.369,6.531-1.675,8.287-2.277c11.04-3.784,18.115-11.405,22.914-16.689  c3.285-3.617,11.583-12.918,17.375-27.242c4.443-10.987,3.238-14.611,8.633-19.643C67.451,28.774,73.37,26.413,73.358,21.182z"></path><path d="M77.722,71.453c0,0-12.545-13.493-23.237-8.841c0,0-6.578,2.702-12.143,14.41c0,0,5.852-3.096,11.344-0.432  C53.685,76.59,62.232,84.607,77.722,71.453z"></path></svg>