<svg xmlns="http://www.w3.org/2000/svg" xmlns:xlink="http://www.w3.org/1999/xlink" version="1.1" x="0px" y="0px" viewBox="0 0 48 48" enable-background="new 0 0 48 48" xml:space="preserve"><g><path  d="M22.7,44.5c-4.4,0-8.8-2.1-12.7-6.2c-8-8.2-7.8-17.7,0.5-26C17.1,5.7,27.6,0.9,35.4,0.9   c3.8,0,6.8,1.1,8.9,3.2c7,7.1,1.1,24.5-8.5,34C31.6,42.3,27.2,44.5,22.7,44.5z M35.4,2.9c-7.3,0-17.2,4.6-23.4,10.8   c-9.7,9.7-5.6,17.9-0.5,23.2c3.5,3.6,7.4,5.5,11.2,5.5c3.9,0,7.8-1.9,11.6-5.8c8.9-8.9,14.5-25,8.5-31.2   C41.2,3.7,38.6,2.9,35.4,2.9z"></path><path  d="M2.6,47.1l-1.9-0.5C2.9,38.4,11.1,33,19.9,27.3c9.3-6.1,19-12.4,22.7-22.8l1.9,0.7   c-3.9,11-13.9,17.5-23.5,23.8C12.6,34.4,4.6,39.6,2.6,47.1z"></path><polygon  points="33.7,18.8 30.5,3.2 32.4,2.8 35.3,16.8 46.6,16.6 46.7,18.6  "></polygon><polygon  points="42.6,27.3 25.5,25.1 20.7,5.9 22.6,5.4 27.1,23.3 42.9,25.4  "></polygon><polygon  points="38.4,34.3 18.1,30 12.8,11 14.7,10.5 19.7,28.3 38.8,32.3  "></polygon><polygon  points="29.7,42.2 12.6,33.6 6.6,18 8.5,17.3 14.2,32.1 30.6,40.4  "></polygon></g></svg>