<svg xmlns="http://www.w3.org/2000/svg" xmlns:xlink="http://www.w3.org/1999/xlink" version="1.1" x="0px" y="0px" viewBox="0 0 100 100" enable-background="new 0 0 100 100" xml:space="preserve"><path  d="M51.274,94.997v-8.878l15.9-15.9c0.498-0.497,0.498-1.304,0-1.801c-0.497-0.498-1.303-0.498-1.801,0  L51.274,82.518V62.417l15.9-15.9c0.498-0.497,0.498-1.304,0-1.801c-0.497-0.497-1.303-0.497-1.801,0L51.274,58.815V27.927  c0-0.704-0.57-1.274-1.274-1.274c-0.704,0-1.274,0.57-1.274,1.274V48.06l-14.099-14.1c-0.497-0.497-1.304-0.497-1.801,0  c-0.498,0.497-0.498,1.304,0,1.801l15.9,15.901v20.101L34.627,57.664c-0.497-0.498-1.304-0.498-1.801,0  c-0.498,0.497-0.498,1.304,0,1.801l15.9,15.9v19.632C24.464,94.886,5,91.428,5,67.003c0-24.853,45-62,45-62s45,37.147,45,62  C95,91.429,75.536,94.886,51.274,94.997z"></path></svg>