<svg xmlns:dc="http://purl.org/dc/elements/1.1/" xmlns:cc="http://creativecommons.org/ns#" xmlns:rdf="http://www.w3.org/1999/02/22-rdf-syntax-ns#" xmlns:svg="http://www.w3.org/2000/svg" xmlns="http://www.w3.org/2000/svg" xmlns:sodipodi="http://sodipodi.sourceforge.net/DTD/sodipodi-0.dtd" xmlns:inkscape="http://www.inkscape.org/namespaces/inkscape" version="1.1" x="0px" y="0px" viewBox="0 0 100 100"><g transform="translate(0,-952.36218)"><path  d="m 49.999975,964.11216 c -1.66568,4.1919 -4.02109,7.9804 -6,11.625 -2.23201,4.1105 -3.84377,8.1431 -3.15625,13.0312 3.36642,3.3241 6.25233,7.8413 8.15625,14.59384 l 0,37.25 2,0 0,-37.25 c 1.90392,-6.75244 4.78983,-11.26974 8.15625,-14.59384 0.68752,-4.8881 -0.92424,-8.9207 -3.15625,-13.0312 -1.97891,-3.6446 -4.33432,-7.4331 -6,-11.625 z m -30.84375,12.75 c 0.44868,7.3622 1.8441,18.7711 6.625,24.65624 4.31481,5.6759 11.38047,9.2512 22.65625,11.7188 -5.72712,-7.5408 -11.44781,-13.94704 -17.84375,-16.68764 -0.43022,-0.15921 -0.698,-0.6408 -0.625,-1.0937 0.33558,-0.4483 0.66722,-1.0005 1.4375,-0.75 6.27753,2.6897 11.62232,8.33174 16.8125,14.93744 -1.66365,-10.07464 -5.01527,-15.89904 -9.15625,-19.84374 l -0.0312,0 c -0.004,-0.02 0.004,-0.041 0,-0.062 -0.84388,-0.7999 -1.72453,-1.5214 -2.625,-2.1876 -5.43769,-4.0227 -11.84741,-6.183 -17.25,-10.6874 z m 61.6875,0 c -4.65068,3.78049 -11.48452,6.21 -17.25,10.6874 -0.90047,0.6662 -1.78112,1.3877 -2.625,2.1876 -0.004,0.02 0.004,0.041 0,0.062 l -0.0312,0 c -4.14098,3.9446 -7.4926,9.7691 -9.15625,19.84374 4.13443,-5.2237 10.21918,-12.01385 17.09375,-15.03114 0.50718,-0.1391 1.07968,0.1805 1.21875,0.6874 0.13908,0.5072 -0.18032,1.11109 -0.6875,1.25 -6.39594,2.7405 -12.11663,9.14684 -17.84375,16.68764 11.27578,-2.4676 18.34144,-6.0429 22.65625,-11.7188 4.24744,-5.58725 5.99937,-13.53674 6.625,-24.65624 z m -42.6875,43.12504 c -0.60095,-0.021 -1.20479,0.032 -1.8125,0.125 -3.20288,0.3368 -6.66423,1.4387 -10.4375,2.0624 3.9426,1.6687 6.66866,3.8124 9.28125,5.0313 4.19763,1.9247 8.96344,0.5714 13.1875,-1.875 -2.07978,-2.4497 -6.01212,-5.1973 -10.21875,-5.3437 z m 23.78125,0.062 c -3.92725,0.078 -7.19393,1.7706 -10.3125,5.2813 3.7754,2.0823 8.43023,3.9768 13.1875,1.875 2.61259,-1.2189 5.33865,-3.3626 9.28125,-5.0313 -3.77327,-0.6236 -7.23462,-1.7256 -10.4375,-2.0624 -0.58984,-0.054 -1.15771,-0.074 -1.71875,-0.063 z"  fill-opacity="1" stroke="none" marker="none" visibility="visible" display="inline" overflow="visible"></path></g></svg>