<svg xmlns="http://www.w3.org/2000/svg" viewBox="0 0 100 100" x="0px" y="0px"><path d="M69.81,15.8c2.35-.06,4.69-.22,7.03-.46-1.04-1.73-2.29-3.37-3.7-4.86-.51,.97-1.04,1.95-1.6,2.89-.51,.85-1.09,1.67-1.73,2.43Z"></path><path d="M61.81,16.77c-.08,.01-.13-.01-.19-.04-.77,.67-1.57,1.33-2.4,1.92,1.48,.47,3.02,.68,4.58,.75,1.61,.07,3.45,.29,4.99-.24,.77-.26,1.47-.47,2.28-.57,.89-.11,1.58-.46,2.4-.78,1.33-.52,2.81-.55,4.02-1.33-.09-.18-.19-.35-.28-.53-2.5,.26-5.02,.43-7.53,.5-2.61,.07-5.27-.14-7.86,.32Z"></path><path d="M73.23,21.95c-.96,.74-1.7,1.77-2.77,2.37-.91,.51-1.91,.89-2.88,1.29,2.1,.47,4.16,.47,6.19-.5,2.04-.98,4-2.15,5.98-3.24-.54-1.63-1.15-3.22-1.92-4.75-1.35,1.78-2.81,3.46-4.59,4.84Z"></path><path d="M63.42,15.14c-.34,.3-.69,.61-1.04,.93,2.18-.29,4.4-.21,6.59-.25,.82-.86,1.48-1.85,2.08-2.87,.57-.97,1.11-1.95,1.63-2.95-.91-.91-1.89-1.77-2.92-2.54-.59,1.37-1.23,2.72-2.24,3.84-1.24,1.38-2.72,2.6-4.11,3.83Z"></path><path d="M72.19,26.34s-.02,.04-.03,.06c-1.04,1.3-2.75,1.69-4.28,2.12-1.13,.32-2.25,.54-3.38,.65,2.46,1.32,5.46,1.39,8.02,2.51,.57,.25,1.13,.46,1.71,.63,.03-.02,.05-.04,.09-.06,1.49-.61,2.89-1.29,4.26-2.13,.99-.61,2.03-1.16,3.17-1.38-.19-.68-.37-1.37-.56-2.05-.39-1.41-.79-2.82-1.23-4.22-2.06,1.14-4.11,2.4-6.25,3.36-.5,.22-1,.39-1.51,.51Z"></path><path d="M60.82,9.38c1.01-.42,2-.9,3.02-1.31,1.59-.63,3.28-.86,4.92-1.32-.69-.46-1.41-.89-2.14-1.28-1.39,.58-2.57,1.69-3.79,2.55-.66,.46-1.33,.91-2.01,1.35Z"></path><path d="M59.12,10.64c-1.22,2.73-2.41,5.47-3.53,8.25-.15,.38-.3,.77-.45,1.15,3-.92,5.55-3.33,7.83-5.35,1.3-1.15,2.63-2.3,3.84-3.55,1.07-1.1,1.73-2.44,2.33-3.83-1.7,.49-3.48,.72-5.14,1.38-1.64,.65-3.18,1.5-4.89,1.95Z"></path><path d="M84.07,39.77c-.05-.43-.07-.87-.13-1.3-.18-1.26-.43-2.5-.7-3.74-1.38,1.24-2.61,2.68-4.2,3.64,1.65,.54,3.63,.41,5.03,1.4Z"></path><path d="M78.16,38.71c-2.48,.12-4.94-.16-7.4-.45-.2-.02-.39-.05-.58-.08,.61,.45,1.21,.95,1.86,1.35,1.49,.92,2.96,1.8,4.3,2.94,.96,.82,1.74,1.79,2.56,2.72,1.8,0,3.6-.06,5.39-.23,.04-1.42,0-2.83-.13-4.25-.62-.69-1.55-1.02-2.44-1.19-1.21-.23-2.43-.29-3.56-.81Z"></path><path d="M62.63,7.39c1.07-.76,2.1-1.66,3.28-2.27-1.17-.57-2.39-1.03-3.66-1.37-.85,1.84-1.7,3.69-2.53,5.54,.99-.61,1.96-1.24,2.91-1.91Z"></path><path d="M68.8,44.35h.01c.2-.11,.38,.02,.44,.18,1.03,.37,2.2,.37,3.27,.43,1.36,.08,2.73,.15,4.09,.19,.49,.02,.98,.02,1.47,.03-.51-.59-1.01-1.18-1.59-1.71-1.39-1.27-2.93-2.28-4.54-3.24-1.22-.72-2.27-1.85-3.59-2.39-.31-.08-.61-.16-.91-.27-1.15-.4-2.26-.92-3.41-1.31-2.39-.81-4.89-1.3-7.42-1.44-1.42-.08-3.08-.17-4.6,.11,1.81,.08,3.58,.61,5.24,1.37,2.32,1.07,4.48,2.47,6.68,3.76,.92,.54,1.85,1.09,2.61,1.85,.79,.78,1.23,1.9,2.24,2.43Z"></path><path d="M63.96,40.81c-4.08-2.44-8.81-5.98-13.84-5.15-.36,1.42-.7,2.85-1.02,4.28,1.69,.06,3.41,.13,5.06,.47,1.59,.33,2.92,1.24,4.29,2.08,1.53,.94,3.13,1.82,4.92,2.14,.94,.17,1.92,.18,2.88,.18,.62,0,1.23-.04,1.82-.2-.53-.41-.91-.95-1.34-1.54-.72-.98-1.73-1.65-2.76-2.27Z"></path><path d="M60.03,23c2.09,.95,4.3,1.71,6.5,2.34h.02c1.16-.5,2.39-.93,3.5-1.53,1.01-.55,1.68-1.51,2.58-2.21,1.53-1.18,2.84-2.55,4.04-4.04-.99,.34-2.05,.47-3.04,.86-.78,.31-1.45,.66-2.29,.77-.96,.12-1.75,.4-2.67,.67-1.61,.47-3.52,.25-5.17,.16-1.69-.09-3.37-.34-4.97-.92-1.15,.75-2.37,1.34-3.67,1.67-.14,.35-.28,.71-.41,1.06,.89,0,1.78,.02,2.66,.16,1.03,.17,1.98,.58,2.93,1Z"></path><path d="M51.59,30.26c2.68-1.61,5.8-2.27,8.93-1.91,.96,.11,1.91,.26,2.87,.28,.05-.02,.12-.02,.18,0,.05,0,.1,0,.16,0,1.06-.02,2.1-.23,3.12-.49,1.41-.36,3.12-.68,4.29-1.64-1.2,.13-2.41,.02-3.64-.26-2.31-.52-4.63-1.35-6.81-2.27-1.05-.44-2.07-.99-3.18-1.26-1.09-.26-2.21-.27-3.32-.26-.96,2.57-1.83,5.16-2.61,7.78Z"></path><path d="M72.69,32.46c-1.63-.71-3.26-1.12-4.98-1.52-1.53-.35-3.04-.79-4.34-1.7-.43,0-.87-.01-1.32-.06-2.02-.23-3.92-.45-5.93-.03-1.73,.36-3.34,1.07-4.8,2.05-.19,.67-.4,1.34-.58,2.01-.14,.52-.26,1.04-.39,1.55,1.71-.7,3.77-.67,5.55-.62,2.44,.07,4.87,.46,7.21,1.15,2.55,.75,4.84,1.98,7.51,2.31,2.53,.32,5.09,.6,7.65,.46,1.88-.98,3.22-2.67,4.8-4.04-1.83-.07-3.66-.25-5.48-.49-1.69-.22-3.33-.39-4.9-1.08Z"></path><path d="M75.19,32.57c.95,.15,1.9,.27,2.85,.4,1.62,.21,3.25,.36,4.89,.43-.32-1.34-.65-2.68-1.02-4.02-1.22,.21-2.31,.88-3.36,1.52-1.08,.66-2.21,1.18-3.37,1.68Z"></path><path d="M78.44,56.13c-.44-.32-.92-.59-1.38-.87-2.12-1.3-4.27-2.59-6.58-3.54-1.04-.43-2.15-.71-3.15-1.23-1.06-.55-2-1.33-2.96-2.03-.84-.61-1.78-1.18-2.53-1.92-.85-.83-1.43-1.89-2.33-2.69h0c-1.58-.87-3.06-2.09-4.79-2.63-1.8-.57-3.86-.58-5.76-.64-.28,1.22-.55,2.44-.81,3.66,2.3,.61,4.06,2.26,5.73,3.89,.96,.93,1.92,1.86,3.04,2.6,1.04,.69,2.16,1.27,3.26,1.87,2.39,1.29,4.83,2.43,7.5,3.02,.04,0,.07,.01,.11,.02h.02c2.45,.54,4.94,.79,7.36,1.49,2.06,.59,4.05,1.38,5.97,2.32,.1-.21,.19-.41,.28-.62-.49-.56-1.28-.94-1.77-1.48-.39-.43-.72-.87-1.19-1.22Z"></path><path d="M76.24,58.22c.49,.42,.88,.97,1.28,1.47,.69,.86,1.35,1.75,2,2.65,.43-.63,.82-1.29,1.18-1.97,.06-.11,.1-.23,.15-.34-1.56-.76-3.16-1.42-4.81-1.95,.07,.05,.14,.09,.2,.14Z"></path><path d="M75.6,58.52c-.42-.29-.85-.51-1.17-.92-.28-.08-.55-.16-.84-.23-1.73-.42-3.5-.64-5.25-.98,.56,.78,1.31,1.41,1.98,2.09,.79,.81,1.53,1.68,2.21,2.58,.19,.25,.37,.52,.55,.78,.09-.01,.18,0,.26,.08,.36,.33,.95,.45,1.4,.6,.51,.17,1.02,.35,1.52,.55,.66,.27,1.3,.62,1.83,1.09,.37-.42,.71-.85,1.04-1.3-.71-.99-1.44-1.97-2.21-2.91-.4-.5-.8-1.07-1.33-1.44Z"></path><path d="M78.55,55.43h0c.9,.61,1.45,1.53,2.31,2.17,.28,.21,.55,.41,.8,.63,.37-.92,.69-1.87,.97-2.83-1.37-.04-2.73-.03-4.1,.03Z"></path><path d="M46.43,46.08c1.13-5.12,2.21-10.26,3.66-15.3,2.72-9.47,6.82-18.47,10.93-27.4-1.84-.63-3.75-.95-5.7-.87-2.19,.09-4.31,.7-6.39,1.34-3.96,1.21-7.84,2.73-11.49,4.71-12.19,6.6-21.35,18.84-21.74,33.02-.19,6.8,1.44,14.54,7.52,18.48,2.93,1.9,6.35,2.61,9.81,2.28,3.65-.36,7.12-1.72,10.49-3.1,.95-4.39,1.94-8.77,2.91-13.15Z"></path><path d="M80.03,46.38c1.17,1.08,2.52,1.94,3.9,2.71,.15-1.16,.26-2.32,.31-3.49-1.58,.15-3.17,.21-4.76,.22,.18,.19,.35,.38,.54,.55Z"></path><path d="M74.16,63c-.13-.05-.27-.1-.4-.15,.72,1.14,1.36,2.34,1.91,3.58,.72-.54,1.38-1.13,2-1.78-.56-.49-1.23-.84-1.93-1.1-.52-.2-1.05-.37-1.57-.55Z"></path><path d="M77.74,54.91c.05-.05,.11-.09,.2-.1,1.62-.09,3.25-.1,4.87-.04,.32-1.17,.59-2.36,.81-3.55-3.6,.35-7.21,.64-10.82,.88,1.69,.84,3.36,1.79,4.94,2.82Z"></path><path d="M78.65,45.82c-1.04,0-2.09-.03-3.13-.07-1.31-.06-2.62-.13-3.93-.21-.95-.06-1.92-.12-2.81-.5-1.4,.56-3.03,.46-4.5,.34-1.15-.09-2.24-.4-3.28-.83,.41,.53,.81,1.07,1.29,1.54,.92,.9,2.11,1.6,3.15,2.36,1.06,.77,2.07,1.5,3.32,1.95,1.08,.39,2.16,.79,3.2,1.28,.05-.09,.12-.17,.25-.18,3.85-.24,7.68-.56,11.52-.93,.04-.27,.07-.54,.11-.8-1.35-.75-2.67-1.57-3.85-2.58-.49-.42-.92-.89-1.34-1.36Z"></path><path d="M56.88,58.77c-1.9-1.9-3.57-4.04-5.29-6.1-.44-.52-.9-1.04-1.32-1.58-.37-.47-.63-1.03-1.08-1.44-.47-.42-.98-.7-1.4-1.18-.16-.19-.32-.39-.46-.59-.02,.08-.03,.16-.05,.24-.22,1-.45,2-.67,3.01,2.51,2.29,4.18,5.26,4.89,8.46,.02,0,.03,.01,.05,.02,3.46,2.76,6,6.57,7.24,10.81,1.01,.15,2.04,.22,3.07,.23-.14-3.26-.86-6.47-2.18-9.46-.96-.78-1.92-1.55-2.79-2.43Z"></path><path d="M69.48,58.53c-.73-.72-1.51-1.41-2-2.33-.47-.1-.94-.21-1.41-.34-2.43-.71-4.67-1.87-6.89-3.08-1.09-.59-2.18-1.18-3.18-1.91-.93-.68-1.76-1.49-2.58-2.29-1.59-1.55-3.24-3.13-5.42-3.72l-.48,2.18c.41,.61,.84,1.18,1.42,1.64,.39,.31,.79,.56,1.1,.97,.85,1.11,1.68,2.21,2.58,3.28,1.77,2.11,3.48,4.32,5.52,6.18,.52,.48,1.06,.93,1.6,1.38,.05-.05,.11-.1,.2-.11,1.53-.18,2.94,.4,4.33,.97,1.35,.55,2.82,.87,4.08,1.63,2,1.21,4.08,2.72,5.4,4.7,.03-.02,.07-.04,.11-.05,.44-.25,.86-.52,1.27-.8-.87-2-1.97-3.89-3.3-5.62-.73-.94-1.52-1.83-2.37-2.66Z"></path><path d="M46.45,51.85c-.55,2.44-1.08,4.89-1.61,7.33,.06,.07,.1,.14,.13,.22,.98,3.16,3.07,5.85,5.73,7.79,1.5-5.51-.12-11.39-4.25-15.35Z"></path><path d="M51.69,60.57c.36,2.31,.23,4.7-.44,7.02,.05,.03,.1,.07,.15,.1,2.04,1.34,4.32,2.18,6.69,2.62-1.17-3.78-3.39-7.16-6.4-9.74Z"></path><path d="M60.67,62.02c1.07,2.76,1.69,5.66,1.82,8.62,.11,0,.22,0,.33,0,1.23-.05,2.47-.2,3.69-.43-.32-2.37-2.18-4.62-3.73-6.26-.66-.7-1.38-1.32-2.12-1.93Z"></path><path d="M68.04,63.52c-1.24-.75-2.71-1.07-4.04-1.61-1.17-.48-2.35-.93-3.61-.9,1.33,1.1,2.65,2.2,3.77,3.55,1.3,1.57,2.69,3.46,2.99,5.54,2.1-.45,4.16-1.17,6.05-2.14-1.27-1.87-3.25-3.3-5.15-4.45Z"></path><path d="M44.58,62.28c.28-1.2-1.56-1.71-1.84-.51-2.66,11.48-1.53,23.27,0,34.83,.16,1.2,2.07,1.22,1.91,0-1.5-11.37-2.69-23.02-.07-34.32Z"></path></svg>