<svg xmlns="http://www.w3.org/2000/svg" xmlns:xlink="http://www.w3.org/1999/xlink" version="1.1" x="0px" y="0px" viewBox="0 0 32 32" enable-background="new 0 0 32 32" xml:space="preserve"><g display="none"><rect x="-84.243" y="31.996" display="inline"  width="437.207" height="10"></rect></g><g><g><path d="M6.983,5.262L6.404,5.489l0.345,0.517c0.086,0.129,2.136,3.156,4.925,3.502c0.174,0.021,0.346,0.032,0.517,0.032    c1.052,0,2.052-0.417,2.987-1.221c2.2,1.797,3.646,3.973,4.579,6.052c-4.5-4.747-9.508-0.961-9.561-0.921l-0.502,0.39l0.497,0.396    c2.46,1.957,4.685,2.511,6.414,2.511c2.165,0,3.555-0.867,3.655-0.933l0.061-0.039c1.148,3.204,1.181,5.846,1.181,5.894h1    c0-0.204-0.033-2.933-1.215-6.236c2.485-1.057,4.136-2.514,4.893-4.343c0.959-2.316,0.116-4.347,0.08-4.433l-0.201-0.473    l-0.468,0.215c-3.965,1.824-5.007,4.866-5.242,6.846c-0.987-1.971-2.434-3.985-4.54-5.701c1.849-0.996,4.571-3.575,3.014-7.091    l-0.195-0.44L18.18,0.19c-0.046,0.019-4.452,1.857-3.394,6.777C13.593,5.918,10.622,3.842,6.983,5.262z M11.37,13.872    c1.312-0.755,4.685-2.125,7.83,1.362C18.04,15.73,15.066,16.522,11.37,13.872z M25.495,7.559c0.154,0.651,0.298,1.849-0.239,3.146    c-0.616,1.488-1.952,2.712-3.977,3.644C21.255,12.946,21.635,9.593,25.495,7.559z M18.095,1.348    c0.843,2.65-1.325,4.412-2.404,5.101C15.182,3.406,17.161,1.885,18.095,1.348z M14.236,7.805c-0.778,0.573-1.599,0.813-2.437,0.71    c-1.691-0.208-3.139-1.712-3.813-2.533C10.995,5.163,13.36,6.986,14.236,7.805z"></path><path d="M24.045,25.872c0.117-0.276,0.102-0.583-0.046-0.865c-0.319-0.613-1.384-1.562-6.907-2.717    c-5.825-1.22-9.964-0.041-10.137,0.01l-0.359,0.104v8.91l0.726-0.365c0.958-0.482,3.739-1.596,5.053-0.961    c1.827,0.882,6.29,2.009,9.343,2.009c0.283,0,0.553-0.01,0.809-0.03c3.272-0.261,8.246-4.313,9.162-5.599    c0.541-0.76,0.246-1.256,0.094-1.434c-0.668-0.785-2.527-0.447-4.022,0.293c-2.029,1.009-6.778,2.363-9.936,1.102    C23.678,26.734,23.913,26.18,24.045,25.872z M15.933,25.177l-1.39-0.121l0.997,0.977c3.589,3.513,10.903,0.965,12.665,0.091    c1.464-0.728,2.638-0.709,2.795-0.591c0,0.001-0.002,0.079-0.127,0.255c-0.798,1.12-5.544,4.952-8.428,5.183    c-2.808,0.226-7.782-0.988-9.636-1.883c-0.43-0.207-0.931-0.29-1.457-0.29c-1.353,0-2.869,0.547-3.757,0.925V23.17    c1.108-0.247,4.676-0.866,9.291,0.098c4.843,1.013,5.93,1.836,6.171,2.111C22.119,25.557,18.788,25.424,15.933,25.177z"></path><path d="M0,22.308v9.69h5.398v-9.69H0z M4.398,30.998H1v-7.69h3.398V30.998z"></path></g></g></svg>