<svg xmlns="http://www.w3.org/2000/svg" xmlns:xlink="http://www.w3.org/1999/xlink" version="1.1" x="0px" y="0px" viewBox="0 0 100 100" enable-background="new 0 0 100 100" xml:space="preserve"><path d="M89.1,81.9h-3H86c-9,0-13.6-10.7-13.6-31.9c0-22.9-5.5-34.6-16.2-34.6H42H26.7H14.1h-0.2h-3c-0.7,0-1.3,0.6-1.3,1.3  s0.6,1.3,1.3,1.3h3H14c9,0,13.6,10.7,13.6,31.9c0,22.9,5.5,34.6,16.2,34.6H58h15.3h12.6h0.2h3c0.7,0,1.3-0.6,1.3-1.3  S89.8,81.9,89.1,81.9z M56.3,18.1c9,0,13.6,10.7,13.6,31.9c0,16.6,2.9,27.2,8.5,31.9C67.5,81.3,62,70.6,62,50  c0-16.6-3.5-27.3-10.5-31.9H56.3z M42,18.1c11.5,0,17.3,10.7,17.3,31.9c0,16.3,3.4,26.9,10.1,31.6C57.3,79.9,51.3,69.5,51.3,50  c0-16.6-4.4-27.3-13-31.9H42z M43.7,81.9c-9,0-13.6-10.7-13.6-31.9c0-16.6-2.9-27.2-8.5-31.9C32.5,18.7,38,29.4,38,50  c0,16.6,3.5,27.3,10.5,31.9H43.7z M58,81.9c-11.5,0-17.3-10.7-17.3-31.9c0-16.3-3.4-26.9-10.1-31.6C42.7,20.1,48.7,30.5,48.7,50  c0,16.6,4.4,27.3,13,31.9H58z"></path></svg>