<svg xmlns="http://www.w3.org/2000/svg" xmlns:xlink="http://www.w3.org/1999/xlink" version="1.1" x="0px" y="0px" viewBox="0 0 100 100" enable-background="new 0 0 100 100" xml:space="preserve"><g><path fill-rule="evenodd" clip-rule="evenodd" d="M66.972,18.779c-2.676,5.684-1.706,9.791,4.207,5.994   c-0.877,3.726-10.544,10.62-5.869,14.12c3.327,2.504,5.465-2.634,11.422-3.205C70.708,43.764,90.228,36.932,95,38.55   c-5.198,0.624-17.218,6.52-6.815,11.527c-3.635-0.276-7.365,0.641-8.552,4.543c-1.25,4.12,5.379,6.268,7.298,7.93   c-8.654-1.204-15.874-0.947-17.493,1.188c-1.238,1.634,0.808,4.366,7.999,8.378c0.864,0.367,1.565,0.725,2.363,0.597   c-0.336,0.106-1.237,0.533-2.873,0.229c-5.865-1.097-17.888-4.192-17.573,1.137c-0.026,0.288,0.042,0.432-0.243,0.558   c-4.755-6.516-8.592-6.508-9.739-1.574c-2.288-6.106-9.507-9.153-9.67-13.16C32.937,72.601,28.839,80.19,22.933,87.611   c-1.722,2.162-3.436,4.478-5.74,6.569c-0.358,0.329-0.828,0.986-1.5,0.648c-0.183-0.574-0.823-1.776,0.417-1.64   c10.728-8.465,18.685-25.857,22.315-33.099c-3.173,2.701-13.135,2.284-14.618,3.997c3.24-3.847,4.318-7.023-3.293-6.57   c1.825-1.36,1.488-4.397,0.202-5.946C17.125,47.244,5.132,44.414,5,44.221c1.253-0.058,14.498,1.94,15.527-2.902   c0.955-4.5-7.667-10.105-7.673-11.081c2.14,1.733,10.09,4.257,4.089-4.595c8.168-0.477,2.359-11.458-0.27-14.54   c6.404,4.49,7.948,11.829,11.922,8.018c1.173,2.316,4.055,5.718,5.43,1.682c0.06-0.176,0.107-0.531,0.196-0.732   c1.709,2.087,1.73,10.614,5.493,10.452c7.638-0.328,4.708-15.268,7.878-19.322c-0.603,3.901,2.369,8.56,6.165,3.893   c5.111,2.832,7.713-4.769,8.136-10.016C63.42,6.429,59.456,22.038,66.972,18.779L66.972,18.779z"></path></g></svg>