<svg xmlns="http://www.w3.org/2000/svg" viewBox="0 0 39.76 41.19" x="0px" y="0px"><title>Heart_leaf</title><g data-name="Layer 2"><g data-name="Layer 45"><path d="M29.42,5.45a10.31,10.31,0,0,0-8.74,4.84V.8a.8.8,0,0,0-1.6,0v9.48A10.33,10.33,0,0,0,0,15.77a5.17,5.17,0,0,0,0,.66,10.13,10.13,0,0,0,.62,2.94c3,9.64,13.24,17.72,19.09,21.68a.82.82,0,0,0,.45.14.76.76,0,0,0,.47-.16,85.59,85.59,0,0,0,8.62-7.43c5.95-5.87,9.4-11.16,10.26-15.69a10.82,10.82,0,0,0,.22-2.12A10.35,10.35,0,0,0,29.42,5.45ZM38,17.6c-1.74,9.18-15.17,19.8-17.8,21.81C7.31,30.59,3.38,22.79,2.16,18.86a9.06,9.06,0,0,1-.54-2.55c0-.31,0-.48,0-.52a8.73,8.73,0,0,1,17.46-.42L6.79,22.08a.8.8,0,0,0-.32,1.08.82.82,0,0,0,.71.42.9.9,0,0,0,.38-.1l11.52-6.3v5.13l-8.44,4.74a.8.8,0,0,0,.78,1.39l7.66-4.3v4.52l-4.29,2.51a.8.8,0,0,0,.41,1.48.76.76,0,0,0,.4-.11l3.48-2v4.63a.8.8,0,0,0,1.6,0V30.51l3.48,2a.76.76,0,0,0,.4.11.8.8,0,0,0,.69-.39A.79.79,0,0,0,25,31.17l-4.29-2.51V24.14l7.66,4.3a.78.78,0,0,0,.39.1.79.79,0,0,0,.39-1.49l-8.44-4.74V17.18l11.52,6.3a.86.86,0,0,0,.38.1.8.8,0,0,0,.39-1.5L20.7,15.37a8.73,8.73,0,0,1,17.46.42A8.63,8.63,0,0,1,38,17.6Z"></path></g></g></svg>