<svg xmlns="http://www.w3.org/2000/svg" xmlns:xlink="http://www.w3.org/1999/xlink" version="1.0" x="0px" y="0px" viewBox="0 0 100 100" enable-background="new 0 0 100 100" xml:space="preserve"><g><path  d="M82.5,30c0-8.284-6.715-15-15-15c-0.084,0-0.167,0.005-0.252,0.007c0.165-0.811,0.252-1.648,0.252-2.507   C67.5,5.596,61.904,0,55,0c-1.778,0-3.468,0.374-5,1.043C48.469,0.374,46.778,0,45,0c-6.904,0-12.5,5.596-12.5,12.5   c0,0.858,0.087,1.696,0.252,2.507C32.668,15.005,32.584,15,32.5,15c-8.284,0-15,6.716-15,15c0,6.544,4.191,12.105,10.035,14.155   C25.935,46.541,25,49.411,25,52.5c0,6.734,4.437,12.431,10.546,14.328C33.649,69.019,32.5,71.875,32.5,75   c0,6.904,5.596,12.5,12.5,12.5c0.809,0,1.596-0.087,2.361-0.234V90l0.139,10H50l2.639-10v-2.734C53.404,87.413,54.191,87.5,55,87.5   c6.904,0,12.5-5.596,12.5-12.5c0-3.125-1.149-5.981-3.046-8.172C70.563,64.931,75,59.234,75,52.5c0-3.089-0.935-5.959-2.535-8.345   C78.309,42.105,82.5,36.544,82.5,30z M62.222,12.5c0,0.49-0.049,0.979-0.146,1.453l-1.315,6.459l6.59-0.129   c0.061-0.001,0.121-0.003,0.182-0.005h0.006c3.862,0.015,7.189,2.299,8.743,5.58c-4.565,1.281-13.944,3.578-23.644,3.951V5.681   C53.396,5.418,54.188,5.278,55,5.278C58.982,5.278,62.222,8.518,62.222,12.5z M32.46,20.278h0.006   c0.061,0.002,0.121,0.004,0.182,0.005l6.59,0.129l-1.315-6.458c-0.097-0.475-0.146-0.963-0.146-1.454   c0-3.982,3.24-7.222,7.222-7.222c0.812,0,1.604,0.14,2.361,0.403v24.128c-9.685-0.374-19.073-2.671-23.644-3.952   C25.272,22.576,28.6,20.293,32.46,20.278z M22.848,31.103c5.024,1.389,14.527,3.633,24.513,3.987v17.176   c-6.565-0.453-12.871-2.443-16.247-3.678c0.227-0.516,0.486-1.019,0.804-1.493l3.799-5.663l-6.435-2.257   C25.743,37.934,23.268,34.768,22.848,31.103z M45,82.222c-3.982,0-7.222-3.24-7.222-7.222c0-1.732,0.625-3.408,1.759-4.719   l5.279-6.102l-7.705-2.393c-3.621-1.124-6.185-4.183-6.724-7.845c3.913,1.366,10.264,3.205,16.974,3.612v24.266   C46.604,82.082,45.812,82.222,45,82.222z M62.889,61.787l-7.706,2.393l5.279,6.102c1.135,1.311,1.759,2.987,1.759,4.719   c0,3.982-3.24,7.222-7.222,7.222c-0.812,0-1.604-0.14-2.361-0.403V57.554c6.709-0.407,13.061-2.246,16.974-3.612   C69.073,57.604,66.51,60.663,62.889,61.787z M70.718,39.175l-6.435,2.257l3.799,5.663c0.318,0.474,0.577,0.977,0.804,1.493   c-3.376,1.234-9.681,3.225-16.247,3.677V35.09c9.986-0.354,19.489-2.598,24.513-3.987C76.732,34.768,74.257,37.934,70.718,39.175z"></path></g></svg>