<svg xmlns="http://www.w3.org/2000/svg" xmlns:xlink="http://www.w3.org/1999/xlink" version="1.1" x="0px" y="0px" viewBox="0 0 100 100" enable-background="new 0 0 100 100" xml:space="preserve"><path d="M80.639,3.882c0,0-44.68,11.369-56.112,32.378c-11.43,21.01-3.044,45.29-3.044,45.29s-5.454,8.3-8.416,8.565  c-2.961,0.267-2.961,0.267-2.961,0.267l0.928,5.199c0,0,8.884-0.799,11.644-5.87c2.759-5.073,7.232-6.393,7.232-6.393  s21.264,4.058,40.781-26.635C90.207,25.987,80.639,3.882,80.639,3.882z M77.031,24.927l-13.45,3.843l-6.86,9.07l17.391-1.11  c0.242-0.015,0.451,0.168,0.466,0.41c0.017,0.242-0.169,0.452-0.41,0.467l-18.148,1.159L50.095,46.6l19.086-0.571  c0.242-0.007,0.445,0.183,0.451,0.427c0.008,0.242-0.185,0.444-0.426,0.452L49.415,47.5l-4.6,6.083l21.423,0.559  c0.242,0.006,0.434,0.21,0.427,0.451c-0.007,0.24-0.203,0.429-0.44,0.429c-0.003,0-0.008,0-0.011,0l-22.051-0.576l-4.96,6.558  l19.743,1.847c0.242,0.023,0.42,0.236,0.395,0.48c-0.021,0.226-0.211,0.398-0.436,0.398c-0.014,0-0.027-0.001-0.041-0.002  l-20.286-1.897l-4.58,6.056l18.033,2.088c0.239,0.029,0.414,0.245,0.386,0.487c-0.027,0.225-0.218,0.391-0.44,0.391  c-0.016,0-0.032-0.001-0.049-0.003L33.381,68.7l-5.983,7.911c-0.087,0.115-0.218,0.175-0.352,0.175  c-0.092,0-0.185-0.029-0.264-0.089c-0.194-0.147-0.233-0.421-0.086-0.616l5.984-7.911l-7.029-17.38  c-0.091-0.224,0.017-0.481,0.243-0.572c0.224-0.091,0.481,0.017,0.573,0.242l6.832,16.892l4.249-5.618l-0.117-0.011L28.82,41.894  h0.002c-0.097-0.223,0.003-0.482,0.229-0.579c0.223-0.097,0.481,0.006,0.578,0.228l8.404,19.35l0.14,0.013l4.974-6.576  l-8.977-18.752c-0.104-0.219-0.013-0.482,0.206-0.586c0.219-0.107,0.481-0.014,0.588,0.205l8.781,18.343l5.072-6.706l-8.911-19.374  c-0.101-0.221-0.004-0.482,0.217-0.585c0.219-0.101,0.481-0.004,0.583,0.217l8.714,18.945l5.701-7.538l-6.71-15.2h0.002  c-0.099-0.221,0.002-0.482,0.224-0.58c0.223-0.099,0.482,0.002,0.581,0.225l6.512,14.751l6.898-9.12l-4.719-10.819v0.002  c-0.097-0.223,0.003-0.482,0.227-0.579c0.223-0.098,0.482,0.003,0.58,0.227l4.522,10.364l10.75-14.214  c0.147-0.195,0.424-0.233,0.616-0.086c0.194,0.147,0.232,0.423,0.085,0.616L64.464,27.602l12.326-3.519  c0.233-0.067,0.477,0.068,0.544,0.301C77.4,24.619,77.264,24.861,77.031,24.927z"></path></svg>