<svg xmlns:x="http://ns.adobe.com/Extensibility/1.0/" xmlns:i="http://ns.adobe.com/AdobeIllustrator/10.0/" xmlns:graph="http://ns.adobe.com/Graphs/1.0/" xmlns="http://www.w3.org/2000/svg" xmlns:xlink="http://www.w3.org/1999/xlink" xmlns:a="http://ns.adobe.com/AdobeSVGViewerExtensions/3.0/" version="1.1" x="0px" y="0px" viewBox="0 0 100 100" enable-background="new 0 0 100 100" xml:space="preserve"><path d="M74.7,11.2c-3.5-3.5-8.1-5.4-13.1-5.4c-5.2,0-9.4,2-11.6,5.2c-2.2-3.1-6.4-5.2-11.6-5.2c-5,0-9.7,1.9-13.1,5.4  c-4.1,4.2-6.3,10.4-6.3,18c0,2.3,0.2,4.6,0.6,6.8c0,0.1,0,0.2,0,0.3c0,0,0,0,0,0c3.9,23.4,25.2,43.2,28.9,46.5v9.8  c0,0.8,0.7,1.5,1.5,1.5s1.5-0.7,1.5-1.5v-9.8c3.7-3.3,25-23.1,28.9-46.6c0,0,0,0,0,0c0-0.1,0-0.2,0-0.3c0.4-2.3,0.6-4.5,0.6-6.8  C81,21.6,78.8,15.4,74.7,11.2z M72.6,13.4C76.1,17,78,22.4,78,29.2c0,2.2-0.2,4.4-0.6,6.6c-3,11.1-19.6,26.2-26,31.7V57.4  C55.2,54.3,75,37,75,22.3c0-9.2-7.6-13.4-14.7-13.4c-0.1,0-0.3,0-0.4,0c0.6-0.1,1.2-0.1,1.7-0.1C65.8,8.8,69.7,10.4,72.6,13.4z   M48.5,20.2v18.4c-4-3.8-11.3-11.9-11.3-18.4c0-1.8,0.6-3.2,1.7-4.2c1-0.9,2.3-1.4,3.8-1.4C45.5,14.6,48.5,16.4,48.5,20.2z   M51.5,20.2c0-3.8,3-5.6,5.8-5.6c1.5,0,2.8,0.5,3.8,1.4c1.1,1,1.7,2.4,1.7,4.2c0,6.6-7.4,14.6-11.3,18.4V20.2z M36.9,13.7  c-1.2,1.1-2.7,3.1-2.7,6.5c0,9.3,11.6,20.2,14.3,22.5v10.7C42.6,48.1,28,33.9,28,22.3c0-7.2,5.9-10.4,11.7-10.4c0.2,0,0.4,0,0.6,0  C39,12.3,37.8,12.9,36.9,13.7z M65.8,20.2c0-3.4-1.5-5.4-2.7-6.5c-1-0.9-2.2-1.5-3.5-1.8c0.2,0,0.4,0,0.6,0c3,0,6,0.9,8.1,2.5  c2.4,1.9,3.7,4.5,3.7,7.9c0,11.6-14.6,25.8-20.5,31.1V42.7C54.2,40.4,65.8,29.5,65.8,20.2z M27.4,13.4c2.9-2.9,6.8-4.6,11-4.6  c0.6,0,1.2,0,1.7,0.1c-0.1,0-0.3,0-0.4,0C32.7,8.9,25,13.1,25,22.3c0,14.7,19.8,32,23.5,35.1v10.1c-6.3-5.4-23-20.6-25.9-31.7  c-0.4-2.2-0.6-4.4-0.6-6.6C22,22.4,23.9,17,27.4,13.4z M27.1,49.9c7.8,10,18.8,19.3,21.4,21.5v7.4C43.8,74.2,33.4,63.3,27.1,49.9z   M51.5,78.8v-7.4c2.6-2.2,13.6-11.5,21.4-21.5C66.6,63.3,56.2,74.3,51.5,78.8z"></path></svg>