<svg xmlns="http://www.w3.org/2000/svg" xmlns:xlink="http://www.w3.org/1999/xlink" version="1.1" x="0px" y="0px" viewBox="0 0 100 100" enable-background="new 0 0 100 100" xml:space="preserve"><g><path d="M80.776,90.246C61.364,54.388,46.414,40.6,46.414,40.6c24.069,33.01,30.102,52.027,30.102,52.027L80.776,90.246z"></path><path d="M62.603,29.786C48.688,12.088,19.224,7.374,19.224,7.374s6.283,4.575,2.798,36.469C18.538,75.735,50.02,80.03,50.02,80.03   s7.88,2.613,18.063,0.681l0.52-0.281c-0.85-1.956-1.856-4.134-3.066-6.551c-2.62-1.617-9.563-5.394-20.972-8.065l-4.016-0.941   l4.083-0.588c0.376-0.053,8.633-1.169,17.486,3.146c-1.793-3.214-3.762-6.506-5.865-9.814c-2.586-1.751-6.966-4.063-13.331-5.324   l-4.488-0.89l4.53-0.645c0.214-0.031,4.612-0.633,9.042,0.433c-3.096-4.526-6.46-9.12-10.021-13.681l-3.615-4.63l4.696,3.529   c0.149,0.112,3.519,2.668,8.925,8.657c0.54-3.527,0.015-7.124,0.009-7.165l-0.495-3.312l1.905,2.755   c2.402,3.474,1.992,8.248,1.459,11.016c2.911,3.446,5.844,7.255,8.732,11.347c0.982-3.142,1.306-6.658,1.31-6.701l0.301-3.379   l1.201,3.174c1.241,3.282,0.486,8.039-0.139,10.79c2.865,4.271,5.672,8.816,8.401,13.58l0.263-0.142   C74.938,77.029,76.517,47.482,62.603,29.786z"></path></g></svg>