<svg xmlns="http://www.w3.org/2000/svg" xmlns:xlink="http://www.w3.org/1999/xlink" xmlns:serif="http://www.serif.com/" viewBox="0 0 267 267" version="1.1" xml:space="preserve"  x="0px" y="0px" fill-rule="evenodd" clip-rule="evenodd" stroke-linejoin="round" stroke-miterlimit="2"><path d="M109.841,63.173c-20.915,-31.859 -60.001,-31.25 -79.814,-14.358c-20.23,17.247 -20.681,51.737 -0.461,86.232c12.48,22.773 42.472,45.61 70.015,62.267c0.003,0.002 0.006,0.004 0.009,0.005c6.313,3.776 14.19,3.775 20.503,-0.001c0.003,-0.002 0.005,-0.004 0.008,-0.005c27.544,-16.656 57.536,-39.493 70.016,-62.266c20.22,-34.495 19.77,-68.984 -0.461,-86.232c-19.813,-16.892 -58.899,-17.501 -79.814,14.359l-0.001,-0.001Zm-1.797,5.005c0.374,0.638 1.058,1.029 1.798,1.029c0.739,0 1.423,-0.391 1.797,-1.029c18.835,-32.117 56.478,-32.251 75.314,-16.192c18.998,16.196 18.552,48.587 -0.445,80.979c-0.011,0.018 -0.021,0.035 -0.031,0.053c-12.182,22.257 -41.608,44.448 -68.526,60.726c-4.994,2.986 -11.225,2.986 -16.22,0.001c-26.917,-16.279 -56.343,-38.47 -68.525,-60.727c-0.01,-0.018 -0.02,-0.035 -0.03,-0.053c-18.997,-32.392 -19.443,-64.783 -0.446,-80.979c18.836,-16.059 56.479,-15.925 75.314,16.192Z"></path><path d="M197.111,111.33c-0.49,0.241 -0.864,0.666 -1.044,1.181c-2.345,6.72 -5.532,13.587 -9.559,20.454c-0.011,0.018 -0.021,0.035 -0.031,0.053c-10.702,19.552 -34.727,39.049 -58.645,54.541c-0.498,0.323 -0.835,0.843 -0.926,1.43c-0.091,0.586 0.073,1.184 0.45,1.642c11.127,13.528 28.854,26.501 45.383,36.498c0.003,0.002 0.006,0.004 0.009,0.005c4.867,2.911 10.94,2.91 15.807,-0.001c0.003,-0.002 0.006,-0.003 0.009,-0.005c20.578,-12.444 42.971,-29.521 52.298,-46.536c15.204,-25.941 14.754,-51.877 -0.46,-64.848c-10.52,-8.969 -28.215,-11.868 -43.291,-4.414Zm2.602,3.372c13.32,-6.211 28.749,-3.662 37.985,4.213c0,-0 0,-0 0,-0c13.982,11.919 13.536,35.756 -0.445,59.595c-0.01,0.018 -0.021,0.036 -0.03,0.054c-9.031,16.497 -30.857,32.929 -50.81,44.995c-3.548,2.121 -7.975,2.122 -11.523,0.001c-15.404,-9.316 -31.901,-21.245 -42.811,-33.797c23.845,-15.669 47.352,-35.217 58.038,-54.716c4.002,-6.827 7.199,-13.655 9.595,-20.346l0.001,0.001Z"></path><path d="M38.025,78.051c0,0.005 0.001,0.009 0.001,0.013c1.228,14.805 5.873,45.744 22.489,62.36c7.72,7.72 15.883,10.354 23.327,10.431c10.794,0.156 20.695,-5.978 25.362,-15.713c4.667,-9.735 3.25,-21.295 -3.631,-29.614c-0.002,-0.003 -0.004,-0.005 -0.006,-0.007c-0.991,-1.186 -2.085,-2.385 -3.292,-3.592c-3.82,-3.821 -8.389,-5.395 -13.563,-6.413c-4.698,-0.924 -9.924,-1.386 -15.495,-3.043c-11.964,-3.558 -21.496,-12.151 -26.913,-18.001c-1.348,-1.496 -3.528,-1.974 -5.403,-1.169c-1.876,0.805 -3.032,2.713 -2.876,4.748Zm4.154,-0.32c-0.018,-0.257 0.128,-0.497 0.364,-0.599c0.237,-0.101 0.513,-0.041 0.686,0.151c0.006,0.006 0.012,0.013 0.018,0.02c5.785,6.248 16.005,15.364 28.783,19.164c5.71,1.698 11.062,2.19 15.877,3.137c4.339,0.854 8.219,2.068 11.422,5.271c1.113,1.113 2.122,2.218 3.036,3.312c5.843,7.066 7.046,16.885 3.082,25.154c-3.965,8.27 -12.376,13.48 -21.547,13.348c-0.003,-0 -0.006,-0 -0.009,-0c-6.528,-0.066 -13.658,-2.44 -20.429,-9.212c-15.896,-15.895 -20.106,-45.575 -21.283,-59.746l0,-0Z"></path><path d="M181.657,78.103c0.001,-0.004 0.001,-0.009 0.001,-0.013c0.157,-2.035 -0.999,-3.944 -2.875,-4.748c-1.876,-0.805 -4.055,-0.327 -5.422,1.189c-5.399,5.83 -14.93,14.423 -26.895,17.981c-5.571,1.656 -10.796,2.119 -15.494,3.043c-5.175,1.018 -9.743,2.592 -13.563,6.412c-1.208,1.208 -2.302,2.406 -3.292,3.592c-0.002,0.003 -0.004,0.005 -0.006,0.008c-6.881,8.319 -8.299,19.879 -3.631,29.614c4.667,9.735 14.567,15.868 25.362,15.713c7.444,-0.077 15.606,-2.711 23.326,-10.431c16.616,-16.616 21.262,-47.555 22.489,-62.36Zm-4.153,-0.333c-1.176,14.171 -5.386,43.85 -21.282,59.746c-6.771,6.772 -13.901,9.146 -20.43,9.212c-0.003,-0 -0.006,-0 -0.009,-0c-9.17,0.132 -17.581,-5.078 -21.546,-13.348c-3.965,-8.269 -2.761,-18.088 3.082,-25.154c0.913,-1.094 1.923,-2.199 3.036,-3.312c3.203,-3.203 7.083,-4.417 11.421,-5.271c4.815,-0.947 10.168,-1.439 15.878,-3.137c12.778,-3.8 22.997,-12.916 28.782,-19.164c0.007,-0.007 0.013,-0.014 0.019,-0.021c0.173,-0.191 0.448,-0.252 0.685,-0.15c0.237,0.102 0.383,0.342 0.364,0.599l0,-0Z"></path><path d="M108.073,130.225c-0,-0 -12.777,0.735 -26.131,-6.517c-6.937,-3.767 -14.021,-9.667 -19.588,-18.902c-0.29,-0.501 -0.932,-0.673 -1.434,-0.383c-0.501,0.29 -0.673,0.932 -0.383,1.434c5.49,9.909 12.721,16.355 19.86,20.576c14.064,8.318 27.845,7.955 27.845,7.955c1.149,-0.047 2.044,-1.018 1.997,-2.166c-0.047,-1.149 -1.017,-2.044 -2.166,-1.997Z"></path><path d="M111.48,134.427c0,-0 13.781,0.363 27.846,-7.955c7.138,-4.221 14.37,-10.667 19.859,-20.576c0.29,-0.502 0.119,-1.144 -0.383,-1.434c-0.501,-0.29 -1.144,-0.118 -1.433,0.383c-5.568,9.235 -12.651,15.135 -19.588,18.902c-13.354,7.252 -26.132,6.516 -26.132,6.516c-1.148,-0.046 -2.119,0.849 -2.166,1.997c-0.046,1.149 0.849,2.12 1.997,2.167Z"></path><path d="M143.69,155.753c-10.08,-1.101 -17.921,0.737 -24.052,3.429c-2.299,1.009 -4.354,2.168 -6.185,3.401c-0.638,0.43 -0.987,1.175 -0.909,1.94l1.41,13.808c0.091,0.89 0.74,1.623 1.613,1.82c0.873,0.198 1.775,-0.185 2.24,-0.949c1.509,-2.482 4.042,-5.631 8.088,-8.146c4.225,-2.626 9.832,-4.675 17.352,-4.937c2.867,0.064 5.234,-2.153 5.343,-4.986c0.11,-2.833 -2.079,-5.227 -4.9,-5.38Zm-26.871,9.613c1.367,-0.852 2.862,-1.652 4.494,-2.369c5.601,-2.459 12.77,-4.113 21.986,-3.096c0.049,0.006 0.098,0.009 0.148,0.011c0.563,0.022 1.002,0.497 0.98,1.059c-0.022,0.563 -0.497,1.002 -1.059,0.981c-0.05,-0.002 -0.099,-0.003 -0.148,-0.001c-8.475,0.275 -14.775,2.614 -19.525,5.566c-2.518,1.566 -4.534,3.342 -6.135,5.098l-0.741,-7.249Z"></path><path d="M118.93,193.148l-0.979,0.596c-4.994,2.986 -11.225,2.986 -16.22,0.001l-0.978,-0.595c1.867,-1.765 3.209,-3.992 3.903,-6.437c0.079,-0.278 0.099,-0.57 0.059,-0.856c-0.303,-2.175 -1.92,-10.926 -8.899,-17.841c-4.325,-4.286 -10.484,-7.97 -19.466,-9.134c-0.046,-0.006 -0.092,-0.01 -0.137,-0.013c-0.562,-0.035 -0.99,-0.52 -0.955,-1.082c0.035,-0.562 0.52,-0.99 1.082,-0.954c0.046,0.002 0.092,0.004 0.138,0.004c10.041,-0.038 17.305,3.244 22.686,7.32c1.553,1.177 2.94,2.438 4.176,3.735c0.561,0.589 1.413,0.797 2.183,0.534c0.769,-0.263 1.315,-0.95 1.398,-1.759l0.559,-5.477c0.826,-8.087 1.102,-16.219 0.828,-24.341c0.315,-0.549 0.615,-1.121 0.896,-1.707c0.497,-1.036 0.059,-2.282 -0.978,-2.779c-1.037,-0.497 -2.282,-0.059 -2.779,0.978c-0.316,0.658 -0.66,1.297 -1.03,1.915c-0.207,0.346 -0.309,0.745 -0.294,1.148c0.302,8.128 0.039,16.269 -0.788,24.362c-0,0 -0.131,1.287 -0.131,1.287c-0.493,-0.415 -1,-0.82 -1.524,-1.217c-5.977,-4.528 -14.035,-8.199 -25.181,-8.166c-2.798,-0.138 -5.222,2.024 -5.4,4.857c-0.177,2.836 1.964,5.285 4.789,5.496c7.82,1.026 13.216,4.207 16.995,7.952c5.642,5.591 7.235,12.567 7.636,15.005c-0.535,1.626 -1.476,3.089 -2.748,4.254c0,-0 -1.869,1.711 -1.869,1.711c-0.482,0.441 -0.729,1.081 -0.668,1.731c0.061,0.65 0.423,1.234 0.978,1.577l3.378,2.066c6.313,3.776 14.19,3.775 20.503,-0.001l3.377,-2.066c0.555,-0.343 0.917,-0.927 0.978,-1.577c0.061,-0.65 -0.186,-1.291 -0.668,-1.731l-1.868,-1.71c-1.815,-1.662 -2.956,-3.932 -3.206,-6.38c-0.567,-5.555 -1.547,-15.151 -2.357,-23.088c-0.826,-8.081 -1.089,-16.209 -0.789,-24.326c0.015,-0.402 -0.088,-0.801 -0.295,-1.147c-0.37,-0.617 -0.713,-1.256 -1.028,-1.913c-0.497,-1.037 -1.743,-1.475 -2.779,-0.978c-1.037,0.497 -1.475,1.742 -0.978,2.779c0.28,0.585 0.58,1.157 0.897,1.716c-0.275,8.103 0.002,16.22 0.827,24.293c0.81,7.936 1.79,17.533 2.357,23.088c0.346,3.387 1.898,6.535 4.369,8.87Z"></path></svg>