<svg xmlns="http://www.w3.org/2000/svg" xmlns:xlink="http://www.w3.org/1999/xlink" version="1.1" x="0px" y="0px" viewBox="0 0 100 100" enable-background="new 0 0 100 100" xml:space="preserve"><g><path  d="M85.061,30.283"></path><path d="M59.329,27.518c-3.303,0.285-6.402,0.737-9.341,1.312C41.852,42.369,35.75,47.25,35.75,47.25l5.846-16.266   C15.546,39.444,7.55,60.233,13.878,76.716c0,0-8.585,10.587-6.289,18.357c0,0,1.279,0.276,3.78-3.125   c-0.898-2.471,0.249-7.855,4.745-12.685c0,0,71.103,40.131,76.687-69.789C92.801,9.475,88.466,25.478,59.329,27.518z M51.25,57.25   c-18.667,4.667-29.521,14.739-29.521,14.739S29.167,60.917,50.833,55.5C72.25,50,79.75,36.083,79.75,36.083   S73.5,51.833,51.25,57.25z"></path></g></svg>