<svg xmlns="http://www.w3.org/2000/svg" xmlns:xlink="http://www.w3.org/1999/xlink" version="1.1" x="0px" y="0px" viewBox="0 0 100 100" enable-background="new 0 0 100 100" xml:space="preserve"><path d="M25.713,86.494c-0.266-0.168-0.496-0.373-0.687-0.609c-0.621-0.774-2.032-2.534,8.339-15.727  c-2.969-0.163-6.385-0.404-9.195-1.052c-2.849-0.657-6.409-2.324-10.584-4.952c-1.622-1.021-2.937-1.938-3.643-2.432  c-0.179-0.125-0.316-0.222-0.407-0.283c-0.139-0.063-0.327-0.153-0.465-0.24c-0.88-0.555-0.83-1.375-0.793-1.612  c0.09-0.591,0.58-1.113,1.157-1.267c0.101-0.033,0.514-0.19,1.123-0.42c3.092-1.167,10.333-3.896,14.27-4.555  c0.589-0.098,1.341-0.104,2.209-0.049c-1.974-1.667-3.87-3.591-5.666-5.758c-9.548-11.518-3.439-28.021-3.174-28.718  c0.37-0.987,1.399-1.557,2.445-1.349c0.04,0.007,4.614,0.921,10.1,4.376c3.071,1.934,5.873,4.379,8.329,7.267  c2.064,2.427,3.875,5.014,5.415,7.73c0.593-2.5,1.572-4.82,2.952-7.012c5.339-8.477,23.646-16.57,27.263-18.106  c0.451-0.195,1.11-0.286,1.98,0.262c0.883,0.556,1.086,1.197,1.101,1.638l0.004,0.132c0.208,5.113,0.458,22.467-4.988,31.118  c-1.476,2.341-3.313,4.391-5.492,6.129c2.83,0.123,5.634,0.49,8.381,1.099c3.417,0.759,6.744,2.146,9.887,4.126  c5.347,3.366,8.317,7.266,8.442,7.43c0.246,0.329,0.94,1.5-0.553,2.743c-0.2,0.169-14.813,12.388-28.939,8.331  c-2.877-0.826-5.458-1.759-7.789-2.813c0.466,0.794,0.913,1.585,1.284,2.321c1.162,2.295,2.096,5.853,2.774,10.572  c0.981,6.83,0.695,7.092,0.174,7.565c-0.548,0.5-1.376,0.521-1.957,0.055c0.02,0.018-0.053-0.036-0.144-0.085l-1.792-1.12  c-5.486-3.455-9.359-6.356-11.51-8.623c-1.738-1.832-3.724-4.827-5.035-7.441l-5.276,9.471c-0.157,0.283-0.402,0.507-0.697,0.64  C33.08,85.938,28.077,87.982,25.713,86.494z M37.155,67.546c0.248,0.156,0.449,0.384,0.572,0.663  c0.228,0.513,0.148,1.112-0.205,1.549c-4.364,5.399-9.084,12.038-9.844,14.29c0.964,0.081,3.181-0.471,5.201-1.317l6.538-11.737  c0.296-0.532,0.883-0.831,1.488-0.761c0.601,0.071,1.103,0.501,1.268,1.085c0.672,2.402,3.43,6.972,5.567,9.226  c1.328,1.399,4.223,3.892,10.479,7.863c-0.38-3.627-1.253-9.602-2.877-12.809c-0.69-1.365-1.698-3.008-2.585-4.456  c-0.498-0.812-0.967-1.578-1.348-2.237c-0.338-0.587-0.24-1.324,0.232-1.804c0.479-0.534,1.289-0.665,1.916-0.27  c3.211,2.021,7.066,3.663,11.792,5.021c10.958,3.146,22.842-5.187,25.548-7.245c-1.112-1.254-3.484-3.671-6.924-5.837  c-2.85-1.795-5.857-3.053-8.938-3.736c-4.161-0.922-8.465-1.252-12.788-0.98c-0.706,0.044-1.351-0.414-1.539-1.098  s0.126-1.406,0.757-1.731c3.73-1.933,6.689-4.606,8.792-7.946c4.718-7.49,4.707-23.201,4.567-28.334  c-4.685,2.068-20.377,9.389-24.848,16.488c-1.962,3.116-2.996,6.545-3.157,10.483c-0.029,0.698-0.536,1.283-1.222,1.412  c-0.685,0.13-1.371-0.231-1.651-0.872c-1.787-4.076-4.196-7.911-7.161-11.396c-2.258-2.655-4.829-4.9-7.642-6.671  c-3.764-2.37-7.016-3.424-8.387-3.799c-1.044,3.164-4.588,15.974,2.925,25.036c2.816,3.399,5.877,6.149,9.097,8.177  c0.222,0.14,0.441,0.271,0.653,0.396c0.587,0.382,0.875,1.094,0.652,1.762c-0.221,0.667-0.877,1.091-1.577,1.019  c-0.459-0.048-1.085-0.136-1.792-0.235c-1.73-0.243-4.345-0.613-5.393-0.438c-3.143,0.525-8.999,2.643-12.321,3.883  c0.62,0.419,1.362,0.91,2.184,1.428c3.834,2.415,7.174,3.994,9.66,4.567c2.968,0.684,6.843,0.886,9.956,1.047l1.641,0.088  C36.7,67.332,36.944,67.413,37.155,67.546z"></path><path  stroke="#000000" stroke-width="3" stroke-linecap="round" stroke-linejoin="round" stroke-miterlimit="10" d="  M52.464,36.368"></path><path  stroke="#000000" stroke-width="3" stroke-linecap="round" stroke-linejoin="round" stroke-miterlimit="10" d="  M16.225,36.444"></path><path  stroke="#000000" stroke-width="3" stroke-linecap="round" stroke-linejoin="round" stroke-miterlimit="10" d="  M36.281,62.221"></path><path  stroke="#000000" stroke-width="3" stroke-linecap="round" stroke-linejoin="round" stroke-miterlimit="10" d="  M13.629,65.683"></path></svg>