<svg xmlns="http://www.w3.org/2000/svg" xmlns:xlink="http://www.w3.org/1999/xlink" viewBox="0 0 100 100" version="1.1" x="0px" y="0px"><title>81</title><desc>Created with Sketch.</desc><g stroke="none" stroke-width="1"  fill-rule="evenodd"><g ><path d="M52.8484375,96.7916262 C56.2818628,98.8559466 60.3233056,99.9634709 64.4742792,99.9634709 C66.0683173,99.9634709 67.6789067,99.8003641 69.2758657,99.4658981 C77.9202792,97.656432 84.8365402,91.3061893 88.2512235,82.043568 C90.5248393,75.8768204 91.7245666,68.9583738 91.832637,61.8588592 L52.8484375,93.2668689 L52.8484375,96.7916262 Z M47.9804023,47.895801 L19.4568804,24.9157039 C17.0347894,28.4016262 14.9846164,32.3149757 13.352851,36.5824515 L47.9804023,64.480267 L47.9804023,47.895801 Z M47.9804023,0.00128640777 C46.220851,1.91342233 40.5775812,7.70856796 32.9116428,12.2187621 C29.01259,14.5126942 25.4951912,17.4991019 22.4288158,21.0694903 L47.9804023,41.6554126 L47.9804023,0.00128640777 Z M78.2568308,20.9055825 C75.2242883,17.4080097 71.7563,14.4771845 67.9173674,12.2186893 C60.2767428,7.72330097 54.6122971,1.91334951 52.8483645,0 L52.8483645,41.3759709 L78.2568308,20.9055825 Z M52.8484375,64.2011408 L87.3951795,36.3683738 C85.7485666,32.1106068 83.6820856,28.2106068 81.2461208,24.7377913 L52.8484375,47.6166748 L52.8484375,64.2011408 Z M52.8484375,87.0262379 L91.6583613,55.7587621 C91.3699302,51.7633738 90.7407367,47.7621602 89.7620182,43.8539078 C89.5436868,42.9808495 89.3085607,42.119199 89.0585871,41.2687136 L52.8484375,70.4415291 L52.8484375,87.0262379 Z M47.9804023,70.720801 L11.7059947,41.4960437 C11.4806047,42.2729854 11.2661677,43.0581796 11.0668217,43.8540534 C10.0669273,47.8479854 9.43018827,51.9392476 9.15076305,56.0220146 L47.9804023,87.3055097 L47.9804023,70.720801 Z M9,62.141165 C9.13533138,69.1416505 10.334085,75.9586408 12.5775191,82.0435922 C15.9924457,91.3059709 22.9087067,97.6564563 31.5528768,99.4659223 C37.3088416,100.671019 43.2283724,99.6506311 47.980305,96.793835 L47.980305,93.5460194 L9,62.141165 Z"></path></g></g></svg>