<svg xmlns="http://www.w3.org/2000/svg" xmlns:xlink="http://www.w3.org/1999/xlink" version="1.1" x="0px" y="0px" viewBox="0 0 100 100" enable-background="new 0 0 100 100" xml:space="preserve"><path  d="M75.5,45.5c0-25.169-23.701-40.149-24.71-40.775c-0.484-0.3-1.096-0.3-1.58,0  C48.201,5.351,24.5,20.331,24.5,45.5c0,23.072,19.904,37.574,24,40.312V94c0,0.828,0.672,1.5,1.5,1.5s1.5-0.672,1.5-1.5v-8.188  C55.596,83.074,75.5,68.572,75.5,45.5z M51.5,82.115V32c0-0.829-0.672-1.5-1.5-1.5s-1.5,0.671-1.5,1.5v50.115  c-5.873-4.406-21-17.6-21-36.615c0-20.985,18.423-34.88,22.5-37.697C54.077,10.62,72.5,24.515,72.5,45.5  C72.5,64.516,57.373,77.709,51.5,82.115z"></path></svg>