<svg xmlns:dc="http://purl.org/dc/elements/1.1/" xmlns:cc="http://creativecommons.org/ns#" xmlns:rdf="http://www.w3.org/1999/02/22-rdf-syntax-ns#" xmlns:svg="http://www.w3.org/2000/svg" xmlns="http://www.w3.org/2000/svg" xmlns:sodipodi="http://sodipodi.sourceforge.net/DTD/sodipodi-0.dtd" xmlns:inkscape="http://www.inkscape.org/namespaces/inkscape" version="1.1" x="0px" y="0px" viewBox="0 0 100 100"><g transform="translate(0,-952.36218)"><g transform="matrix(1.2908495,0,0,1.2908495,-845.84778,-258.83737)"><path  d="M 82.4375 11.96875 C 82.208881 11.98835 81.976517 12.051368 81.78125 12.15625 C 81.390716 12.366013 81.062424 12.718771 80.75 13.09375 C 79.510087 14.581932 78.577216 16.962152 78.5625 17 C 78.562384 17.000297 78.5625 17.03125 78.5625 17.03125 C 77.388873 19.815716 76.195393 25.166381 68.90625 28.5 C 63.829558 30.821722 58.804187 31.779988 53.59375 33.375 C 48.383313 34.970012 43.016283 37.21168 37.375 42.09375 C 31.586418 47.103369 31.558435 55.442503 32.90625 62.4375 C 34.072608 68.490758 36.202219 73.378538 36.78125 74.65625 C 35.252311 75.699749 33.727698 76.696154 32.21875 77.5625 C 21.649584 83.630654 13.6875 87.0625 13.6875 87.0625 L 13.21875 87.28125 L 13.625 88.1875 L 14.0625 88 C 14.0625 88 22.07287 84.53173 32.6875 78.4375 C 34.283364 77.521254 35.924708 76.508262 37.53125 75.40625 C 37.716929 75.480057 43.951004 77.922369 51.90625 78.75 C 59.981701 79.590136 69.835629 78.727194 76.75 71.8125 C 83.674891 64.887273 86.002365 52.938091 86.5 41.71875 C 86.997635 30.499409 85.601801 19.973582 84.84375 15.75 C 84.651181 14.677085 84.433963 13.8773 84.15625 13.28125 C 83.878537 12.6852 83.56789 12.298956 83.125 12.09375 C 82.903555 11.991147 82.666119 11.94915 82.4375 11.96875 z M 82.53125 12.96875 C 82.599784 12.965136 82.653536 12.96973 82.71875 13 C 82.849177 13.060412 83.060205 13.275587 83.28125 13.75 C 83.502295 14.224413 83.691983 14.949069 83.875 15.96875 C 84.619265 20.115552 85.992756 30.578268 85.5 41.6875 C 85.007244 52.796732 82.62722 64.497457 76.03125 71.09375 C 69.42476 77.700486 59.891171 78.57422 51.96875 77.75 C 45.337843 77.060144 40.131923 75.27309 38.53125 74.6875 C 42.140553 72.138606 45.659873 69.248419 48.875 66.4375 C 51.369733 67.4827 60.714134 70.879658 69.84375 67.5 L 69.5 66.53125 C 61.201137 69.603373 52.643172 66.79808 49.75 65.65625 C 50.837036 64.692641 51.916219 63.762568 52.90625 62.84375 C 55.740271 60.21358 58.156056 57.815459 59.8125 56.09375 C 60.640722 55.232895 61.254046 54.517655 61.6875 54.03125 C 61.887646 53.806642 62.04605 53.635604 62.15625 53.5 C 62.400298 53.539629 65.083851 53.986929 68.625 54.15625 C 72.32078 54.332967 76.642524 54.226485 79.21875 52.78125 L 79.65625 52.53125 L 79.125 51.65625 L 78.71875 51.90625 C 76.559004 53.117777 72.317911 53.329843 68.6875 53.15625 C 65.92031 53.023933 63.961118 52.742738 62.96875 52.59375 C 63.826896 51.741297 66.861927 48.708828 70.5 44.4375 C 71.55307 43.201129 72.605063 41.878578 73.625 40.5625 C 74.275411 40.536915 75.296757 40.486714 76.75 40.3125 C 78.885814 40.056499 81.464636 39.610538 83.3125 38.625 L 82.84375 37.75 C 81.226264 38.612662 78.705372 39.094397 76.625 39.34375 C 75.717207 39.452557 74.970201 39.520625 74.375 39.5625 C 77.080474 35.953667 79.359307 32.288805 79.90625 29.34375 L 78.9375 29.1875 C 78.426951 31.936609 75.974904 35.806044 73.09375 39.59375 C 72.994118 39.502649 72.744935 39.219308 72.46875 38.78125 C 72.158494 38.289165 71.810178 37.66684 71.5 37 C 70.879631 35.66632 70.395962 34.159904 70.40625 33.59375 L 69.40625 33.53125 C 69.387662 34.55337 69.974528 36.007847 70.625 37.40625 C 70.95023 38.105452 71.283622 38.80229 71.625 39.34375 C 71.918454 39.809197 72.153478 40.159781 72.46875 40.40625 C 71.570521 41.55773 70.640817 42.698688 69.71875 43.78125 C 65.872042 48.297518 62.525879 51.636617 62 52.15625 C 61.372514 51.677988 54.925877 46.629322 53.375 39.21875 L 52.4375 39.4375 C 54.067774 47.227491 60.577445 52.356408 61.34375 52.9375 C 61.252953 53.049839 61.15106 53.170423 60.96875 53.375 C 60.548333 53.84678 59.884022 54.552366 59.0625 55.40625 C 57.419455 57.114031 55.068686 59.446555 52.25 62.0625 C 51.140571 63.09213 49.950185 64.16621 48.71875 65.25 C 48.707459 65.24473 48.625 65.21875 48.625 65.21875 L 48.53125 65.40625 C 45.143822 68.378904 41.401755 71.463347 37.59375 74.125 C 37.09708 73.023056 35.06782 68.278459 33.90625 62.25 C 32.587041 55.40345 32.659767 47.523646 38.03125 42.875 C 43.550058 38.098934 48.761763 35.918573 53.90625 34.34375 C 59.050737 32.768927 64.166461 31.757005 69.375 29.375 C 77.026433 25.875688 78.416435 19.962197 79.5 17.40625 C 79.5 17.40625 80.443117 14.956005 81.5 13.6875 C 81.764224 13.370377 82.072494 13.174623 82.28125 13.0625 C 82.385628 13.006413 82.462716 12.972364 82.53125 12.96875 z M 40.59375 50.125 L 39.59375 50.28125 C 40.416847 54.808285 42.250618 58.54908 43.9375 61.21875 C 44.780941 62.553592 45.608758 63.648586 46.25 64.40625 C 46.570621 64.785089 46.840822 65.057907 47.0625 65.28125 C 47.284178 65.504593 47.404899 65.667952 47.59375 65.78125 L 48.09375 64.875 C 48.138155 64.901721 47.948404 64.793638 47.75 64.59375 C 47.551596 64.393862 47.27441 64.111167 46.96875 63.75 C 46.357417 63.027679 45.629543 61.980557 44.8125 60.6875 C 43.178414 58.101386 41.387816 54.492357 40.59375 50.125 z M 61.875 52.8125 L 61.90625 52.84375 L 61.875 53.4375 C 61.793676 53.412587 61.655721 53.374613 61.65625 53.375 C 61.657012 53.375516 61.468466 53.092717 61.46875 53.09375 C 61.468845 53.094094 61.469324 53.056419 61.46875 53.03125 C 61.483806 53.042475 61.625 53.15625 61.625 53.15625 L 61.875 52.8125 z " transform="matrix(0.77468365,0,0,0.77468365,655.26444,938.29649)"  fill-opacity="1" stroke="none" marker="none" visibility="visible" display="inline" overflow="visible"></path></g></g></svg>