<svg xmlns="http://www.w3.org/2000/svg" xmlns:xlink="http://www.w3.org/1999/xlink" version="1.1" x="0px" y="0px" viewBox="0 0 100 100" enable-background="new 0 0 100 100" xml:space="preserve"><path fill-rule="evenodd" clip-rule="evenodd" d="M32.201,71.325c-0.004,0.225-0.037,0.273-0.1,0.148  c-1.467-5.199-4.918-8.066-10.352-8.6c0.668,0.367,1.283,0.75,1.852,1.15c3.432,2.434,5.648,6.117,6.648,11.051  C18.451,78.741,10.033,71.241,5,52.575c20.434-3.9,30.934,1.35,31.5,15.75c0.033,0.332,0.084,0.982,0.15,1.949v17.85  c0,0.635-0.199,1.168-0.6,1.6c-0.434,0.367-0.949,0.551-1.551,0.551c-0.633,0-1.133-0.184-1.5-0.551  c-0.432-0.432-0.648-0.965-0.648-1.6L32.201,71.325z M51.9,89.724c-0.434,0.367-0.949,0.551-1.549,0.551  c-0.635,0-1.15-0.184-1.551-0.551c-0.434-0.432-0.65-0.965-0.65-1.6V42.726L45.5,62.374c-18.967-12.199-17.35-29.75,4.852-52.648  C73.518,33.657,74.234,51.759,52.5,64.024v24.1C52.5,88.759,52.301,89.292,51.9,89.724z M76.4,64.024  c0.566-0.4,1.184-0.783,1.85-1.15c-5.432,0.533-8.883,3.4-10.35,8.6c-0.063,0.125-0.096,0.102-0.1-0.074l-0.15,16.725  c0,0.635-0.217,1.168-0.65,1.6c-0.365,0.367-0.865,0.551-1.5,0.551c-0.6,0-1.115-0.184-1.549-0.551c-0.4-0.432-0.6-0.965-0.6-1.6  v-17.85c0.066-0.967,0.115-1.617,0.148-1.949c0.568-14.4,11.068-19.65,31.5-15.75c-5.033,18.666-13.449,26.166-25.25,22.5  C70.75,70.142,72.967,66.458,76.4,64.024z"></path></svg>