<svg xmlns="http://www.w3.org/2000/svg" xmlns:xlink="http://www.w3.org/1999/xlink" version="1.1" x="0px" y="0px" viewBox="0 0 100 100" enable-background="new 0 0 100 100" xml:space="preserve"><g><path d="M52.479,72.936c3.837,1.842,8.36,1.561,11.939-0.744c4.973,2.207,10.794-0.024,13-5.004   c0.552-1.232,0.841-2.572,0.854-3.92c0.038-5.486,2.31-10.717,6.294-14.482c-8.348-1.219-16.797,1.457-22.924,7.264   c-3.466,3.285-4.068,8.578-1.444,12.562c3.291-0.674,6.05-2.9,7.397-5.973c-0.09,1.225-0.417,2.424-0.949,3.534   c-2.375,4.89-8.258,6.937-13.153,4.568c1.251-3.226,1.56-6.737,0.892-10.131c5.813-5.685,5.922-15.007,0.237-20.821   c-1.418-1.45-3.118-2.586-4.992-3.349c-7.59-3.086-13.603-9.13-16.63-16.74c-6.314,10.921-7.263,24.131-2.574,35.848   c2.651,6.627,9.675,10.398,16.663,8.943c0.879-4.94-0.693-9.997-4.215-13.576c3.625,1.777,6.364,4.973,7.571,8.822   c2.425,7.764-1.893,16.015-9.644,18.44c-0.956,0.294-1.489,1.308-1.193,2.265c0.301,0.949,1.315,1.475,2.265,1.18   C46.403,80.205,50.202,77.094,52.479,72.936z"></path></g><path d="M92.895,50.075c0,23.464-19.023,42.495-42.494,42.495c-23.47,0-42.494-19.031-42.494-42.495  C7.906,26.604,26.93,7.58,50.4,7.58C73.871,7.58,92.895,26.604,92.895,50.075L92.895,50.075z M89.09,50.075  c0-21.373-17.324-38.697-38.689-38.697c-21.367,0-38.69,17.324-38.69,38.697c0,21.366,17.323,38.689,38.69,38.689  C71.766,88.765,89.09,71.441,89.09,50.075L89.09,50.075z"></path></svg>