<svg xmlns="http://www.w3.org/2000/svg" xmlns:xlink="http://www.w3.org/1999/xlink" version="1.1" x="0px" y="0px" viewBox="0 0 70 80"  xml:space="preserve"><path d="M57.8,18.6c-3.2-2.4-10.4,0.8-13.4,2.2c-4.3,2.1-7.8,5.2-10.6,9c-1.2-11-10.2-19.9-22-18.6c-0.5,0.1-1.1,0.4-1,1  c0.5,6.5,3.1,12.4,7.9,16.9c3.4,3.2,8.4,6.5,13.2,5.3c0.3,11.2,0.5,22.4,0.6,33.5c0,1.3,2.1,1.3,2,0c0-11.4-0.2-22.8-0.6-34.2  c0.1-0.2,0.2-0.3,0.3-0.5c0.1,0.4,0.5,0.7,1.1,0.7c6.6,0,14.3-1.6,19.6-5.7C57.4,26.4,61.4,21.2,57.8,18.6z M17.8,25.1  c-2.8-3.5-4.3-7.5-4.8-11.9c11-0.6,18.7,8.5,18.7,19.2C26.5,34,20.6,28.6,17.8,25.1z M54.4,25.3c-1.2,1.1-2.8,2-4.2,2.7  c-4.6,2.2-9.7,3.1-14.8,3.5c3.9-5.3,9.4-9.1,16-10.5c1-0.3,2.1-0.4,3.2-0.5C56.4,22.4,56.4,24,54.4,25.3z"></path></svg>