<svg xmlns="http://www.w3.org/2000/svg" data-name="Layer 1" viewBox="0 0 100 100" x="0px" y="0px"><title>Sativa</title><path d="M90,65.27l5.87-3.46-6.57,1.8a4.68,4.68,0,0,0-.16-.78s-2.31,1.08-2.31,1.08v-.64a18.72,18.72,0,0,1-3.13,1.42L83.42,64c-.38.66-2.53,1.61-2.53,1.61l-.49-1.14a18.77,18.77,0,0,1-3.13,2.3l-.18-1A26.63,26.63,0,0,1,73.61,68l0-1A18.49,18.49,0,0,1,70,69.13l.16-.53c-.59.82-3.3,2.07-3.3,2.07l-.1-.63a8.65,8.65,0,0,1-2.74,2l-.18-.42c-.36.39-3.43,2.73-3.43,2.73l0-.35c-.63.69-3.76,3.1-3.76,3.1l-.1-.24-1.42,1c.55-.55,1.06-1,1.43-1.33l-.3-.18s3.84-3.7,4.89-4.4l-.46-.13s3.74-3.63,4.33-4l-.53-.33s1.86-2.65,3.29-3.24L66.92,64s2.21-3.36,3.42-4l-.73.12a25.33,25.33,0,0,1,3.51-4.34l-1.32-.27a35.17,35.17,0,0,1,3.81-4.17l-1.33-.45S77,47.66,78,47.21l-1.43-.88s1.69-2.67,2.65-3l-.92-.57s2-3.67,2.52-3.89L80,38.7s1.84-2.83,1.89-2.88a5.8,5.8,0,0,0-1-.37L84.56,27l-5.79,7.14a6.52,6.52,0,0,0-.78-.72c0,.07-1.7,3-1.7,3l-.49-.7c0,.53-2.32,4-2.32,4l-.92-.56c.1,1-1.51,3.76-1.51,3.76l-1.43-.88c0,1.06-1.62,5-1.62,5l-1-1a36.22,36.22,0,0,1-2,5.3l-.84-1a25.12,25.12,0,0,1-2.25,5.1l-.23-.7c0,1.36-2,4.86-2,4.86L59.09,59c.12,1.54-1.39,4.41-1.39,4.41l-.53-.32c-.09.71-1.61,5.7-1.61,5.7l-.32-.36c-.15,1.25-1.68,6.36-1.68,6.36l-.29-.18h-.41s1.57-6,2.19-7.35l-.54.16s1.52-5.89,1.86-6.65h-.72S55.89,57,57,55.55l-1,.24s.16-4.69,1-6l-.66.55s.14-4.51.86-6.44l-1.48.54s.68-5.29,1.26-6.47l-1.6.36s.74-4.91,1.42-5.95h-2s.06-3.69.78-4.65H54.31s-.2-4.89.14-5.41l-.91.4s.12-3.93.14-4a6.92,6.92,0,0,0-1.22.24L51,8.29,49.62,18.91a6.81,6.81,0,0,0-1.21-.24c0,.08.14,4,.14,4l-.92-.4c.34.52.14,5.41.14,5.41H46.51c.72,1,.78,4.65.78,4.65h-2c.68,1,1.42,5.95,1.42,5.95l-1.6-.36c.58,1.18,1.26,6.47,1.26,6.47l-1.48-.54c.72,1.93.86,6.44.86,6.44l-.66-.55c.82,1.35,1,6,1,6l-1-.24c1.06,1.46,1.3,5.23,1.3,5.23h-.72c.34.76,1.86,6.65,1.86,6.65L47,67.27c.62,1.34,2.2,7.35,2.2,7.35h-.41v0l-.3.19S47,69.7,46.84,68.44l-.33.36s-1.52-5-1.61-5.7l-.53.32S42.86,60.55,43,59l-.6.62s-2-3.51-2-4.87l-.24.7a25.12,25.12,0,0,1-2.25-5.1l-.84,1.06a35.26,35.26,0,0,1-2-5.3l-1,1s-1.66-3.92-1.63-5L31,43s-1.61-2.73-1.51-3.75l-.92.56s-2.33-3.49-2.32-4l-.49.7s-1.67-2.93-1.69-3-.79.72-.79.72l-5.78-7.14,3.71,8.41a5.91,5.91,0,0,0-1,.37c.05.05,1.9,2.87,1.9,2.87l-.85.12c.48.23,2.52,3.9,2.52,3.9l-.92.56c.95.38,2.65,3.06,2.65,3.06l-1.44.87c1,.46,3.7,3.72,3.7,3.72l-1.33.46a35.42,35.42,0,0,1,3.82,4.17L29,55.82a25,25,0,0,1,3.52,4.34l-.74-.11c1.21.62,3.43,4,3.43,4l-.83.26c1.43.59,3.29,3.25,3.29,3.25l-.53.32c.59.4,4.34,4,4.34,4L41,72c1,.7,4.9,4.4,4.9,4.4l-.3.18c.36.3.86.78,1.4,1.32l-1.4-1-.1.24s-3.14-2.41-3.77-3.1l0,.36s-3.07-2.35-3.43-2.74l-.18.42a8.65,8.65,0,0,1-2.74-2l-.1.63s-2.71-1.25-3.3-2.06l.17.52A18.78,18.78,0,0,1,28.5,67l-.05,1A26,26,0,0,1,25,65.68l-.19,1a18.77,18.77,0,0,1-3.13-2.3l-.48,1.14A8.6,8.6,0,0,1,18.64,64l-.31.73a18.72,18.72,0,0,1-3.13-1.42v.64s-2.28-1-2.32-1.07a4.36,4.36,0,0,0-.16.77L6.16,61.8,12,65.26a4.38,4.38,0,0,0-.44.65l2.38.91-.46.44a18.89,18.89,0,0,1,3.2,1.26l-.31.73c.74-.18,2.92.7,2.92.7l-.48,1.14a18.64,18.64,0,0,1,3.83.64l-.61.85a25.91,25.91,0,0,1,4.1.86l-.68.74a18.23,18.23,0,0,1,4,1.09l-.49.24c1-.14,3.78.93,3.78.93l-.38.51a8.7,8.7,0,0,1,3.38.53l-.17.43c.52,0,4.35.55,4.35.55l-.23.28c.94,0,4.85.53,4.85.53l-.1.24a21.5,21.5,0,0,1,2.2.32l-.93,0,0,.18s-2.85-.22-3.51-.4l.12.23s-2.79-.21-3.16-.3l.06.33a6.34,6.34,0,0,1-2.47-.17l.18.43a9.5,9.5,0,0,1-2.81,0l.31.26a13.49,13.49,0,0,1-3,.13l.36.62a19.71,19.71,0,0,1-3,0l.29.69a13.56,13.56,0,0,1-2.8-.16l.16.89a6,6,0,0,1-2.17,0l.1.57a13.07,13.07,0,0,1-2.46.37l.26.39-1.83.26a2.92,2.92,0,0,0,.21.53l-4.69,1.5,4.92-.22a2.74,2.74,0,0,0,0,.57l1.8-.38-.11.44a14.31,14.31,0,0,1,2.44-.5l.1.57a6.16,6.16,0,0,1,2-.73l.16.89a13.59,13.59,0,0,1,2.58-1.12l0,.75a18.62,18.62,0,0,1,2.82-1.1l-.12.72a13.41,13.41,0,0,1,2.84-.91l-.2.34a9.48,9.48,0,0,1,2.66-.93l0,.46A6.27,6.27,0,0,1,40,84l.06.33c.32-.22,2.86-1.38,2.86-1.38l0,.25c.56-.38,3.15-1.58,3.15-1.58l0,.18c.44-.24,1.33-.62,2.12-1l-.38.22.07.08s-1.35.75-1.7.87l.13.07s-1.32.75-1.52.82l.13.13a3.55,3.55,0,0,1-1.17.67l.21.13a5.25,5.25,0,0,1-1.25.87l.21,0a7,7,0,0,1-1.3,1l.35.17a10.5,10.5,0,0,1-1.38.89L41,87a7.54,7.54,0,0,1-1.31.77l.34.35a3.44,3.44,0,0,1-1,.67l.21.22a7.56,7.56,0,0,1-1,.91l.23.1-.75.67a2.33,2.33,0,0,0,.26.17l-1.66,2.09,2.15-1.58a1.64,1.64,0,0,0,.16.26s.7-.72.7-.72l.09.24a7.2,7.2,0,0,1,1-1l.21.22c0-.29.7-.94.7-.94l.34.35a7.35,7.35,0,0,1,.82-1.28l.22.35a10,10,0,0,1,.94-1.34l.16.35a7.12,7.12,0,0,1,1-1.26v.21a5.09,5.09,0,0,1,.92-1.22l.12.22a3.46,3.46,0,0,1,.72-1.14l.12.13c.08-.19.88-1.48.88-1.48l.06.12c.13-.34.94-1.66.94-1.66l.07.07c.16-.3.57-.92.86-1.35l1,1.07c.21,2,.34,10.74.34,10.74h.48s.14-8.56.36-10.78l.66-.7a10.38,10.38,0,0,1,.63,1l.08-.07s.8,1.32.94,1.66l.06-.12s.8,1.29.87,1.48l.13-.13a3.49,3.49,0,0,1,.71,1.14l.13-.22a5.37,5.37,0,0,1,.92,1.22v-.21a7.12,7.12,0,0,1,1,1.26l.16-.35a10,10,0,0,1,.94,1.34l.21-.35a7.29,7.29,0,0,1,.83,1.28l.33-.35s.66.65.7.94l.22-.22a7.86,7.86,0,0,1,1,1l.09-.24.69.72a1.67,1.67,0,0,0,.17-.26l2.15,1.58-1.66-2.09s.27-.16.25-.17L63.08,90l.23-.1a7.71,7.71,0,0,1-1-.91l.22-.22c-.3,0-1-.67-1-.67l.34-.35A7.17,7.17,0,0,1,60.59,87l.34-.23a9.85,9.85,0,0,1-1.38-.89l.35-.17a7.17,7.17,0,0,1-1.31-1l.22,0a5.15,5.15,0,0,1-1.26-.87l.21-.13A3.58,3.58,0,0,1,56.6,83l.13-.13c-.2-.07-1.52-.82-1.52-.82l.12-.07c-.34-.12-1.7-.87-1.7-.87l.07-.08-.93-.56c.89.36,2.33,1,2.93,1.29l0-.18s2.59,1.2,3.15,1.58l0-.25s2.54,1.16,2.85,1.38l.06-.33A6.2,6.2,0,0,1,64,85l0-.46a9.34,9.34,0,0,1,2.65.93l-.2-.34a13.62,13.62,0,0,1,2.85.91l-.12-.72A18.62,18.62,0,0,1,72,86.42l0-.75a13.59,13.59,0,0,1,2.58,1.12l.15-.89a6.2,6.2,0,0,1,2.05.73l.1-.57a14,14,0,0,1,2.43.5l-.1-.44,1.8.38a2.74,2.74,0,0,0,0-.57l4.92.22-4.69-1.5a2.92,2.92,0,0,0,.21-.53l-1.83-.26.26-.39a13,13,0,0,1-2.46-.37l.1-.57a6,6,0,0,1-2.17,0l.16-.89a13.68,13.68,0,0,1-2.81.16l.29-.69a19.57,19.57,0,0,1-3,0l.36-.62a13.49,13.49,0,0,1-3-.13l.31-.26a9.57,9.57,0,0,1-2.82,0l.19-.43a6.34,6.34,0,0,1-2.47.17l.06-.33c-.37.09-3.16.3-3.16.3l.11-.23c-.65.18-3.5.4-3.5.4l0-.18-.48,0c.8-.14,1.56-.25,2-.28l-.1-.24s3.91-.56,4.84-.53l-.22-.28s3.82-.57,4.35-.56l-.18-.42A8.7,8.7,0,0,1,69.68,77l-.38-.51s2.79-1.07,3.79-.93l-.49-.24a18.53,18.53,0,0,1,4-1.1l-.68-.73a26.17,26.17,0,0,1,4.1-.86l-.6-.85a18.51,18.51,0,0,1,3.83-.64L82.74,70s2.18-.88,2.92-.7l-.31-.74a18.93,18.93,0,0,1,3.2-1.25l-.46-.44,2.38-.91C90.53,65.91,90,65.27,90,65.27Z"></path></svg>