<svg xmlns="http://www.w3.org/2000/svg" xmlns:xlink="http://www.w3.org/1999/xlink" version="1.1" x="0px" y="0px" viewBox="0 0 100 100" enable-background="new 0 0 100 100" xml:space="preserve"><g><path d="M87.402,34.999c-4.6-3.067-14.464-5.807-24.864-7.22c0.573,1.098,1.087,2.186,1.525,3.25   c6.187,0.957,11.872,2.36,16.103,3.88c-5.304,1.06-10.168,2.323-14.665,3.727c-0.087,1.152-0.285,2.271-0.58,3.352   c5.369-1.767,11.309-3.317,17.918-4.548c-8.573,7.56-12.587,14.385-16.157,20.471c-2.847,4.854-5.306,9.047-9.587,12.718   c-4.367,3.743-10.509,5.89-16.851,5.89c-6.933,0-12.905-2.456-16.703-6.719c0.353-0.49,0.732-0.992,1.124-1.5   c5.382-5.318,19.472-2.59,19.613-2.563l0.588-2.941c-0.463-0.095-8.426-1.63-15.287-0.097c2.899-2.936,6.462-5.98,10.811-8.937   c-1.07-0.468-2.086-1.036-3.036-1.694c-3.426,2.409-6.366,4.867-8.863,7.282c0.913-6.35-0.364-12.957-0.448-13.378l-2.941,0.589   c0.689,3.445,1.591,12.414-1.135,17.614c-0.859,1.018-1.635,2.01-2.351,2.976c-0.136-0.23-0.278-0.457-0.403-0.695   c-6.175-11.674-2.117-26.057,8.964-32.897c0.397-1.362,0.973-2.801,1.67-4.268c-0.581,0.238-1.128,0.492-1.639,0.762   c-13.634,7.211-18.859,24.171-11.647,37.806c0.359,0.678,0.765,1.321,1.195,1.947c-3.814,5.825-5.007,10.09-5.135,10.581   l2.903,0.756c0.028-0.108,1.038-3.682,4.297-8.799c4.37,4.558,10.911,7.173,18.424,7.173c7.047,0,13.901-2.41,18.803-6.614   c4.663-3.996,7.364-8.602,10.222-13.477c3.808-6.492,8.123-13.852,18.243-22.015l1.589-1.283L87.402,34.999z"></path><path d="M47.798,52c8.16,0,14.798-6.638,14.798-14.798c0-7.843-13.221-23.108-13.784-23.754l-1.014-1.164l-1.014,1.164   C46.221,14.094,33,29.359,33,37.202C33,45.362,39.638,52,47.798,52z M46.738,21.723l2.122,2.121   c-0.042,0.042-4.271,4.311-5.638,8.414l-2.846-0.949C41.969,26.528,46.544,21.917,46.738,21.723z"></path></g></svg>