<svg xmlns="http://www.w3.org/2000/svg" viewBox="0 0 64 64" x="0px" y="0px"><g data-name="12-poplar leaf"><path d="M44.447,11.105A30.187,30.187,0,0,1,32.868.5,1,1,0,0,0,32,0h0a1,1,0,0,0-.867.5,30.076,30.076,0,0,1-11.579,10.6C13.125,14.32,10,19.191,10,26a23.121,23.121,0,0,0,2.355,9.7,14.719,14.719,0,0,0,10.481,8.289A13,13,0,0,1,31,49.3V63a1,1,0,0,0,2,0V49.3a13.037,13.037,0,0,1,8.2-5.32A14.706,14.706,0,0,0,51.645,35.7,23.121,23.121,0,0,0,54,26C54,19.191,50.875,14.32,44.447,11.105ZM40.836,42.014A14.307,14.307,0,0,0,33,46.2V40.265A6.926,6.926,0,0,1,39,37c4.572,0,6.559-3.111,6.97-4.757a1,1,0,1,0-1.94-.485C44.021,31.792,43.171,35,39,35a8.838,8.838,0,0,0-6,2.215V32.19A3.366,3.366,0,0,1,36,30c3.495,0,5.738-3.3,5.832-3.445a1,1,0,0,0-1.662-1.112C40.152,25.471,38.415,28,36,28a4.813,4.813,0,0,0-3,1V24.3a3.523,3.523,0,0,1,3-1.295,5.318,5.318,0,0,0,4.9-2.552.994.994,0,0,0-.438-1.328,1.008,1.008,0,0,0-1.345.42A3.394,3.394,0,0,1,36,21.007a6.1,6.1,0,0,0-3,.724V15a1,1,0,0,0-2,0v6.731a6.1,6.1,0,0,0-3-.724A3.4,3.4,0,0,1,24.9,19.56a1,1,0,0,0-1.79.895A5.318,5.318,0,0,0,28,23.007,3.529,3.529,0,0,1,31,24.3V29a4.813,4.813,0,0,0-3-1c-2.415,0-4.152-2.532-4.168-2.555a1,1,0,0,0-1.664,1.11C22.262,26.7,24.505,30,28,30a3.366,3.366,0,0,1,3,2.185v5.029A8.838,8.838,0,0,0,25,35c-4.119,0-5-3.117-5.03-3.242a1,1,0,1,0-1.94.485C18.441,33.891,20.428,37,25,37a6.926,6.926,0,0,1,6,3.262V46.2a14.236,14.236,0,0,0-7.8-4.175C12.128,39.806,12,26.138,12,26c0-3.813.876-9.32,8.447-13.106A32.023,32.023,0,0,0,32,2.835,32.023,32.023,0,0,0,43.553,12.894C51.124,16.68,52,22.187,52,26,52,26.138,51.872,39.806,40.836,42.014Z"></path></g></svg>