<svg xmlns="http://www.w3.org/2000/svg" xmlns:xlink="http://www.w3.org/1999/xlink" version="1.1" x="0px" y="0px" viewBox="0 0 100 100" enable-background="new 0 0 100 100" xml:space="preserve"><g><g><path d="M8.979,90.699c6.861-0.673,9.808-8.742,10.832-14.518c1.93-10.886,2.266-21.899,6.724-32.204    C31.168,33.267,38.979,27.34,50.3,25.038c10.142-2.062,19.911-4.709,28.828-10.161c3.14-1.92,0.22-6.924-2.886-4.938    c-9.083,5.809-18.149,9.42-28.627,11.835c-8.452,1.948-15.089,6.157-19.891,13.473c-4.939,7.524-6.605,16.246-7.656,25.041    c-0.645,5.399-1.031,10.873-1.972,16.231c-1.108,6.308-3.719,10.55-9.175,13.961C8.829,90.538,8.857,90.711,8.979,90.699    L8.979,90.699z"></path></g></g><g><g><path d="M12.749,88.714c3.188-1.934,5.217-4.956,7.781-7.586c3.545-3.636,8.357-5.625,13.309-6.503    c9.184-1.628,18.503,0.333,26.857-4.919c6.759-4.25,11.083-11.86,12.435-19.608c0.744-4.262,0.684-8.546-0.016-12.808    c-0.971-5.914-2.806-10.264,0.992-15.497c2.461-3.39-2.821-7.161-5.669-4.374c-6.578,6.439-3.778,13.926-2.255,21.782    c1.955,10.086-1.708,20.84-10.458,26.588c-7.622,5.008-17.411,5.439-25.89,8.301c-2.872,0.97-5.631,2.297-7.965,4.256    c-3.6,3.022-5.244,7.587-9.145,10.326C12.701,88.69,12.723,88.73,12.749,88.714L12.749,88.714z"></path></g></g><g><g><path d="M25.617,71.098c4.953-6.138,7.514-13.282,11.074-20.206c4.253-8.272,10.83-15.251,19.894-18.145    c1.661-0.531,0.666-3.031-0.939-2.228c-7.242,3.624-13.502,8.351-17.862,15.3c-4.976,7.932-7.184,17.273-12.572,24.967    C25.046,71.023,25.433,71.327,25.617,71.098L25.617,71.098z"></path></g></g></svg>