<svg xmlns="http://www.w3.org/2000/svg" xmlns:xlink="http://www.w3.org/1999/xlink" xmlns:sketch="http://www.bohemiancoding.com/sketch/ns" viewBox="0 0 70 70" version="1.1" x="0px" y="0px"><title>leaf-nature-floral-decoration</title><desc>Created with Sketch.</desc><g stroke="none" stroke-width="1"  fill-rule="evenodd" sketch:type="MSPage"><g sketch:type="MSArtboardGroup" transform="translate(-495.000000, -795.000000)"><path d="M564.117933,807.102963 C564.628808,807.271857 564.903878,807.816484 564.732319,808.319421 C564.560759,808.822358 564.007536,809.093153 563.496661,808.92426 C562.371954,808.552435 561.246128,808.24276 560.119862,807.993917 C561.199143,809.027067 562.054021,810.362603 562.624383,812.024756 C562.79686,812.527389 562.522784,813.072501 562.012218,813.242298 C561.501651,813.412095 560.947935,813.142278 560.775458,812.639645 C560.129123,810.75609 559.075151,809.430061 557.720804,808.549443 C556.920359,808.02898 554.286604,807.360959 554.078862,807.361618 C553.894209,807.362786 552.152223,807.223481 551.444093,807.258108 C554.744255,807.923714 557.227268,810.655764 558.44354,812.903024 C558.696954,813.371247 558.516825,813.953057 558.041212,814.202533 C557.565599,814.452009 556.974606,814.274679 556.721192,813.806456 C555.722382,811.960993 554.039613,810.548717 551.844803,809.51926 C550.508247,808.89236 547.831091,807.784812 546.230964,807.923713 C544.630836,808.062615 542.816689,808.754845 541.122054,809.359795 C542.972733,809.457691 544.859009,809.825286 546.690498,810.550429 C548.728981,811.357527 550.551889,812.571743 552.094941,814.239062 C552.457888,814.631238 552.429175,815.238815 552.030809,815.596122 C551.632442,815.95343 551.015276,815.925163 550.652329,815.532986 C549.312848,814.085633 547.735513,813.034991 545.962299,812.332921 C543.161068,811.223826 537.375626,811.192772 535.959031,811.597036 C534.502069,812.339728 533.052937,813.172912 531.613222,814.093507 C535.313378,814.154751 539.405587,815.279569 543.344191,818.081941 C543.780969,818.392715 543.879139,818.993221 543.563461,819.423211 C543.247783,819.853201 542.637798,819.949845 542.201021,819.639073 C538.235582,816.817608 531.348418,815.532986 528.527923,816.210003 C527.930264,816.507761 525.210599,818.794725 524.229101,819.644389 C527.927167,818.668213 531.75984,818.879626 535.399279,820.880055 C535.914613,821.16556 536.080987,821.751326 535.816611,822.213637 C535.552236,822.675948 534.957224,822.839737 534.487616,822.579469 C530.693822,820.494109 526.693249,820.515376 522.823791,821.933486 C521.579183,822.38962 520.369225,823.313798 520.253082,823.337337 C519.18458,824.398042 516.75586,827.010518 516.597936,827.186828 C519.799118,825.715843 523.049956,825.083705 526.155394,825.714065 C527.275823,825.941497 528.351544,826.333592 529.373492,826.899979 C529.843101,827.160247 530.009475,827.746012 529.745099,828.208324 C529.480724,828.670635 528.885712,828.834424 528.416104,828.574156 C527.571917,828.106289 526.686365,827.783509 525.761289,827.595732 C522.845705,827.003909 519.652792,827.752439 516.489082,829.383414 C515.636294,829.823048 514.271806,830.438667 512.912531,831.565404 C512.06017,832.640039 511.22728,833.734 510.417702,834.838917 C513.928567,833.476832 517.534037,832.910083 520.947147,833.610835 C522.244519,833.8772 523.480527,834.325783 524.642736,834.969905 C525.112344,835.230172 525.278718,835.815938 525.014343,836.27825 C524.749967,836.740561 524.154956,836.90435 523.685347,836.644082 C522.701146,836.098616 521.653803,835.718505 520.548714,835.491618 C517.561277,834.878262 510.72634,835.850451 508.191347,838.019974 C507.073361,839.394015 504.643644,843.683457 504.719497,843.63401 C509.11007,840.771861 513.676409,839.657411 518.010758,841.394952 C518.509876,841.595037 518.74973,842.155566 518.546487,842.646928 C518.343243,843.13829 517.773867,843.374417 517.274749,843.174332 C513.656791,841.723976 506.35501,843.462059 501.998068,848.219326 C498.963485,853.961953 497.075631,859.029237 496.950797,862.078051 C496.929092,862.608159 496.474976,863.020574 495.936501,862.999206 C495.398026,862.977838 494.979102,862.530778 495.000807,862.000671 C495.16174,858.070179 497.89479,851.299525 502.130246,843.971203 C499.231074,839.482127 499.438652,832.033197 502.627667,826.924818 C502.909838,826.472817 503.510787,826.331588 503.969922,826.609375 C504.429058,826.887162 504.572516,827.478772 504.290345,827.930774 C501.447089,832.485294 501.463832,838.469313 503.284254,842.022365 C504.246702,840.434931 505.273795,838.83113 506.355009,837.233412 C504.539236,831.99829 504.910194,825.173189 507.945727,819.905758 C508.211652,819.444309 508.80721,819.282456 509.275943,819.544249 C509.744675,819.806042 509.909083,820.392346 509.643158,820.853795 C506.884163,825.641362 506.572625,830.562209 507.695854,834.984798 C507.715374,835.06166 511.225321,830.502606 513.09156,828.275037 C511.441676,823.610728 511.81253,815.487681 515.238806,809.699776 C515.510153,809.241396 516.107579,809.086359 516.573194,809.35349 C517.038809,809.620621 517.196293,810.208764 516.924945,810.667144 C513.77808,815.983048 513.427553,821.795556 514.566573,826.539593 C514.566953,826.541174 518.435485,822.398819 519.481942,821.380355 C518.720687,818.72572 518.983289,814.542725 519.693421,811.866064 C520.270909,809.689373 521.237041,807.789857 522.656278,806.260194 C523.019726,805.868467 523.636928,805.840965 524.034838,806.198765 C524.432747,806.556566 524.460684,807.164177 524.097236,807.555904 C522.908692,808.836925 522.083864,810.458621 521.581653,812.351575 C520.941141,814.765821 520.871698,817.361285 521.141049,819.739379 C522.687856,818.384153 524.244626,817.060673 525.816531,815.835973 C525.688373,813.711004 525.900968,811.274529 526.722398,808.92795 C527.752781,805.984458 529.609251,803.699261 532.444439,802.38962 C532.932315,802.164258 533.513392,802.370923 533.74231,802.851217 C533.971229,803.331512 533.761303,803.90356 533.273427,804.128921 C530.956893,805.198984 529.437059,807.069802 528.567484,809.553915 C528.006357,811.156886 527.76459,812.837576 527.736848,814.394578 C529.363471,813.219816 531.005186,812.151034 532.659787,811.192772 C532.659788,809.553915 533.534294,806.227134 534.224443,804.744019 C535.672248,801.632717 538.018277,799.363707 541.414182,798.361516 C541.930399,798.209172 542.474323,798.497646 542.629073,799.005841 C542.783822,799.514035 542.490794,800.049508 541.974578,800.201853 C539.162427,801.031768 537.227802,802.902879 535.998702,805.544189 C535.390951,806.850234 534.722768,808.745104 534.72277,810.05898 C536.738376,809.010672 538.77153,808.127105 540.818318,807.416333 C540.974436,805.958273 541.864192,803.707309 542.495786,802.502975 C543.992473,799.649064 546.187696,797.665323 549.197919,797.022063 C549.724567,796.909522 550.244172,797.238589 550.358489,797.757053 C550.472806,798.275518 550.138545,798.787049 549.611897,798.899589 C547.242705,799.405866 545.481847,800.997088 544.229884,803.384352 C543.673735,804.444827 543.258453,805.589673 542.966329,806.735577 C544.447829,806.311003 545.9357,805.977624 547.428477,805.738454 C548.082553,803.927095 549.250513,802.5815 549.969431,801.760367 C552.069057,799.362216 554.625609,797.898442 557.639541,797.898442 C558.178453,797.898442 558.615328,798.328528 558.615328,798.859066 C558.615328,799.389604 558.178453,799.819691 557.639541,799.819691 C555.275031,799.819691 553.209608,801.002266 551.447686,803.014697 C550.815062,803.737267 550.269424,804.515291 549.814402,805.292873 C550.804105,805.343358 551.884062,805.290861 552.965626,805.289095 C553.348361,804.617734 554.020258,803.741636 555.021492,802.870797 C557.324545,800.867681 560.370343,799.865239 564.164649,800.408993 C564.69794,800.485417 565.067326,800.972972 564.989695,801.497977 C564.912064,802.022982 564.416814,802.386628 563.883522,802.310203 C560.682003,801.851401 556.902635,803.014697 555.28948,805.363631 C558.226984,805.557207 561.173429,806.12952 564.117933,807.102963 Z"  sketch:type="MSShapeGroup"></path></g></g></svg>