<svg xmlns="http://www.w3.org/2000/svg" xmlns:xlink="http://www.w3.org/1999/xlink" version="1.1" x="0px" y="0px" viewBox="0 0 100 100" enable-background="new 0 0 100 100" xml:space="preserve"><path d="M84.473,86.536l-6.678-5.3c0.145-0.336,0.281-0.713,0.411-1.147c1.163-3.897,2.336-9.639,1.313-14.854  c-1.02-5.191-8.179-14.271-8.43-14.569c-0.031-0.063-3.402-6.609-12.605-17.184c-9.259-10.64-41.78-20.268-43.16-20.672  c-0.154-0.046-0.322-0.015-0.448,0.086c-0.127,0.099-0.198,0.254-0.192,0.415c0.006,0.125,0.539,12.642,1.354,18.356  c0.834,5.854,21.841,54.725,48.249,54.725c3.646,0,7.279-0.932,10.807-2.771c0.051,0.006,0.108,0.01,0.172,0.01  c0.213,0,0.483-0.044,0.781-0.188l4.088,6.16c0.074,0.109,0.188,0.188,0.318,0.213c0.031,0.008,0.064,0.011,0.099,0.011  c0.099,0,0.194-0.028,0.276-0.083l3.609-2.396c0.135-0.089,0.217-0.236,0.225-0.396C84.667,86.789,84.598,86.636,84.473,86.536z   M57.73,34.137c9.109,10.468,12.437,16.917,12.522,17.064c0.073,0.092,7.312,9.271,8.285,14.226  c0.981,5.017-0.16,10.587-1.292,14.378c-0.212,0.709-0.446,1.254-0.688,1.676c-0.152-0.112-0.31-0.211-0.471-0.299  c0.096-0.662,0.059-1.408-0.008-2.137c-0.125-1.384-0.26-3.014-0.305-4.618c-0.082-2.759-0.215-5.563-0.344-8.276  c-0.054-1.115-0.105-2.227-0.156-3.325c-0.012-0.274-0.211-0.523-0.521-0.478c-0.274,0.012-0.489,0.245-0.478,0.521  c0.05,1.102,0.103,2.211,0.154,3.328c0.129,2.707,0.262,5.509,0.344,8.258c0.045,1.631,0.182,3.281,0.309,4.68  c0.05,0.562,0.08,1.127,0.043,1.627c-0.091-0.033-0.182-0.066-0.271-0.1c-0.076-0.026-0.146-0.057-0.221-0.084  c-0.107-0.129-0.271-0.189-0.443-0.168c-0.306-0.126-0.602-0.268-0.869-0.465c-0.449-0.331-0.854-0.717-1.25-1.125  c0.271-3.182,0.158-6.402-0.359-9.582l-0.202-1.225c-0.317-1.9-0.646-3.865-0.79-5.781c-0.129-1.68-0.262-3.197-0.599-4.782  c-0.104-0.487-0.167-1.035-0.233-1.614c-0.132-1.146-0.269-2.33-0.744-3.279c-0.125-0.248-0.428-0.348-0.672-0.224  c-0.246,0.124-0.346,0.425-0.223,0.672c0.396,0.791,0.523,1.888,0.646,2.945c0.065,0.577,0.135,1.174,0.248,1.707  c0.323,1.524,0.453,3.009,0.578,4.651c0.148,1.959,0.48,3.947,0.803,5.869l0.201,1.221c0.453,2.791,0.578,5.613,0.407,8.412  c-0.596-0.662-1.211-1.343-1.928-1.929c-0.401-0.329-0.813-0.644-1.222-0.966c-0.113-0.923-0.125-1.93-0.135-2.998  c-0.007-0.805-0.013-1.638-0.067-2.438c-0.177-2.496-0.54-4.42-1.218-6.431c-0.748-2.223-1.151-4.646-1.543-6.989  c-0.162-0.975-0.324-1.941-0.508-2.891l-0.182-0.893c-0.23-1.131-0.45-2.196-0.507-3.354c-0.013-0.274-0.001-0.622,0.012-1.004  c0.052-1.494,0.112-3.353-0.968-4.172c-0.219-0.166-0.532-0.124-0.7,0.097c-0.167,0.22-0.124,0.533,0.097,0.7  c0.668,0.506,0.61,2.213,0.572,3.342c-0.014,0.413-0.025,0.789-0.011,1.086c0.06,1.235,0.286,2.338,0.524,3.506l0.178,0.883  c0.184,0.938,0.344,1.898,0.505,2.863c0.397,2.383,0.809,4.846,1.583,7.145c0.648,1.926,0.996,3.773,1.166,6.182  c0.054,0.77,0.061,1.586,0.066,2.375c0.006,0.719,0.025,1.439,0.066,2.146c-0.207-0.162-0.411-0.328-0.619-0.49  c-0.006-0.005-0.013-0.01-0.02-0.016c-0.053-0.073-0.117-0.139-0.207-0.176c-0.01-0.004-0.019-0.004-0.026-0.008  c-0.831-0.646-1.663-1.31-2.489-1.984c-0.025-0.09-0.037-0.191-0.048-0.314c-0.01-0.13-0.021-0.26-0.045-0.387  c-0.172-0.93-0.247-1.918-0.319-2.874c-0.093-1.218-0.188-2.478-0.483-3.683l-0.397-1.623c-0.691-2.84-1.406-5.774-2.292-8.525  c-0.258-0.803-0.428-1.612-0.608-2.471c-0.205-0.979-0.418-1.989-0.771-2.98c-0.363-1.018-0.561-2.037-0.768-3.116l-0.057-0.296  c-0.222-1.144-0.361-2.338-0.496-3.493c-0.096-0.816-0.19-1.633-0.313-2.441c-0.037-0.247-0.073-0.53-0.111-0.833  c-0.168-1.325-0.377-2.974-0.983-3.87c-0.155-0.227-0.465-0.286-0.695-0.133c-0.229,0.155-0.287,0.467-0.133,0.695  c0.474,0.697,0.674,2.278,0.82,3.434c0.039,0.312,0.076,0.604,0.114,0.857c0.121,0.798,0.216,1.603,0.31,2.407  c0.138,1.173,0.279,2.386,0.507,3.566l0.058,0.296c0.205,1.068,0.417,2.174,0.809,3.265c0.33,0.926,0.537,1.903,0.734,2.85  c0.178,0.846,0.361,1.719,0.637,2.57c0.873,2.717,1.584,5.635,2.271,8.455l0.397,1.627c0.276,1.124,0.369,2.342,0.459,3.52  c0.062,0.843,0.143,1.707,0.274,2.561c-1.458-1.249-2.858-2.575-4.095-4.062c-0.186-0.225-0.389-0.438-0.579-0.658  c0-0.002,0.002-0.004,0.002-0.006c0.146-1.311-0.104-2.758-0.347-4.156c-0.144-0.832-0.278-1.617-0.332-2.355  c-0.18-2.437-0.766-4.933-1.332-7.346l-0.256-1.098c-0.362-1.562-0.93-3.03-1.478-4.449c-0.296-0.767-0.594-1.536-0.86-2.326  c-0.481-1.415-0.732-3.006-0.978-4.543l-0.041-0.264c-0.071-0.453-0.135-0.923-0.196-1.399c-0.203-1.538-0.414-3.13-0.99-4.52  c-0.104-0.255-0.396-0.377-0.652-0.271c-0.255,0.105-0.376,0.398-0.271,0.653c0.525,1.269,0.727,2.793,0.921,4.269  c0.063,0.484,0.127,0.963,0.201,1.424l0.041,0.264c0.25,1.579,0.508,3.212,1.018,4.708c0.271,0.804,0.574,1.586,0.876,2.365  c0.56,1.45,1.089,2.82,1.435,4.314l0.258,1.102c0.559,2.375,1.135,4.832,1.308,7.188c0.058,0.788,0.204,1.635,0.345,2.454  c0.169,0.979,0.34,1.983,0.368,2.913c-1.202-1.279-2.531-2.501-3.985-3.695c0.04-0.496-0.066-0.998-0.178-1.484  c-0.092-0.396-0.178-0.771-0.182-1.129c-0.019-1.424-0.321-2.664-0.643-3.977l-0.08-0.328c-0.511-2.109-1.07-4.216-1.613-6.252  L49.79,46.6c-0.304-1.145-0.669-2.282-1.023-3.383c-0.551-1.711-1.12-3.481-1.455-5.287c-0.188-1.021-0.298-2.07-0.413-3.182  c-0.247-2.379-0.503-4.839-1.603-6.974c-0.127-0.246-0.428-0.343-0.673-0.216c-0.246,0.126-0.343,0.428-0.216,0.673  c1.013,1.969,1.259,4.333,1.496,6.62c0.112,1.082,0.229,2.2,0.426,3.26c0.346,1.869,0.926,3.671,1.485,5.412  c0.351,1.088,0.712,2.214,1.009,3.332l0.318,1.196c0.541,2.031,1.101,4.131,1.607,6.23l0.081,0.33  c0.307,1.256,0.597,2.44,0.612,3.75c0.006,0.465,0.107,0.91,0.207,1.342c0.029,0.127,0.058,0.251,0.082,0.373  c-1.014-0.832-1.881-1.951-2.719-3.042c-0.446-0.581-0.909-1.181-1.395-1.738c-0.013-0.063-0.038-0.128-0.078-0.187  c-0.221-0.316-0.339-0.953-0.442-1.516c-0.066-0.361-0.132-0.707-0.218-0.98c-0.189-0.606-0.255-1.266-0.324-1.963  c-0.038-0.381-0.076-0.76-0.134-1.129c-0.445-2.849-1.237-5.758-2.292-8.414c-0.706-1.779-1.585-3.993-1.952-6.063l-0.186-1.037  c-0.206-1.146-0.411-2.287-0.592-3.438c-0.053-0.338-0.087-0.78-0.126-1.266c-0.131-1.642-0.278-3.502-1.137-4.31  c-0.201-0.189-0.518-0.181-0.707,0.021c-0.189,0.201-0.18,0.518,0.021,0.707c0.577,0.543,0.727,2.419,0.825,3.66  c0.041,0.515,0.079,0.982,0.135,1.341c0.182,1.159,0.389,2.308,0.596,3.461l0.186,1.035c0.385,2.171,1.284,4.437,2.007,6.258  c1.027,2.588,1.8,5.424,2.233,8.199c0.056,0.352,0.091,0.712,0.127,1.073c0.071,0.717,0.145,1.459,0.364,2.163  c0.042,0.135,0.078,0.29,0.111,0.455c-0.605-0.772-1.197-1.556-1.773-2.328c-0.24-0.322-0.483-0.647-0.728-0.972  c0.043-0.11,0.052-0.235,0.008-0.354c-0.112-0.307-0.157-0.654-0.203-1.021c-0.054-0.422-0.109-0.857-0.271-1.306  c-0.415-1.147-0.827-2.318-1.208-3.466l-0.033-0.1c-0.773-2.322-1.504-4.517-1.973-6.892c-0.244-1.245-0.701-2.412-1.143-3.542  c-0.456-1.167-0.888-2.271-1.106-3.456c-0.127-0.689-0.296-1.372-0.464-2.053c-0.143-0.58-0.286-1.159-0.401-1.739l-0.092-0.489  c-0.211-1.132-0.474-2.541-1.072-3.482c-0.147-0.233-0.456-0.301-0.69-0.153c-0.232,0.147-0.302,0.457-0.153,0.69  c0.494,0.778,0.737,2.081,0.933,3.129l0.095,0.499c0.118,0.596,0.265,1.19,0.411,1.785c0.163,0.662,0.327,1.325,0.451,1.995  c0.236,1.279,0.705,2.479,1.159,3.639c0.425,1.089,0.865,2.214,1.093,3.371c0.48,2.438,1.221,4.661,2.004,7.015l0.033,0.1  c0.385,1.155,0.799,2.334,1.217,3.489c0.084,0.232,0.129,0.477,0.166,0.728c-0.672-0.848-1.371-1.679-2.115-2.461  c-0.021-0.022-0.042-0.048-0.063-0.07c-0.434-2.176-1.449-4.229-2.435-6.217c-0.953-1.922-1.939-3.909-2.357-5.958  c-0.189-0.928-0.359-1.846-0.526-2.756c-0.713-3.864-1.386-7.515-3.404-11.208c-0.132-0.242-0.438-0.332-0.679-0.198  c-0.242,0.132-0.331,0.436-0.198,0.679c1.941,3.552,2.6,7.125,3.297,10.908c0.17,0.917,0.34,1.842,0.53,2.774  c0.444,2.178,1.46,4.225,2.442,6.203c0.657,1.325,1.315,2.683,1.804,4.065c-1.13-1.329-2.193-2.737-3.218-4.199  c-0.028-0.139-0.11-0.26-0.232-0.331c-1.032-1.49-2.026-3.034-3-4.614c0.01-0.039,0.023-0.077,0.023-0.119  c-0.013-1.62-0.623-3.743-1.161-5.616c-0.185-0.645-0.362-1.26-0.503-1.814c-0.419-1.652-1.038-3.372-1.638-5.036  c-0.474-1.314-0.963-2.675-1.354-3.998c-0.078-0.266-0.359-0.415-0.621-0.338c-0.265,0.078-0.416,0.356-0.338,0.621  c0.398,1.352,0.894,2.726,1.372,4.054c0.591,1.641,1.202,3.338,1.609,4.943c0.143,0.563,0.322,1.189,0.511,1.845  c0.324,1.127,0.659,2.335,0.88,3.453c-0.291-0.486-0.582-0.972-0.873-1.462l-0.276-0.467c-1.254-2.112-2.457-4.132-3.762-6.172  c0.04-0.134,0.03-0.281-0.049-0.409c-0.33-0.529-0.338-1.218-0.347-1.946c-0.007-0.57-0.014-1.159-0.17-1.738  c-0.207-0.77-1.004-3.369-2.556-4.504c-0.222-0.162-0.535-0.114-0.698,0.108c-0.163,0.222-0.115,0.535,0.108,0.698  c1.024,0.75,1.814,2.601,2.181,3.957c0.123,0.457,0.129,0.959,0.135,1.49c0.001,0.069,0.004,0.139,0.005,0.208l-0.052-0.078  c-0.929-1.42-1.889-2.888-3.147-4.127c-0.667-0.657-1.458-1.271-2.224-1.866c-1.039-0.808-2.091-1.646-2.87-2.598  C22.549,16.086,49.679,24.886,57.73,34.137z M75.193,82.627c0,0-0.002,0-0.004,0c-0.133-0.05-0.281-0.04-0.407,0.027  c-3.431,1.814-6.962,2.736-10.496,2.736c-25.842,0-46.438-48.104-47.259-53.866c-0.623-4.374-1.081-12.785-1.261-16.458  c0.814,0.919,1.827,1.71,2.817,2.479c0.776,0.604,1.51,1.174,2.136,1.79c1.182,1.163,2.07,2.522,3.012,3.961l0.507,0.771  c0.559,0.842,1.089,1.677,1.61,2.512c-0.088-0.074-0.176-0.146-0.264-0.221c-0.373-0.314-0.741-0.624-1.09-0.875  c-0.358-0.257-0.71-0.542-1.062-0.826c-0.494-0.4-1.006-0.813-1.542-1.159c-0.387-0.25-0.845-0.438-1.329-0.636  c-0.813-0.333-1.654-0.679-1.977-1.278c-0.13-0.243-0.435-0.333-0.677-0.204c-0.243,0.131-0.335,0.434-0.204,0.677  c0.492,0.917,1.548,1.35,2.479,1.73c0.44,0.181,0.856,0.352,1.166,0.551c0.491,0.317,0.981,0.713,1.454,1.097  c0.368,0.297,0.734,0.593,1.107,0.861c0.33,0.236,0.678,0.53,1.03,0.827c0.64,0.54,1.302,1.098,1.941,1.406  c0.062,0.03,0.127,0.041,0.192,0.044c0.611,1.011,1.218,2.028,1.837,3.072l0.277,0.466c0.058,0.097,0.115,0.191,0.172,0.288  c-0.232-0.108-0.468-0.216-0.702-0.318c-0.429-0.188-0.86-0.375-1.254-0.592l-0.692-0.382c-1.093-0.602-2.184-1.201-3.273-1.814  c-0.284-0.16-0.601-0.36-0.938-0.572c-1.175-0.74-2.506-1.58-3.703-1.621c-0.278,0.018-0.508,0.207-0.518,0.482  c-0.009,0.276,0.207,0.508,0.482,0.518c0.928,0.031,2.19,0.827,3.205,1.467c0.353,0.223,0.684,0.432,0.98,0.598  c1.092,0.615,2.186,1.217,3.282,1.82l0.69,0.38c0.427,0.235,0.89,0.438,1.337,0.633c0.587,0.257,1.142,0.499,1.578,0.795  c0.086,0.058,0.184,0.086,0.28,0.086c0.039,0,0.074-0.019,0.111-0.027c1.073,1.785,2.163,3.534,3.292,5.228  c-0.276-0.148-0.554-0.308-0.839-0.478c-0.46-0.273-0.935-0.556-1.423-0.772c-0.508-0.226-1.035-0.371-1.545-0.513  c-0.448-0.123-0.871-0.24-1.268-0.404c-0.573-0.237-1.106-0.57-1.671-0.922c-0.378-0.235-0.755-0.47-1.143-0.676  c-0.915-0.486-2.121-1.117-3.332-1.683c-0.196-0.092-0.421-0.179-0.655-0.27c-0.605-0.233-1.291-0.499-1.549-0.915  c-0.146-0.234-0.454-0.306-0.688-0.161c-0.234,0.146-0.307,0.453-0.161,0.688c0.434,0.7,1.286,1.03,2.038,1.32  c0.212,0.082,0.415,0.16,0.592,0.243c1.191,0.556,2.382,1.179,3.287,1.659c0.367,0.195,0.725,0.418,1.082,0.642  c0.574,0.357,1.168,0.728,1.817,0.997c0.454,0.188,0.927,0.318,1.384,0.444c0.496,0.138,0.966,0.268,1.406,0.463  c0.434,0.192,0.862,0.447,1.316,0.718c0.743,0.442,1.513,0.884,2.348,1.075c1.053,1.506,2.148,2.958,3.314,4.329  c-0.108-0.051-0.219-0.109-0.322-0.149c-0.661-0.254-1.338-0.47-2.015-0.686c-0.554-0.177-1.106-0.354-1.65-0.551  c-1.344-0.49-2.704-1.066-4.021-1.624c-2.353-0.998-4.785-2.029-7.298-2.645c-0.271-0.063-0.539,0.099-0.604,0.366  c-0.066,0.269,0.098,0.539,0.366,0.604c2.435,0.597,4.83,1.612,7.146,2.595c1.327,0.562,2.699,1.144,4.068,1.643  c0.556,0.202,1.122,0.383,1.688,0.564c0.658,0.21,1.317,0.42,1.96,0.666c0.16,0.062,0.329,0.147,0.501,0.235  c0.419,0.212,0.89,0.45,1.369,0.45c0.031,0,0.062-0.001,0.095-0.003c0.007,0,0.013-0.005,0.02-0.005  c0.108,0.116,0.211,0.239,0.32,0.354c1.199,1.262,2.291,2.668,3.342,4.068c-0.788-0.263-1.616-0.462-2.432-0.647  c-0.983-0.224-2-0.456-2.919-0.81c-0.994-0.383-2.024-0.674-3.021-0.955c-1.042-0.294-2.12-0.599-3.129-1.003  c-1.974-0.792-4.065-1.66-6.04-2.797c-0.238-0.138-0.544-0.057-0.683,0.185c-0.138,0.239-0.055,0.545,0.185,0.683  c2.03,1.169,4.159,2.053,6.165,2.857c1.06,0.425,2.163,0.736,3.23,1.038c0.975,0.274,1.982,0.56,2.934,0.926  c0.986,0.379,2.038,0.619,3.056,0.852c1.29,0.294,2.509,0.57,3.524,1.102c0.074,0.038,0.153,0.057,0.231,0.057  c0.005,0,0.009-0.004,0.013-0.004c0.913,1.224,1.853,2.463,2.874,3.623c0.488,0.558,0.963,1.174,1.42,1.771  c-1.234-0.371-2.543-0.618-3.826-0.854c-1.637-0.297-3.329-0.604-4.829-1.182c-2.035-0.781-3.987-1.906-5.46-2.801  c-0.6-0.363-1.218-0.652-1.815-0.932l-0.577-0.272c-0.276-0.134-0.629-0.276-1.012-0.433c-0.95-0.387-2.252-0.915-2.669-1.5  c-0.161-0.224-0.473-0.274-0.698-0.116c-0.225,0.161-0.276,0.473-0.116,0.698c0.586,0.82,1.926,1.365,3.107,1.844  c0.36,0.146,0.692,0.28,0.953,0.405l0.589,0.279c0.6,0.279,1.166,0.545,1.72,0.881c1.509,0.914,3.511,2.068,5.62,2.879  c1.587,0.608,3.326,0.926,5.008,1.231c1.877,0.341,3.65,0.664,5.189,1.354c0.571,0.685,1.177,1.336,1.867,1.875  c1.397,1.093,2.657,2.211,3.823,3.363c-0.17-0.021-0.342-0.043-0.51-0.062c-0.476-0.056-0.924-0.106-1.342-0.202  c-0.647-0.146-1.294-0.261-1.936-0.375c-1.49-0.268-2.898-0.518-4.293-1.131c-1.871-0.821-3.753-1.619-5.634-2.416l-1.845-0.783  c-1.098-0.467-2.562-1.056-4.159-1.465c-0.585-0.148-1.179-0.25-1.752-0.348c-0.944-0.159-1.836-0.311-2.682-0.66  c-0.252-0.107-0.547,0.016-0.653,0.271c-0.105,0.255,0.016,0.548,0.271,0.653c0.951,0.395,1.94,0.562,2.897,0.723  c0.554,0.094,1.127,0.19,1.671,0.33c1.532,0.393,2.951,0.963,4.016,1.416l1.846,0.784c1.877,0.796,3.755,1.592,5.622,2.411  c1.504,0.66,3.037,0.936,4.52,1.199c0.627,0.111,1.259,0.225,1.893,0.365c0.471,0.106,0.966,0.164,1.445,0.221  c0.684,0.08,1.328,0.162,1.881,0.363c0.42,0.457,0.831,0.916,1.224,1.39c0.603,0.726,1.239,1.411,1.9,2.069  c-1.63-0.389-3.361-0.594-5.058-0.785c-1.058-0.121-2.058-0.233-3.026-0.392c-2.98-0.477-5.385-1.151-7.348-2.062  c-0.46-0.215-0.91-0.457-1.361-0.7c-0.821-0.442-1.671-0.899-2.59-1.192c-0.185-0.06-0.409-0.115-0.652-0.176  c-0.696-0.172-1.65-0.406-1.902-0.872c-0.131-0.245-0.437-0.333-0.677-0.202c-0.243,0.131-0.334,0.436-0.202,0.678  c0.461,0.854,1.615,1.14,2.542,1.367c0.219,0.055,0.421,0.104,0.588,0.157c0.831,0.265,1.603,0.681,2.419,1.12  c0.469,0.253,0.937,0.505,1.415,0.727c2.048,0.951,4.537,1.652,7.61,2.145c0.992,0.16,2.05,0.279,3.073,0.396  c2.326,0.264,4.732,0.537,6.753,1.301c0.019,0.007,0.036,0.005,0.054,0.01c0.987,0.877,2,1.712,3.021,2.52  c-0.113,0.004-0.229,0.008-0.344,0.014c-0.31,0.014-0.617,0.029-0.922,0.019c-0.439-0.017-0.884-0.028-1.328-0.041  c-1.486-0.042-3.024-0.085-4.475-0.293c-0.718-0.103-1.43-0.223-2.141-0.342c-1.604-0.271-3.266-0.55-4.965-0.627  c-0.68-0.032-1.315-0.231-1.989-0.443c-0.412-0.13-0.828-0.261-1.263-0.356c-0.208-0.047-0.522-0.098-0.888-0.155  c-0.715-0.114-2.612-0.418-2.875-0.749c-0.158-0.227-0.471-0.279-0.695-0.123c-0.227,0.158-0.282,0.471-0.124,0.695  c0.436,0.623,1.799,0.887,3.537,1.164c0.341,0.055,0.634,0.102,0.828,0.145c0.405,0.09,0.794,0.213,1.18,0.334  c0.704,0.223,1.433,0.451,2.243,0.488c1.64,0.074,3.27,0.35,4.845,0.613c0.719,0.121,1.438,0.242,2.164,0.348  c1.507,0.216,3.072,0.26,4.589,0.302c0.44,0.013,0.881,0.025,1.317,0.042c0.33,0.012,0.67-0.003,1.01-0.02  c0.631-0.031,1.226-0.053,1.744,0.125c0.037,0.029,0.076,0.062,0.115,0.092c0.971,0.754,1.938,1.507,2.889,2.285  c0.567,0.465,1.08,1.016,1.578,1.564c-2.08,0.219-4.547,0.228-7.258-0.005c-0.477-0.041-0.963-0.063-1.451-0.085  c-0.68-0.031-1.381-0.062-2.035-0.15c-0.418-0.056-0.836-0.18-1.277-0.312c-0.395-0.118-0.801-0.239-1.225-0.313  c-1.02-0.182-2.059-0.248-3.062-0.312c-1.118-0.072-2.273-0.146-3.371-0.381c-0.266-0.053-0.536,0.115-0.594,0.385  c-0.058,0.271,0.115,0.536,0.385,0.594c1.169,0.248,2.361,0.325,3.516,0.4c0.979,0.062,1.988,0.128,2.955,0.299  c0.364,0.065,0.728,0.174,1.11,0.288c0.459,0.138,0.935,0.28,1.431,0.347c0.698,0.094,1.424,0.125,2.123,0.157  c0.476,0.021,0.948,0.042,1.411,0.082c1.416,0.122,2.775,0.183,4.054,0.183c1.508,0,2.895-0.088,4.129-0.256  c0.029,0.029,0.06,0.061,0.088,0.092c0.045,0.147,0.158,0.263,0.305,0.317c0.418,0.429,0.857,0.841,1.348,1.202  c0.036,0.025,0.074,0.046,0.11,0.071c-2.202,0.614-4.69,0.866-7.114,1.106c-1.154,0.114-2.35,0.232-3.47,0.389  c-0.272,0.039-0.464,0.291-0.426,0.564c0.034,0.25,0.249,0.432,0.493,0.432c0.023,0,0.048-0.002,0.07-0.006  c1.102-0.152,2.231-0.266,3.43-0.384c2.845-0.282,5.775-0.579,8.309-1.46c0.131,0.049,0.262,0.096,0.393,0.141  c0.184,0.064,0.362,0.131,0.539,0.199c0.061,0.114,0.164,0.205,0.299,0.244c0.047,0.014,0.095,0.021,0.142,0.021  c0.028,0,0.051-0.021,0.079-0.026c0.131,0.07,0.256,0.147,0.375,0.235C75.689,82.521,75.43,82.627,75.193,82.627z M80.689,88.631  l-3.853-5.805c0.166-0.184,0.332-0.409,0.497-0.68l5.977,4.744L80.689,88.631z"></path></svg>