<svg xmlns="http://www.w3.org/2000/svg" xmlns:xlink="http://www.w3.org/1999/xlink" version="1.1" x="0px" y="0px" viewBox="-37.5 -28.167 100 100" enable-background="new -37.5 -28.167 100 100" xml:space="preserve"><path d="M28.925,21.381c0.409-2.452,0.673-4.926,0.647-7.435C29.51,6.931,27.708,0.514,25.32-4.979c-0.016-0.03,0-0.066-0.021-0.096  c-0.011-0.01-0.026-0.007-0.031-0.018c-4.907-11.215-12.265-18.476-12.434-18.643l0,0l-0.008-0.008  c-0.114-0.109-0.263-0.151-0.409-0.165c-0.018-0.002-0.031-0.021-0.053-0.021c-0.021,0-0.031,0.018-0.052,0.021  c-0.146,0.011-0.295,0.056-0.409,0.165l-0.008,0.008l0,0c-0.17,0.167-7.53,7.428-12.436,18.643  c-0.008,0.011-0.024,0.008-0.032,0.018c-0.021,0.03-0.005,0.066-0.021,0.099C-2.979,0.514-4.779,6.931-4.846,13.946  c-0.024,2.506,0.236,4.98,0.647,7.433c-0.012,0.099,0.01,0.175,0.042,0.268c1.737,10.007,7.013,19.556,15.856,28.463v15.298  c0,0.368,0.297,0.663,0.663,0.663c0.367,0,0.663-0.295,0.663-0.663V50.11c8.847-8.907,14.124-18.456,15.856-28.463  C28.914,21.554,28.94,21.478,28.925,21.381z M-3.517,13.971c0.01-1.308,0.096-2.588,0.223-3.853l14.996,10.234v14.444L-2.889,21.18  C-3.289,18.799-3.541,16.402-3.517,13.971z M0.285-3.656l11.417,8.071v14.333L-3.102,8.643C-2.5,4.2-1.263,0.063,0.285-3.656z   M27.827,8.643l-14.8,10.105V4.415l11.42-8.071C25.993,0.061,27.226,4.197,27.827,8.643z M13.027,2.789v-24.398  c2.205,2.417,7.221,8.429,10.895,16.696L13.027,2.789z M11.702,2.789L0.81-4.911c3.676-8.264,8.687-14.277,10.892-16.699V2.789z   M13.027,20.352l14.996-10.237c0.124,1.26,0.212,2.538,0.223,3.843c0.026,2.434-0.228,4.835-0.627,7.222L13.027,34.802V20.352z   M-2.521,23.337l14.222,13.274v11.566C4.182,40.333-0.592,32.016-2.521,23.337z M13.027,36.612l14.22-13.274  c-1.93,8.679-6.701,16.995-14.22,24.841V36.612z"></path></svg>