<svg xmlns="http://www.w3.org/2000/svg" xmlns:xlink="http://www.w3.org/1999/xlink" version="1.1" x="0px" y="0px" viewBox="0 0 100 100" enable-background="new 0 0 100 100" xml:space="preserve"><path d="M51.542,8.714L50,7.5l-1.542,1.214C47.244,9.67,18.749,32.438,18.749,61.248C18.749,78.481,32.768,92.5,50,92.5  c17.232,0,31.251-14.019,31.251-31.252C81.251,32.438,52.756,9.67,51.542,8.714z M52.494,87.391V77.226L70.28,61.065  c1.02-0.926,1.095-2.503,0.169-3.523c-0.927-1.019-2.503-1.094-3.523-0.169L52.494,70.486V53.728L63.663,43.58  c1.019-0.926,1.095-2.503,0.169-3.523c-0.927-1.018-2.503-1.093-3.523-0.169l-7.815,7.1V22.841c0-1.378-1.116-2.494-2.494-2.494  c-1.378,0-2.494,1.116-2.494,2.494v24.148l-7.815-7.1c-1.02-0.925-2.598-0.849-3.523,0.169c-0.926,1.019-0.85,2.597,0.169,3.523  l11.169,10.147v16.759L33.074,57.373c-1.02-0.925-2.595-0.85-3.523,0.169c-0.926,1.02-0.851,2.597,0.169,3.523l17.787,16.161v10.166  C34.19,86.131,23.736,74.889,23.736,61.248c0-22.71,20.419-42.199,26.264-47.311c5.845,5.112,26.264,24.602,26.264,47.311  C76.264,74.889,65.81,86.131,52.494,87.391z"></path></svg>