<svg xmlns="http://www.w3.org/2000/svg" xmlns:xlink="http://www.w3.org/1999/xlink" version="1.1" x="0px" y="0px" viewBox="0 0 100 100" enable-background="new 0 0 100 100" xml:space="preserve"><path fill-rule="evenodd" clip-rule="evenodd" d="M49.449,17.899c9.533,9.367,14.418,18.084,14.65,26.15  c0,7.301-3.883,14.066-11.65,20.301L49.5,35.149l-2.801,28.15c-2.832-2.434-5.115-4.967-6.85-7.6c-2.566-3.934-3.883-8-3.949-12.199  C36,35.534,40.518,27,49.449,17.899z M38.35,63.25c2.367,2.232,4.084,6.684,5.15,13.35c-6.133-5.334-10.982-8.467-14.551-9.4  c-3.566-1-6.217-1.6-7.949-1.801c-1.732-0.199-3.232-0.25-4.5-0.148l4.949,1.949c5.967,2.166,12.234,6.518,18.801,13.051  c-1.934,0.1-4.584,0.434-7.949,1c-3.5,0.566-6.068,0.85-7.701,0.85c-2.832,0-5.4-0.801-7.699-2.4  c-2.133-1.434-3.768-3.449-4.9-6.051c-2.199-4.865-3.717-7.965-4.551-9.299l0.051,0.1c-0.801-1.334-1.633-2.5-2.5-3.5  c1.066-0.334,2.268-0.732,3.6-1.199l-0.049,0.1c4.932-1.533,9.582-2.301,13.949-2.301c4.5,0,8.518,0.984,12.051,2.951  c1.332,0.766,2.6,1.666,3.799,2.699V63.25z M95,60.95c-0.867,1-1.699,2.166-2.5,3.5l0.051-0.1c-0.834,1.334-2.352,4.434-4.551,9.299  c-1.133,2.602-2.768,4.617-4.9,6.051c-2.299,1.6-4.867,2.4-7.699,2.4c-1.633,0-4.201-0.283-7.701-0.85  c-3.365-0.566-6.016-0.9-7.949-1c6.566-6.533,12.834-10.885,18.801-13.051L83.5,65.25c-1.268-0.102-2.768-0.051-4.5,0.148  C77.268,65.6,74.617,66.2,71.051,67.2c-3.568,0.934-8.418,4.066-14.551,9.4c1.066-6.666,2.783-11.117,5.15-13.35V63.2  c1.199-1.033,2.467-1.934,3.799-2.699C68.982,58.534,73,57.549,77.5,57.549c4.367,0,9.018,0.768,13.949,2.301l-0.049-0.1  C92.732,60.217,93.934,60.616,95,60.95z"></path></svg>