<svg xmlns="http://www.w3.org/2000/svg" xmlns:xlink="http://www.w3.org/1999/xlink" version="1.0" x="0px" y="0px" viewBox="0 0 100 100" enable-background="new 0 0 100 100" xml:space="preserve"><path d="M5.7047791,6.328373c0,0,1.5461836,53.0420494,24.7406464,76.2365112  C45.576149,97.69561,69.929451,95.8839264,83.8535767,93.9799118L71.4856033,79.8801727l-35.7790489-8.0188065l28.6396675-0.1194  l-7.2963791-8.3117485l-33.0035095-8.0675011h25.9258099l-7.3881416-8.4257011l-24.6716385-7.1594963l17.7178497-0.7656631  l-19.7433281-22.501379l22.5023193,19.7423878l0.7656631-17.7178497L46.3153,43.2057152l8.4247627,7.38908V24.6689854  l8.0673103,33.0037003l8.3119431,7.296196l0.1194-28.6396713l8.0187988,35.7790451l14.0988083,12.3689117  c1.9049454-13.9250641,3.7164459-38.2781754-11.4142761-53.4088974C58.7475815,7.873805,5.7047791,6.328373,5.7047791,6.328373z"></path></svg>