<svg xmlns:dc="http://purl.org/dc/elements/1.1/" xmlns:cc="http://creativecommons.org/ns#" xmlns:rdf="http://www.w3.org/1999/02/22-rdf-syntax-ns#" xmlns:svg="http://www.w3.org/2000/svg" xmlns="http://www.w3.org/2000/svg" xmlns:sodipodi="http://sodipodi.sourceforge.net/DTD/sodipodi-0.dtd" xmlns:inkscape="http://www.inkscape.org/namespaces/inkscape" viewBox="0 0 48 48.000001" version="1.1" x="0px" y="0px"><g transform="translate(0,-1004.3622)"><path  d="m 24.023438,1005.3622 0,0.01 a 1.0000999,0.99994866 0 0 0 -0.8125,0.3846 c 0,0 -5.857217,7.5265 -8.59961,11.3811 l -0.0039,0 c -3.9791,5.5144 -7.7945751,12.9802 -6.2597658,20.6415 a 1.0000999,0.99994866 0 0 0 0.027344,0.1092 c 0.8607131,2.6756 2.1185948,6.5248 4.8964838,8.9597 2.762601,2.4216 6.548607,4.3101 10.447266,4.4739 0.0013,0 0.0026,-10e-5 0.0039,0 a 1.0001,0.99994876 0 0 0 0.488282,0.018 c 6.51e-4,0 0.0013,0 0.002,0 0.12714,4e-4 0.25359,0.017 0.380859,0.014 3.764315,-0.1011 7.259842,-2.1621 9.796875,-4.5247 2.669183,-2.4854 3.976613,-6.2506 4.841797,-8.9401 a 1.0000999,0.99994866 0 0 0 0.0059,-0.019 c 2.103591,-6.975 -0.368311,-14.4616 -4.707031,-20.7234 a 1.0000999,0.99994866 0 0 0 -0.0078,-0.01 c -2.817009,-3.9602 -9.791016,-11.4534 -9.791016,-11.4534 a 1.0000999,0.99994866 0 0 0 -0.708984,-0.3183 z M 25,1008.9691 c 1.377852,1.5105 3.800832,4.1904 5.939453,6.8095 L 25,1018.7469 l 0,-9.7778 z m -2,0.3437 0,9.3286 -4.949219,-2.8257 c 1.870974,-2.5163 3.749446,-4.9523 4.949219,-6.5029 z m 9.205078,8.069 c 0.237662,0.3116 0.482749,0.6306 0.681641,0.9101 0.954172,1.3772 1.797612,2.8061 2.517578,4.265 L 25,1028.6243 l 0,-7.6414 7.205078,-3.6011 z m -15.34375,0.059 6.138672,3.5073 0,7.6766 -9.699219,-5.6573 c 0.894961,-1.6519 1.893795,-3.2247 2.933594,-4.6654 a 1.0000999,0.99994866 0 0 0 0.0039,-0.012 c 0.178328,-0.2507 0.424803,-0.5762 0.623047,-0.8495 z m 19.371094,6.9482 c 0.999715,2.4377 1.613665,4.9327 1.730469,7.3954 L 25,1038.697 l 0,-7.7566 11.232422,-6.5518 z m -23.84375,0.3613 10.611328,6.1905 0,7.7566 -12.810547,-6.831 c 0.332953,-2.4416 1.133096,-4.8425 2.199219,-7.1161 z m -2.363281,9.2954 12.974609,6.917 0,8.3093 c -3.045433,-0.3606 -6.144088,-1.9408 -8.410156,-3.9272 -2.172983,-1.9047 -3.433805,-5.3622 -4.283203,-7.9949 -0.217155,-1.0982 -0.297108,-2.2026 -0.28125,-3.3042 z m 27.898437,0.027 c -0.09234,1.0887 -0.283654,2.1671 -0.601562,3.2221 -0.845177,2.6248 -2.149641,6.0735 -4.294922,8.0711 -2.167095,2.0182 -5.124605,3.7098 -8.027344,3.9467 l 0,-8.3503 12.923828,-6.8896 z"></path></g></svg>