<svg xmlns="http://www.w3.org/2000/svg" xmlns:xlink="http://www.w3.org/1999/xlink" version="1.1" x="0px" y="0px" viewBox="0 0 100 100" enable-background="new 0 0 100 100" xml:space="preserve"><path d="M50,85.821c0.553,0,1-0.447,1-1V73.72c8.781-0.463,16.382-6.939,18.283-15.765c0.729-3.377,0.768-7.125,0.12-11.457  c-1.877-12.576-8.7-24.278-18.721-32.107c-0.176-0.138-0.393-0.212-0.615-0.212h-0.135c-0.223,0-0.439,0.074-0.615,0.212  C39.297,22.22,32.474,33.922,30.597,46.498c-0.647,4.331-0.608,8.079,0.119,11.457C32.618,66.781,40.22,73.257,49,73.72v11.102  C49,85.374,49.447,85.821,50,85.821z M32.671,57.533c-0.676-3.138-0.707-6.65-0.096-10.74C34.343,34.949,40.679,23.913,50,16.401  c9.321,7.512,15.657,18.548,17.425,30.392c0.611,4.09,0.58,7.604-0.097,10.74C65.624,65.444,58.844,71.258,51,71.72v-7.956  l5.612-5.612c0.391-0.391,0.391-1.023,0-1.414s-1.023-0.391-1.414,0L51,60.936v-6.061l5.612-5.613c0.391-0.391,0.391-1.023,0-1.414  s-1.023-0.391-1.414,0L51,52.047v-6.061l5.612-5.612c0.391-0.391,0.391-1.023,0-1.414s-1.023-0.391-1.414,0L51,43.157V29.655  c0-0.553-0.447-1-1-1s-1,0.447-1,1v13.502l-4.199-4.199c-0.391-0.391-1.023-0.391-1.414,0s-0.391,1.023,0,1.414L49,45.985v6.061  l-4.199-4.199c-0.391-0.391-1.023-0.391-1.414,0s-0.391,1.023,0,1.414L49,54.875v6.061l-4.199-4.199  c-0.391-0.391-1.023-0.391-1.414,0s-0.391,1.023,0,1.414L49,63.764v7.956C41.156,71.258,34.376,65.444,32.671,57.533z"></path></svg>