<svg xmlns="http://www.w3.org/2000/svg" xmlns:xlink="http://www.w3.org/1999/xlink" xmlns:sketch="http://www.bohemiancoding.com/sketch/ns" viewBox="0 0 70 70" version="1.1" x="0px" y="0px"><title>leaf-decoration-nature-plant-green</title><desc>Created with Sketch.</desc><g stroke="none" stroke-width="1"  fill-rule="evenodd" sketch:type="MSPage"><g sketch:type="MSArtboardGroup" transform="translate(-395.000000, -895.000000)"><path d="M419.361556,945.473003 C421.854565,943.353911 424.596934,940.907886 427.496831,938.140222 C430.420315,938.396658 437.197333,938.573132 441.01538,935.28418 C437.923677,936.492111 432.079324,936.524199 429.237079,936.458546 C431.494603,934.249746 433.833255,931.854297 436.21224,929.274552 L436.21224,929.274552 C437.970611,929.491726 444.044824,929.925514 448.249268,926.303711 C444.724642,927.680785 439.320963,927.674706 437.703735,927.638516 C441.052157,923.923082 444.462858,919.848073 447.82422,915.419922 C443.962675,919.334486 440.362903,922.886171 437.0233,926.101444 C436.797103,923.883186 436.641174,919.58364 438.106689,915.524658 C434.836557,920.372053 435.015929,925.262348 435.387901,927.669022 C432.599988,930.329377 430.002903,932.745942 427.595637,934.935368 C427.627936,932.393204 427.892877,927.027028 429.433594,922.759766 C426.054402,927.768821 425.839937,933.66051 425.960947,936.413635 L425.960947,936.413635 C422.981704,939.092081 420.315155,941.402229 417.959164,943.379345 C418.233057,940.93695 419.037881,936.16675 421.402832,929.22168 C415.321533,938.888184 415.682617,946.715332 415.682617,946.715332 C415.682617,946.715332 428.096191,950.008789 435.664551,944.682129 C430.246719,946.4004 422.599026,945.82809 419.361556,945.473003 Z M411.724724,951.60332 C420.225238,959.769608 443.747129,947.724141 450.799805,937.459473 C449.103222,937.874337 445.059567,938.651367 443.440431,937.459473 C448.567872,935.094238 453.17627,929.077637 456.617188,922.713379 C454.115724,923.764648 454.557722,923.44046 451.59668,923.221191 C458.813477,915.570313 458.20215,910.872559 459.628418,900.025391 C454.633788,905.834961 452.160155,903.736328 445.059569,910.632812 C446.014159,907.566894 449.510741,901.842285 449.510741,901.842285 C449.510741,901.842285 431.339356,911.444336 427.713379,919.915527 C427.148437,918.525879 427.579589,916.682129 428.478027,910.632812 C423.352434,916.599266 405.051878,936.893025 410.239882,949.555045 C407.760376,951.421595 406.07988,952.54449 405.189453,953.071289 C402.675919,954.779785 406.095566,955.601172 406.095566,955.601172 C406.095566,955.601172 408.209306,954.254876 411.724724,951.60332 L411.724724,951.60332 Z"  sketch:type="MSShapeGroup"></path></g></g></svg>