<svg xmlns="http://www.w3.org/2000/svg" xmlns:xlink="http://www.w3.org/1999/xlink" version="1.1" x="0px" y="0px" viewBox="0 0 100 100" enable-background="new 0 0 100 100" xml:space="preserve"><g><path d="M71.18,69.801C57.8,83.343,55.865,89.147,58.768,94.627c0,0-8.868-1.61-24.508-18.055   c-6.321-6.647-9.692-13.905-11.026-20.715c1.691,3.214,4.987,5.398,8.779,5.398c5.517,0,9.985-4.619,9.985-10.316   c0-5.7-4.469-10.319-9.985-10.319c-4.386,0-8.115,2.924-9.455,6.992c0.22-6.6,2.273-12.215,5.094-15.617   c6.293-7.601,14.347-2.552,22.339,5.051c-0.089-9.707-1.319-14.732-11.378-23.188c-5.32-3.062-1.772-5.48-0.482-6.932   c1.291-1.451,2.742-3.385,6.449,2.095c3.419,5.056,8.625,13.82,7.891,27.679c5.305-5.303,12.734-2.602,16.453,0.373   C72.952,40.298,84.561,56.258,71.18,69.801z"></path></g></svg>