<svg xmlns="http://www.w3.org/2000/svg" data-name="Layer 1" viewBox="0 0 128 128" x="0px" y="0px"><title>98 Miscellaneous 23</title><path d="M127.51,64a2.32,2.32,0,0,1,0-.46c1.11-7.1.34-14.4-4.54-19.82-4.45-4.94-10.68-7.08-17-7.08a29.58,29.58,0,0,0-9.6,1.63C90.59,40.3,85.1,44,80,48c4-5.14,7.74-10.64,9.76-16.49,3.09-9,2.06-19.8-5.45-26.57-4-3.63-9.1-5-14.35-5a35.43,35.43,0,0,0-5.46.45,2.46,2.46,0,0,1-.92,0A35.43,35.43,0,0,0,58.08,0C52.82,0,47.75,1.36,43.73,5c-7.51,6.77-8.54,17.62-5.45,26.57C40.3,37.41,44,42.9,48,48c-5.14-4-10.64-7.74-16.49-9.77A29.59,29.59,0,0,0,22,36.65c-6.29,0-12.51,2.14-17,7.08C.1,49.14-.66,56.45.45,63.54a2.51,2.51,0,0,1,0,.92C-.66,71.55.1,78.86,5,84.27c4.45,4.94,10.68,7.08,17,7.08a29.58,29.58,0,0,0,9.6-1.63C37.41,87.7,42.9,84,48,80c-4,5.14-7.74,10.64-9.77,16.49-3.09,9-2.06,19.8,5.45,26.57,4,3.63,9.1,5,14.35,5a35.44,35.44,0,0,0,5.46-.45,2.51,2.51,0,0,1,.92,0,35.43,35.43,0,0,0,5.46.45c5.25,0,10.33-1.36,14.35-5,7.51-6.77,8.54-17.62,5.45-26.57C87.7,90.59,84,85.1,80,80c5.14,4,10.64,7.74,16.49,9.76a29.58,29.58,0,0,0,9.6,1.63c6.29,0,12.51-2.14,17-7.08,4.88-5.41,5.65-12.72,4.54-19.82A2.39,2.39,0,0,1,127.51,64ZM31.44,50.35a2,2,0,0,1-2.58,1.17C24.3,49.8,20.61,49.63,18.19,51A7.12,7.12,0,0,0,15,55.61a2,2,0,0,1-2,1.68l-.31,0A2,2,0,0,1,11.06,55a11.09,11.09,0,0,1,5.06-7.4c3.55-2.09,8.32-2,14.15.17A2,2,0,0,1,31.44,50.35ZM68.92,56.2a2,2,0,0,1,2.83,0,11.21,11.21,0,0,1,.82.92,2,2,0,0,1-3.12,2.5,7,7,0,0,0-.53-.58A2,2,0,0,1,68.92,56.2ZM53,64a11.15,11.15,0,0,1,.07-1.2,2,2,0,1,1,4,.43A7.2,7.2,0,0,0,57,64a2,2,0,0,1-4,0Zm4,54h-.13a11.09,11.09,0,0,1-7.8-4.43c-2.38-3.37-2.72-8.12-1-14.12a2,2,0,0,1,3.85,1.09c-1.34,4.71-1.19,8.42.43,10.72A7.07,7.07,0,0,0,57.13,114a2,2,0,0,1-.13,4Zm2.06-46.21a2,2,0,0,1-2.83,0,11.06,11.06,0,0,1-.82-.92,2,2,0,0,1,3.12-2.5,7,7,0,0,0,.52.58A2,2,0,0,1,59.06,71.79Zm.56-13.25a7.19,7.19,0,0,0-.59.53,2,2,0,0,1-2.83-2.82,11.19,11.19,0,0,1,.92-.82,2,2,0,1,1,2.5,3.12ZM64,75h0a11.13,11.13,0,0,1-1.22-.07,2,2,0,1,1,.44-4A7.18,7.18,0,0,0,64,71a2,2,0,0,1,0,4ZM62,64a2,2,0,1,1,2,2A2,2,0,0,1,62,64Zm5-8.73a2,2,0,0,1-2,1.79h-.22A7.2,7.2,0,0,0,64,57a2,2,0,0,1-2-2,2,2,0,0,1,2-2h0a11.07,11.07,0,0,1,1.19.06A2,2,0,0,1,67,55.27Zm4.82,16.51a11.14,11.14,0,0,1-.92.82,2,2,0,1,1-2.5-3.13,6.83,6.83,0,0,0,.58-.52,2,2,0,0,1,2.83,2.83ZM75,64a10.91,10.91,0,0,1-.07,1.23,2,2,0,0,1-2,1.78h-.23A2,2,0,0,1,71,64.78,7.17,7.17,0,0,0,71,64a2,2,0,0,1,2-2,2,2,0,0,1,2,2Zm4.93-35.45a2,2,0,0,1-3.85-1.09c1.34-4.71,1.19-8.42-.43-10.72A7.07,7.07,0,0,0,70.87,14,2,2,0,0,1,69,11.87,2,2,0,0,1,71.13,10a11.09,11.09,0,0,1,7.8,4.43C81.3,17.8,81.64,22.55,79.93,28.55Zm37.33,43.84a11.09,11.09,0,0,1-5.06,7.4,11.7,11.7,0,0,1-6,1.52,23.31,23.31,0,0,1-8.12-1.7,2,2,0,0,1,1.41-3.74c4.56,1.72,8.25,1.89,10.67.49a7.12,7.12,0,0,0,3.17-4.58,2,2,0,0,1,4,.6Z"></path></svg>