<svg xmlns="http://www.w3.org/2000/svg" xmlns:xlink="http://www.w3.org/1999/xlink" version="1.1" x="0px" y="0px" viewBox="0 0 100 100"  xml:space="preserve"><path d="M94.2,37.4l-7.7-5.8c-0.2-0.2-0.4-0.3-0.6-0.4L51.2,5.4c-0.7-0.5-1.7-0.5-2.4,0L14.1,31.2c-0.2,0.1-0.4,0.2-0.6,0.4  l-7.7,5.8c-0.9,0.7-1.1,1.9-0.4,2.8c0.7,0.9,1.9,1.1,2.8,0.4L13,37v48c0,5.5,4.5,10,10,10h54c5.5,0,10-4.5,10-10V37l4.8,3.6  c0.4,0.3,0.8,0.4,1.2,0.4c0.6,0,1.2-0.3,1.6-0.8C95.3,39.3,95.1,38.1,94.2,37.4z M83,85c0,3.3-2.7,6-6,6H23c-3.3,0-6-2.7-6-6V34  L50,9.5L83,34V85z M48.6,42L45,45.7c-2.2,2.2-3.8,4.9-4.7,7.7c-2.5-1.2-5.3-1.8-8.2-1.8h-5c-1.1,0-2,0.9-2,2v5c0,11,9,20,20,20h10  c11,0,20-9,20-20v-5c0-1.1-0.9-2-2-2h-5c-2.9,0-5.7,0.7-8.2,1.8c-1-2.8-2.5-5.5-4.7-7.7L51.4,42C50.7,41.2,49.3,41.2,48.6,42z   M45,74.6c-8.8,0-16-7.2-16-16v-3h3c2.7,0,5.1,0.7,7.3,1.8c-0.8,6,1.1,12.3,5.6,16.9l0.3,0.3H45z M60.7,57.4  c2.2-1.1,4.7-1.8,7.3-1.8h3v3c0,8.8-7.2,16-16,16h-0.2l0.3-0.3C59.5,69.7,61.4,63.4,60.7,57.4z M52.2,48.5c6.2,6.3,6.2,16.7,0,23  L50,73.8l-2.2-2.2c-6.2-6.3-6.2-16.7,0-23l2.2-2.2L52.2,48.5z"></path></svg>