<svg xmlns:dc="http://purl.org/dc/elements/1.1/" xmlns:cc="http://creativecommons.org/ns#" xmlns:rdf="http://www.w3.org/1999/02/22-rdf-syntax-ns#" xmlns:svg="http://www.w3.org/2000/svg" xmlns="http://www.w3.org/2000/svg" xmlns:sodipodi="http://sodipodi.sourceforge.net/DTD/sodipodi-0.dtd" xmlns:inkscape="http://www.inkscape.org/namespaces/inkscape" viewBox="0 0 48 48.000001" version="1.1" x="0px" y="0px"><g transform="translate(0,-1004.3622)"><path d="m 24.75841,1007.7196 c 1.34021,1.4647 4.25604,4.6903 6.57812,7.5567 l -6.57812,3.289 0,-10.8457 z" ></path><path d="m 23.25841,1007.9931 0,10.4941 -5.5625,-3.1797 c 2.18577,-2.9492 4.47015,-5.906 5.5625,-7.3144 z" ></path><path d="m 32.2877,1016.4774 c 0.29026,0.3768 0.57858,0.7525 0.81446,1.084 1.29033,1.8629 2.39346,3.8207 3.24414,5.8242 l -0.72852,-1.248 -10.85937,6.334 0,-8.2305 7.52929,-3.7637 z" ></path><path d="m 16.80528,1016.5263 6.45313,3.6855 0,8.2598 -10.29297,-6.0039 c 0.92947,-1.7409 1.98606,-3.3887 3.07422,-4.8965 l 0.002,-0 0,-0 c 0.21594,-0.3036 0.51741,-0.7027 0.76367,-1.041 z" ></path><path d="m 36.36778,1023.4364 c 1.09724,2.5983 1.75954,5.2706 1.86133,7.9082 l -13.4707,7.1836 0,-8.3203 11.60937,-6.7715 z" ></path><path d="m 12.2877,1023.8075 10.97071,6.4004 0,8.3203 -13.33594,-7.1113 c 0.3337,-2.6206 1.20537,-5.1915 2.36523,-7.6094 z" ></path><path d="m 9.7838,1033.0399 13.47461,7.1875 0,8.7481 c -3.20044,-0.2986 -6.455,-1.9463 -8.82422,-4.0235 -2.25096,-1.9733 -3.51444,-5.4886 -4.36524,-8.1289 -0.24944,-1.2588 -0.33312,-2.5248 -0.28515,-3.7832 z" ></path><path d="m 38.21934,1033.0477 c -0.0727,1.261 -0.28076,2.5095 -0.64843,3.7305 -0.84762,2.6342 -2.15276,6.129 -4.36524,8.1895 -2.2633,2.108 -5.37603,3.8815 -8.44726,4.0371 l 0,-8.7774 13.46093,-7.1797 z" ></path></g></svg>