<svg xmlns="http://www.w3.org/2000/svg" xmlns:xlink="http://www.w3.org/1999/xlink" version="1.1" x="0px" y="0px" viewBox="0 0 50 50" enable-background="new 0 0 50 50" xml:space="preserve"><g><path d="M45.7,11.2c-0.7,0.2-1.5,0.7-2.1,0.3c-0.3-0.2-0.4-0.6-0.4-0.9C43.3,9.1,46.5,7,45,2.3   c-0.4-1.2-1.8-1.7-2.8-1.1c-3.9,2.2-5.3-1.7-7.4,0.3c-1,0.9-1.4,4.1-3.4,3.8c-1.8-0.3-1.7-3.6-3.6-3.6c-3.4-0.1,0.3,6.4-5.6,10.4   c-1-2-2.2-3.8-3.6-5.5C18,6,17.1,5.7,16.4,5.9c-1.4,0.5-1.2,2.3-0.9,3.7c0.6,3.6-0.1,7.5-1.9,10.6c-0.5-1.6-0.9-3.3-2.4-4.4   c-1.8-1.3-5.4-1-4.4,5c1.6,10,2.3,10.4-0.8,10.1c-1.6-0.1-2.8,1.5-2.9,3.1c0,1.5,0.7,2.9,1.4,4.2c-0.7-1-3.2-0.4-2.5,2.4   c0.2,0.8,0.6,1.6,0.7,2.5c0.3,1.4-0.4,2.7-1.1,4c9.6-15.5,22.4-29,36.1-35.8C26.1,20.6,11.6,33,3.8,49l0,0c0,0,1.6-0.6,2.3-0.8   c7.9-1.5,9.7-0.3,11-1.6c0.5-0.5,2.3-2.7,0.2-4.9c8.5,1.6,12.9,3,15.9,0c0.8-0.8,1.1-1.9,0.8-2.9c-0.9-2.7-5.6-2-7-4.5   c6.1-3.3,10.7-1,13-1.2c1.2-0.1,2.4-0.8,2.7-2c3,0,4.6-2.1,4.2-4c-0.8-3.8-6.5-2-8.6-4.6c0.9-4.9,9.5-3.5,10.1-8.5   C48.6,12.6,47.2,10.9,45.7,11.2z"></path></g></svg>