<svg xmlns="http://www.w3.org/2000/svg" data-name="Layer 8" viewBox="0 0 96.96 85.56" x="0px" y="0px"><title>fall_1</title><path d="M98.2,41.46a1.5,1.5,0,0,0-1.46-.6l-14,2.31-2.68-5.23a1.5,1.5,0,0,0-2.29-.47L69.88,44l1-17a1.5,1.5,0,0,0-1.74-1.57l-9,1.46L50.5,8a1.5,1.5,0,0,0-1.34-.82h0a1.5,1.5,0,0,0-1.33.85L38.56,27.19l-9.19-1.27a1.5,1.5,0,0,0-1.7,1.6L28.83,43l-6.59-5.49a1.5,1.5,0,0,0-2.29.47l-2.68,5.23-14-2.31A1.5,1.5,0,0,0,1.69,43L8.3,55.59l-4.19,4.3a1.5,1.5,0,0,0,.27,2.32L31.25,79.1,27.74,90a1.5,1.5,0,0,0,2.16,1.77l17.89-10v9.54a1.5,1.5,0,0,0,3,0V81.74l17.86,10a1.5,1.5,0,0,0,2.19-1.69L68.07,79.53,95.62,62.2a1.5,1.5,0,0,0,.27-2.32l-4.19-4.3L98.31,43A1.5,1.5,0,0,0,98.2,41.46ZM80.57,45.51a1.5,1.5,0,0,0,1.58.79l9.24-1.53-13,9.94,1.09-11.25ZM82.43,67,70.33,64.7l7.51-5.76,12.7,2.91Zm-31.64,9V65.15l15.59-14.1L65.3,64.78ZM9.52,61.9l12.4-3,6.25,5-12.33,2Zm24,2.44-1.16-14L47.79,65.71v10ZM38,30.14l9.81,9.81v4.33L33,29.44ZM66.71,46.71,50.79,61.11V48.31L67.61,31.48ZM50.79,44.07V39.52l9.39-9.39a1.42,1.42,0,0,0,.11-.16l5.49-.9Zm0-8.78V15.2l6.79,13.29Zm-3,.43L41,29,47.79,15Zm0,12.81V61.46L32,45.72l-1-14Zm28.83-6.19L75.19,57a1.42,1.42,0,0,0,0,.19l-6.7,5.14,1.11-14.16ZM29.1,47.1l1.21,14.65-6.9-5.53L23,42Zm-11.25-.8a1.5,1.5,0,0,0,1.58-.79l.66-1.28.25,9.55L9.22,44.88Zm-10.61.83L19,56.51,9.3,58.86l1.91-2a1.5,1.5,0,0,0,.25-1.75Zm26.54,30-14.1-8.87,11.64-1.88L46.85,78.82,31.77,87.28,34.11,80l.32-1.19A1.5,1.5,0,0,0,33.78,77.15Zm31.1,2.15L67,87.42l-15.2-8.53L67.13,67.16l11.56,2.15L65.52,77.59a1.5,1.5,0,0,0-.7,1.18v0A1.49,1.49,0,0,0,64.88,79.3ZM88.79,56.91l1.85,1.89-9.7-2.23,11.49-8.81-3.89,7.4A1.5,1.5,0,0,0,88.79,56.91Z" transform="translate(-1.52 -7.22)"></path></svg>