<svg xmlns="http://www.w3.org/2000/svg" xmlns:xlink="http://www.w3.org/1999/xlink" version="1.1" x="0px" y="0px" viewBox="0 0 100 100" enable-background="new 0 0 100 100" xml:space="preserve"><path fill-rule="evenodd" clip-rule="evenodd" d="M64.31,27.185c-0.663,1.776-1.268,3.576-1.998,5.326  C52.4,56.302,38.703,77.493,19.433,94.852c-0.527,0.473-1.032,1.061-1.66,1.305c-0.424,0.166-1.113-0.071-1.544-0.347  c-0.148-0.095-0.024-0.985,0.238-1.281c0.737-0.835,1.609-1.551,2.434-2.312C32.349,79.841,43.507,65.649,52.218,49.6  c3.869-7.132,7.232-14.539,10.833-21.817c0.171-0.344,0.439-0.634,0.662-0.951C63.914,26.948,64.112,27.066,64.31,27.185z   M64.417,24.846c7.809-4.843,9.468-13.352,3.935-21.057C60.142,9.99,58.604,18.525,64.417,24.846z M76.804,53.893  c-5.393-6.954-15.08-8.239-21.259-1.083C61.038,59.694,70.14,60.092,76.804,53.893z M83.835,24.341  c-9.375-2.823-17.015,1.049-18.95,9.605C72.666,37.784,81.832,33.138,83.835,24.341z M42.345,25.633  c-3.356,8.267,1.394,17.23,10.049,18.691C55.408,35.668,51.142,27.888,42.345,25.633z M20.388,59.318  c-3.025,8.877,0.949,16.576,9.758,18.91C33.945,70.389,29.352,61.489,20.388,59.318z M50.025,62.282  c3.876,7.533,12.892,9.148,21.037,3.618C65.205,57.944,56.045,56.426,50.025,62.282z M58.785,32.264  c3.536-8.487-0.247-16.557-9-19.201C45.943,23.048,51.633,31.366,58.785,32.264z M43.261,72.714  c3.802,7.808,12.55,9.882,20.744,4.915C58.611,68.332,48.246,67.845,43.261,72.714z M35.556,82.402  c3.314,8.948,12.974,11.02,19.989,7.164C51.306,79.264,40.44,78.316,35.556,82.402z M81.744,39.899  c-7.54-5.55-17.48-3.562-20.768,3.735C68.346,50.413,78.769,46.21,81.744,39.899z M33.879,40.539  c-0.623,7.091,3.629,13.44,9.781,14.875c1.786,0.415,2.545,0.249,2.759-1.837c0.835-8.178-3.499-14.094-12.053-16.002  C34.2,38.567,33.966,39.547,33.879,40.539z M26.566,51.352c-0.623,7.091,3.629,13.439,9.781,14.874  c1.786,0.415,2.545,0.249,2.759-1.837c0.835-8.178-3.499-14.094-12.053-16.002C26.888,49.379,26.653,50.36,26.566,51.352z"></path></svg>