<svg xmlns="http://www.w3.org/2000/svg" xmlns:xlink="http://www.w3.org/1999/xlink" version="1.1" baseProfile="tiny" x="0px" y="0px" viewBox="0 0 100 100" xml:space="preserve"><path d="M64.917,62.203c-2.423,1.101-4.663,2.316-6.636,3.507c2.201-2.154,4.695-4.712,7.36-7.613  c9.504-10.348,13.261-21.752,17.253-25.371c1.961-1.777-14.063,6.871-22.483,18.119c-4.74,6.331-6.76,10.949-8.044,14.612  c1.2-5.927,2.346-14.655,2.346-24.176c0-18.706-5.375-38.72-6.08-36.059c-0.911,3.439-6.08,17.353-6.08,36.059  c0,10.675,1.87,17.242,3.743,22.193c-1.556-3.183-3.885-7.027-8.089-11.875C29,40.983,12.399,33.505,14.481,35.137  c4.241,3.324,8.805,14.429,19.027,24.07c3.509,3.31,6.732,6.13,9.416,8.346c-2.313-1.174-5.023-2.377-7.964-3.401  c-9.666-3.366-22.793,2.286-21.281,2.39c3.324,0.229,7.565,0.115,18.905,4.434c4.46,1.699,7.782,2.077,10.456,2.048  c-0.774,0.355-1.565,0.751-2.356,1.203c-5.138,2.932-9.519,8.027-8.641,7.867c1.134-0.207,6.031-0.307,11.169-3.239  c3.795-2.166,5.048-4.856,6.086-5.856c0.006,0,0.013,0,0.02,0c0.135,2,0.351,7.365,0.351,10.59c0,4.012-0.802,10.676-0.802,10.676  c0,0.443,0.359,0.753,0.802,0.753c0.443,0,0.802-0.384,0.802-0.827c0,0,0.688-5.514,0.802-10.672  c0.066-2.966-0.157-8.046-0.315-11.132c1.396,1.374,3.135,3.244,7.329,4.465c5.68,1.654,10.511,0.801,11.662,0.739  c0.891-0.049-4.556-3.984-10.236-5.638c-0.346-0.101-0.691-0.194-1.033-0.28c2.478-0.301,5.46-1.048,9.224-2.891  c10.899-5.335,15.133-5.608,18.422-6.139C87.823,62.401,74.236,57.969,64.917,62.203z"></path></svg>