<svg xmlns:x="http://ns.adobe.com/Extensibility/1.0/" xmlns:i="http://ns.adobe.com/AdobeIllustrator/10.0/" xmlns:graph="http://ns.adobe.com/Graphs/1.0/" xmlns="http://www.w3.org/2000/svg" xmlns:xlink="http://www.w3.org/1999/xlink" xmlns:a="http://ns.adobe.com/AdobeSVGViewerExtensions/3.0/" version="1.1" x="0px" y="0px" viewBox="0 0 100 100" enable-background="new 0 0 100 100" xml:space="preserve"><path d="M87.6,47.9c-2.1-1.1-4.2-1.7-6-1.9c4.4-5.9,4.8-17.3,4.8-18.8c0-0.4-0.1-0.8-0.4-1.1c-0.3-0.3-0.7-0.5-1.1-0.5  c-5,0-17,10.6-23,16.3c0.6-2.6,1.7-4.3,2.8-6.1c0.9-1.4,1.8-2.8,2.5-4.6c2.1-5.3,0.9-13.6,0.9-14c-0.1-0.8-0.9-1.4-1.7-1.3  c-3.1,0.4-5.5,1.3-7,2c-1.2-9.1-8.3-14-8.7-14.2c-0.5-0.3-1.2-0.3-1.7,0C48.8,4,41.7,8.8,40.5,18c-1.5-0.8-3.9-1.6-7-2  c-0.8-0.1-1.6,0.5-1.7,1.3c0,0.3-1.2,8.6,0.9,14c0.7,1.8,1.6,3.3,2.5,4.6c1.2,1.8,2.3,3.5,2.8,6.1c-6-5.6-17.9-16.3-23-16.3  c-0.4,0-0.8,0.2-1.1,0.5c-0.3,0.3-0.4,0.7-0.4,1.1c0,1.5,0.4,13,4.8,18.8c-1.8,0.3-3.9,0.8-6,1.9c-0.4,0.2-0.7,0.6-0.7,1  c-0.1,0.4,0,0.9,0.3,1.2c0.3,0.4,6.9,9.3,15.8,10.6c-0.7,1.5-2,3.5-4.4,4.7c-0.5,0.2-0.8,0.7-0.8,1.2s0.1,1,0.5,1.3  c0.3,0.3,8.3,7,16.1,7c4.3,0,7.4-2,9.4-3.9v10.3c-0.1,0.9-0.4,7.8,6.6,14.8c0.3,0.3,0.7,0.4,1.1,0.4s0.8-0.1,1.1-0.4  c0.6-0.6,0.6-1.5,0-2.1c-6.3-6.3-5.8-12.2-5.8-12.5c0-0.1,0-0.1,0-0.2V71c2,1.9,5.1,3.8,9.3,3.8c7.8,0,15.8-6.7,16.1-7  c0.4-0.3,0.6-0.8,0.5-1.3s-0.4-0.9-0.8-1.2c-2.4-1.2-3.7-3.2-4.4-4.7c8.9-1.3,15.5-10.2,15.8-10.6c0.3-0.3,0.3-0.8,0.3-1.2  C88.3,48.5,88,48.2,87.6,47.9z M56.7,20.5c0,0.6,0.3,1.1,0.9,1.4c0.5,0.2,1.2,0.2,1.6-0.2c0,0,2-1.7,6.3-2.5  c0.2,2.5,0.4,7.5-0.9,10.9c-0.6,1.5-1.4,2.8-2.2,4.1c-1.7,2.7-3.7,5.7-3.7,11.6c0,0.6,0.4,1.1,0.9,1.4c0.6,0.2,1.2,0.1,1.6-0.3  c5-4.9,12.8-11.8,18.3-15.6C74.3,38.5,63,53.2,51.5,59.9V8.3C53.7,10.6,56.7,14.7,56.7,20.5z M37.7,34.2c-0.8-1.3-1.6-2.5-2.2-4.1  c-1.3-3.4-1.1-8.4-0.9-10.9c4.2,0.8,6.2,2.5,6.2,2.5c0.4,0.4,1.1,0.5,1.6,0.2c0.5-0.2,0.9-0.8,0.9-1.4c0-5.8,3-10,5.2-12.2v51.8  c-11.8-6.7-23.4-22-28.5-29.2c5.5,3.6,13.6,10.8,18.8,15.9c0.4,0.4,1.1,0.5,1.6,0.3c0.6-0.2,0.9-0.8,0.9-1.4  C41.4,39.9,39.4,36.9,37.7,34.2z M15.5,49.8c2.4-0.9,4.7-1,5.7-1c0.4,0,0.6,0,0.7,0c0.7,0.1,1.4-0.4,1.6-1.1  c0.2-0.7-0.1-1.4-0.7-1.7c-3.5-1.9-5.2-9-5.8-14.3c4.6,6.7,16.5,22.7,29,30.4C39.6,62.3,34,62.9,29.3,64c1.5-2.1,1.9-4.1,2-4.3  c0.1-0.4,0-0.9-0.3-1.3c-0.3-0.4-0.7-0.6-1.2-0.6C23.4,57.9,17.9,52.5,15.5,49.8z M39.1,71.8c-4.3,0-8.8-2.5-11.6-4.3  c4.2-1.2,11-2.4,21-2.5v1.3C47.8,67.4,44.8,71.8,39.1,71.8z M51.5,66.4V65c10,0.1,16.7,1.3,20.8,2.5c-2.8,1.8-7.2,4.3-11.5,4.3  C55.3,71.8,52.3,67.6,51.5,66.4z M70.2,57.9c-0.5,0-0.9,0.2-1.2,0.6c-0.3,0.4-0.4,0.8-0.3,1.3c0,0.1,0.5,2.2,2,4.4  c-4.8-1.1-10.5-1.8-17-2c12.9-7.9,25-24.4,29.4-30.8c-0.6,5.4-2.2,12.8-5.9,14.8c-0.6,0.3-0.9,1.1-0.7,1.7c0.2,0.7,0.9,1.1,1.6,1.1  c0,0,0.3,0,0.7,0c1,0,3.3,0.1,5.7,1C82.1,52.5,76.6,57.9,70.2,57.9z"></path></svg>