<svg xmlns="http://www.w3.org/2000/svg" xmlns:xlink="http://www.w3.org/1999/xlink" viewBox="0 0 100 84"  version="1.1" xml:space="preserve" x="0px" y="0px"><g><path d="M 94.148 9.3274 C 93.6778 7.2776 92.2374 5.3746 90.1564 5.0716 C 88.1488 4.778 86.3949 5.3771 85.3427 7.0598 C 84.3264 7.7616 78.9852 10.8689 62.8349 12.0472 C 24.6955 12.1188 16.9152 33.8425 15.7857 37.9495 C 11.9621 46.8064 13.8006 52.7673 16.042 56.2262 C 16.0482 56.2349 16.0544 56.2424 16.0594 56.2511 C 11.6549 61.1134 7.6795 66.9823 5.2216 73.8963 C 4.5151 75.8858 5.5537 78.0706 7.5427 78.7785 C 7.9656 78.9278 8.3972 79 8.8226 79 C 10.3936 79 11.8663 78.0221 12.4236 76.4569 C 14.476 70.6788 17.8605 65.6896 21.6506 61.5004 C 25.9071 64.0522 31.6624 65.4159 38.5398 65.4159 C 53.8592 65.4159 71.4151 58.783 82.2268 48.9103 C 99.3921 33.2229 94.3706 10.2954 94.148 9.3274 ZM 75.3544 41.3842 C 64.8861 50.9446 49.3216 55.2234 38.5398 55.2234 C 35.1166 55.2234 32.109 54.8041 29.7208 54.0339 C 36.8556 48.4338 43.2577 45.5385 43.3809 45.4838 C 45.3101 44.6328 46.1858 42.3795 45.3362 40.4485 C 44.4867 38.5169 42.2303 37.6385 40.2998 38.4889 C 39.7189 38.7446 32.1189 42.1562 23.8995 48.8456 C 23.4691 46.5438 24.3261 43.8054 25.269 41.6977 C 25.4182 41.3636 25.5314 41.014 25.606 40.6557 C 25.6446 40.4716 29.8215 22.2397 63.0215 22.2397 C 63.1434 22.2397 63.2653 22.2353 63.386 22.2266 C 73.521 21.4994 80.3025 20.0144 84.8128 18.4573 C 84.773 24.7741 83.187 34.2269 75.3544 41.3842 Z" ></path></g></svg>