<svg xmlns="http://www.w3.org/2000/svg" xmlns:xlink="http://www.w3.org/1999/xlink" version="1.1" x="0px" y="0px" viewBox="0 0 100 100" enable-background="new 0 0 100 100" xml:space="preserve"><g><g><path  d="M47.6,55c2.2-2.9,3.7-6,4.5-9.1c-2.6,1.7-5.2,4.1-7.3,7c-2.2,2.9-3.7,6-4.5,9.1    C42.9,60.3,45.4,57.9,47.6,55z"></path></g><g><path  d="M50,16.8L50,16.8c-18.4,0-33.2,14.9-33.2,33.2v33.2H50c18.4,0,33.2-14.9,33.2-33.2S68.4,16.8,50,16.8z     M55.2,62.5C51.2,68,43.4,69.1,38,65.1c-5.5-4.1-6.6-11.8-2.6-17.3c4.1-5.5,26.7-15.3,26.7-15.3S59.3,57,55.2,62.5z"></path></g></g></svg>