<svg xmlns="http://www.w3.org/2000/svg" xmlns:xlink="http://www.w3.org/1999/xlink" version="1.1" x="0px" y="0px" viewBox="0 0 32 32"  xml:space="preserve"><path d="M26.154,16.847l0.111-1.633l-3.118,1.371c-0.195,0.087-0.423,0.052-0.585-0.089c-0.161-0.141-0.227-0.362-0.169-0.568  l2.025-7.164l-3.952,1.099c-0.225,0.062-0.462-0.022-0.597-0.211L16,4.267l-3.868,5.386c-0.136,0.189-0.374,0.272-0.597,0.211  L7.583,8.765l2.025,7.164c0.058,0.206-0.008,0.427-0.169,0.568c-0.162,0.14-0.391,0.176-0.585,0.089l-3.118-1.371l0.111,1.633  c0.017,0.249-0.136,0.479-0.373,0.56L2,18.597l1.944,3.111c0.137,0.219,0.104,0.504-0.079,0.686l-0.91,0.902l4.91,1.072  c0.163,0.035,0.3,0.142,0.376,0.29c0.075,0.148,0.079,0.323,0.012,0.475l-1.157,2.601h8.352v-3.097l-8.108-3.259  c-0.283-0.114-0.421-0.436-0.307-0.719c0.113-0.283,0.437-0.42,0.719-0.307l7.695,3.093V14.65l-2.891-1.162  c-0.283-0.114-0.421-0.436-0.307-0.719c0.113-0.283,0.436-0.421,0.719-0.307l2.478,0.996V9.45c0-0.306,0.247-0.553,0.553-0.553  s0.553,0.247,0.553,0.553v4.008l2.478-0.996c0.281-0.114,0.605,0.024,0.719,0.307c0.027,0.068,0.04,0.137,0.04,0.206  c0,0.219-0.131,0.427-0.347,0.513l-2.891,1.162v8.795l7.695-3.093c0.282-0.113,0.606,0.023,0.719,0.307  c0.114,0.283-0.023,0.605-0.307,0.719l-8.108,3.259v3.097h8.352l-1.157-2.601c-0.068-0.152-0.063-0.326,0.012-0.475  c0.076-0.148,0.213-0.255,0.376-0.29l4.91-1.072l-0.91-0.902c-0.184-0.182-0.217-0.466-0.079-0.686L30,18.597l-3.474-1.189  C26.29,17.327,26.137,17.097,26.154,16.847z"></path></svg>