<svg xmlns="http://www.w3.org/2000/svg" xmlns:xlink="http://www.w3.org/1999/xlink" version="1.1" x="0px" y="0px" viewBox="0 0 48 48" enable-background="new 0 0 48 48" xml:space="preserve"><g><path d="M47,48c-0.12,0-0.241-0.021-0.357-0.066c-0.063-0.024-6.447-2.447-12.592-3.33c-0.979-0.142-2.071-0.245-3.228-0.355   c-6.218-0.591-14.733-1.401-18.211-9.63C8.789,25.576,0.146,1.58,0.059,1.338c-0.162-0.45,0.017-0.951,0.428-1.196   c0.41-0.246,0.937-0.167,1.256,0.189c2.896,3.217,10.821,7.144,18.485,10.94c8.927,4.422,17.358,8.6,19.382,12.243   c3.596,6.478,8.159,22.533,8.352,23.213c0.104,0.364-0.008,0.755-0.287,1.011C47.487,47.909,47.245,48,47,48z M3.231,4.225   c2.566,7.059,8.309,22.726,11.223,29.614c3.014,7.13,10.523,7.845,16.559,8.418c1.181,0.112,2.297,0.219,3.323,0.366   c4.375,0.629,8.755,1.969,11.156,2.78c-1.333-4.497-4.852-15.912-7.63-20.918c-1.722-3.099-10.262-7.33-18.522-11.422   C13.098,9.971,7.119,7.009,3.231,4.225z"></path><path d="M46.239,47.723c-0.308,0-0.611-0.142-0.808-0.408c-9.399-12.815-33.634-31.89-33.878-32.081   c-0.435-0.341-0.51-0.969-0.169-1.404c0.34-0.436,0.969-0.51,1.404-0.169c1.004,0.787,24.695,19.437,34.257,32.471   c0.326,0.445,0.23,1.071-0.215,1.398C46.651,47.66,46.444,47.723,46.239,47.723z"></path></g></svg>