<svg xmlns="http://www.w3.org/2000/svg" xmlns:xlink="http://www.w3.org/1999/xlink" version="1.1" x="0px" y="0px" viewBox="0 0 50 50" enable-background="new 0 0 50 50" xml:space="preserve"><path  d="M40.2,27.3c0-2.6-1-5.5-2.4-8.3c0,0,0,0,0,0c0,0,0,0,0,0c-4-7.9-11.5-15.4-11.9-15.9  c-0.1-0.1-0.3-0.2-0.4-0.3c-0.3-0.1-0.6-0.1-1,0c-0.2,0.1-0.3,0.2-0.4,0.3c-0.4,0.4-8,8-11.9,15.9c0,0,0,0,0,0c0,0,0,0,0,0  c-1.4,2.9-2.4,5.7-2.4,8.3c0,12.5,10.4,14.8,14,15.2V46c0,0.7,0.6,1.2,1.2,1.2s1.2-0.6,1.2-1.2v-3.5C29.9,42.1,40.2,39.8,40.2,27.3z   M13.7,21.5l10,6.7v5.7l-11.4-7.6C12.5,24.8,13,23.2,13.7,21.5z M17.4,15.2l6.4,4.3v5.7l-8.9-5.9C15.6,17.9,16.4,16.5,17.4,15.2z   M35.2,19.3l-8.9,5.9v-5.7l6.4-4.3C33.6,16.5,34.4,17.9,35.2,19.3z M26.2,16.5V7.2c1.3,1.5,3.2,3.6,4.9,6L26.2,16.5z M23.8,16.5  l-4.9-3.3c1.8-2.4,3.6-4.5,4.9-6V16.5z M26.2,28.2l10-6.7c0.7,1.7,1.2,3.3,1.4,4.8l-11.4,7.6V28.2z M12.4,29.4l11.4,7.6v3  C20.7,39.6,13.4,37.9,12.4,29.4z M26.2,40v-3l11.4-7.6C36.6,37.9,29.3,39.6,26.2,40z"></path></svg>