<svg xmlns="http://www.w3.org/2000/svg" xmlns:xlink="http://www.w3.org/1999/xlink" version="1.1" x="0px" y="0px" viewBox="0 0 100 100"  xml:space="preserve"><path d="M52,49.8c-6.3-7.1-12.5-14.1-18.8-21.2"></path><path d="M51,51.4L27.1,41.2c0,0-7.2-1.6-5.9-12.6c0,0,0.2-1.6-0.2-2.6"></path><path d="M52.3,49.9L37.2,28.7c0,0-3.1-6.7-13.6-3c0,0-1.5,0.6-2.6,0.4"></path><path d="M52.3,49.9l-6.8-25.1c0,0-3.2-6.7,6.3-12.4c0,0,1.4-0.8,1.9-1.7"></path><path d="M54.3,49.9l7.3-25c0,0,3.3-6.6-6-12.5c0,0-1.4-0.8-1.9-1.8"></path><path d="M54.3,49.8L73.2,32c0,0,4.4-6,13.9-0.3c0,0,1.4,0.8,2.4,0.9"></path><path d="M55.2,51.6l25.5-5.3c0,0,7.4-0.2,8.2-11.2c0,0,0.1-1.6,0.6-2.5"></path><path d="M55.3,51.6l18.1,6.9c0,0,5.4,1,4.7,9.2c0,0-0.1,1.2,0.2,1.9"></path><path d="M54.4,52.8l11.8,15.3c0,0,2.5,4.9,10.2,1.9c0,0,1.1-0.5,1.9-0.4"></path><path d="M51.9,52.6l-12.2,15c0,0-2.6,4.8-10.2,1.6c0,0-1.1-0.5-1.9-0.4"></path><path d="M51,51.4l-18.2,6.4c0,0-5.4,0.8-5,9c0,0,0.1,1.2-0.2,1.9"></path><polygon points="49.3,89.4 53.1,51.6 52.3,89.4 "></polygon></svg>