<svg xmlns="http://www.w3.org/2000/svg" xmlns:xlink="http://www.w3.org/1999/xlink" version="1.1" x="0px" y="0px" viewBox="0 0 100 100" enable-background="new 0 0 100 100" xml:space="preserve"><path d="M12.095,81.704c0,0-19.651-28.276,15.375-47.809c8.367-4.666,17.221-7.378,37.124-9.5  c20.812-2.219,25.936-13.562,25.936-13.562s-5.563,28.177-8.874,35.998c-4.407,10.405-10.219,22.874-19.937,32.435  c-8.491,8.355-29.437,24.187-43.561,12.313c0,0-4.527-20.933,14.437-36.872c4.409-3.707,7.816-5.445,20.374-10.749  c9.076-3.834,23.249-12.749,23.249-12.749s-12.68,5.696-17.062,7.187c-4.802,1.633-14.608,4.566-18,5.937  C37.04,45.998,17.719,52.828,12.095,81.704z"></path></svg>