<svg xmlns="http://www.w3.org/2000/svg" xmlns:xlink="http://www.w3.org/1999/xlink" version="1.1" x="0px" y="0px" viewBox="0 0 100 100"  xml:space="preserve"><path d="M48.5,82.9c-0.7,1.1-0.7,2.1-0.8,3.1c-0.2,2.6-1,5.1-1.7,7.6c-0.4,1.4-1.3,2.6-2.1,3.8c-0.9,1.3-2.2,1.2-3.5,1  c-0.6-0.1-0.9-0.6-0.8-1.2c0.1-0.5,0.2-0.9,0.4-1.3c0.7-1.4,1.1-2.9,1.6-4.4c0.5-1.5,1-3,1.5-4.5c0.4-1.4,0.9-2.8,1.2-4.4  c-1.1,0.3-1.6,1.1-2.1,1.7c-0.8,1-1.9,1.7-2.9,2.4c-2.4,1.7-5.1,2-8,2c-3.4,0-6.9-0.2-10.1-1.4c-0.8-0.3-1.5-0.6-2.2-0.9  c-0.6-0.2-0.6-0.8-0.6-1.3c0-0.5,0.3-0.7,0.8-0.8c0.7-0.2,1.4-0.4,2-1.2c-0.7-0.6-1.5-0.8-2.2-1c-2.7-0.8-4.8-2.6-7.1-4  c-0.5-0.3-0.9-0.9-1.2-1.4c-0.8-1.1-1.5-2.2-2.3-3.3c-0.4-0.5-0.7-1.1-0.2-1.8c0.5-0.7,1.2-0.5,1.7-0.3c1.6,0.6,3.2,1.1,4.6,2  c3,1.9,6.3,3.1,9.9,2.9c0.7,0,1.8,0.2,1.8-0.8c0-0.7-1-0.8-1.6-1c-0.4-0.1-0.9-0.3-1.4-0.3c-4.2-0.1-7.9-1.8-11.3-4.1  c-2.1-1.4-3.8-3.3-4.2-6c-0.2-1.2-0.1-2.3,0.2-3.4c0.3-1.5,2.2-2.2,3.8-1.7c1.6,0.5,3,1.5,4.5,2.4c4,2.3,8.2,3.9,12.7,4.4  c0.9,0.1,1.9,0.1,2.8,0c0.8-0.1,1.2-0.5,1.5-1.3c0.3-0.9-0.4-1.2-0.9-1.5c-1.9-1.2-4-2-6.3-2.1c-2.6-0.1-5.2-0.7-7.7-1.8  c-2.4-1.1-4.8-2.3-7.1-3.8c-2.9-1.8-3.4-4.7-2.7-7.2c0.4-1.2,1.2-2.1,2.1-2.9c0.5-0.5,1.2-0.3,1.8-0.2c2.7,0.9,5.3,2,7.6,3.8  c2.9,2.2,6,3.7,9.6,4.3c0.9,0.1,1.7,0.3,2.6,0c1.2-0.4,1.5-1.6,0.6-2.6c-0.4-0.4-0.8-0.8-1.4-1c-1.9-0.6-3.8-1.4-5.8-1.7  c-2.4-0.4-4.3-1.7-6.2-3.1c-0.3-0.2-0.5-0.5-0.8-0.6c-2.5-1.3-4-3.5-5.3-5.8c-0.6-1.1-1-2.2-0.6-3.5c0.2-0.5,0-1.2,0-1.7  c0-2.2,0.7-3,2.7-3.7c0.6-0.2,1.2-0.2,1.7-0.4c0.7-0.2,1.1,0,1.5,0.5c0.6,0.6,1.2,1.1,1.7,1.7c2.5,3,5.8,4.9,9,7.1  c1.2,0.8,2.5,1.4,3.9,1.8c0.4,0.1,0.8,0.1,1.2,0.2c2.2,0.2,2.7-1.5,2.1-3.2c-0.5-1.5-1.9-2.5-3.2-3.4c-2.3-1.7-4.8-3.3-7.2-4.9  c-2.7-1.8-4.1-6.1-3.2-9.1c0.7-2.1,3.1-2.9,4.9-2.8c1.3,0.1,2.3,0.7,3.2,1.7c1.3,1.5,2.7,3,4,4.6c0.6,0.8,1.4,1.3,2.5,1.6  c1.1,0.3,1.5,0,1.3-1c-0.2-1.7-0.8-3.3-2.2-4.4c-1.4-1.1-2.5-2.4-3.6-3.8c-0.8-0.9-0.9-2-0.8-3.1c0.3-2.1,2.5-3.1,4.5-1.9  c0.4,0.2,0.8,0.5,1.1,0.9c0.9,1.4,2.3,2.4,3,4c0.4,0.9,1.2,1.7,2,2.4c0.9,0.9,2.2,0.4,2.4-0.9c0.2-1-0.1-2-0.6-2.8  c-1.3-2.1-1.8-4.4-2-6.8c-0.1-1.5,0.6-3.1,2-4.1c1.1-0.8,2.3-1,3.5-1.4c0.2-0.1,0.5-0.1,0.7,0c2.2,0.3,4.4,2.6,4.5,4.9  c0.1,0.8,0.2,1.5,0.3,2.2c0.4,1.9,0.5,3.9,0.2,5.9c-0.1,1.2,0.2,2.2,1.1,3c0.5,0.4,0.9,0.4,1.3-0.2c0.7-1,1-2.2,1.4-3.3  c0.3-0.6,0.5-1.3,0.8-1.9c1.5-2.5,4.4-3.4,7.2-2.5c2,0.7,3,2.2,3.7,4c0.2,0.4,0,0.8,0,1.2c-0.1,1.3-0.4,2.6-1.2,3.6  c-1.3,1.8-2.4,3.7-4,5.3c-1.3,1.3-1.9,3-3,4.5c-0.2,0.4-0.2,0.8-0.1,1.2c0.1,1,0.5,1.3,1.3,0.8c1.2-0.7,2.5-1.2,3.5-2.2  c0.2-0.2,0.3-0.3,0.5-0.4c2.5-1.2,4.7-3,7-4.5c2.3-1.5,4.2-1.3,6.3,0.1c1.8,1.3,2.1,3.2,2.7,5.1c0.5,1.5-0.2,3.1-0.9,4.5  c-1.3,2.7-3.5,4.2-6.4,4.9c-2.3,0.5-4.6,1.3-6.7,2.5c-0.6,0.3-1.1,0.7-1.4,1.3c-0.4,0.6-0.8,1.3-0.4,2.1c0.4,0.8,1.2,1.1,2,1.1  c0.8,0.1,1.5-0.2,2.2-0.4c2.2-0.8,4.4-1.4,6.5-2.4c1.4-0.7,2.8-1.5,4-2.5c3.2-2.7,7.2-0.2,7.9,2.9c0.4,1.6,0.2,3.1,0.1,4.7  c-0.1,1.3-0.9,2.2-1.8,3.1c-2.4,2.2-5,3.9-8.3,4.6c-1,0.2-1.9,0.3-2.9,0.2c-2.5-0.3-5-0.3-7.3,0.9c-0.8,0.4-1.7,0.9-2.1,1.7  c-0.5,1.1-0.2,1.9,1,2c2.7,0.1,5.4,0.3,8.1-0.6c2-0.7,4.2-1,6.1-2.1c1.6-1,3.5-1.6,5.1-2.6c1.3-0.7,2.7-1.1,4.1-0.3  c1.7,0.9,2.6,2.7,2.3,4.6c-0.4,2.2-1.4,4.2-2.9,5.8c-1.1,1.2-2.6,1.8-4.3,2.1c-2.6,0.5-5.3,0.7-7.9,0.5c-2-0.1-3.9,0.1-5.9,0.3  c-1.5,0.2-2.9,0.8-3.9,2.1c-0.2,0.3-0.4,0.6-0.7,0.8c-0.8,0.7-0.8,1,0.3,1.3c2.6,0.6,5.2,0.7,7.7-0.1c2.2-0.7,4.4-1.2,6.4-2.2  c1.1-0.5,2.3-0.7,3.5-0.9c1.8-0.3,4.5,1,5.2,2.5c0.2,0.4,0.3,0.7,0.3,1.2c-0.4,3.7-2.9,5.8-6.5,5.6c-3-0.2-6-0.4-9-0.5  c-1.7-0.1-3.4-0.1-5,0.4c-0.7,0.2-1.7,0.4-1.6,1.3c0.1,1,1.1,0.9,1.8,1c1,0.2,2,0.3,3,0.1c2.9-0.7,5.9-0.2,8.8-1  c0.5-0.1,1.2-0.1,1.7,0c1.8,0.1,2.6,1.5,1.9,3.2c-0.3,0.7-0.7,1.4-1.1,2c-1.3,1.8-2.7,3.5-4.7,4.6c-2.4,1.3-4.7,0.9-6.9-0.5  c-2.4-1.4-4.3-3.5-6.9-4.6c-0.2-0.1-0.5-0.2-0.8-0.2c1.5,1.3,2.6,2.9,4.3,3.9c0.9,0.5,1.6,1.2,2.2,1.9c1,1.1,1,2,0.4,3  c-0.7,1.1-1.9,1.7-3.1,1.5c-0.3,0-0.6-0.1-0.8-0.2c-2-1.1-4-2.2-5.9-3.3c-0.6-0.4-1.2-0.9-1.6-1.6c-0.3-0.5-0.7-1-1.6-1.3  c0.4,1.2,0.9,2,1.3,3c0.7,2,0,2.8-2.2,2.5c-2.2-0.2-4-1.4-5.4-2.9C51.9,87.5,50,85.6,48.5,82.9z M48,36.1c-0.4-0.1-0.9-0.4-1,0.1  c-0.1,0.5,0.5,0.4,0.9,0.4c0.1,0,0.1,0,0.2,0c0.5,1.3,1.1,2.4,2.3,3.2c0.4-0.4,0.1-0.8,0.2-1.1c0.9-2.2,0.5-4.4-0.1-6.6  c-0.2-0.6-0.4-1-0.8-1.4c-2.5-2.6-4.8-5.3-6.8-8.3c-0.2-0.3-0.4-0.7-0.5-1.1c-0.1-0.4-0.2-0.9,0.3-1.1c0.4-0.2,0.6,0.2,0.9,0.4  c0.5,0.5,0.6,1.1,0.9,1.7c0.4,1,1,2,1.9,2.7l-0.1-0.1c0.6,1.9,2.6,2.6,3.7,4.1c0.4-2.1,1.3-4.2-0.7-6.1c-1.4-1.3-1.4-2.9-0.5-4.5  c1.2,1.1-0.2,2.9,1.2,3.9c0.4-1.5-0.1-2.9-0.2-4.3c-0.2-3-0.9-5.8-1.3-8.8c-0.1-0.6-0.6-1.4,0.3-1.6c0.8-0.1,0.7,0.8,0.8,1.3  c0.5,4.3,1.4,8.6,1.6,13c0,0.8,0.2,1.6,0.3,2.4c1.2-0.4,1.2-2.1,2.7-2.2c-0.3,1.3-1,2.1-1.8,2.9c-0.5,0.5-0.7,1.1-0.8,1.7  c0,0.2,0.2,0.5,0.4,0.7c0.3,0.3,0.6,0,0.8-0.1c0.9-0.7,2-1.4,2.6-2.3c1.9-2.7,4.2-5.1,6.2-7.7c0.3-0.5,0.7-1,1.5-1  c0.1,0.8-0.3,1.2-0.6,1.7c-0.7,0.9-1.4,1.9-2.1,2.8c-1.1,1.3-2.5,2.4-3.4,3.8c-1.1,1.8-2.6,3.2-4.2,4.4c-1.2,0.9-1.4,1.9-1.2,3.1  c0.1,0.5,0.1,1.2,0.4,1.7c0.8-0.6,0.8-0.6,1.9-0.3c-0.7,1.1-1.9,1.9-1.8,3.4c0.1,1.3,0,2.6,0.3,4c0.8-0.3,1.2-0.9,1.7-1.4  c0.8-0.7,1.6-1.5,2.6-1.6c2.2-0.3,4.1-1.2,6-2.2c4.3-2.2,8.5-4.5,11.8-8.1c0.4-0.5,0.8-1,1.4-0.4c0.6,0.7-0.1,1-0.5,1.4  c-0.2,0.2-0.5,0.4-0.7,0.6c-1.6,1.6-3.6,2.7-5.2,4.4c-1.7,1.9-4,2.9-6.3,3.6c-1.8,0.5-3.7,1.1-5.5,1.6c-2.5,0.7-4.1,2.2-5.3,4.3  c0.6,0.8,1.4,0.3,2.1,0.3c-0.4,0.6-0.8,0.9-1.3,1c-0.7,0.1-1,0.3-0.9,1c0,0.4-0.1,0.8-0.2,1.2c-0.7,2.2-0.3,4.5-0.5,7  c1.2-0.8,2.3-1.2,3-2c1.3-1.5,2.9-2.2,4.8-2.3c0.8,0,1.6-0.4,2.4-0.5c1.6-0.3,3.3-0.6,5-0.9c-3.1,1-6.3,1.7-9.4,2.4  c-0.6,0.1-1.2,0.2-1.2,1c0.6,0.2,1.1,0.1,1.7-0.1c0.6-0.2,1.1-0.3,1.7-0.3c3-0.1,5.9-0.2,8.9-0.5c2-0.2,4-0.4,5.7-1.5  c2.7-1.6,5.4-3.1,7.8-5.2c0.7-0.6,1.4-0.6,2.2-0.3c0.1,0.4-0.1,0.7-0.3,0.9c-1.7,1.2-3.2,2.7-5.1,3.6c-1.3,0.6-2.6,1.1-3.8,1.8  c-1.1,0.6-2.3,1.1-3.6,1.3c-2.2,0.4-4.5,0.6-6.7,0.9c-1.8,0.2-3.6,0.2-5.4,0.3c-3,0.1-5.6,1.3-7.7,3.5c-0.5,0.5-0.5,1.2-0.2,1.6  c0.4,0.5,0.8-0.1,1.1-0.4c0.3-0.3,0.4-0.9,1-0.6c0.7,0.3,1.2-0.1,1.8-0.3c0.7-0.3,1.3-0.7,2.2-0.5c-0.2,0.1-0.3,0.3-0.4,0.4  c-1.5,0.8-3.4,0.8-4.5,2.4c0,0.1-0.2,0-0.3,0c-1-0.5-1.3,0.3-1.4,1c-0.3,1.8-0.6,3.5-0.7,5.3c0,0.4-0.1,1.2,0.8,1  c0.2,0,0.5-0.1,0.4,0.3c0,0.1-0.2,0.3-0.3,0.4c-0.3,0.3-0.9-0.2-1,0.4c-0.2,1.5-0.8,2.9-0.7,4.6c1-0.5,1.3-1.4,2-1.9  c4.4-3.4,9.3-5.2,14.8-5.5c3.5-0.2,7.1-0.2,10.6-0.7c3.3-0.5,6.5-1.3,9.2-3.3c0.4-0.3,0.7-0.6,1.2-0.6c0.3,0,0.6-0.1,0.7,0.3  c0.1,0.3-0.1,0.5-0.3,0.6c-0.5,0.3-1.1,0.6-1.7,0.9c-2.8,1.7-5.8,2.8-9.1,3.2c-3.2,0.4-6.4,0.6-9.6,0.5c-3.3-0.1-6.3,0.8-9.3,1.8  c-1.4,0.5-2.9,1-4,2.1c0.1,0.4,0.6,0.1,0.7,0.5c-0.5,0.4-1,0.8-1.7,0.7c-0.4,0-0.7,0.1-0.9,0.3c-1.1,0.9-1.8,2.3-3.2,2.9  c-0.2,0.1-0.2,0.4-0.1,0.6c0,0.3,0.2,0.4,0.5,0.4c1.4-0.3,2.8-0.1,4-0.9c1.4-1,2.9-1.9,4.3-2.9c0.5-0.3,0.9-0.7,1.7-0.4  c-1.7,1.2-3.7,1.8-5.1,3.4c0.3,0,0.5,0.1,0.7,0.1c3.3-0.4,6.6-0.1,9.9,0.3c1.8,0.2,3.7,0,5.6,0c-0.5-0.4-1.1-0.5-1.6-0.7  c-0.6-0.2-1.1-0.4-1.6-0.7c-1.3-0.6-1.6-1.8-0.9-3c0.3-0.6,0.8-1,1.3-1.4c1.3-0.9,2.8-1.3,4.4-1.5c3.9-0.6,7.9-0.1,11.8-0.5  c2.1-0.2,4-0.8,5.6-2.1c1.8-1.6,2.8-3.7,2.8-6.2c0-2-1.4-2.9-3.3-2.1c-0.3,0.1-0.5,0.2-0.8,0.4c-2,1-4,2-6.1,2.9  c-1.2,0.5-2.3,1.3-3.6,1.2c-0.8,0-1.5,0-2.2,0.2c-2.6,0.9-5.3,0.6-7.9,0.5c-0.5,0-1-0.2-1.5-0.4c-1.2-0.5-1.5-1-1.2-2.2  c0.1-0.4,0.3-0.9,0.6-1.3c1.4-1.7,2.9-3.2,5.5-3.1c1.8,0.1,3.6,0,5.4-0.1c2.8-0.2,5.4-1,7.7-2.4c1.4-0.8,2.8-2,3.3-3.5  c0.6-1.8,0.8-3.8,0-5.6c-1.1-2.5-3.9-3.2-6-1.5c-3.1,2.6-6.7,4.1-10.5,5.2c-1.4,0.4-2.7,0.6-4.1,0.3c-0.3-0.1-0.5,0-0.8-0.3  c-1.3-1.3-1-3-1.1-4.6c0-0.8,1.2-0.4,1.6-1c0.2-0.3,0.6-0.5,1-0.7c1.1-0.7,2.2-1.4,3.4-1.7c2.1-0.5,4.1-1.2,6.1-2.2  c1.5-0.7,2.7-1.7,3.2-3.4c0.6-1.8,0.5-3.3-0.5-5c-1.1-1.9-3-3.1-5.1-2.5c-1.3,0.4-2.6,0.9-3.8,1.7c-2.4,1.7-4.8,3.3-7.3,4.8  c-0.7,0.4-1.4,0.6-2.1,0.6c-1.3,0-2.8-1.1-2.6-2.1c0.2-1.1,0.3-2.3,1.4-3.1c0.4-0.3,0.6-0.7,0.8-1.1c0.5-1.1,1.2-2,1.9-2.9  c1.2-1.5,2.4-3,3.5-4.6c1.3-1.9,1.1-4-0.1-5.9c-1.1-1.7-2.7-1.7-4.5-1.5c-0.8,0.1-1.3,0.4-1.7,1.1c-0.8,1.4-1.7,2.6-2,4.2  c-0.1,0.5-0.3,1-0.5,1.5c-1.1,2.1-2.9,2.2-4.5,0.5c-0.9-1-1-2.1-1.1-3.2c-0.1-1.3-0.2-2.5-0.1-3.8c0.2-1.6-0.1-3.1-0.6-4.6  c-0.8-2.4-4-3.7-5.8-2.3c-1.6,1.3-2.4,3-2,5.1c0.2,0.9,0.6,1.8,1.1,2.6c0.6,1,1.2,2.1,1.6,3.3c0.4,0.8,0.2,1.6,0,2.4  c-0.5,1.5-1.7,1.9-3.1,2.2c-1.4,0.3-2.4,0-3.1-1.3c-1.1-2-2.4-3.8-3.7-5.7c-0.9-1.2-1.4-1.4-2.5-0.6c-0.8,0.6-0.8,1.7-0.1,2.5  c1.7,2,3.5,4,5.2,6c0.7,0.8,1,1.7,1.2,2.7c0.3,2.2-1.4,3.6-3.4,2.8c-1-0.4-2-0.9-2.8-1.7c-1.5-1.7-3-3.4-4.5-5.1  c-0.5-0.6-1.1-0.9-1.8-1c-1.9-0.3-4.1,1.7-4.2,3.5c-0.1,2.3,0.8,4.2,2.5,5.7c1.2,1.1,2.5,2.2,4,3c2.3,1.2,4.2,2.9,6.2,4.5  c0.8,0.6,1.4,1.4,1.5,2.5c0.1,0.6,0.3,0.9,0.9,1.1c0.7,0.2,1.4,0.5,1,1.5l0,0c-1.2-1.1-1.6-1.2-2-0.4c-1,1.8-2.4,2.3-4.4,2  c-0.9-0.1-1.7-0.3-2.5-0.7c-1.6-0.7-2.9-1.9-4.4-2.7c-3.2-1.9-5.9-4.3-8.4-6.9c-1.1-1.2-1.8-1.2-3.1-0.2c-0.9,0.7-1.2,1.6-1.3,2.7  c-0.4,3.5,1.2,6.2,3.7,8.2c2.6,2.2,5.3,4.5,9,5c1.7,0.2,3.2,1.2,4.8,1.5c1.5,0.2,2.3,1.1,3,2.3c0.7,1.3,0.3,2.5-0.9,3.3  c-1.1,0.7-2.2,0.8-3.4,0.5c-3.9-0.8-7.6-2.1-10.8-4.6c-2.1-1.6-4.4-2.9-7-3.5c-0.8-0.2-1.3-0.1-1.8,0.5c-2.1,2.2-1.3,5.1,0.8,6.6  c0.6,0.4,1.3,0.9,1.9,1.2c1.8,0.9,3.3,2.5,5.4,3c2.9,0.8,5.8,1.7,8.8,2c2.4,0.3,4.3,1.3,6,2.9c0.9,0.8,1,1.7,0.7,2.7  c-0.3,1-1,1.5-2,1.6c-0.9,0.1-1.7,0.2-2.6,0.1c-3.8-0.3-7.4-1.2-10.9-2.7c-1.5-0.7-3.1-1.3-4.4-2.4c-0.8-0.7-1.9-1.2-2.9-1.5  c-1.9-0.6-2.6,0.5-2.4,1.9c0.1,0.6,0.1,1.3,0,1.9c0,0.9,0.2,1.8,0.8,2.6c0.9,1.2,2,2.2,3.4,3c3.2,1.9,6.6,3.5,10.4,3.5  c0.9,0,1.7,0.3,2.5,0.7c1.1,0.5,1.7,1.2,1.6,2c-0.1,1-1,1.4-1.8,1.7c-0.3,0.1-0.6,0.1-0.9,0.1c-2.9,0-5.8-0.2-8.5-1.6  c-0.7-0.4-1.4-0.7-2.2-1.1c-1.6-0.9-3.3-1.7-5-2.2c0,0.2-0.1,0.4-0.1,0.4c1.3,2.3,3.1,4.2,5.3,5.7c2.5,1.7,5.3,2.7,8.1,3.6  c0.3,0.1,0.7,0.1,0.8,0.5c0.1,0.5-0.2,0.8-0.6,1c-0.9,0.4-1.5,1.1-2.3,1.7c2,1.3,4.3,1.2,6.5,1.7c2.4,0.5,4.8,0,7.1,0.3  c0.3,0,0.7-0.1,1-0.2c2.6-0.8,5.1-1.8,6.7-4.1c0.2-0.3,0.5-0.5,0.7-0.7c1.1-1.2,2.1-2.4,3.2-3.6c-0.4-0.3-0.7-0.2-1,0  c-2,0.9-4,1.8-5.7,3.3c-1.7,1.4-3.7,2.4-5.9,2.8c-1.3,0.2-2.5,0.7-4.1,0.4c0.9-1.1,2-1,3-1.2c1.8-0.4,3.7-0.7,5.4-1.9  c2-1.5,4-3.2,6.5-4c0.2-0.1,0.3-0.3,0.2-0.6c-0.9-0.2-1.8-0.1-2.7,0.2c-4.3,1.4-8.7,2.6-13.2,3.3c-2.2,0.3-4.4,0.8-6.5,0  c-0.4-0.2-0.9-0.2-0.8-0.7c0.1-0.5,0.7-0.3,1-0.3c1,0.1,1.9,0.5,2.9,0.4c2.6-0.2,5.1-1.1,7.7-1.2c0.2,0,0.3-0.1,0.5-0.2  c1.5-0.9,3.4-1.1,4.8-2.4c0.2-0.2,0.5-0.3,0.8-0.2c0.2,0.4-0.5,0.5-0.2,1c1.3,0,2.4-0.6,3.7-0.8c1.2-0.1,2.5,0.5,3.6-0.3  c-1.9-2.6-4.3-4-7.3-4.4c-3.8-0.4-7.6-1.1-11.4-1.2c-4.4-0.1-8.2-1.9-12-3.7c-0.2-0.1-0.4-0.2-0.4-0.5c0.1-0.4,0.4-0.4,0.7-0.4  c1.1,0.1,2.1,0.7,3,1.2c2.1,1.2,4.3,2,6.7,2.3c1.6,0.2,3.2,0.3,4.9,0.3c2.8-0.1,5.5,0.7,8.3,0.9c2.9,0.2,5.4,1.2,7.3,3.6  c0.5,0.6,1.1,1.2,1.7,1.9c0.8-1.4,0.7-2.6,0.9-3.8c0.1-0.6-0.3-0.8-0.6-1.2c-0.6-0.7-1.4-1.3-1.9-2c-2-2.7-4.2-5.3-6.7-7.6  c-1.2-1.1-2.3-2.5-4-3c-2.5-0.8-5.1-1.4-7.6-1.6c-2.9-0.2-5.4-1.5-8-2.8c-0.8-0.4-1.4-1.1-2-1.6c-0.4-0.3-0.7-0.7-0.8-1.2  c-0.1-0.5,0.1-0.9,0.6-0.6c0.8,0.5,2.1,0.5,2.2,1.9c0,0.3,0.3,0.5,0.6,0.6c1.9,1,3.8,2.1,5.9,2.4c2.4,0.3,4.7,0.9,7,1.3  c2,0.3,3.8,1.2,5.4,2.6c3.6,3.1,6.5,6.7,9.3,10.5c0.2,0.3,0.2,0.7,0.8,0.6c0.1-0.5,0.3-1,0.4-1.5c0.3-2.6,0.8-5.3,1-7.9  c0.2-2.8,0.8-5.6,0.8-8.5c0-1.7,0-3.3,0.1-5c0.1-1.7,0.5-3.3-1.1-4.6c0.7,0.3,1,0.1,0.9-0.6c-0.1-0.7-0.5-1.2-1-1.6  c-0.5-0.4-0.8-0.9-1.1-1.3c-1.1-1.3-2.4-2.4-3.9-3.2c-3.8-2.3-8-4-11.8-6.3c-2.7-1.7-3.9-4-4.6-6.9c-0.1-0.3-0.1-0.8,0.3-0.9  c0.5-0.2,0.8,0.1,0.9,0.6c0.1,0.3,0.3,0.5,0.3,0.8c0,1,0.5,1.8,1.1,2.5c1.3,2,3.1,3.4,5.2,4.5c2,1,4,2,5.9,3c0.7,0.4,1.3,0.6,2-0.1  c0.4-0.4,0.9-0.5,1.2,0.2c-0.3,0.4-1,0.2-1,0.8c0,0.7,0.6,0.7,1.1,1c0.2,0.1,0.5,0.4,0.8,0.2c-0.1-0.7-1.1-1.1-0.9-2  c0.7,0.9,1.5,1.6,2.7,1.8c0.1,0.1,0.3,0.2,0.4,0.3C47.9,35.9,48,36,48,36.1z M79.1,82.9c-0.3,1-0.9,1.3-1.7,1.3  c-2.3,0-4.5-0.2-6.5-1.6c-1.5-1.1-3.2-2-4.9-2.6c-0.7-0.2-1.4-0.5-2-1c-1.3-1-2.7-1.5-4.2-2.1c-0.7-0.3-1.4,0-2-0.4  c-1.4-0.7-3-0.9-4.4-1.6c-0.8-0.4-1.8-0.4-2.7-0.4c-0.8,0-1.5,0.3-2,1.3c1.6-0.3,2.7,0.2,3.9,0.8c4.1,2,7.4,5.2,11.2,7.6  c1.3,0.8,2.5,1.9,4.3,2.5c-0.7-1-1.5-1.4-2.2-1.9c-0.5-0.3-1.1-0.7-1.6-1c-0.5-0.4-0.6-1-0.4-1.6c0.2-0.6,0.5-0.9,1.1-1  c0.6-0.1,1.3-0.3,1.9,0.1c1,0.6,2.2,1.1,3.1,1.9c1.5,1.2,2.9,2.5,4.5,3.5c2.1,1.3,4.6,1.6,6.9-0.4c1.4-1.3,2.8-2.6,3.7-4.3  c0.3-0.6,0.6-1.1,0.3-1.8c-0.4-0.8-1.1-0.7-1.8-0.7c-0.3,0-0.6,0.1-0.9,0.1c-4,0.4-8.1,1-12.1,0.8c-0.1,0-0.2,0.1-0.2,0.4  C72.8,83.1,75.8,83.4,79.1,82.9z M68.7,80.2c-0.6-2.9,0.2-3.9,3-4.1c0.2,0,0.3,0,0.5,0c2.4,0,4.9,0,7.3,0c1.8,0,3.6,0.3,5.4,0.2  c2.9-0.2,4.3-1.5,4.6-4.4c0.1-1.2-0.4-2-1.5-2.4c-0.6-0.2-1.3-0.3-1.9-0.3c-1.7,0.2-3.4,0.5-4.8,1.4c-1.1,0.7-2.3,1-3.6,1.2  c-1.3,0.2-2.5,0.5-4,1.1c1.1,0.4,1.9,0.4,2.6,0.3c2.5-0.3,5-0.6,7.2-2c0.4-0.2,1-0.5,1.2,0.1c0.2,0.5-0.4,0.6-0.7,0.8  c-1.9,1.1-4,1.5-6.1,1.8c-1.9,0.3-3.7-0.1-5.5,0c-3.9,0.4-7.8,0.3-11.6-0.4c-0.6-0.1-1.2-0.1-1.8,0.1c0.6,0.6,1.3,0.3,2,0.9  c-2.3-0.3-4.3-1.1-6.7-0.6c0.9,0.5,1.7,0.7,2.5,0.9c2.7,0.9,5.6,1.5,8,3.3C65.9,79.2,67.4,79.3,68.7,80.2z M56.3,86.6  c-0.6,0.5-1,0.2-1.3-0.1c-0.4-0.5-0.9-1-1.1-1.5c-0.9-1.8-2.3-3.3-3.3-5.1c-0.5-0.8-1.2-1.4-2-1.8c-0.2-0.1-0.3-0.1-0.5,0.1  c-0.2,0.2-0.1,0.4,0.1,0.6c0.4,0.3,1,0.2,1.1,0.9c0.3,2.6,1.6,4.7,3.4,6.6c0.5,0.5,0.9,1,1.4,1.5c1.1,1.1,2.4,2.2,3.7,3.1  c0.5,0.4,1.3,0.5,1.8,0c0.4-0.4,0-1-0.2-1.5c-0.2-0.6-0.6-1.1-1-1.6c-0.6-0.8-1.2-1.6-1.8-2.3c-0.4-0.5-0.7-1-0.7-1.5  c-0.1-0.6-0.1-1.4,0.5-1.7c0.5-0.3,1,0.1,1.4,0.4c0.4,0.3,0.9,0.6,1.2,1c0.5,0.8,1.2,1.2,1.9,1.7c1.7,1.2,3.5,2.4,4.8,4.2  c1.1,1.5,2.9,2,4.7,2.3c1.2,0.2,1.9-0.9,1.2-1.9c-0.6-0.9-1.3-2-2.7-1.6c-0.4,0.1-0.7-0.1-1-0.3c-3.3-1.6-6.3-3.5-9-5.8  c-2.4-2.1-5-3.7-7.9-5c-0.3-0.1-0.7-0.4-1.1,0.1C52.4,80.1,54.1,83.5,56.3,86.6z M41.7,95.6c0.8-0.9,0.8-0.9,0.4-1.6  C41.8,94.5,41.5,94.9,41.7,95.6z M47.4,81.1c-0.4-0.2-0.6-0.6-1-0.2c-0.1,0.1-0.1,0.4-0.1,0.4C46.7,81.6,47,81.5,47.4,81.1z"></path><path d="M47.5,35.6c-1.2-1.2-2-2.7-2.9-4.2c0.5,0.1,0.9,0.4,1.1,0.8c0.7,1.2,1.5,2.3,2.6,3.2c0.1,0.1,0.4,0.4,0,0.5  c-0.1,0.1-0.3,0-0.5-0.1C47.8,35.7,47.6,35.6,47.5,35.6z"></path><path d="M40.2,47.4c1.8,1.7,3.6,3.5,5.4,5.2c1.4,1.3,2.6,2.8,3.8,4.3c0.2,0.3,0.5,0.6,0.1,0.9c-0.3,0.2-0.5-0.1-0.7-0.3  c-1.4-1.6-3-3-4.5-4.6c-1.8-2-4-3.5-6.1-5.2c-2.1-1.7-4.8-2.4-7.4-3c-1.3-0.3-2.6-0.5-3.9-0.7c-2.3-0.4-4.1-1.7-5.6-3.4  c-1-1.1-1.7-2.4-2.3-3.7c-0.1-0.3-0.1-0.7-0.2-1c0-0.2,0-0.5,0.3-0.6c0.3-0.1,0.6,0,0.7,0.3c0.5,1,1,2,1.6,2.9  c1.6,2.5,3.7,4.1,6.8,4.5c3.3,0.4,6.5,1.2,9.4,2.9C38.6,46.4,39.3,47.1,40.2,47.4L40.2,47.4z"></path><path d="M44.5,57.1c-2-2.9-4.6-4.9-7.5-6.6c0.2-0.4,0.6-0.5,0.9-0.7c0.4-0.3,1-0.3,1.2,0.2c0.9,2,2.8,3,4.5,4.2  C44.6,55,44.5,56,44.5,57.1z"></path><path d="M56.2,64.3c0.1-0.8,0.8-1.1,1.3-1.5c1.4-1,2.8-2,4.2-3c1.1-0.7,1.1-0.7,1.9-0.5c-0.1,0.6-0.7,0.8-1.1,0.9  c-1.1,0.3-2,1.2-2.9,1.8c-0.2,0.2-0.6,0.4-0.6,0.6c0.2,1.2-0.4,1.1-1.2,1C57.1,63.6,56.6,64,56.2,64.3L56.2,64.3z"></path><path d="M62,66.4c-0.2,0.4-0.6,0.5-0.9,0.6c-2.8,1.1-5.6,2.2-7.7,4.5c-0.1,0.1-0.3,0.2-0.4,0.3c-0.1,0-0.4,0-0.5-0.1  c-0.2-0.2-0.1-0.4,0.1-0.6c0.6-0.5,1.3-1,2-1.4c2.3-1.4,4.7-2.4,7.2-3.3C61.8,66.3,61.9,66.4,62,66.4z"></path><path d="M49,33.3c-1.1,0.3-1.5-0.3-1.8-0.9c-0.6-1-1.1-2.1-1.8-3c-0.2-0.3-0.5-0.6-0.8-0.2c-0.2,0.2-0.4,0.6-0.6,0.3  c-0.3-0.4-0.3-0.9,0-1.3c0.2-0.3,0.5-0.3,0.8-0.1c0.3,0.2,0.6,0.5,0.9,0.8C46.7,30.3,47.6,31.8,49,33.3z"></path><path d="M60.6,57.3c-2.5,1.6-5.1,3-7.2,5.1c-0.1,0.1-0.3,0.2-0.4,0.3c-0.2,0.1-0.3,0.1-0.5-0.1c-0.1-0.2-0.1-0.3,0-0.5  c0.2-0.2,0.3-0.5,0.6-0.6C55.5,60,57.9,58.4,60.6,57.3z"></path><path d="M43.8,70.5c-1.4-0.9-2.8-1.8-4.2-2.7c-1-0.6-1.8-1.4-3.1-1.2c-0.3,0-0.7-0.2-0.6-0.7c0.1-0.5,0.5-0.4,0.9-0.3  c1,0.3,1.9,0.9,2.8,1.4c1.6,1,3.1,2,4.5,3.2C43.9,70.3,43.9,70.4,43.8,70.5z"></path><path d="M42.6,68.1c-1.4-0.5-2.3-1.4-3.3-2.2c-0.9-0.7-2-1.2-3.1-1.8c0.5-0.5,1.1-0.3,1.4-0.1C39.2,65.3,41.5,65.8,42.6,68.1z"></path><path d="M60.8,40.3c-1.4,1.1-2.8,2.2-4,3.4c-0.7,0.7-1.4,1.2-1.6,2.2c0,0.2-0.1,0.4-0.3,0.3c-0.3-0.1-0.4-0.3-0.3-0.5  c0.1-0.3,0.2-0.5,0.4-0.8c1.5-1.8,3.1-3.5,5.1-4.6C60.3,40.2,60.5,40,60.8,40.3z"></path><path d="M33.5,73.4c2.5,1.5,5.3,1.7,8,1.8C38.6,76,35.9,75.3,33.5,73.4z"></path><path d="M40.2,47.4c0-0.6-0.3-1.1-0.6-1.6c-0.1-0.1,0-0.3,0-0.5c0.1-0.2,0.4-0.2,0.6-0.1c0.5,0.3,1.1,0.7,1.5,1.1c1,0.9,2,1.9,2.8,3  c-1.6-0.7-2.6-2.2-3.9-3.3c-0.5,0.4,0.1,0.6,0.2,0.8C41,47.7,40.6,47.6,40.2,47.4C40.2,47.4,40.2,47.4,40.2,47.4z"></path><path d="M53.7,49.6c1.6-2,3.8-3.1,6.2-3.5C57.9,47.3,55.6,48,53.7,49.6z"></path><path d="M57.1,57.2c1-1.2,2.5-1.6,3.8-2.4c0.2-0.1,0.5-0.1,0.7-0.1c0.2,0,0.4,0.2,0.5,0.4c0,0.3-0.1,0.7-0.4,0.7  C60,55.7,58.7,56.8,57.1,57.2z"></path><path d="M42.9,59.8c-1.2-0.4-1.4-1.1-1.8-1.7c-0.3-0.4-0.5-1-1.1-1.3c-0.9-0.4-0.7-1-0.3-1.9C40.9,56.4,41.5,58.1,42.9,59.8z"></path><path d="M59,33.4c-2.3,1.2-3.7,2.9-5,4.7C54.7,35.7,56.7,33.9,59,33.4z"></path><path d="M55.9,41.7c2-1.2,3.4-3.4,6.1-3.1C59.7,39,58.1,40.9,55.9,41.7z"></path><path d="M32.6,72c1.4,0,2.3,0.9,3.5,1.1c1.1,0.3,2.2,0.6,3.5,1C37.8,74.4,34,73.2,32.6,72z"></path><path d="M39.4,58.5c-1.5-0.5-3-2-4.2-4C36.8,55.7,37.9,57.3,39.4,58.5z"></path><path d="M44.8,44.3c0.4,0.5,0.8,0.9,1.2,1.4c0.3,0.3,0.6,0.7,0.5,1.2c-0.5-0.4-0.9-0.8-1.4-1.3c-0.4,0.5,0.5,1-0.2,1.4  c-0.7-0.5-0.8-1.4-1-2.2C43.8,44.2,44.5,44.5,44.8,44.3z"></path><path d="M56.1,64.3c-0.9,0.7-1.8,1.4-2.7,2.1c-0.2,0.2-0.5,0.4-0.7,0c-0.2-0.3-0.4-0.7-0.1-1.1c0.2-0.3,0.7-0.4,0.9-0.1  c0.3,0.6,0.5,0.3,0.7,0.1C54.7,64.7,55.4,64.4,56.1,64.3C56.2,64.3,56.1,64.3,56.1,64.3z"></path><path d="M48.1,46.4c-0.6-0.5-1.4-0.9-1.7-1.8c0.2-0.6-0.4-1-0.4-1.6C47.2,43.6,47.5,44,48.1,46.4z"></path><path d="M46.3,24.9c0-0.9,0.6-0.9,1.2-0.7c1.3,0.6,1.9,1.7,2.3,3.4C48.6,26.2,48.3,24.4,46.3,24.9C46.2,24.8,46.3,24.9,46.3,24.9z"></path><path d="M43.2,32.2c-0.7-0.6-1-1.4-1.8-1.9c-0.2-0.1-0.4-0.4-0.1-0.7c0.2-0.3,0.5-0.2,0.8-0.1c0.4,0.1,0.6,0.3,0.6,0.8  C42.7,30.9,43,31.5,43.2,32.2z"></path><path d="M65.6,51.8c-1,1-2.2,1.1-3.3,1.7C63.2,52.3,63.7,52,65.6,51.8z"></path><path d="M59.1,60.6c-1.1,0.6-2,1.1-3.2,1.7C57.2,60.7,57.6,60.5,59.1,60.6z"></path><path d="M46.1,40.2c0.8,0.7,1.9,1.1,2.4,2.2C47.5,42,46.8,41.1,46.1,40.2z"></path><path d="M40.1,39.6c0.5-0.2,0.9,0,1.2,0.4c0.4,0.5,0.9,1.1,1.2,1.8C41.7,41,40.9,40.3,40.1,39.6C40.1,39.6,40.1,39.6,40.1,39.6z"></path><path d="M45.5,44.5c-0.2-0.1-0.5-0.1-0.7-0.2c-0.1-1-1.3-1.1-1.7-2.1C44.2,42.9,45.1,43.4,45.5,44.5z"></path><path d="M64.4,41.2c-0.5,0.6-0.9,0.7-1.5,0.8C63.4,41.5,63.4,41.5,64.4,41.2z"></path><path d="M45.4,63.4c-0.5-0.2-0.9-0.5-1.1-1.2C45,62.4,45.3,62.8,45.4,63.4z"></path><path d="M41.8,56.5c0.1-0.1,0.2-0.2,0.2-0.2c0.4,0,0.4,0.3,0.5,0.6c0.1,0.2,0,0.4-0.3,0.2C42.1,57,41.9,56.8,41.8,56.5z"></path><path d="M55.3,31.6c0.1-0.8,0.5-0.9,1.1-1.2C56.2,31.1,55.9,31.4,55.3,31.6z"></path><path d="M44.9,39.2c-0.2,0.1-0.3,0-0.5,0c-0.3-0.1-0.5-0.2-0.4-0.6c0-0.1,0.2-0.1,0.3-0.1c0.2,0.2,0.4,0.4,0.6,0.6  C44.9,39.1,44.9,39.2,44.9,39.2z"></path><path d="M55.8,20.7c0,0.3-0.2,0.4-0.4,0.5c-0.2,0.1-0.3,0-0.4-0.2c0-0.3,0.1-0.5,0.4-0.5C55.6,20.4,55.7,20.5,55.8,20.7z"></path><path d="M48.3,48.1c0-0.3,0-0.7-0.1-1c0.3,0.2,0.5,0.5,0.6,0.8c0.1,0.1,0,0.3,0,0.5C48.7,48.2,48.5,48.1,48.3,48.1z"></path><path d="M53.3,58.8c0,0.3-0.3,0.4-0.5,0.4c-0.2,0.1-0.3-0.1-0.2-0.3c0.1-0.2,0.2-0.3,0.3-0.4C53.1,58.4,53.3,58.6,53.3,58.8z"></path><path d="M44,58.8c-0.2,0.1-0.3-0.1-0.4-0.2c-0.1-0.2-0.2-0.3-0.3-0.5c0.1,0,0.3-0.1,0.3-0.1c0.2,0.2,0.3,0.4,0.5,0.6  C44.1,58.7,44,58.8,44,58.8z"></path><path d="M49.9,34.7c-0.4-0.2-0.6-0.3-0.6-0.8C49.8,34,49.9,34.3,49.9,34.7z"></path><path d="M51.4,75.4c0.7-0.7,1.2-0.2,1.7,0.1c2.4,1.3,4.8,2.5,7.5,3C57.2,78.4,54.3,77,51.4,75.4z"></path><path d="M56.4,81.5c-1.2-0.7-2.7-0.9-3.7-2.1c1.4,0.3,2.6,1.2,3.9,1.8C56.7,81.2,56.6,81.4,56.4,81.5z"></path></svg>