<svg xmlns="http://www.w3.org/2000/svg" xmlns:xlink="http://www.w3.org/1999/xlink" xml:space="preserve"  viewBox="0 0 0.333331 0.333331" x="0px" y="0px" fill-rule="evenodd" clip-rule="evenodd"><defs></defs><g><path  d="M0.297087 0.150657c-0.0280866,0.0936811 -0.0298622,0.0976772 -0.0841969,0.0932087l-0.0359882 0.0454646 0.00180315 0.0367402 -0.00729921 -0.000901575 -1.1811e-005 -0.0349094c-0.0135315,-0.0561654 -0.0235118,-0.0812441 -0.0543819,-0.127161 -0.0436063,0.0110827 -0.0462835,0.00889764 -0.0807638,-0.0619528 0.0778858,0.0104409 0.0849291,0.0336535 0.0819764,0.0594961 0.00196457,0.0023189 0.0391772,0.0555512 0.052563,0.107185l-0.00675984 -0.125161 -0.034874 -0.0681024c-0.0386969,-0.000358268 -0.0402047,-0.00494882 -0.0589961,-0.0673031 0.0641457,0.0205 0.0648031,0.0289685 0.0611142,0.0658307l0.0362402 0.0690315 0.00229528 0.038374 0.0332205 -0.0834331c-7.87402e-006,1.5748e-005 -0.0306535,-0.0257835 0.0477362,-0.0660906 -0.00154331,0.0577441 -0.018189,0.0704882 -0.0462008,0.0673661l-0.0342402 0.090752 0.00652756 0.0957323 0.0339094 -0.0425236c-0.0089252,-0.0414213 -0.00273622,-0.0630354 0.0863268,-0.0916417zm-0.0368071 0.031748c-0.0189921,0.0167126 -0.0306693,0.0370472 -0.0463622,0.057622 5.90551e-005,4.33071e-005 0.0419803,-0.0528701 0.0463622,-0.057622zm-0.146484 -0.0240551c0.000637795,0.000940945 -0.0285827,-0.0257835 -0.0432402,-0.0369252 0.0058937,0.00356299 0.0380433,0.0291024 0.0432402,0.0369252zm0.0935866 -0.0674803c-0.0025748,-0.000968504 0.0290709,-0.0423346 0.0325709,-0.0465276 -0.00322047,0.00490551 -0.0327992,0.0471378 -0.0325709,0.0465276zm-0.0792677 -0.0203425c-0.00111024,0.000673228 -0.0330866,-0.0334331 -0.0363622,-0.0372953 0.0130748,0.0125 0.0240866,0.0220669 0.0363622,0.0372953z"></path></g></svg>