<svg xmlns="http://www.w3.org/2000/svg" xmlns:xlink="http://www.w3.org/1999/xlink" version="1.1" x="0px" y="0px" viewBox="0 0 100 100" enable-background="new 0 0 100 100" xml:space="preserve"><path d="M50.154,14.612l-0.697-0.676l-0.697,0.676c-6.32,6.138-12.721,19.103-12.721,32.006c0,8.36,3.359,17.254,12.668,17.717  v21.728h1.5V64.336c9.309-0.463,12.668-9.357,12.668-17.717C62.875,33.715,56.475,20.75,50.154,14.612z M38.039,46.619  c0-2.648,0.293-5.294,0.793-7.88l9.875,6.644v8.692L38.16,49.241C38.088,48.398,38.039,47.531,38.039,46.619z M50.207,45.382  l9.875-6.644c0.5,2.586,0.793,5.232,0.793,7.88c0,0.913-0.049,1.779-0.121,2.622l-10.547,4.833V45.382z M50.207,44.176V34.024  l6.461-6.046c1.346,3.004,2.463,6.284,3.206,9.695L50.207,44.176z M50.207,32.654V17.59c2.158,2.468,4.258,5.711,6.02,9.431  L50.207,32.654z M48.707,17.59v15.063l-6.019-5.633C44.449,23.3,46.549,20.059,48.707,17.59z M42.246,27.977l6.461,6.047v10.152  l-9.667-6.503C39.783,34.261,40.9,30.981,42.246,27.977z M48.707,62.341c-5.753-0.348-9.494-4.687-10.431-11.946l10.431,4.78V62.341  z M50.207,62.341v-7.166l10.431-4.78C59.701,57.654,55.96,61.993,50.207,62.341z"></path></svg>