<svg xmlns:x="http://ns.adobe.com/Extensibility/1.0/" xmlns:i="http://ns.adobe.com/AdobeIllustrator/10.0/" xmlns:graph="http://ns.adobe.com/Graphs/1.0/" xmlns="http://www.w3.org/2000/svg" xmlns:xlink="http://www.w3.org/1999/xlink" xmlns:a="http://ns.adobe.com/AdobeSVGViewerExtensions/3.0/" version="1.1" x="0px" y="0px" viewBox="0 0 100 100" enable-background="new 0 0 100 100" xml:space="preserve"><path d="M62.2,15.7C59,12,55.3,8.3,51,4.6c-0.3-0.2-0.6-0.4-0.9-0.4c0,0,0,0-0.1,0c0,0,0,0,0,0s0,0,0,0c0,0,0,0-0.1,0  c-0.3,0-0.7,0.1-0.9,0.4c-4.3,3.7-8,7.4-11.2,11.1c0,0,0,0-0.1,0.1c-10.7,12.4-15.4,24.5-14,36.1C26,71.3,44.4,82.8,48.5,85.1v9.2  c0,0.8,0.7,1.5,1.5,1.5s1.5-0.7,1.5-1.5v-9.2c4.1-2.4,22.5-13.9,24.8-33.3C77.7,40.2,72.9,28.1,62.2,15.7  C62.2,15.7,62.2,15.7,62.2,15.7z M68.2,29.3c-2.9,8.9-12.5,14-16.7,15.9V31.6c2-1.4,7.8-6,10.2-11.8C64.3,23,66.5,26.1,68.2,29.3z   M73.2,43.3C68,55.5,55.9,58.9,51.5,59.8V48.4c3.4-1.3,14-6.1,18.5-15.6C71.6,36.4,72.7,39.8,73.2,43.3z M73.3,51.5  c-0.3,2.7-1,5.2-1.9,7.5c-5.5,9.1-15.8,12.5-19.9,13.5v-9.6c3.9-0.6,15.2-3.4,22-13.8C73.4,49.9,73.4,50.7,73.3,51.5z M28.6,59  c-0.9-2.3-1.6-4.8-1.9-7.5c-0.1-0.8-0.2-1.6-0.2-2.4c6.7,10.4,18.1,13.1,22,13.8v9.6C44.4,71.5,34.1,68.2,28.6,59z M30,32.8  c4.5,9.4,15.1,14.2,18.5,15.6v11.4c-4.4-0.9-16.5-4.3-21.7-16.5C27.3,39.8,28.4,36.4,30,32.8z M38.3,19.8  c2.5,5.9,8.2,10.4,10.2,11.8v13.5c-4.2-1.8-13.8-7-16.7-15.9C33.5,26.1,35.7,23,38.3,19.8z M59.5,17.1c-1.3,4.5-5.3,8.5-8,10.7V9  C54.4,11.8,57.1,14.4,59.5,17.1z M48.5,9v18.7c-2.6-2.2-6.7-6.2-8-10.7C42.9,14.4,45.6,11.8,48.5,9z M35.1,70  c5.4,3.6,10.9,5.1,13.4,5.6v6C45.5,79.7,39.9,75.8,35.1,70z M51.5,81.6v-6c2.4-0.5,8-2,13.3-5.6C60.1,75.8,54.5,79.7,51.5,81.6z"></path></svg>