<svg xmlns="http://www.w3.org/2000/svg" xmlns:xlink="http://www.w3.org/1999/xlink" version="1.1" x="0px" y="0px" viewBox="0 0 100 100" enable-background="new 0 0 100 100" xml:space="preserve"><path d="M69.791,75.06c0.2-0.996,20.925-18.135,20.925-18.135s-5.481-2.092-5.879-2.989c-0.398-0.897,4.085-14.149,4.085-14.149  s-11.16,2.89-12.555,2.292c-1.395-0.598-2.391-6.477-2.391-6.477S64.61,48.057,62.417,46.961  c-2.192-1.096,3.487-24.811,3.487-24.811s-5.978,4.584-7.274,3.986C57.336,25.538,50,10.791,50,10.791s-7.336,14.747-8.631,15.345  c-1.295,0.598-7.274-3.986-7.274-3.986s5.68,23.715,3.487,24.811c-2.192,1.096-11.558-11.359-11.558-11.359  s-0.997,5.879-2.392,6.477c-1.395,0.598-12.555-2.292-12.555-2.292s4.484,13.252,4.085,14.149c-0.399,0.897-5.879,2.989-5.879,2.989  S30.01,74.064,30.209,75.06c0.199,0.997-1.893,6.776-1.893,6.776l20.028-2.292l0.859,0.517v9.149h1.595v-9.148l0.859-0.517  l20.028,2.292C71.684,81.836,69.591,76.056,69.791,75.06z"></path></svg>