<svg xmlns="http://www.w3.org/2000/svg" xmlns:xlink="http://www.w3.org/1999/xlink" version="1.1" x="0px" y="0px" viewBox="0 0 100 100"  xml:space="preserve"><g><path d="M50,0C22.4,0,0,22.4,0,50c0,27.6,22.4,50,50,50c27.6,0,50-22.4,50-50C100,22.4,77.6,0,50,0z M50,96.3   C24.5,96.3,3.7,75.5,3.7,50S24.5,3.7,50,3.7c25.5,0,46.3,20.8,46.3,46.3S75.5,96.3,50,96.3z"></path><path d="M63.7,21.6L62.2,22c-0.9,0.3-23,6.9-31.2,24.7c-2.2,4.6-2.4,9.8-0.6,14.6c1.5,4.2,4.4,7.6,8.2,9.9l-3.2,6.2   c0,0-0.1,0.1-0.1,0.2c-0.5,1.1,0.1,2.4,1.2,2.9c1.1,0.5,2.4-0.1,2.9-1.2l2.7-6.4c2,0.7,4.1,1.1,6.3,1.1c2.2,0,4.4-0.4,6.6-1.2   c4.8-1.8,8.6-5.3,10.8-9.9c8.5-18.3-0.8-39-1.2-39.8L63.7,21.6z M62.3,61.3c-1.7,3.7-4.8,6.6-8.7,8c-3.3,1.2-6.8,1.2-10.1,0.2   l12.4-29.6c0.1-0.3,0-0.6-0.3-0.7c-0.3-0.1-0.6,0-0.8,0.2L40.2,67.9c-2.9-1.8-5.2-4.5-6.4-7.8c-1.4-3.9-1.2-8.1,0.5-11.8   c6.4-13.7,22.3-20.3,27.3-22.2C63.6,31.1,68.8,47.2,62.3,61.3z"></path></g></svg>