<svg xmlns="http://www.w3.org/2000/svg" xmlns:xlink="http://www.w3.org/1999/xlink" version="1.0" x="0px" y="0px" viewBox="0 0 100 100" enable-background="new 0 0 100 100" xml:space="preserve"><path d="M94.946106,7.1071243C-2.4320257,19.8155785,5.5137639,88.4218292,5.5137639,88.4218292  c1.4412813-7.1339493,9.8487453-21.8065796,24.5680866-26.5523529c0.1427155-4.2773819,1.3186588-15.2379036,8.9974155-27.5509834  c0,0-6.7975998,15.6683693-5.5822906,26.6584625c1.4992332-0.3024483,3.0548515-0.5039291,4.6683578-0.5850525  c2.786499-0.1401405,5.2941589-0.7581558,7.5465889-1.7158508c-0.1748619-3.0129089-0.2760124-11.4878044,3.3372688-18.7315102  c0,0-2.8364143,7.5587082-0.5606918,17.3118896c11.503315-6.9239883,15.1713486-22.8001862,15.1713486-22.8001862  s-2.2791786,26.7542152-24.3755836,31.3214264c-9.3242836,1.9273148-15.4996605,6.977478-19.5234451,12.1717453  c10.452446,3.6678391,22.6450386-0.1822128,22.6450386-0.1822128c-8.7839355,4.7950668-20.3917294,4.1233063-25.0039539,3.608139  c-3.5891714,5.8758774-4.6271706,11.0744781-4.6271706,11.0744781C29.915966,99.8447723,72.149437,78.1872559,70.0059433,48.7544098  C67.8624496,19.3215046,94.946106,7.1071243,94.946106,7.1071243z"></path></svg>