<svg xmlns="http://www.w3.org/2000/svg" data-name="Layer 1" viewBox="0 0 95 95" x="0px" y="0px"><path d="M93.525,9.616a1.111,1.111,0,0,0-1.211-.041c-14.323,8.646-27.2,11.232-37.554,13.31q-1.39.279-2.73.552c-10.679,2.191-18.511,5.422-23.946,9.88C20.615,39.443,17.77,47.88,19.616,58.4A165.222,165.222,0,0,0,2.089,76.388a4.629,4.629,0,0,0,1.6,7.175L7.1,85.146a4.686,4.686,0,0,0,1.969.439,4.588,4.588,0,0,0,3.878-2.149,124.8,124.8,0,0,1,12-15.765c8.561,3.189,16.209,4.787,23.041,4.787a34.73,34.73,0,0,0,17.192-4.223c7.485-4.159,13.5-11.347,18.386-21.977C87.692,37.291,91,26.005,93.979,10.74A1.109,1.109,0,0,0,93.525,9.616ZM81.55,45.329C76.868,55.514,71.161,62.371,64.105,66.291,54.422,71.67,42.128,71.544,26.56,65.9c1.863-2.018,3.883-4.083,6.068-6.168a64.309,64.309,0,0,1,29.361-8.438,1.112,1.112,0,0,0-.125-2.22,65,65,0,0,0-23.249,5.267q3.324-2.826,7.065-5.626A65.992,65.992,0,0,1,65.3,41.619a1.112,1.112,0,0,0-.416-2.184,68.4,68.4,0,0,0-9.094,2.393,149.724,149.724,0,0,1,19.72-10.281,1.111,1.111,0,0,0-.684-2.105,115.2,115.2,0,0,0-18.319,5.771,20.005,20.005,0,0,0,2.61-6.219,1.112,1.112,0,1,0-2.165-.509A15.89,15.89,0,0,1,51.711,37.3a124.64,124.64,0,0,0-12.427,6.608A35.389,35.389,0,0,0,44.952,31.6a1.112,1.112,0,1,0-2.161-.523A33.225,33.225,0,0,1,31.053,49.325h0q-4.818,3.432-9.458,7.364c-1.278-9.155,1.316-16.253,7.9-21.654,5.148-4.223,12.666-7.3,22.983-9.421q1.334-.274,2.72-.55c10-2.008,22.331-4.484,36.118-12.327C88.5,26.6,85.377,37.005,81.55,45.329Z"></path></svg>