<svg xmlns="http://www.w3.org/2000/svg" viewBox="0 0 100 100" x="0px" y="0px"><path d="M72.86,74.8c-1.01-1.59-2.54-2.82-4.21-3.66-1.84-.93-3.94-1.53-5.98-.97-4.49,1.25-6.12,6.02-6.21,10.24-.65,.17-1.16,.59-1.67,1.06-.68,.63-1.36,1.26-2.04,1.89-1.08,1.01-2.14,2.02-3.21,3.04-.14-2.35-.25-4.7-.32-7.05-.04-1.22-.05-2.44-.08-3.66,0-.31-.02-.62-.04-.93,.1-.09,.19-.19,.29-.28,.07-.06,.14-.12,.21-.18,.04-.03,.07-.06,.11-.09,.02-.01,.03-.03,.05-.04l.08-.06s.08-.06,.11-.08c.08-.05,.16-.11,.24-.16,.03-.02,.06-.03,.09-.05,.08,.07,.19,.13,.33,.13,1.79,0,3.71-.07,5.45-.52,1.57-.41,2.53-1.53,3.38-2.84,1.81-2.79,3.31-5.97,3.4-9.35,.04-1.49-.19-3.04-1.49-3.95-1.12-.78-2.58-.9-3.9-.68-2.77,.47-5.06,2.64-6.28,5.09-1.71,3.43-1.53,7.41-1.24,11.13-.19,.1-.37,.22-.55,.34-.38-4.73,.82-9.38,1.03-14.1,0-.07,0-.14,0-.21,.91-1.15,1.85-2.28,2.83-3.38,.48-.54,.97-1.08,1.47-1.61,.43-.45,.85-.89,1.39-1.21,.96,1.01,2.28,1.69,3.57,2.14,1.86,.65,3.88,.84,5.83,.57,1.8-.25,3.61-.85,4.66-2.42,.91-1.35,1.09-3.07,1.12-4.66,.03-1.74,.07-3.69-.74-5.28-.4-.79-1.05-1.43-1.73-1.99-.72-.6-1.45-1.19-2.18-1.79-.48-.39-.98-.68-1.51-.9,.5-2.93,.72-5.82-.59-8.59-1.16-2.46-3.29-4.45-5.86-5.36-2.61-.91-5.61-.64-8.04,.66-.92,.49-1.86,1.17-2.52,2.02-.15-1.86-.01-3.75,.11-5.59,1.59-.09,3.16-.6,4.46-1.54,1.59-1.15,2.71-2.89,3.54-4.64,.79-1.69,1.23-3.62,.43-5.4-.72-1.6-2.26-2.68-3.79-3.42-3.53-1.72-7.86-2.24-11.36-.15-3.09,1.85-4.81,5.75-3.32,9.18,1.5,3.45,5.18,6.25,9.02,6.04-.16,2.41-.31,4.86,.1,7.25-.08,.42-.11,.85-.12,1.29-.01,.82-.01,1.64,.1,2.46,.17,1.26,.69,2.27,1.43,3.18,0,.03-.02,.05-.02,.09,0,1.88,0,3.76,0,5.64-1.08-1.45-2.15-2.91-3.3-4.3-1.04-1.26-2.5-2.33-4.12-2.73,2.21-2.75,3.3-6.3,1.71-9.67-1.69-3.57-5.79-4.68-9.39-3.6-3.57,1.07-6.4,3.99-7.34,7.6-.91,3.49-.21,7.86,3.39,9.47,3.9,1.74,7.9-.26,10.82-2.91,1.78,.18,3.34,1.47,4.4,2.82,1.28,1.62,2.5,3.29,3.75,4.93,.02,.03,.05,.05,.08,.07v.3c0,2.55-.07,5.11,.02,7.66,.04,1.15,.27,2.27,.46,3.4,.2,1.2,.26,2.41,.24,3.62-.03,2.42-.38,4.82-.69,7.22-.27,2.13-.48,4.26-.44,6.4-.44-.83-.99-1.62-1.49-2.4-.68-1.08-1.37-2.16-2.05-3.24,.19-.23,.4-.45,.64-.64,.59-.45,1.28-.76,1.83-1.27,.54-.5,.91-1.14,1.14-1.83,.55-1.65,.14-3.43-.65-4.93-.66-1.27-1.61-2.7-3-3.23,1.63-3.18,2.67-6.98,.86-10.31-1.89-3.47-6.2-4.2-9.75-3.29-1.02,.26-2,.64-2.96,1.08-.82,.37-1.67,.78-2.27,1.46-1.29,1.45-1.5,3.73-1.6,5.59-.11,1.9-.25,4.11,.49,5.9,.24,.59,.6,1.09,1.04,1.52-.96,1.08-1.27,2.54-1.45,3.95-.22,1.75-.15,3.52,.18,5.24,.55,2.86,1.93,6.25,5.14,6.86,1.56,.29,3.16-.02,4.64-.55,1.4-.5,2.79-1.21,3.75-2.38,.54-.66,.9-1.47,1.33-2.22,.6,.94,1.19,1.89,1.79,2.83,.61,.96,1.35,1.92,1.77,2.97,.42,1.04,.42,2.19,.44,3.3,.02,1.23,.05,2.47,.09,3.7,.08,2.54,.21,5.07,.37,7.6,0,.06,0,.13,.01,.19,.15,2.29,.34,4.57,.56,6.85,.06,.65,1.09,.66,1.03,0-.22-2.25-.4-4.51-.55-6.77,1.17-1.12,2.34-2.24,3.52-3.34,.6-.56,1.21-1.13,1.81-1.69,.44-.41,1-1.11,1.63-1.3,.31,.81,.57,1.65,.73,2.5,.19,1.01,0,2.1,.36,3.07,.32,.88,1.03,1.57,1.72,2.17,.77,.67,1.61,1.27,2.56,1.67,2.06,.87,4.33,.54,6.4-.14,1.93-.64,3.58-1.68,4.41-3.61,.81-1.88,1.07-4.12,1.27-6.14,.2-2.12-.01-4.29-1.18-6.13Zm-16.89-16.61c1.08-.54,2.39-.8,3.59-.54,1.54,.34,2.21,1.42,2.26,2.94,.1,2.98-1.07,5.83-2.56,8.35-.8,1.36-1.66,2.96-3.26,3.45-1.58,.48-3.37,.53-5.03,.54-.41-5.24-.46-12.02,5-14.74Zm-24.64-20.45c-1.43-.32-2.78-1.11-3.53-2.39-.85-1.45-.99-3.31-.8-4.95,.39-3.34,2.51-6.24,5.53-7.7,2.93-1.41,6.92-1.31,8.96,1.54,2.37,3.31,1.03,7.39-1.5,10.15-2.3,2.15-5.38,4.07-8.66,3.34Zm22.82,15.27c-.53,.55-1.04,1.11-1.55,1.68-.75,.84-1.45,1.71-2.16,2.58-.01-.57-.04-1.13-.1-1.7-.12-1.17-.4-2.31-.53-3.48-.1-.91-.09-1.83-.09-2.75,1.21-2.11,3-3.82,4.39-5.8-.01,.31-.02,.62,0,.93,.1,2.41,.6,4.84,1.26,7.16,0,0,0,.02,0,.03,0,.02,.01,.04,.02,.06,0,.02,.02,.03,.02,.04,.01,.03,.01,.05,.03,.08,0,.02,.02,.03,.03,.04-.49,.31-.92,.7-1.32,1.12Zm12.76-12.16c.6,.49,1.24,.94,1.8,1.48,1.3,1.25,1.5,2.86,1.54,4.58,.04,1.38,.06,2.81-.33,4.15-.46,1.61-1.57,2.6-3.17,3.05-1.85,.52-3.86,.52-5.72,.06-1.71-.42-3.69-1.25-4.67-2.8-.51-1.8-.89-3.64-1.11-5.5-.19-1.67-.29-3.48,.58-4.99,.92-1.6,2.54-1.9,4.24-2.01,1.64-.1,3.48-.25,4.98,.55,.7,.37,1.25,.93,1.86,1.43Zm-27-24.36c-.95-1.36-1.45-2.94-1.15-4.61,.28-1.54,1.11-2.92,2.3-3.93,2.69-2.27,6.5-2.32,9.69-1.21,1.52,.53,3.1,1.29,4.21,2.49,1.2,1.3,1.33,2.95,.79,4.58-.58,1.78-1.71,3.7-3.13,4.93-1.37,1.2-3.17,1.82-4.98,1.79-3.19,.36-5.97-1.5-7.74-4.05Zm8.33,13.2c.08-1.49,1.08-2.53,2.28-3.32,2.06-1.35,4.69-1.78,7.08-1.2,2.38,.58,4.39,2.19,5.63,4.29,1.59,2.69,1.44,5.61,.94,8.57-.85-.22-1.75-.28-2.69-.26-1.8,.04-3.91,.04-5.39,1.23-.52,.41-.9,.92-1.2,1.48-1.12-1.09-2.23-2.18-3.35-3.27-.99-.97-2.18-1.93-2.8-3.2-.63-1.3-.58-2.92-.51-4.33Zm1.51,7.22c1.49,1.47,3,2.93,4.5,4.39-1.14,2.3-3.02,4.1-4.52,6.16v-2.98c0-2.53,0-5.07,0-7.6l.02,.02Zm-19.76,13.14c.02-1.74,.09-3.67,.81-5.29,.71-1.61,2.65-2.28,4.2-2.81,3.05-1.04,7.01-1.09,9.19,1.7,2.52,3.24,1.03,7.62-.75,10.81-1.7,2.35-5.37,2.58-8.01,2.47-1.68-.07-3.63-.5-4.63-2-.94-1.39-.83-3.28-.81-4.88Zm12.65,17.62c-1.31,2.31-4.25,3.57-6.85,3.63-1.42,.03-2.69-.47-3.62-1.56-.84-1-1.32-2.27-1.65-3.52-.44-1.65-.61-3.36-.51-5.06,.09-1.46,.29-3.21,1.32-4.34,.69,.45,1.47,.77,2.29,.93,1.97,.4,4.17,.3,6.13-.12,1.7-.37,3.35-1.11,4.43-2.49,1.22,.39,2.01,1.68,2.59,2.75,.65,1.2,1.03,2.6,.68,3.95-.16,.63-.48,1.21-.96,1.66-.54,.49-1.22,.79-1.79,1.24-.98,.77-1.48,1.88-2.07,2.94Zm29.68,17.49c-.45,1.88-1.35,3.3-3.14,4.12-1.74,.8-3.94,1.33-5.84,.9-1.06-.24-2.03-.8-2.87-1.48-.73-.59-1.65-1.33-1.88-2.29-.22-.93-.1-1.93-.29-2.88-.18-.92-.46-1.82-.82-2.69-.01-3.51,.94-7.43,4.28-9.21,3.2-1.71,7.33,.27,9.53,2.78,2.59,2.95,1.85,7.24,1.01,10.74Z"></path></svg>