<svg xmlns="http://www.w3.org/2000/svg" xmlns:xlink="http://www.w3.org/1999/xlink" version="1.2" baseProfile="tiny" x="0px" y="0px" viewBox="0 0 100 100" xml:space="preserve"><path d="M94.4,33.9c-6.9-13.6-22-20.2-29.9-21.9C51.6,9.1,51.3,2.6,51.2,2.3c0-0.7-0.6-1.2-1.2-1.2s-1.2,0.6-1.2,1.2  c0,0.1-0.2,6.7-13.3,9.7c-7.9,1.8-23.1,8.3-29.9,21.9c-5,9.8-4.6,21.3,1,34c3.5,7.9,8.6,12.8,15.3,14.6c10.8,3,22.4-2.9,26.9-5.6  v20.8c0,0.7,0.6,1.2,1.2,1.2s1.2-0.6,1.2-1.2V76.9c3.7,2.2,11.9,6.4,20.6,6.4c2.1,0,4.2-0.2,6.3-0.8c6.7-1.9,11.8-6.8,15.3-14.6  C99.1,55.1,99.4,43.7,94.4,33.9z"></path></svg>