<svg xmlns:dc="http://purl.org/dc/elements/1.1/" xmlns:cc="http://creativecommons.org/ns#" xmlns:rdf="http://www.w3.org/1999/02/22-rdf-syntax-ns#" xmlns:svg="http://www.w3.org/2000/svg" xmlns="http://www.w3.org/2000/svg" xmlns:sodipodi="http://sodipodi.sourceforge.net/DTD/sodipodi-0.dtd" xmlns:inkscape="http://www.inkscape.org/namespaces/inkscape" version="1.1" x="0px" y="0px" viewBox="0 0 100 100"><path  d="m 50,7.1072307 c -2.18332,0 -21.663813,27.8620103 -21.663813,50.9178683 0,19.628697 14.102779,31.701362 19.647656,34.86767 l 0,-13.361983 c -0.05652,-0.03791 -0.104618,-0.07426 -0.15813,-0.118598 -7.392781,-6.128978 1.397178,1.186701 -7.234449,-5.969412 -0.856132,-0.709776 -0.9865,-1.990208 -0.276729,-2.846341 0.709774,-0.856131 1.990212,-0.9865 2.846341,-0.276726 4.917187,4.076591 4.326146,3.580897 4.822967,3.992782 l 0,-9.369204 c -0.05198,-0.03545 -0.108748,-0.07765 -0.15813,-0.118598 -7.392781,-6.128967 1.397178,1.14717 -7.234448,-6.00894 -0.856132,-0.709775 -0.946968,-1.950676 -0.237195,-2.806808 0.709774,-0.856132 1.950676,-0.986502 2.806806,-0.276727 4.901325,4.063436 4.345245,3.596728 4.822967,3.992782 l 0,-10.001724 c -0.130004,-0.06627 -0.278385,-0.140242 -0.395325,-0.237194 -7.392781,-6.128969 1.397178,1.147169 -7.23445,-6.008941 -0.856131,-0.709775 -0.946968,-1.950676 -0.237196,-2.806808 0.709775,-0.856133 1.95068,-0.986502 2.806809,-0.276728 5.143023,4.263818 4.255801,3.523593 5.060161,4.190446 l 0,-6.997254 c 0,-1.112088 0.904071,-2.016158 2.016159,-2.016158 1.112087,0 2.016159,0.90407 2.016159,2.016158 l 0,14.745624 c -0.04167,0.03455 -0.08675,0.06714 4.190445,-3.478859 0.856131,-0.709775 2.136568,-0.579404 2.846341,0.276726 0.709772,0.856134 0.579404,2.097034 -0.276728,2.80681 -8.064859,6.686227 -1.701958,1.420211 -6.760058,5.613615 l 0,9.922658 c -0.136811,0.113423 -0.08146,0.06376 3.95325,-3.281197 0.856131,-0.709774 2.136566,-0.579404 2.846341,0.276727 0.709774,0.856133 0.579404,2.097034 -0.276728,2.806808 -7.781475,6.451287 -2.436724,2.028356 -6.522863,5.415954 l 0,20.20111 C 57.561034,89.726461 71.663814,77.653796 71.663814,58.025099 71.663814,34.969241 52.18332,7.1072307 50,7.1072307 z"  fill-opacity="1" stroke="none"></path><path  d="m 50,50 0,0"  stroke="#000000" stroke-width="1px" stroke-linecap="butt" stroke-linejoin="miter" stroke-opacity="1"></path></svg>