<svg xmlns="http://www.w3.org/2000/svg" xmlns:xlink="http://www.w3.org/1999/xlink" xml:space="preserve" version="1.1"  viewBox="0 0 50798 50798" x="0px" y="0px" fill-rule="evenodd" clip-rule="evenodd"><defs></defs><g><path  d="M8963 34883c29,-1427 -57,-2604 -344,-3738 -287,-1134 -776,-2225 -1321,-3072 -546,-847 -1148,-1450 -1751,-2053 -287,1378 -575,2757 -603,4306 -29,1551 201,3274 546,4594 343,1321 804,2239 1350,2963 546,725 1178,1254 1810,1782 143,-1677 286,-3355 313,-4782z"></path><path  d="M15368 40248c-1425,106 -3091,341 -4758,576 563,602 1126,1205 1879,1710 753,506 1695,913 3033,1184 1337,272 3071,406 4617,292 1545,-114 2906,-477 4266,-840 -635,-568 -1271,-1137 -2146,-1635 -876,-498 -1992,-925 -3140,-1149 -1148,-224 -2328,-245 -3751,-138z"></path><path  d="M8488 45088c416,-1278 876,-2541 1436,-3862 106,-251 217,-504 329,-759 482,-1086 1019,-2204 1566,-3332 674,-1392 1364,-2799 2153,-4177 184,-322 374,-643 567,-959 633,-1040 1297,-2040 1902,-2931 789,-1163 1479,-2139 2196,-3030 718,-890 1464,-1693 2283,-2569 487,-522 1000,-1069 1527,-1608 357,-366 720,-728 1085,-1076 905,-861 1823,-1636 2800,-2426 976,-790 2009,-1594 3172,-2384 701,-475 1449,-946 2247,-1421 525,-313 1073,-627 1643,-947 1436,-804 3015,-1636 4407,-2283 1392,-645 2599,-1104 3201,-1435 604,-330 604,-531 474,-674 -87,-97 -232,-168 -642,-95 -199,36 -461,106 -808,223 -1063,360 -2929,1164 -5369,2455 -1123,595 -2368,1293 -3640,2065 -1490,903 -3017,1906 -4427,2960 -1829,1366 -3460,2817 -4954,4313 -640,641 -1255,1290 -1850,1945 -1981,2182 -3732,4422 -5398,6934 -215,324 -428,652 -640,985 -1428,2243 -2771,4657 -3896,6996 -343,713 -665,1418 -974,2118 -851,1938 -1589,3837 -2327,5734 186,173 372,345 480,503 108,158 137,301 166,495 28,194 56,438 78,797l51 1306c373,-1292 746,-2583 1162,-3861z"></path><path  d="M7005 47081c-29,-194 -58,-337 -166,-495 -108,-158 -294,-330 -480,-503 -44,388 -87,775 -58,1200 29,423 129,883 280,1205 150,323 352,510 553,696l-51 -1306c-22,-359 -50,-603 -78,-797z"></path><path  d="M18969 33085c1580,253 3670,312 5652,-15 1981,-326 3855,-1039 4977,-1579 1123,-540 1494,-909 1864,-1277 -1418,-487 -2836,-974 -4087,-1187 -1250,-214 -2334,-154 -3433,16 -1100,169 -2215,448 -3665,948 -1451,500 -3237,1221 -5024,1943 1068,449 2138,897 3716,1151z"></path><path  d="M13489 30416c622,-1825 1244,-3648 1663,-5124 420,-1477 637,-2605 745,-3712 109,-1106 109,-2193 -174,-3429 -282,-1237 -846,-2627 -1411,-4015 -347,390 -693,781 -1171,1932 -478,1149 -1085,3060 -1302,5057 -218,1996 -44,4080 296,5643 341,1563 847,2605 1354,3648z"></path><path  d="M20885 16542c46,1494 366,2817 687,4140 598,-892 1197,-1785 1797,-2891 601,-1106 1204,-2427 1620,-3704 417,-1278 646,-2513 632,-3976 -15,-1465 -273,-3159 -532,-4853 -516,660 -1033,1320 -1664,2398 -633,1076 -1379,2569 -1866,4148 -489,1579 -718,3244 -674,4738z"></path><path  d="M30005 19240c-1321,251 -2707,683 -3880,1138 -1174,456 -2134,937 -3095,1418 1272,485 2543,970 4019,1204 1477,233 3158,216 4786,-68 1628,-284 3203,-836 4351,-1327 1148,-490 1869,-920 2589,-1349 -1648,-469 -3295,-940 -4746,-1139 -1451,-201 -2704,-128 -4024,123z"></path><path  d="M35218 16168c1070,404 2389,678 3786,798 1397,120 2875,87 3910,-116 1035,-203 1629,-576 2221,-950 -1036,-498 -2072,-996 -3084,-1405 -1011,-411 -1997,-732 -2954,-900 -957,-169 -1884,-185 -2978,24 -1094,209 -2355,642 -3616,1075 823,535 1646,1069 2715,1474z"></path><path  d="M31147 13344c888,-994 1776,-1990 2392,-2917 617,-928 961,-1789 1177,-2736 215,-948 301,-1981 315,-3073 15,-1090 -43,-2238 -100,-3387 -575,402 -1149,804 -1737,1680 -589,875 -1192,2225 -1623,3560 -430,1335 -688,2656 -730,3798 -43,1143 132,2109 306,3075z"></path><path  d="M42319 8890c130,144 130,345 -474,675 1010,126 2019,252 2990,207 970,-45 1900,-262 2669,-738 768,-477 1375,-1212 1775,-2122 401,-909 596,-1991 790,-3074 -346,-65 -693,-130 -1396,-130 -704,0 -1764,65 -2749,530 -985,466 -1894,1332 -2602,2178 -673,805 -1163,1593 -1645,2380 410,-73 556,-3 642,94z"></path></g></svg>