<svg xmlns="http://www.w3.org/2000/svg" xmlns:xlink="http://www.w3.org/1999/xlink" version="1.2" baseProfile="tiny" x="0px" y="0px" viewBox="0 0 100 100" xml:space="preserve"><path d="M96,53.1c-1-0.3-24.5-6.7-36.3,3.7c-5.3,4.7-7.3,12-6,21.8l-2.5,1.5V65c0.5-1.3,4.2-9.5,13.2-16.2c5.2-3.9,6.7-10,7-14.3  c0.5-7.2-1.8-15.2-5.5-18.9c-2.1-2.1-4.6-3.9-7.1-5.8c-3.7-2.7-7.5-5.5-7.5-7.7c0-0.7-0.6-1.2-1.2-1.2s-1.2,0.6-1.2,1.2  c0,2.2-3.8,5-7.5,7.7c-2.5,1.8-5,3.7-7.1,5.8c-3.7,3.7-6,11.7-5.5,18.9c0.3,4.4,1.8,10.4,7,14.3c9,6.8,12.6,14.9,13.2,16.2v15.1  l-2.5-1.5c1.3-9.8-0.7-17.1-6-21.8C28.5,46.4,5,52.8,4,53.1c-0.6,0.2-1,0.8-0.9,1.4c0.2,1,5,24.9,19.6,30.7c2.1,0.8,4.3,1.3,6.5,1.3  c4.9,0,10.1-1.9,15.6-5.7l3.8,2.2v14.9c0,0.7,0.6,1.2,1.2,1.2s1.2-0.6,1.2-1.2V83l3.8-2.2c5.5,3.8,10.8,5.7,15.6,5.7  c2.3,0,4.5-0.4,6.5-1.3c14.6-5.8,19.4-29.7,19.6-30.7C97,53.9,96.6,53.3,96,53.1z"></path></svg>