<svg xmlns="http://www.w3.org/2000/svg" xmlns:xlink="http://www.w3.org/1999/xlink" version="1.1" x="0px" y="0px" viewBox="0 0 100 100"  xml:space="preserve"><path d="M50,12.5c-14.9,0-27,12.1-27,27c0,10.6,6.1,19.8,15.1,24.2v14c0,3,2.2,5.4,5.1,5.8c1.3,2.4,3.9,4,6.8,4s5.5-1.6,6.8-4  c2.9-0.3,5.1-2.8,5.1-5.8v-14C70.8,59.3,77,50.1,77,39.5C77,24.6,64.9,12.5,50,12.5z M52.5,83.5c-0.7,0.5-1.6,0.7-2.5,0.7  c-0.9,0-1.8-0.3-2.5-0.7c-0.9-0.6-1.6-1.5-1.9-2.6h8.7C54.1,82,53.4,82.9,52.5,83.5z M58.7,77.7H41.3v-4.8h17.4V77.7z M58.7,65v4.6  H41.3V65v-0.2h17.4V65z M61.9,60c-1,0.6-2.1,1.1-3.2,1.6v0H41.3v0c-1.1-0.4-2.2-0.9-3.2-1.5c3.1-2.2,9.4-6.7,9.5-6.6  C53,54.5,59.3,49.7,58.8,42c-0.6-8.7-6.9-17.3-8.4-18.4c-0.2-0.1-0.4,0-0.5,0.2c-0.3,1.8-0.8,10.4-8.2,16c-2.9,2.2-2.9,6.6-1,9.5  c0.5,0.8,1.3,1.6,2.1,2.1c2.1-1.6,5.6-5.4,7.1-9.1c0.1-0.1,0.2-0.1,0.2,0.1c-1.1,4.2-3.6,8.4-5.3,10.1c-0.8,0.8-5.9,4.8-8.4,6.7  c-6.2-4.3-10.3-11.4-10.3-19.5c0-13.1,10.6-23.7,23.7-23.7c13.1,0,23.7,10.6,23.7,23.7C73.7,48.3,69,55.9,61.9,60z"></path></svg>