<svg xmlns="http://www.w3.org/2000/svg" xmlns:xlink="http://www.w3.org/1999/xlink" version="1.1" x="0px" y="0px" viewBox="0 0 200 200" enable-background="new 0 0 200 200" xml:space="preserve"><g><path d="M198.396,71.72c-2.004-2.004-5.004-2.524-7.463-1.294c-1.497,0.75-3.34,1.08-3.941,0.705   c-0.061-0.036-0.201-0.124-0.201-0.589c0-0.373,0.376-1.37,0.678-2.173c0.805-2.133,1.637-4.339,0.597-5.842   c-0.355-0.516-1.081-1.129-2.511-1.129c-3.205,0-4.426,2.812-5.504,5.293c-0.632,1.456-1.285,2.962-2.289,3.966   c-0.259,0.259-0.451,0.417-0.586,0.513c-0.142-0.336-0.297-0.888-0.409-1.287c-0.507-1.805-1.271-4.53-4.062-4.53   c-2.599,0-4.029,1.434-4.188,2.934c-1.829,4.375-6.192,7.911-8.614,9.621c0.011-0.216,0.025-0.43,0.038-0.614   c0.124-1.82,0.267-3.885-0.896-5.13c-0.375-0.401-1.054-0.88-2.157-0.88c-1.879,0-3.62,2.144-5.824,4.856   c-0.971,1.195-1.975,2.432-2.958,3.414c-0.071,0.072-0.134,0.152-0.186,0.238c-1.863,3.107-8.233,4.404-11.251,3.563   c-0.479-0.132-1.282-0.433-1.282-0.95c0-0.912,0.34-2.61,1.605-2.714c1.749,0.399,3.19,0.167,4.291-0.691   c1.299-1.015,1.975-2.791,2.011-5.281c0.647-1.83,1.982-3.918,4.697-3.918c0.133,0,0.265-0.021,0.391-0.063   c0.716-0.238,1.91-0.267,3.066-0.293c2.342-0.054,4.763-0.109,6.039-1.704c0.684-0.853,0.889-1.987,0.612-3.372   c-0.01-0.05-0.023-0.099-0.04-0.148c-0.484-1.455-1.501-2.333-2.243-2.975c-0.28-0.242-0.703-0.606-0.754-0.722   c0-0.003,0.038-0.286,0.722-0.97c0.059-0.059,0.109-0.121,0.154-0.188c1.903-2.853,3.435-4.185,6.462-3.47   c2.971,1.387,6.567-0.159,7.721-2.467c0.508-1.018,0.528-2.13,0.056-3.137c-0.481-1.021-1.439-1.897-2.852-2.604   c-0.666-0.333-0.863-0.61-0.854-0.693c0.165-1.505,6.876-4.749,11.475-5.898c3.244-0.812,7.271-4.487,6.944-7.137   c-0.082-0.667-0.566-2.219-3.289-2.219c-2.631,0-2.716-0.061-2.719-1.573c0.722-2.7,2.488-4.345,4.714-6.419   c0.604-0.562,1.224-1.14,1.844-1.761c2.164-2.162,2.34-3.466,2.34-4.828c0-0.191-0.045-0.381-0.131-0.552   c-0.943-1.89-3.133-1.666-4.89-1.485c-0.956,0.096-2.042,0.207-2.576-0.053c-0.062-0.032-0.128-0.059-0.194-0.079   c-3.305-1.1-4.812-1.063-7.17,1.296c-0.058,0.058-0.109,0.12-0.154,0.188c-3.102,4.653-6.273,3.067-7.316,2.545   c-2.797-1.399-4.383-0.815-6.523,2.397c-0.027,0.042-0.054,0.087-0.077,0.133c-1.372,2.744-2.84,4.322-4.259,5.85   c-0.169,0.182-0.337,0.362-0.502,0.543c-1.629-2.216-3.176-3.616-5.008-3.616c-2.189,0-3.971,1.999-5.932,4.943   c-1.414,1.886-2.355,4.627-3.186,7.045c-0.387,1.126-0.886,2.58-1.275,3.312c-2.387-2.287-4.253-3.12-5.854-2.619   c-2.419,0.76-3.025,4.171-3.67,7.78c-0.286,1.608-0.583,3.271-1.027,4.603c-0.464,1.394-0.854,1.583-0.897,1.601   c-0.254,0.11-1.072-0.325-1.663-0.64c-1.448-0.771-3.433-1.829-5.716-0.687c-4.638,2.318-4.638,6.943-4.638,10.002   c0,2.216-1.6,4.575-3.083,5.491c-0.56,0.346-0.939,0.384-1.061,0.323c-0.018-0.009-0.035-0.017-0.053-0.023   c-0.236-0.696-0.252-2.595-0.253-3.614c0.461-1.385,0.922-2.822,1.395-4.301c1.501-4.686,3.203-9.996,5.426-15.183   c0.013-0.031,0.025-0.064,0.036-0.096l0.275-0.81c0.952-2.782,2.032-5.935,0.795-7.666c-0.345-0.483-1.015-1.06-2.242-1.06   c-1.962,0-3.006,1.229-3.769,2.127c-0.582,0.685-0.866,0.972-1.235,0.997c0.366-1.472,0.843-2.933,1.333-4.433   c0.731-2.244,1.488-4.563,1.913-7.07c0.415-1.479,2-7.979-1.723-9.322c-1.135-0.537-2.405-0.462-3.497,0.214   c-1.316,0.813-2.166,2.342-2.166,3.895c0,1.143-0.031,1.969-0.079,2.562c-1.286-2.841-0.627-6.121-0.039-9.043   c0.314-1.567,0.612-3.047,0.612-4.394c0-2.024,0-5.78-3.732-7.077c-0.9-0.42-1.832-0.381-2.636,0.115   c-1.438,0.889-2.035,3.041-2.035,3.996c0,2.582-0.145,3.924-0.291,4.619c-0.499-0.529-0.978-1.088-1.442-1.63   c-2.068-2.417-4.413-5.155-7.602-3.028c-0.067,0.045-0.13,0.096-0.188,0.154c-1.438,1.438-2.079,2.709-2.019,3.998   c0.086,1.845,1.589,3.09,3.18,4.406c2.066,1.711,4.408,3.65,4.408,7.298c0,1.794-0.874,2.577-2.322,3.875   c-0.411,0.367-0.84,0.753-1.27,1.183c-1.836,1.836-2.307,4.299-1.288,6.756c0.674,1.629,1.935,3.062,3.395,4.016   c-3.594,3.846-3.244,5.633-0.422,11.292c0.786,3.146,0.739,3.191-2.673,6.604c-2.146,2.145-0.358,5.863,1.369,9.459   c0.576,1.199,2.332,4.851,1.784,5.215c-0.067,0.046-0.13,0.097-0.188,0.155c-0.125,0.122-0.233,0.228-0.641,0.023   c-2.39-1.194-5.912-8.611-5.171-13.804c0.009-0.058,0.013-0.116,0.013-0.175c0-2.094,0-3.478-1.351-4.828   c-0.094-0.093-0.202-0.172-0.321-0.231c-2.773-1.387-4.342,0.183-5.38,1.221c-1.281,1.28-1.617,1.463-2.632,0.543   c1.146-3.181,5.158-15,2.568-17.382c-0.315-0.29-1.2-0.891-2.581-0.198c-1.455,0.728-2.762,1.801-3.812,2.664   c-0.406,0.333-0.908,0.745-1.299,1.021c-0.012-0.159-0.021-0.357-0.021-0.604c0-1.29,0.723-2.732,1.42-4.129   c1.16-2.32,2.604-5.21,0.195-7.618c-1.476-1.476-3.238-1.476-4.713,0c-0.458,0.457-0.865,0.872-1.23,1.246   c-0.816,0.832-1.657,1.691-2.057,1.934c-0.336-0.312-0.971-1.294-1.585-2.246c-0.329-0.509-0.703-1.087-1.135-1.734   c-0.045-0.067-0.097-0.13-0.154-0.188c-0.359-0.358-0.688-0.764-1.037-1.191c-1.384-1.696-3.279-4.022-7.309-2.006   c-0.119,0.06-0.228,0.139-0.321,0.231c-0.234,0.235-0.485,0.47-0.738,0.708c-1.833,1.729-4.604,4.338-2.459,8.627   c0.585,1.171,1.751,1.784,2.779,2.324c1.443,0.76,2.033,1.159,2.033,2.066c0,1.804-0.915,2.718-2.719,2.718   c-2.731,0-3.503,1.572-3.706,2.247c-0.575,1.896,0.696,4.399,3.021,5.948c0.042,0.028,0.087,0.055,0.133,0.077   c1.472,0.736,3.835,2.937,4.621,3.723c0.865,0.865,0.72,1.812,0.362,3.547c-0.411,1.999-0.975,4.737,1.615,7.327   c0.305,0.306,0.617,0.611,0.93,0.918c3.753,3.683,6.992,6.861,3.781,12.484c-2.235,4.471-1.108,7.006,0.231,8.346   c1.628,1.628,2.548,3.556,2.402,5.032c-0.082,0.826-0.482,1.468-1.225,1.963c-0.068,0.046-0.131,0.097-0.188,0.154   c-1.395,1.393-4.553,0.621-6.161-0.988c-0.219-0.218-0.497-0.338-0.782-0.358c0.007-1.415,0.041-2.844,0.073-4.292   c0.041-1.747,0.082-3.528,0.082-5.35c0-1.017-0.451-1.612-0.83-1.934c-1.15-0.977-2.963-0.672-4.879-0.354   c-0.524,0.088-1.193,0.198-1.767,0.25c1.55-5.289,0.062-10.114-1.552-13.344c-1.351-2.702-3.165-4.256-5.11-4.378   c-1.449-0.088-2.839,0.674-3.869,2.158c-0.944,0.925-1.796,1.39-2.267,1.262c-0.209-0.059-0.932-0.426-1.538-2.835   c-0.768-2.305-1.929-5.787-6.114-5.787c-0.446,0-0.962-0.024-1.511-0.049c-2.655-0.117-5.664-0.254-7.073,1.468   c-0.438,0.536-0.881,1.475-0.558,2.937c0.038,1.091,0.479,2.073,0.945,3.107c0.378,0.843,0.767,1.707,0.938,2.661   c-1.203-0.15-2.409-0.238-3.617-0.238c-2.102,0-4.718,0-6.048,2.66c-1.313,2.627-0.995,5.066,1.065,8.157   c2.345,3.517,6.907,3.517,9.926,3.517c3.197,0,3.851,0.35,5.772,5.153c0.013,0.032,0.026,0.064,0.042,0.094   c0.396,0.795,0.681,1.607,0.979,2.467c1.098,3.149,2.343,6.719,9.638,9.033c0.524,0.166,1.082,0.448,1.114,1.677   c-0.622,3.305,0.06,7.684,6.614,10.121c0.135,0.169,0.308,0.556,0.323,0.659c-0.036,0.218-0.07,0.292-0.071,0.294   c-0.491,0.206-2.366-0.708-3.27-1.146c-1.169-0.567-2.193-1.064-3.078-1.153c-1.317-0.513-2.504-0.83-3.555-1.112   c-2.959-0.792-4.914-1.316-7.551-5.271c-1.376-2.064-3.626-1.6-5.432-1.229c-2.088,0.432-3.424,0.622-4.493-0.805   c-2.06-2.746-6.71-5.952-10.069-4.833c-1.382,0.461-3.029,1.802-3.029,5.574c0,0.651,0.09,1.202,0.162,1.644   c0.146,0.899,0.146,0.899-0.467,1.205c-1.717,0.858-2.979,0.858-4.89,0.858c-1.733,0-3.175,0.985-3.858,2.636   c-0.758,1.83-0.379,3.962,0.942,5.338c3.331,4.415,5.405,4.418,9.646,3.358c0.139-0.035,0.269-0.093,0.387-0.171   c0.99-0.661,2.265-0.485,3.054-0.135c0.635,0.282,0.869,0.62,0.884,0.693c-0.001,0.001-0.047,0.138-0.366,0.351   c-0.067,0.045-0.13,0.097-0.188,0.154c-0.352,0.353-0.709,0.531-1.161,0.757c-0.547,0.274-1.168,0.584-1.804,1.221   c-0.072,0.071-0.135,0.151-0.187,0.237c-1.752,2.921-2.184,5.226-1.317,7.044c0.924,1.943,3.262,3.157,7.146,3.712   c0.058,0.009,0.115,0.013,0.175,0.013c2.484,0,4.082-0.679,5.49-1.276c1.569-0.667,2.807-1.189,5.141-0.725   c0.081,0.017,0.162,0.023,0.243,0.023c1.738,0,2.782,0.417,3.989,0.9c1.262,0.505,2.691,1.077,4.907,1.077   c1.961,0,3.283-0.622,4.347-1.121c1.276-0.599,1.755-0.821,2.876-0.075c3.277,2.185,6.496,2.185,10.571,2.185   c1.898,0,3.055,0.053,3.702,1.058c-0.056,1.968-0.676,2.459-2.208,3.67c-0.644,0.51-1.443,1.143-2.312,2.005   c-5.103,3.996-9.111,10.564-12.336,15.847c-1.717,2.814-3.854,6.316-4.64,6.583c-0.683,0-1.235,0.554-1.235,1.236   s0.553,1.235,1.235,1.235c1.927,0,3.462-2.381,6.749-7.767c3.132-5.131,7.03-11.518,11.804-15.23   c0.04-0.031,0.079-0.064,0.115-0.102c0.789-0.79,1.515-1.363,2.154-1.87c0.546-0.432,1.057-0.836,1.501-1.29   c0.423,0.528,0.994,0.994,1.777,1.15c1.055,0.209,2.105-0.209,3.094-0.7c2.191-0.859,3.815-0.253,4.795,0.41   c1.436,0.973,2.363,2.695,2.363,4.392c0,0.07,0.006,0.141,0.017,0.207c-0.374,0.613-0.744,1.203-1.099,1.767   c-2.032,3.237-3.502,5.578-2.491,7.406c0.854,1.544,3.018,1.741,4.809,1.741c3.36,0,5.492-1.238,7.047-2.142   c0.425-0.247,0.818-0.476,1.157-0.629c1.076,2.443,2.515,6.99,0.576,10.868c-0.026,0.053-0.049,0.106-0.066,0.161   c-1.104,3.313-1.136,7.741,1.286,10.162c0.059,0.058,0.121,0.108,0.188,0.154c3.27,2.183,6.295-0.858,8.267-2.941   c1.307,2.582,1.88,5.877,1.88,9.821v10.874c0,2.399,0.346,3.942,3.898,5.127c0.127,0.042,0.303,0.063,0.436,0.063   c0.432,0,0.904,0.058,1.38,0.119c1.403,0.181,3.528,0.454,4.664-1.715c1.253-1.859,2.933-3.306,4.554-4.703   c0.109-0.096,0.221-0.189,0.329-0.283c1.719,1.592,1.72,3.811,1.72,6.335c0,0.157-0.085,0.532-0.155,0.835   c-0.254,1.093-0.634,2.729,0.429,3.898c1.782,2.54,6.57,4.209,10.743,4.208c1.729,0,3.354-0.287,4.613-0.916   c0.046-0.023,0.091-0.05,0.133-0.078c3.516-2.344,4.681-8.876,2.397-13.442c-0.24-0.48-0.537-1.019-0.851-1.585   c-0.782-1.415-1.733-3.137-1.943-4.34c3.216-3.664,2.675-9.112-1.392-13.179c-0.032-0.032-0.067-0.063-0.102-0.092   c-2.082-1.666-3.806-3.706-5.629-5.868c-2.353-2.786-4.783-5.666-8.192-7.964c-1.305-1.325-2.177-2.701-3.275-4.435   c-0.251-0.394-0.511-0.805-0.79-1.238c0.818-0.683,1.565-1.465,2.296-2.229c1.383-1.447,2.701-2.827,4.412-3.516   c1.213,1.733,2.721,3.095,4.186,4.418c2.404,2.171,4.481,4.046,5.001,7.171c0.011,0.063,0.027,0.126,0.048,0.188   c0.504,1.512,2.337,4.807,8.482,2.759c0.056-0.019,0.109-0.041,0.161-0.067c1.036-0.517,1.64-1.379,2.081-2.009   c0.081-0.115,0.179-0.255,0.267-0.369c0.05,0.043,0.11,0.1,0.181,0.17c1.035,1.034,1.438,2.518,1.828,3.951   c0.231,0.854,0.471,1.734,0.847,2.523c0.589,2.236,1.833,3.889,3.514,4.662c1.349,0.62,2.855,0.608,4.135-0.031   c2.116-1.058,3.816-1.317,5.194-0.792c1.544,0.587,2.845,2.252,3.955,5.021c0.807,2.42,3.16,5.611,5.933,6.761   c1.501,0.621,3.025,0.625,4.427,0.008c1.533-0.079,2.887-0.78,3.837-1.998c1.18-1.51,1.586-3.646,1.143-5.922   c0.078-0.038,0.154-0.076,0.226-0.111c1.133-0.568,1.256-0.516,1.539-0.231c0.136,0.136,0.302,0.237,0.483,0.298   c1.617,0.54,3.089,0.223,4.035-0.866c1.058-1.22,1.233-3.199,0.427-4.812c-0.474-0.945-1.377-1.792-2.173-2.539   c-0.315-0.294-0.743-0.694-1.006-0.996c0.18-0.171,0.534-0.402,0.878-0.626c1.229-0.804,3.519-2.299,2.301-4.735   c-0.023-0.047-0.05-0.091-0.077-0.134c-1.259-1.888-3.857-5.783-8.138-4.505c-6.145-0.032-8.759-1.66-11.519-7.148   c-1.2-3.516-3.669-5.63-7.764-6.653c-4.035-1.009-7.693-3-10.3-5.606c-0.44-0.441-0.869-0.881-1.292-1.316   c-3.475-3.576-6.758-6.954-13.421-6.954c-2.3,0-2.899-0.494-3.771-3.109c-0.018-0.055-0.04-0.109-0.066-0.161   c-1.116-2.232-1.002-5.565,0.23-6.731c0.995-0.94,2.715-0.275,3.91,0.403c2.433,1.622,5.231,1.079,7.702,0.602   c1.045-0.203,2.033-0.394,2.869-0.394c3.433,0,6.118,0.744,8.896,4.448c3.852,5.136,7.909,4.089,11.38,2.364   c4.189-1.668,5.597-1.076,8.319,3.462c0.053,0.086,0.115,0.166,0.187,0.237c0.375,0.374,0.749,0.787,1.132,1.206   c1.749,1.921,3.732,4.099,6.662,4.099c1.838,0,3.106-0.562,3.771-1.672c1.411-2.357-0.569-6.055-2.666-9.971   c-0.481-0.896-0.944-1.763-1.333-2.558c0.282-0.111,0.546-0.237,0.797-0.357c0.956-0.455,1.645-0.781,2.994-0.334   c3.266,1.089,6.021,0.141,7.395-2.529c1.016-1.58,1.033-3.618,0.041-5.47c-1.111-2.076-3.805-4.295-8.032-4.295   c-0.479,0-1.032,0.024-1.621,0.052c-1.549,0.067-4.427,0.197-5.049-0.563c-0.138-0.168-0.151-0.477-0.04-0.919   c0.363-1.452,1.025-2.452,1.968-2.969c1.154-0.634,2.467-0.411,3.362-0.112c1.831,0.611,3.819,0.329,5.321-0.754   c1.362-0.981,2.168-2.487,2.232-4.155c0.806-2.291,1.652-2.206,3.633-2.005c1.647,0.168,3.694,0.375,5.763-1.178   c2.341-1.755,2.685-4.348,2.936-6.24c0.308-2.321,0.5-2.409,1.266-2.409c0.485,0,1.184,0.198,1.857,0.392   c1.616,0.461,4.061,1.162,5.18-1.075C200.575,75.885,200.148,73.473,198.396,71.72z M50.686,79.867   c0.968,0.11,2.101-0.08,3.278-0.276c0.838-0.14,2.366-0.393,2.828-0.218c0.002,0.017,0.004,0.039,0.004,0.066   c0,1.802-0.041,3.563-0.082,5.293c-0.158,6.857-0.309,13.333,2.138,19.854c0.239,0.64,0.952,0.963,1.59,0.725   c0.64-0.24,0.964-0.953,0.724-1.591c-1.431-3.817-1.906-7.701-2.022-11.7c1.054,0.74,2.341,1.274,3.629,1.49   c1.993,0.328,3.742-0.111,4.94-1.247c1.3-0.903,2.064-2.183,2.216-3.709c0.22-2.228-0.944-4.853-3.114-7.022   c-1.112-1.113-1.035-2.961,0.198-5.434c4.124-7.217-0.507-11.762-4.228-15.413c-0.308-0.301-0.613-0.602-0.914-0.901   c-1.647-1.649-1.336-3.164-0.941-5.083c0.361-1.757,0.812-3.944-1.035-5.791c-0.126-0.126-3.062-3.05-5.188-4.147   c-1.5-1.026-2.159-2.511-1.969-3.138c0.134-0.442,0.982-0.491,1.341-0.491c2.509,0,5.189-1.363,5.189-5.189   c0-2.49-1.938-3.51-3.354-4.254c-0.766-0.402-1.488-0.783-1.719-1.241c-1.259-2.518-0.082-3.815,1.943-5.723   c0.219-0.206,0.435-0.409,0.642-0.612c2.121-1.001,2.801-0.175,4.116,1.44c0.348,0.427,0.706,0.866,1.117,1.288   c0.396,0.597,0.742,1.132,1.049,1.606c1.414,2.188,2.124,3.286,3.407,3.415c1.299,0.132,2.221-0.821,4.075-2.716   c0.36-0.366,0.762-0.777,1.213-1.228c0.475-0.476,0.743-0.476,1.219,0c1.04,1.04,0.599,2.251-0.659,4.766   c-0.787,1.576-1.681,3.36-1.681,5.234c0,1.281,0.151,2.663,1.276,3.194c1.27,0.601,2.514-0.415,4.084-1.703   c0.968-0.795,2.061-1.692,3.22-2.297c0.423,1.896-1.232,8.88-3.06,13.894c-0.343-0.35-0.424-0.811-0.551-1.529   c-0.117-0.668-0.251-1.424-0.651-2.226c-0.304-0.609-1.048-0.858-1.657-0.553c-0.611,0.305-0.858,1.048-0.554,1.657   c0.239,0.48,0.331,1,0.429,1.55c0.224,1.267,0.525,2.985,2.972,3.914c2.365,2.27,4.087,2.202,6.487-0.199   c0.964-0.964,1.353-1.283,2.339-0.847c0.466,0.545,0.493,1.129,0.495,2.854c-0.816,6.063,3.087,14.555,6.523,16.273   c1.236,0.619,2.471,0.47,3.407-0.402c2.186-1.583,0.623-4.834-1.028-8.271c-1.098-2.284-2.756-5.735-1.851-6.641   c4.136-4.135,4.422-4.557,3.291-9.082c-0.022-0.087-0.054-0.172-0.094-0.253c-2.734-5.469-2.761-5.914,0.555-9.246   c0.438,0.105,0.876,0.16,1.306,0.16c0.683,0,1.235-0.553,1.235-1.235s-0.553-1.235-1.235-1.235c-1.78,0-3.988-1.7-4.821-3.713   c-0.442-1.068-0.671-2.641,0.752-4.063c0.396-0.396,0.793-0.75,1.171-1.089c1.547-1.386,3.146-2.817,3.146-5.716   c0-4.81-3.065-7.348-5.303-9.2c-1.159-0.96-2.253-1.865-2.288-2.619c-0.024-0.505,0.393-1.21,1.206-2.043   c1.139-0.693,2.005,0.011,4.257,2.642c0.626,0.73,1.273,1.486,1.996,2.208c0.962,0.963,1.826,0.806,2.253,0.629   c1.354-0.561,1.833-2.506,1.833-7.434c0-0.448,0.399-1.607,0.863-1.894c0.054-0.035,0.109-0.069,0.314,0.033   c0.052,0.026,0.106,0.049,0.161,0.066c1.965,0.656,2.121,2.464,2.121,4.76c0,1.101-0.274,2.464-0.563,3.907   c-0.692,3.445-1.555,7.733,0.771,11.606c0.298,0.447,1.207,1.803,2.536,1.406c1.44-0.437,1.704-2.379,1.704-6.046   c0-0.683,0.418-1.437,0.994-1.793c0.393-0.244,0.776-0.266,1.172-0.067c0.053,0.026,0.106,0.048,0.162,0.066   c1.182,0.395,0.862,4.033,0.19,6.397c-0.013,0.045-0.022,0.091-0.03,0.137c-0.392,2.349-1.126,4.6-1.837,6.777   c-1.049,3.217-2.134,6.544-2.134,10.23c0,0.683,0.553,1.235,1.235,1.235s1.235-0.553,1.235-1.235c0-0.881,0.07-1.739,0.192-2.587   c1.831,0.237,2.885-0.993,3.606-1.842c0.682-0.802,1.104-1.256,1.886-1.256c0.178,0,0.232,0.025,0.231,0.025   c0.517,0.643-0.717,4.244-1.122,5.429l-0.264,0.776c-2.261,5.28-3.976,10.634-5.489,15.358c-0.492,1.537-0.971,3.029-1.448,4.464   c-0.042,0.127-0.063,0.258-0.063,0.392c0,2.757,0,5.863,1.918,6.156c0.942,0.354,2.073,0.168,3.219-0.54   c2.062-1.275,4.254-4.369,4.254-7.594c0-2.886,0-6.156,3.271-7.791c1.065-0.535,2.015-0.107,3.45,0.657   c1.131,0.603,2.41,1.287,3.741,0.754c1.013-0.404,1.752-1.395,2.325-3.114c0.501-1.503,0.813-3.257,1.115-4.95   c0.417-2.342,0.989-5.547,1.979-5.857c0.241-0.076,1.233-0.13,3.757,2.394c0.723,0.722,1.457,0.684,1.829,0.6   c1.455-0.337,2.126-2.288,3.14-5.241c0.771-2.246,1.645-4.79,2.865-6.421c0.643-0.965,2.599-3.898,3.914-3.898   c1.046,0,2.494,1.853,3.369,3.097c-1.537,2.11-2.628,4.823-2.628,10.002c0,0.683,0.554,1.235,1.236,1.235s1.235-0.553,1.235-1.235   c0-4.703,0.931-6.951,2.371-8.83c0.016-0.008,0.029-0.018,0.044-0.027c0.231-0.154,0.396-0.374,0.48-0.618   c0.378-0.443,0.784-0.879,1.211-1.339c1.455-1.565,3.104-3.338,4.624-6.357c1.582-2.36,1.922-2.194,3.321-1.494   c3.94,1.973,7.633,0.807,10.407-3.28c1.13-1.118,1.668-1.396,3.079-1.059c-5.765,9.145-13.366,16.745-20.728,24.108   c-3.411,3.409-11.786,9.332-16.403,12.511c0.793-2.3,1.357-4.808,1.697-7.529c0.007-0.052,0.01-0.103,0.01-0.154   c0-1.465,0.678-2.143,1.615-3.08c0.482-0.482,0.482-1.265,0-1.747c-0.482-0.483-1.265-0.483-1.747,0   c-1.031,1.03-2.312,2.311-2.34,4.746c-1.087,8.587-4.379,14.577-10.356,18.847c-0.032,0.024-0.064,0.049-0.095,0.076   c-3.037,2.656-6.137,5.388-9.234,8.17c0.009-1.884,0.658-3.833,1.334-5.86c0.217-0.648-0.134-1.349-0.781-1.563   c-0.651-0.218-1.348,0.134-1.562,0.781c-0.935,2.803-1.896,5.689-1.258,8.69c-4.073,3.696-8.112,7.473-11.967,11.278   c0.197-12.132-2.057-47.623-2.164-49.313c-0.002-0.042-0.007-0.083-0.014-0.124c-0.914-5.477-1.961-12.537-1.961-18.579   c0-0.683-0.553-1.236-1.235-1.236s-1.236,0.554-1.236,1.236c0,6.2,1.059,13.362,1.984,18.923   c0.997,15.641,2.663,45.917,2.04,51.658c-5.847,5.725-12.017,10.97-18.033,16.045c-0.95-2.804,0.062-6.522,0.616-8.191   l5.932-20.759c0.188-0.657-0.193-1.341-0.849-1.528c-0.653-0.182-1.34,0.191-1.528,0.849l-4.433,15.517   c-1.354-0.735-2.04-1.846-2.04-3.314c0-2.785-0.542-4.993-1.544-6.918c2.715-4.147,2.746-9.422,2.746-12.325v-0.12   c0-0.683-0.816-1.236-1.5-1.236c-0.682,0-1.5,0.554-1.5,1.236v0.121c0,2.567,0.232,6.632-1.508,9.996   c-0.492-0.641-0.918-1.259-1.5-1.871c0.51-1.315,0.301-2.961-0.285-4.181l-2.376-7.214c1.174-1.474,1.321-3.438,1.439-5.188   c0.071-1.062,0.146-2.064,0.437-2.644c0.305-0.61,0.061-1.353-0.55-1.658c-0.61-0.307-1.352-0.058-1.656,0.554   c-0.512,1.022-0.595,2.266-0.683,3.582c-0.041,0.589-0.08,1.186-0.161,1.746l-2.243-6.73c-0.109-1.326-1.128-2.409-1.341-2.622   c-1.887-1.887-2.792-4.308-3.513-6.935c0.886-2.02,2.008-6.104,0.778-8.562c-0.304-0.609-1.046-0.858-1.657-0.553   c-0.611,0.305-0.858,1.048-0.554,1.657c0.302,0.603,0.341,1.608,0.203,2.719c-0.259-0.915-0.548-1.816-0.891-2.673   c-0.675-2.026-1.749-3.59-2.694-4.969c-0.513-0.747-0.997-1.453-1.327-2.112c-0.304-0.611-1.046-0.859-1.657-0.554   s-0.858,1.048-0.553,1.658c0.406,0.812,0.937,1.587,1.499,2.405c0.896,1.307,1.822,2.656,2.413,4.421   c0.628,1.569,1.045,3.237,1.486,5.003c0.135,0.541,0.271,1.085,0.414,1.628c0.013,0.1,0.039,0.197,0.077,0.29   c0.803,2.992,1.855,5.951,4.228,8.322c0.218,0.219,0.626,0.791,0.626,1.104c0,0.133,0.021,0.265,0.063,0.391l5.932,17.794   c0.019,0.055,0.041,0.109,0.066,0.161c0.443,0.888,0.517,2.103,0.149,2.501c-0.25,0.271-1.047,0.351-2.54-0.246   c-0.631-0.254-1.352,0.054-1.604,0.688c-0.254,0.634,0.054,1.353,0.688,1.605c1.945,0.779,3.274,0.734,4.174,0.379   c2.454,2.598,3.946,5.184,3.946,9.349c0,1.545,0.523,4.224,3.822,5.731l-0.793,2.774c-0.197,0.592-0.406,1.294-0.591,2.068   c-0.423-0.324-0.868-0.648-1.324-0.981c-1.717-1.251-3.663-2.669-4.781-4.347c-0.38-0.569-1.146-0.72-1.714-0.343   c-0.567,0.378-0.721,1.146-0.343,1.713c1.363,2.045,3.499,3.602,5.383,4.974c0.858,0.626,1.677,1.223,2.312,1.789   c-0.171,1.91-0.025,3.948,0.817,5.723c-0.371,0.313-0.743,0.627-1.116,0.941c-0.011,0.01-0.022,0.019-0.032,0.028   c-3.722,3.145-7.512,6.378-11.164,9.7c-0.852,0.851-1.609,1.738-2.325,2.625c-0.374-0.418-0.759-0.836-1.152-1.253   c2.126-5.475,1.928-11.21,1.737-16.767c-0.055-1.558-0.104-3.03-0.104-4.491c0-0.683-0.554-1.236-1.235-1.236   c-0.683,0-1.236,0.554-1.236,1.236c0,1.504,0.055,3.065,0.106,4.576c0.169,4.922,0.344,9.993-1.186,14.703   c-0.546-0.551-1.097-1.099-1.642-1.641c-3.831-3.81-7.791-7.75-9.687-12.08c-0.521-2.527-1.524-5.288-2.495-7.958   c-0.954-2.624-1.505-5.337-1.981-7.711c-0.01-0.052,0.397-0.102,0.397-0.153c0-0.001,0-0.002,0-0.004c0,0,0,0,0-0.001   c0-0.002,0-0.003,0-0.004s-0.439-0.002-0.439-0.004C49.049,84.839,49.046,82.57,50.686,79.867z M17.938,124.656   c-0.114,0.005-0.231,0.008-0.351,0.009c-2.866-0.421-4.655-1.22-5.177-2.314c-0.465-0.978-0.087-2.514,1.123-4.57   c0.32-0.29,0.65-0.456,1.059-0.659c0.523-0.262,1.112-0.557,1.719-1.137c1.607-1.134,1.616-2.713,0.896-3.792   c-0.615-0.921-1.803-1.632-3.181-1.902c-1.422-0.281-2.81-0.059-3.938,0.62c-3.41,0.845-4.365,0.86-6.927-2.556   c-0.035-0.047-0.073-0.091-0.115-0.133c-0.775-0.774-0.788-1.949-0.472-2.712c0.172-0.414,0.604-1.109,1.575-1.109   c2.016,0,3.757,0,5.994-1.119s1.985-2.675,1.802-3.812c-0.064-0.391-0.13-0.795-0.13-1.248c0-1.27,0.232-2.86,1.338-3.229   c1.755-0.581,5.372,1.383,7.312,3.971c2.064,2.754,4.898,2.169,6.97,1.742c1.85-0.38,2.486-0.405,2.877,0.179   c3.152,4.729,5.847,5.452,8.966,6.288c1.086,0.29,2.209,0.592,3.466,1.094c0.146,0.059,0.302,0.089,0.459,0.089   c0.377,0,1.516,0.553,2.27,0.919c1.938,0.94,3.939,1.914,5.479,1.12c0.515-0.265,1.17-0.842,1.377-2.082   c0.166-0.979-0.585-2.905-1.784-3.343c-5.548-2.018-5.592-5.243-5.142-7.493c0.016-0.08,0.023-0.161,0.023-0.242   c0-2.121-0.981-3.554-2.839-4.144c-6.116-1.94-7.013-4.513-8.05-7.49c-0.308-0.882-0.625-1.792-1.081-2.712   c-2.067-5.159-3.384-6.661-8.048-6.661c-2.788,0-6.259,0-7.869-2.416c-1.786-2.678-1.672-4.159-0.911-5.682   c0.617-1.234,1.8-1.294,3.837-1.294c3.802,0,7.748,0.987,11.563,1.94c0.661,0.165,1.333-0.236,1.499-0.899   c0.165-0.661-0.238-1.332-0.9-1.498c-1.973-0.493-3.98-0.996-6.006-1.375c-0.123-1.627-0.728-2.971-1.224-4.074   c-0.392-0.872-0.73-1.625-0.73-2.249c0-0.102-0.013-0.202-0.037-0.299c-0.111-0.442-0.098-0.752,0.04-0.919   c0.623-0.763,3.5-0.632,5.049-0.563c0.589,0.027,1.142,0.051,1.621,0.051c1.887,0,2.697,0.881,3.743,4.007   c0.646,2.585,1.739,4.107,3.249,4.525c1.445,0.4,3.044-0.264,4.755-1.974c0.058-0.059,0.109-0.121,0.154-0.188   c0.374-0.56,0.984-1.192,1.733-1.172c0.983,0.062,2.153,1.217,3.053,3.016c1.528,3.058,2.934,7.734,0.993,12.713   c-1.068,1.621-1.791,3.164-2.175,4.643c-1.057-1.652-2.345-3.542-3.671-5.391c1.255-1.523,1.391-3.85,1.51-5.919   c0.069-1.192,0.142-2.425,0.43-3.002c0.306-0.61,0.058-1.353-0.553-1.657c-0.611-0.308-1.354-0.059-1.658,0.553   c-0.516,1.031-0.599,2.455-0.686,3.964c-0.081,1.387-0.169,2.919-0.61,3.922c-2.455-3.284-4.783-6.051-5.762-6.54   c-0.598-0.298-1.301-0.054-1.616,0.537c-0.315,0.59-0.078,1.338,0.503,1.669c1.724,0.982,11.196,14.193,12.217,17.02   c0.519,2.54,1.528,5.317,2.506,8.004c0.956,2.63,1.945,5.35,2.421,7.729c0.017,0.084,0.042,0.166,0.075,0.245   c2.064,4.815,6.233,8.963,10.265,12.974c1.754,1.745,3.425,3.405,4.895,5.085c-0.441,0.556-0.883,1.1-1.341,1.623   c-6.213-3.874-14.859-6.541-21.449-6.576c-4.353-0.949-4.825-5.665-4.825-7.661c0-0.683-0.554-1.235-1.236-1.235   s-1.235,0.553-1.235,1.235c0,0.817,0.08,2.391,0.585,4.065c-2.479-0.678-4.188-1.247-5.854-1.803   c-1.718-0.573-3.481-1.16-6.062-1.864c-0.926-0.987-1.826-2.646-2.697-4.253c-1.831-3.372-3.724-6.859-6.953-6.859   c-0.683,0-1.235,0.553-1.235,1.235s0.553,1.236,1.235,1.236c1.759,0,3.364,2.958,4.78,5.567c0.361,0.665,0.716,1.317,1.075,1.938   c-1.977-0.523-4.237-0.523-5.855-0.523c-0.683,0-1.235,0.553-1.235,1.235s0.553,1.236,1.235,1.236c1.853,0,4.651,0,6.367,0.857   c0.08,0.041,0.166,0.072,0.253,0.094c3.908,0.978,6.147,1.724,8.312,2.444c1.13,0.378,2.281,0.761,3.67,1.179   c-2.561,1.257-5.614,2.283-7.604,2.283c-4.736,0-7.029,2.645-9.015,6.615C17.884,124.062,17.861,124.374,17.938,124.656z    M55.065,125.654c-3.8,0-6.545,0-9.2-1.77c-0.983-0.656-1.841-0.89-2.611-0.89c-1.017,0-1.882,0.406-2.687,0.784   c-0.928,0.436-1.887,0.886-3.296,0.886c-1.738,0-2.782-0.417-3.989-0.899c-1.239-0.496-2.64-1.057-4.785-1.076   c-3.01-0.576-4.771,0.173-6.471,0.896c-0.467,0.198-0.922,0.392-1.406,0.559c1.81-3.352,3.5-4.508,6.42-4.508   c3.132,0,7.891-1.875,10.998-3.801c0.311,0.081,0.635,0.165,0.969,0.25c1.03,1.441,2.59,2.649,4.942,3.119   c0.08,0.017,0.161,0.024,0.242,0.024c1.843,0,3.862,0.224,5.946,0.635c-0.097,0.023-0.197,0.047-0.299,0.07   c-0.841,0.198-1.888,0.445-3.072,0.841c-0.647,0.216-0.998,0.916-0.781,1.563c0.214,0.646,0.914,0.997,1.562,0.781   c1.08-0.36,2.024-0.583,2.858-0.78c1.507-0.355,2.696-0.637,3.556-1.495c0.01-0.01,0.02-0.02,0.028-0.029   c3.522,1.041,7.03,2.539,10.003,4.328c-1.003,0.885-2.132,1.649-3.494,2.221C59.075,125.654,56.88,125.654,55.065,125.654z    M118.149,197.289c-2.536-0.529-4.875-1.626-5.709-2.875c-0.045-0.067-0.096-0.13-0.154-0.188   c-0.203-0.203,0.029-1.204,0.141-1.686c0.113-0.49,0.222-0.953,0.222-1.395c0-2.704,0-5.724-2.355-8.007   c0.006-0.005,0.011-0.011,0.017-0.017c0.231-0.231,0.361-0.547,0.361-0.874c0-1.121-0.126-2.092-0.325-2.923   C116.02,183.201,118.759,189.442,118.149,197.289z M130.804,152.247c-0.321,0.459-0.652,0.932-1.094,1.181   c-4.197,1.368-4.982-0.409-5.232-1.139c-0.689-3.916-3.27-6.245-5.767-8.5c-1.556-1.405-3.166-2.858-4.261-4.685   c-0.28-0.465-0.832-0.696-1.359-0.562c-2.822,0.705-4.734,2.707-6.421,4.474c-0.96,1.004-1.866,1.952-2.862,2.617   c-0.272,0.181-0.463,0.464-0.526,0.785c-0.064,0.321,0.002,0.656,0.184,0.928c0.524,0.786,0.978,1.502,1.398,2.167   c1.204,1.897,2.155,3.397,3.698,4.941c0.059,0.058,0.121,0.109,0.188,0.154c3.175,2.116,5.516,4.891,7.78,7.573   c1.805,2.14,3.671,4.351,5.918,6.158c1.643,1.662,2.57,3.546,2.683,5.455c0.104,1.75-0.516,3.388-1.741,4.614   c-0.231,0.231-0.361,0.546-0.361,0.873c0,1.83,1.218,4.034,2.294,5.979c0.295,0.534,0.575,1.04,0.802,1.493   c1.67,3.341,0.898,8.564-1.494,10.239c-1.077,0.515-2.509,0.688-4.026,0.616c0.847-10.301-3.479-18.166-12.232-22.235   c-0.657-1.342-1.278-2.756-1.882-4.127c-2.064-4.694-4.2-9.546-8.144-12.702c-0.162-0.128-0.346-0.21-0.536-0.248   c-0.015-0.512-0.048-0.987-0.129-1.47c3.793,0.244,7.117,1.771,9.893,4.546c0.482,0.482,1.265,0.482,1.748,0   c0.482-0.482,0.482-1.265,0-1.747c-3.407-3.407-7.715-5.237-12.472-5.303c-0.036-0.076-0.074-0.153-0.112-0.23   c-1.754-4.208-3.765-8.309-5.933-12.326c1.085-0.026,2.233,0.461,3.457,0.985c1.364,0.585,2.775,1.189,4.3,1.189   c0.683,0,1.235-0.554,1.235-1.236s-0.553-1.235-1.235-1.235c-1.018,0-2.139-0.48-3.326-0.989c-1.715-0.736-3.649-1.563-5.689-1.007   c-1.16-2.079-2.357-4.135-3.578-6.173c0.586-0.656,0.999-1.294,1.368-1.868c0.733-1.134,1.217-1.883,2.72-2.384   c0.646-0.215,0.997-0.915,0.781-1.562s-0.917-1-1.563-0.781c-2.326,0.775-3.184,2.104-4.013,3.388   c-0.213,0.328-0.418,0.647-0.65,0.962c-2.222-3.638-4.501-7.22-6.754-10.761c-0.367-0.577-1.131-0.744-1.706-0.379   c-0.576,0.366-0.745,1.13-0.38,1.705c6.776,10.648,13.783,21.658,18.72,33.5c0.858,1.717,0.858,2.499,0.858,4.391   c0,4.106,1.024,8.202,2.014,12.162c0.166,0.663,0.837,1.064,1.498,0.899c0.663-0.166,1.065-0.837,0.9-1.498   c-0.793-3.17-1.607-6.428-1.86-9.618c2.799,2.767,4.518,6.675,6.326,10.785c0.674,1.53,1.369,3.111,2.123,4.619   c0.062,0.129,0.147,0.245,0.253,0.347c0.374,0.383,1.466,1.73,1.587,4.528c-0.508,0.479-1.077,0.972-1.674,1.486   c-1.68,1.45-3.584,3.094-5.028,5.26c-0.027,0.043-0.054,0.087-0.077,0.134c-0.296,0.591-0.582,0.646-2.163,0.444   c-0.447-0.058-0.771-0.122-1.287-0.137c-1.941-0.661-1.766-0.937-1.766-2.722v-10.874c0-5.167-1.242-9.389-3.35-12.548   c-0.205-0.308-0.625-0.508-0.993-0.544c-0.369-0.034-0.778,0.095-1.04,0.355c-0.275,0.275-0.591,0.587-0.901,0.918   c-2.092,2.224-3.83,3.859-5.379,2.946c-1.471-1.6-1.436-4.993-0.635-7.464c1.856-3.797,1.481-8.847-1.032-13.872   c-0.209-0.419-0.638-0.684-1.106-0.684c-1.099,0-2.067,0.562-3.092,1.157c-1.459,0.848-3.112,1.809-5.807,1.809   c-2.323,0-2.644-0.462-2.646-0.467c-0.306-0.552,1.336-3.166,2.423-4.896c1.037-1.652,2.212-3.523,3.271-5.633   c1.675-2.562,1.46-5.128,1.272-7.395c-0.062-0.737-0.12-1.432-0.12-2.122c0-0.683-0.553-1.235-1.235-1.235   s-1.236,0.553-1.236,1.235c0,0.792,0.065,1.572,0.128,2.326c0.181,2.157,0.335,4.02-0.908,5.886   c-0.028,0.042-0.055,0.086-0.077,0.133c-0.086,0.173-0.174,0.345-0.263,0.515c-0.587-1.371-1.564-2.583-2.822-3.435   c-2.093-1.416-4.629-1.646-7.143-0.641c-0.032,0.013-0.063,0.026-0.094,0.042c-0.97,0.484-1.38,0.546-1.554,0.512   c-0.189-0.039-0.461-0.384-0.743-0.947c-0.035-0.071-0.077-0.139-0.124-0.199c0.105-0.397,0.182-0.84,0.221-1.338   c3.924-1.56,6.171-4.378,8.333-7.124c0.114-0.101,0.205-0.218,0.272-0.345c0.91-1.155,1.854-2.333,2.887-3.367   c3.353-3.048,6.861-6.055,10.331-8.99c1.625,1.282,2.673,2.841,3.426,4.524c0.033,0.172,0.103,0.33,0.2,0.468   c0.646,1.57,1.064,3.237,1.477,4.878c0.388,1.545,0.788,3.142,1.371,4.596c0.252,0.634,0.978,0.941,1.605,0.688   c0.634-0.253,0.941-0.972,0.688-1.604c-0.52-1.3-0.882-2.748-1.268-4.28c-0.262-1.04-0.53-2.116-0.865-3.193   c1.026,0.47,2.19,1.179,3.392,1.912c1.77,1.08,3.772,2.302,5.978,3.191c0.078,0.04,0.164,0.094,0.261,0.159   c2.097,2.097,1.603,7.229,1.238,11.026c-0.131,1.36-0.243,2.535-0.243,3.505c0,0.683,0.553,1.236,1.235,1.236   s1.235-0.554,1.235-1.236c0-0.852,0.113-2.026,0.232-3.269c0.222-2.305,0.484-5.04,0.229-7.532   c2.478,2.691,5.074,5.982,5.307,7.305c0.118,0.672,0.762,1.118,1.432,1.003c0.673-0.119,1.12-0.76,1.003-1.432   c-0.39-2.207-4.233-6.888-7.354-10.018c1.779,0.66,3.403,1.753,5.085,2.885l0.743,0.498c1.229,0.736,2.277,1.447,3.292,2.137   c0.076,0.053,0.152,0.104,0.229,0.155c0.004,0.086,0.018,0.173,0.04,0.259c0.873,3.302,2.801,5.647,5.155,7.432   c0.017,0.048,0.036,0.095,0.06,0.142c0.364,0.728,0.364,1.786,0.364,2.907c0,1.358,0,2.763,0.624,4.012   c0.306,0.611,1.05,0.86,1.658,0.554c0.61-0.305,0.857-1.048,0.553-1.657c-0.364-0.729-0.364-1.787-0.364-2.908   c0-0.402,0-0.808-0.017-1.214c1.943,1.058,3.991,1.883,5.877,2.643c1.085,0.438,2.133,0.86,3.041,1.276   c0.03,1.083,0.261,2.692,0.503,4.39c0.236,1.658,0.481,3.373,0.481,4.273c0,0.696,0.591,1.302,1.276,1.235   C131.573,151.148,131.155,151.745,130.804,152.247z M164.996,172.05c-0.539,0.689-1.292,1.055-2.179,1.055   c-0.192,0-0.382,0.044-0.553,0.13c-0.836,0.419-1.697,0.431-2.639,0.043c-1.993-0.826-3.904-3.373-4.559-5.327   c-1.425-3.564-3.14-5.623-5.396-6.48c-0.733-0.279-1.517-0.418-2.347-0.418c-1.471,0-3.087,0.437-4.831,1.309   c-0.607,0.305-1.333,0.303-1.998-0.004c-1.017-0.468-1.792-1.585-2.183-3.144c-0.021-0.088-0.053-0.173-0.093-0.254   c-0.301-0.6-0.51-1.372-0.733-2.191c-0.451-1.664-0.964-3.549-2.464-5.05c-0.479-0.478-1.238-1.116-2.182-1.019   c-0.022,0.001-0.045,0.003-0.067,0.006c0.378-0.211,0.634-0.615,0.634-1.079c0-1.076-0.246-2.8-0.507-4.623   c-0.123-0.859-0.248-1.734-0.34-2.503c1.821,1.219,3.751,2.335,5.628,3.42c5.115,2.959,10.405,6.018,13.694,11.28   c0.05,0.08,0.107,0.154,0.174,0.22c0.276,0.275,0.449,0.557,0.634,0.854c0.004,0.008,0.009,0.015,0.014,0.022   c-0.014,0.073-0.021,0.15-0.021,0.228c0,2.605,1.398,4.922,3.649,6.048c0.608,0.305,1.353,0.057,1.657-0.554   c0.305-0.609,0.058-1.352-0.553-1.657c-0.919-0.459-1.601-1.217-1.97-2.148c3.621,1.984,6.738,4.565,8.298,6.905   c0.045,0.067,0.096,0.13,0.154,0.188c0.584,0.584,1.184,0.845,1.76,0.914C165.959,169.751,165.718,171.126,164.996,172.05z    M171.387,124.195c-0.179,0.298-0.78,0.47-1.649,0.47c-1.838,0-3.361-1.673-4.836-3.291c-0.371-0.408-0.737-0.81-1.103-1.181   c-2.925-4.838-5.399-6.71-11.325-4.336c-0.032,0.013-0.064,0.025-0.094,0.041c-3.88,1.94-5.985,1.532-8.345-1.613   c-2.896-3.861-6.048-5.437-10.874-5.437c-1.074,0-2.226,0.223-3.34,0.439c-2.198,0.426-4.271,0.826-5.933-0.276   c-3.8-2.174-5.96-0.994-6.907-0.098c-2.236,2.115-2.207,6.621-0.782,9.551c1.033,3.061,2.324,4.718,6.088,4.718   c5.619,0,8.279,2.737,11.649,6.204c0.43,0.444,0.867,0.894,1.316,1.342c2.918,2.919,6.984,5.141,11.448,6.257   c3.318,0.829,5.126,2.361,6.047,5.123c0.019,0.056,0.041,0.109,0.067,0.161c3.211,6.424,6.733,8.593,13.956,8.593   c0.133,0,0.265-0.021,0.391-0.064c1.913-0.633,3.343,0.251,5.447,3.388c0.12,0.31-0.1,0.617-1.465,1.508   c-0.421,0.275-0.82,0.537-1.15,0.832c-0.739,0.433-0.97,1.008-1.031,1.428c-0.178,1.224,0.866,2.201,1.971,3.236   c0.646,0.605,1.377,1.291,1.652,1.84c0.349,0.697,0.311,1.634-0.083,2.088c-0.235,0.271-0.622,0.343-1.153,0.21   c-1.546-1.3-3.158-0.492-4.142-0.001c-1.025,0.513-1.224,0.521-1.463,0.306c-1.993-2.922-5.825-5.985-10.284-8.214   c-0.142-0.071-0.303-0.114-0.463-0.127c-0.061-0.082-0.142-0.214-0.205-0.317c-0.199-0.321-0.465-0.753-0.884-1.195   c-0.642-1.014-1.344-1.947-2.093-2.815c0.031,0.004,0.062,0.008,0.094,0.011c1.686,0.19,3.138,0.353,5.661-1.331   c0.567-0.378,0.721-1.146,0.343-1.713c-0.378-0.568-1.146-0.719-1.714-0.343c-1.774,1.183-2.522,1.102-4.014,0.931   c-0.626-0.07-1.335-0.15-2.221-0.15c-0.205,0-0.399,0.051-0.57,0.14c-3.028-2.713-6.536-4.741-9.97-6.726   c-2.312-1.339-4.497-2.603-6.617-4.112c-1.374-0.823-3.122-1.528-4.974-2.274c-4.304-1.735-9.091-3.665-11.418-7.731   c1.701,0.873,3.509,1.428,5.87,1.428c1.646,0,2.616,0.869,3.737,1.874c1.088,0.975,2.322,2.08,4.171,2.08   c0.683,0,1.235-0.553,1.235-1.235s-0.553-1.236-1.235-1.236c-0.86,0-1.519-0.55-2.521-1.448c-1.246-1.116-2.796-2.506-5.388-2.506   c-3.306,0-5.239-1.312-8.167-3.3c-0.994-0.675-2.12-1.44-3.358-2.182l-0.685-0.459c-2.882-1.939-5.861-3.944-9.886-3.944   c-0.085,0-0.167,0.009-0.247,0.024c-0.048-0.01-0.095-0.016-0.143-0.02c-1.92-0.795-3.741-1.898-5.36-2.887   c1.452-1.314,3.293-1.723,5.223-2.151c1.565-0.348,3.185-0.706,4.525-1.601c0.568-0.378,0.722-1.146,0.343-1.713   c-0.378-0.568-1.146-0.72-1.713-0.343c-0.957,0.638-2.284,0.933-3.69,1.244c-2.292,0.509-4.862,1.078-6.88,3.257   c-1.312-0.741-2.536-1.311-3.712-1.508c-0.811-1.71-1.926-3.339-3.583-4.743c0.295-0.249,0.59-0.496,0.882-0.744   c3.799-3.202,7.668-6.465,11.497-9.873c2.371,1.848,5.482,1.718,7.583,0.724c2.025-0.493,4.307-0.724,6.566-0.672   c0.91,2.612,2.642,3.822,4.187,4.902c0.655,0.458,1.275,0.892,1.79,1.406c0.482,0.482,1.265,0.482,1.747,0s0.482-1.265,0-1.747   c-0.668-0.668-1.406-1.185-2.121-1.685c-1.113-0.778-2.117-1.48-2.809-2.682c0.956,0.118,1.887,0.287,2.769,0.507   c0.098,0.024,0.198,0.037,0.299,0.037c1.835,0,3.616,0,5.349,0.043c1.14,1.362,2.866,2.471,4.412,3.463   c1.066,0.686,2.674,1.718,2.844,2.209c0.017,0.668,0.563,1.205,1.235,1.205c0.683,0,1.235-0.553,1.235-1.235   c0-1.701-1.845-2.886-3.979-4.258c-0.588-0.377-1.205-0.773-1.79-1.186c5.002,0.409,9.561,1.514,13.734,4.494   c3.276,2.185,5.516,2.185,9.582,2.185c0.414,0,0.868-0.038,1.339-0.079c2.08-0.184,2.976-0.126,3.421,1.212   c1.27,3.81,5.053,3.81,8.092,3.81c1.672,0,3.095,0.837,3.816,2.241c0.495,1.225,1.24,2.617,2.029,4.089   C170.023,119.201,172.079,123.04,171.387,124.195z M197.3,76.91c-0.168,0.34-0.874,0.208-2.29-0.197   c-0.838-0.239-1.704-0.486-2.536-0.486c-3.111,0-3.461,2.634-3.716,4.556c-0.225,1.699-0.458,3.456-1.968,4.588   c-1.297,0.973-2.563,0.844-4.031,0.696c-2.043-0.205-4.837-0.49-6.285,3.855c-0.043,0.127-0.063,0.258-0.063,0.392   c0,0.964-0.43,1.805-1.211,2.367c-0.873,0.629-2.002,0.777-3.094,0.415c-1.929-0.644-3.822-0.539-5.334,0.289   c-1.549,0.85-2.646,2.419-3.176,4.537c-0.387,1.545,0.072,2.529,0.523,3.082c1.409,1.723,4.42,1.586,7.073,1.468   c0.549-0.024,1.064-0.049,1.511-0.049c3.136,0,5.08,1.544,5.854,2.989c0.576,1.077,0.59,2.17,0.038,2.998   c-0.028,0.043-0.055,0.087-0.077,0.133c-0.807,1.613-2.3,2.068-4.436,1.357c-2.298-0.766-3.768-0.065-4.84,0.448   c-0.311,0.147-0.583,0.278-0.848,0.365c-1.232-1.78-3.294-2.854-5.577-2.854c-3.125,0-5.075-0.103-5.748-2.121   c-0.842-2.525-2.809-2.975-4.504-2.975c-0.533,0-1.04,0.045-1.477,0.083c-0.395,0.034-0.775,0.069-1.123,0.069   c-3.93,0-5.557,0-8.179-1.747c-5.482-3.916-11.602-4.867-18.09-5.099c-0.245-0.089-0.516-0.099-0.771-0.023   c-1.785-0.05-3.599-0.051-5.433-0.051c-4.121-1-9.201-0.987-13.3,0.037c-0.088,0.022-0.173,0.053-0.253,0.094   c-1.322,0.663-3.231,0.762-4.718-0.147c2.039-1.849,4.061-3.743,6.048-5.695c0.062-0.05,0.12-0.107,0.172-0.169   c0.306-0.301,0.609-0.603,0.913-0.906c3.132-3.133,6.404-6.251,9.73-9.328c3.147,2.674,6.354,1.851,8.734,1.239   c0.89-0.23,1.73-0.446,2.409-0.446c0.683,0,1.235-0.553,1.235-1.235s-0.553-1.236-1.235-1.236c-0.991,0-1.979,0.254-3.025,0.523   c-2.146,0.554-4.184,1.078-6.28-0.535c0.546-0.5,1.093-0.999,1.64-1.495c0.05-0.01,0.1-0.022,0.148-0.039   c0.395-0.132,0.678-0.441,0.791-0.812c3.502-3.164,7.021-6.268,10.461-9.277c0.315-0.227,0.625-0.458,0.929-0.694   c3.006,1.633,5.458,0.799,7.442,0.12c1.735-0.592,2.861-0.921,4.147-0.278c0.608,0.306,1.353,0.058,1.657-0.553   c0.306-0.61,0.059-1.353-0.553-1.657c-2.272-1.139-4.279-0.453-6.048,0.149c-1.558,0.531-2.942,1-4.59,0.437   c1.925-1.85,3.522-3.957,4.802-6.337c0.013-0.008,0.025-0.016,0.038-0.024c0.609-0.406,14.987-10.01,19.959-14.982   c7.614-7.614,15.481-15.48,21.435-25.12c0.902,0.149,1.875,0.051,2.826-0.048c0.771-0.077,1.878-0.191,2.288,0.009   c-0.041,0.652-0.278,1.326-1.605,2.652c-0.6,0.6-1.198,1.157-1.781,1.699c-2.36,2.199-4.589,4.275-5.464,7.772   c-0.023,0.097-0.036,0.197-0.036,0.299c0,2.847,0.775,4.201,5.189,4.201c0.47,0,0.729,0.068,0.84,0.117   c-0.028,0.86-2.502,3.721-5.093,4.368c-0.129,0.032-12.844,3.561-13.334,8.027c-0.099,0.896,0.204,2.173,2.207,3.174   c1.122,0.562,1.554,1.096,1.718,1.445c0.152,0.323,0.143,0.634-0.028,0.979c-0.562,1.122-2.762,2.188-4.54,1.297   c-0.08-0.041-0.165-0.071-0.253-0.094c-4.883-1.219-7.305,1.59-9.169,4.368c-0.628,0.642-1.396,1.591-1.356,2.71   c0.043,1.158,0.874,1.877,1.607,2.511c0.622,0.537,1.21,1.046,1.49,1.816c0.109,0.594,0.064,1.019-0.132,1.265   c-0.556,0.694-2.56,0.74-4.169,0.777c-1.314,0.03-2.561,0.06-3.594,0.358c-3.195,0.081-5.706,2.18-6.908,5.785   c-0.043,0.126-0.063,0.258-0.063,0.391c0,1.75-0.378,3.009-1.062,3.544c-0.505,0.394-1.293,0.465-2.346,0.2   c-0.098-0.024-0.198-0.037-0.299-0.037c-2.435,0-4.201,2.183-4.201,5.19c0,0.744,0.301,2.559,3.094,3.332   c3.837,1.062,11.315-0.384,13.946-4.539c1.037-1.053,2.048-2.296,3.025-3.501c1.189-1.462,3.178-3.911,3.906-3.942   c0.262,0,0.326,0.068,0.351,0.095c0.431,0.461,0.31,2.223,0.237,3.274c-0.113,1.677-0.204,3.002,0.863,3.621   c0.633,0.365,1.373,0.273,2.2-0.277c2.938-1.959,8.19-6.052,10.347-11.444c0.059-0.146,0.089-0.301,0.089-0.458   c0-0.3,0.551-0.742,1.73-0.742c0.785,0,1.154,0.842,1.684,2.728c0.39,1.387,0.792,2.821,2.107,3.165   c1.206,0.315,2.299-0.598,3.014-1.312c1.336-1.336,2.119-3.139,2.81-4.729c1.056-2.431,1.726-3.806,3.236-3.806   c0.344,0,0.47,0.065,0.479,0.065l0,0c0.286,0.48-0.528,2.64-0.876,3.562c-0.45,1.191-0.838,2.222-0.838,3.045   c0,1.188,0.487,2.145,1.374,2.691c2.237,1.384,5.931-0.39,6.345-0.598c1.733-0.866,3.604-0.177,4.61,0.832   C197.124,73.943,198.14,75.231,197.3,76.91z"></path><path d="M184.129,78.334c-3.319-1.661-7.23,1.274-10.374,3.632c-1.348,1.012-2.622,1.966-3.463,2.247   c-1.473,0.554-2.946,1.14-4.425,1.729c-0.263,0.104-0.525,0.209-0.789,0.313c0.231-0.392,0.485-0.799,0.744-1.188   c0.379-0.567,0.226-1.335-0.343-1.714c-0.567-0.378-1.335-0.225-1.713,0.343c-0.662,0.992-1.687,2.646-2.051,3.869   c-2.71,1.022-5.468,1.957-8.296,2.601c-0.487-0.21-1.043-0.082-1.392,0.292c-1.969,0.376-3.972,0.597-6.017,0.597   c-1.846,0-3.52-0.776-5.138-1.527c-1.593-0.739-3.099-1.438-4.748-1.438c-2.027,0-3.947,0.837-5.196,1.799   c-2.955-1.088-5.818-1.307-8.046-0.746c-2.962,0.987-6.613,1.872-11.229,0.948c-0.2-0.04-0.4-0.034-0.666-0.075   c-1.133-0.167-3.482-0.521-5.547,2.579c-0.379,0.567-0.226,1.335,0.342,1.713c0.567,0.38,1.335,0.227,1.714-0.343   c1.197-1.794,2.137-1.651,3.126-1.505c0.238,0.036,0.456,0.065,0.647,0.074c5.168,1.007,9.335-0.027,12.303-1.021   c3.667-0.922,10.019,1.053,14.569,6.511c0.437,0.524,1.215,0.597,1.739,0.158c0.525-0.436,0.596-1.215,0.158-1.739   c-1.93-2.317-4.138-4.072-6.388-5.31c0.752-0.338,1.627-0.572,2.473-0.572c1.104,0,2.311,0.56,3.709,1.208   c1.773,0.824,3.785,1.758,6.177,1.758c2.312,0,4.555-0.257,6.742-0.688c0.188,0.348,0.349,0.855,0.524,1.41   c0.535,1.692,1.269,4.011,3.854,5.95c0.223,0.166,0.483,0.247,0.741,0.247c0.375,0,0.747-0.171,0.989-0.495   c0.409-0.546,0.299-1.32-0.247-1.729c-1.952-1.464-2.5-3.192-2.982-4.719c-0.13-0.411-0.262-0.827-0.422-1.225   c3.994-1.024,7.818-2.548,11.569-4.042c1.464-0.582,2.921-1.162,4.335-1.694c1.179-0.393,2.543-1.415,4.121-2.6   c2.6-1.949,5.832-4.377,7.787-3.397c0.608,0.305,1.353,0.057,1.658-0.554C184.987,79.381,184.74,78.639,184.129,78.334z"></path><path d="M107.706,165.443c-0.547,0.409-0.657,1.184-0.248,1.729c3.594,4.791,8.514,5.438,12.852,5.438   c0.683,0,1.236-0.554,1.236-1.236s-0.554-1.235-1.236-1.235c-5.354,0-8.504-1.289-10.874-4.448   C109.027,165.145,108.25,165.031,107.706,165.443z"></path></g></svg>