<svg xmlns="http://www.w3.org/2000/svg" data-name="Layer 1" viewBox="0 0 5 5" x="0px" y="0px"><title>flowers</title><path d="M1.37492,3.60511c-.03468-.02526-.06167-.04428-.08808-.06426-.08068-.061-.08617-.1211-.0135-.17286-.02648-.0598-.05321-.1205-.08023-.1811a.99108.99108,0,0,1-.10264-.38935,1.0669,1.0669,0,0,0-.021-.18583.409.409,0,0,1,.01515-.21355c.02785-.08246.05362-.166.08372-.24728a1.03512,1.03512,0,0,1,.21916-.33122c.0776-.08606.14776-.17957.224-.26706a.62269.62269,0,0,1,.1016-.09061,1.4695,1.4695,0,0,1,.27516-.17484c.07707-.03388.13984-.0959.21758-.128.11192-.04619.23153-.0769.34813-.11357.05021-.01579.10066-.0311.15176-.04462A1.07178,1.07178,0,0,0,2.90835.94815,1.54608,1.54608,0,0,1,3.354.86359.67877.67877,0,0,1,3.56724.849,1.45392,1.45392,0,0,0,3.91885.82884c.03532-.00291.06431-.03546.0955-.05547.01817-.01166.03259-.033.05281-.03677.06667-.01237.11271.038.108.11157a.24686.24686,0,0,0,.00594.06365,2.80468,2.80468,0,0,1,.05663.27637c.02041.20738.03088.41419.0462.6213.00683.09238.01893.18533.02261.27728a.84832.84832,0,0,1-.04833.28163c-.01758.05854-.03007.11971-.05091.17644-.034.09266-.06955.18488-.11108.27309a1.0933,1.0933,0,0,1-.11552.19826,2.16087,2.16087,0,0,1-.18634.20516,2.662,2.662,0,0,1-.19925.18541,1.1826,1.1826,0,0,1-.38267.20006c-.05968.01993-.12406.02881-.18548.04494a.82924.82924,0,0,0-.10822.0361,1.04228,1.04228,0,0,1-.41434.08157c-.14079-.0015-.28417-.02142-.42642-.03339-.0869-.00731-.17378-.01025-.26075-.0236-.0884-.01357-.17688-.04-.26538-.05558a.15884.15884,0,0,0-.09208.00927.87145.87145,0,0,0-.22416.203c-.088.09016-.1788.17741-.271.26294C.919,4.17439.8676,4.21.81888,4.24862A.07993.07993,0,0,1,.70766,4.235a.091.091,0,0,1,.00574-.1065c.01133-.01259.02463-.02319.03677-.035a1.3049,1.3049,0,0,1,.31229-.24308.65743.65743,0,0,0,.083-.06376c.0586-.04289.11854-.084.17656-.12765A.50352.50352,0,0,0,1.37492,3.60511Zm.5334-.4302.0056-.00189q.17015-.14314.3399-.28677c.02012-.017.00842-.02971-.00777-.04934a.18812.18812,0,0,1-.05339-.17867,1.27033,1.27033,0,0,0,.045-.175c.01565-.10085.02344-.20424.03651-.306.013-.10123.0283-.20177.04292-.30251.00778-.05362.0135-.10816.0258-.16.00486-.02048.02168-.0462.03907-.0491a.05673.05673,0,0,1,.06053.05289.46691.46691,0,0,1,.003.099q-.01773.26251-.03788.52445c-.00743.09861-.01709.19669-.02351.29553-.0017.02614-.00415.06738.00955.07871.03007.02488.05071-.00573.06966-.02532l.006-.005a3.47923,3.47923,0,0,0,.49191-.47928.07168.07168,0,0,0,.01773-.039c.0033-.06228.00384-.12517.0052-.18787.00174-.08007-.00065-.16117.00586-.24a.84107.84107,0,0,0-.0156-.35009.0616.0616,0,0,1,.04208-.08462.06585.06585,0,0,1,.086.03745.25352.25352,0,0,1,.04573.10588c-.00064.09505-.01394.18788-.02082.28193-.00725.09918-.01282.19876-.01952.30436A2.67091,2.67091,0,0,0,3.877.97457.20186.20186,0,0,0,3.83675.97372c-.05228.00976-.10354.023-.15629.031a.92638.92638,0,0,0-.12841.01172,1.63352,1.63352,0,0,1-.49694.0514.7294.7294,0,0,0-.1749.00415c-.14632.03657-.289.08326-.43321.12553a.85747.85747,0,0,0-.3436.16531c-.04238.03788-.08047.08087-.12357.11783-.07388.06335-.14978.12427-.22554.18531a1.86946,1.86946,0,0,0-.19721.15858,1.16952,1.16952,0,0,0-.254.35936,1.32778,1.32778,0,0,0-.09254.40077,1.1074,1.1074,0,0,0,.02127.34458,1.143,1.143,0,0,0,.25951.5039c.02567.02883.043.02843.06615.01061q.10969-.08451.22108-.16677c.01877-.01382.0119-.02957.00791-.05144a1.443,1.443,0,0,1-.03905-.27183c.00216-.13072.02245-.25742.01308-.39165-.0128-.18347-.01457-.366-.02094-.54885a.07818.07818,0,0,1,.05866-.07171.0701.0701,0,0,1,.06665.0565.48717.48717,0,0,1,.01463.09826c.00266.0301.00158.05993.00281.09.00409.09946.01293.19975.01165.29823a1.94535,1.94535,0,0,0,.01352.399.53623.53623,0,0,1,.00343.10295C1.91063,3.05023,1.90922,3.11382,1.90832,3.17491Zm2.022-.31075c-.02271-.00092-.0317-.0008-.04075-.00172a.92524.92524,0,0,1-.14811-.017,1.01168,1.01168,0,0,0-.24337-.0394c-.12064-.00212-.24121-.00264-.36242-.01034a1.37326,1.37326,0,0,0-.33892.00123c-.10735.02021-.21573.03715-.32265.05869a.17929.17929,0,0,0-.07668.03577c-.0933.0766-.18432.15606-.2759.2348a.23748.23748,0,0,0-.02213.025l.00581.012c.0413-.00656.082-.01553.124-.01918a2.738,2.738,0,0,1,.28346-.01889c.17641.0029.354.01429.53115.023a.21885.21885,0,0,1,.05393.01159.11166.11166,0,0,1,.07586.09644.07121.07121,0,0,1-.08285.05179c-.00827-.00091-.01678-.0046-.02489-.00479a.50523.50523,0,0,0-.06481.00074,1.39859,1.39859,0,0,1-.17627.02c-.15073-.0029-.30262-.01465-.45359-.01922-.12294-.00372-.2455-.00381-.3677-.00219a.204.204,0,0,0-.1422.05089c-.04472.04166-.09292.07935-.13974.1186-.02693.02258-.05412.04485-.0812.06726l.00425.01479c.09694.02125.194.04119.2908.06406a1.19537,1.19537,0,0,0,.42784.02794c.09971-.01273.19832-.02965.29768-.04379.07165-.01019.14366-.01909.21561-.02815a.72548.72548,0,0,0,.12655-.01607,1.69416,1.69416,0,0,0,.19262-.0777,1.15177,1.15177,0,0,0,.16856-.08906,1.73452,1.73452,0,0,0,.145-.1234c.10356-.08867.20924-.17484.31008-.26666A1.18535,1.18535,0,0,0,3.93029,2.86417ZM2.59435,2.69442a.1336.1336,0,0,0,.02786.00534c.0348-.00363.06918-.00907.10411-.01211.0994-.00866.20151-.00837.29791-.0265a1.54541,1.54541,0,0,1,.439-.01316c.06318.0062.12622.00834.189.00949a.89324.89324,0,0,1,.3297.05693A.04018.04018,0,0,0,4.02209,2.697a1.25848,1.25848,0,0,0,.06432-.174,2.12539,2.12539,0,0,0,.04082-.21257c.00859-.05444.01247-.11044.02-.18-.06078.01232-.11309.02178-.16458.03361-.08.01839-.15846.04139-.23929.057-.12565.02428-.254.04035-.3788.06691-.08535.01816-.16665.04847-.24993.0729a.07693.07693,0,0,1-.09026-.03435c-.022-.03323-.03745-.03448-.06234-.01448a1.81979,1.81979,0,0,0-.27639.27453C2.65728,2.62154,2.62753,2.65528,2.59435,2.69442Zm.52274-.5209.00852.01269a.14653.14653,0,0,0,.02314-.001c.1574-.03187.31393-.06651.47225-.09537.16908-.03082.33989-.056.50967-.08454.01039-.00175.02548-.00955.02642-.01792a1.52494,1.52494,0,0,0,.0235-.26866c-.01212-.19016-.03748-.38161-.05822-.57256C4.11857,1.111,4.11093,1.0757,4.10414,1.035c-.00917.00681-.01452.00871-.01683.01279a2.0927,2.0927,0,0,1-.22726.34157c-.06888.08-.12771.16977-.19744.24883-.06272.07111-.13408.13366-.20184.19976q-.1506.14692-.30146.29354Z"></path></svg>