<svg xmlns="http://www.w3.org/2000/svg" xmlns:xlink="http://www.w3.org/1999/xlink" version="1.0" x="0px" y="0px" viewBox="0 0 100 100" enable-background="new 0 0 100 100" xml:space="preserve"><path d="M22.8138237,93.5786591c0.2089672-7.0877075,3.1513424-14.1598511,7.1853161-19.8924789  c12.4158955,9.9763107,30.814703,18.6810989,44.9397964,6.8704987c7.4721985-6.2478333,13.8823395-17.9204369,4.3498459-25.5287819  c13.3753052-5.1149864,20.8257904-17.2309608,10.872406-29.8751125  c-10.4410019-13.263587-31.6226997-14.9342022-41.9359093-0.1526089c2.3112602-7.918335,0.3835754-15.919487-8.0997467-18.7857056  c-6.5049515-2.1977959-13.2348652-1.0368953-17.9045391,3.8599529C8.5062008,24.4564228,4.977931,44.4525833,17.3637733,61.0149155  C29.5496578,48.0406952,42.4666367,40.673912,64.6465988,35.6489029  C41.7476578,49.7139854,19.5138683,69.1903992,5.9728737,92.608757  C5.9728737,92.608757,13.6514225,97.8899078,22.8138237,93.5786591z"></path></svg>