<svg xmlns="http://www.w3.org/2000/svg" xmlns:xlink="http://www.w3.org/1999/xlink" version="1.1" x="0px" y="0px" viewBox="0 0 100 100" enable-background="new 0 0 100 100" xml:space="preserve"><path fill-rule="evenodd" clip-rule="evenodd" d="M22.197,5.723c8.768,4.667,16.15,10.55,22.15,17.65  c8.168,9.667,13.65,21.566,16.451,35.7c0.1,0.567,0,1.067-0.301,1.5c-0.334,0.467-0.766,0.75-1.301,0.85  c-0.533,0.1-1.016,0-1.449-0.3c-0.467-0.333-0.766-0.767-0.9-1.3c-2.5-12.667-7.266-23.45-14.299-32.35  c-2.967,2.566-5.434,5.216-7.4,7.95c-2.9,4.133-4.484,8.317-4.75,12.55c-0.301,5.133,0.666,9.35,2.9,12.65  c1.365,1.9,4.115,4.4,8.25,7.5c4.398,3.2,7.449,6.133,9.148,8.8c2.035,3.133,3.217,6.85,3.551,11.15  c3.566-3.466,7.133-7.85,10.699-13.15c7.867-11.467,11.801-21.967,11.801-31.5c0-4.967-1.816-9.483-5.449-13.55  c-4.066-4.567-9.184-6.85-15.352-6.85c-1.266,0-3.682,0.183-7.25,0.55c-0.533,0.067-1.016-0.066-1.449-0.4  c-0.434-0.333-0.684-0.783-0.75-1.35c-0.066-0.533,0.066-1.017,0.4-1.45c0.367-0.434,0.816-0.684,1.35-0.75  c3.566-0.4,6.133-0.6,7.699-0.6c7.434,0,13.551,2.733,18.352,8.2c4.299,4.867,6.449,10.267,6.449,16.2  c0,10.367-4.166,21.617-12.5,33.75c-4.9,7.3-9.801,12.934-14.699,16.9c-0.4,0.3-0.834,0.45-1.301,0.45  c-0.266,0-0.566-0.083-0.9-0.25c-0.766-0.367-1.115-0.983-1.049-1.85c0.232-5.433-0.75-9.883-2.951-13.35  c-1.5-2.333-4.217-4.917-8.15-7.75c-4.533-3.333-7.582-6.133-9.148-8.4c-2.801-4.1-4-9.167-3.602-15.2  c0.268-4.934,2.084-9.8,5.451-14.6c2.033-2.9,4.732-5.8,8.1-8.7c-5.434-6.033-11.982-11.083-19.65-15.15  c-0.5-0.233-0.832-0.617-1-1.15c-0.166-0.533-0.115-1.05,0.15-1.55c0.234-0.5,0.633-0.833,1.199-1  C21.232,5.406,21.732,5.456,22.197,5.723z"></path></svg>