<svg xmlns="http://www.w3.org/2000/svg" viewBox="0 0 100 100" x="0px" y="0px"><title>FPR302_Noun_Gardening</title><path d="M87.11,50.15a2,2,0,0,0-.67-.59,1.76,1.76,0,0,0-.4-.18l-.18-.06-.56-.15L84.75,49a1.83,1.83,0,0,1-.34-.12,1.75,1.75,0,0,1-.9-.86,1.83,1.83,0,0,1-.11-1.31L84,44.49,85.08,40l.54-2.24.26-1.12.13-.56a1.84,1.84,0,0,0,0-.22,1.07,1.07,0,0,0,0-.31,1.35,1.35,0,0,0-.21-.59,1.34,1.34,0,0,0-1-.6,1.35,1.35,0,0,0-.56.08l-.13,0-.27.1-.54.22-1.07.42-2.14.84L78,36.93c-.35.13-.74.29-1,.38a3.23,3.23,0,0,1-.93.09A3,3,0,0,1,73.27,35l-.49-2.25-.06-.28a1.18,1.18,0,0,0-.19-.43,1.16,1.16,0,0,0-1.68-.27,2.91,2.91,0,0,0-.45.5c-1,1.2-2,2.36-3,3.54l-3,3.48-.77.86-.39.43a2.89,2.89,0,0,1-.34.35.92.92,0,0,1-1.18,0,.78.78,0,0,1-.31-.47.82.82,0,0,1,0-.27l.09-.4.54-2.24,1-4.49q1-4.52,1.79-9l.4-2.27.1-.57.05-.28,0-.14a2.41,2.41,0,0,0,0-.4,1.94,1.94,0,0,0-2.34-1.86,2.07,2.07,0,0,0-.4.13l-.18.1-.06,0-.24.15-.48.29-1,.55c-.65.36-1.31.7-2,1a6.78,6.78,0,0,1-1.8.57c-.27,0-.08.08-.33-.08a3.74,3.74,0,0,1-.62-.67,27.94,27.94,0,0,1-2.27-3.79c-1.37-2.71-2.63-5.51-3.89-8.32l-.14.05-.14-.05c-1.26,2.81-2.52,5.61-3.89,8.32a27.94,27.94,0,0,1-2.27,3.79,3.74,3.74,0,0,1-.62.67c-.26.16-.06.07-.33.08a6.78,6.78,0,0,1-1.8-.57c-.65-.28-1.31-.62-2-1l-1-.55L37.37,19l-.24-.15-.06,0-.18-.1a2.07,2.07,0,0,0-.4-.13,1.94,1.94,0,0,0-2.34,1.86,2.41,2.41,0,0,0,0,.4l0,.14,0,.28.1.57.4,2.27c.53,3,1.13,6,1.78,9l1,4.49.54,2.24.09.4a.82.82,0,0,1,0,.27.78.78,0,0,1-.31.47.92.92,0,0,1-1.18,0,2.89,2.89,0,0,1-.34-.35L36,40.19l-.77-.86-3-3.48c-1-1.18-2-2.34-2.95-3.54a2.91,2.91,0,0,0-.45-.5,1.16,1.16,0,0,0-1.68.27,1.18,1.18,0,0,0-.19.43l-.06.28L26.37,35a3,3,0,0,1-2.75,2.36,3.2,3.2,0,0,1-.93-.09c-.27-.09-.66-.25-1-.38l-2.15-.85-2.14-.84-1.07-.42-.54-.22-.27-.1-.13,0a1.35,1.35,0,0,0-.56-.08,1.32,1.32,0,0,0-1,.6,1.35,1.35,0,0,0-.21.59,1.08,1.08,0,0,0,0,.31,1.22,1.22,0,0,0,.05.22l.13.56L14,37.77,14.56,40l1.11,4.48.57,2.23A1.83,1.83,0,0,1,16.13,48a1.75,1.75,0,0,1-.9.86,1.83,1.83,0,0,1-.34.12l-.55.16-.56.15-.18.06a1.76,1.76,0,0,0-.4.18,2,2,0,0,0-.67.59,2.22,2.22,0,0,0-.41,1.69,2.15,2.15,0,0,0,.32.84,2,2,0,0,0,.28.35l.16.15.07.06.88.74,1.77,1.48c2.35,2,4.73,3.9,7.12,5.84l3.6,2.86,1.81,1.43a6.17,6.17,0,0,1,1.37,1.26,3.74,3.74,0,0,1,.58,3.2,5.21,5.21,0,0,1-.3.8l-.54,1-.07.13a2.18,2.18,0,0,0-.14.33,2,2,0,0,0,.6,2.14,2,2,0,0,0,1.46.42l.58-.09c5.6-.88,11.19-1.84,16.76-2.94l-2.18,18.3a1,1,0,0,0,1,1.07h5.26a.94.94,0,0,0,.95-1L51.71,72Q59.83,73.54,68,74.8l.58.09A2,2,0,0,0,70,74.47a2,2,0,0,0,.6-2.14,2.18,2.18,0,0,0-.14-.33l-.07-.13-.54-1a4.34,4.34,0,0,1-.3-.8,3.71,3.71,0,0,1,.58-3.2,6.17,6.17,0,0,1,1.37-1.26l1.8-1.43,3.61-2.86c2.38-1.94,4.77-3.87,7.12-5.84L85.81,54l.88-.74.07-.06.16-.15a2,2,0,0,0,.28-.35,2.15,2.15,0,0,0,.32-.84A2.22,2.22,0,0,0,87.11,50.15ZM61.52,72l-2.76-.19a42.26,42.26,0,0,0,7.09-4.44c.46-.35.91-.72,1.35-1.09a6.7,6.7,0,0,0-.37,1.15A52.61,52.61,0,0,1,61.52,72ZM41.69,23.48l.09,0-.71.69c-.46.42-1.06,1-1.52,1.43L38,27l-.09-.47c.57-.43,1.12-.87,1.67-1.33S41,24.07,41.69,23.48Zm9.59,34.11c0-.45,0-.89,0-1.33,1.45-.92,2.87-1.9,4.24-2.95,1-.75,1.94-1.53,2.87-2.36s1.87-1.74,2.78-2.64c-.26.31-.52.63-.79.93S59.21,50.53,59,50.76c-.47.51-.93,1-1.44,1.5l-1,1c-1.66,1.62-3.41,3.15-5.22,4.61ZM50.94,38.3c.54-.48,1.07-1,1.6-1.46-.31.34-.62.68-.94,1-.16.15-.4.4-.65.66C51,38.44,50.94,38.37,50.94,38.3Zm-.1-3.78,0,0h0Zm.71,7.08c.93-.79,1.81-1.62,2.7-2.45l-.9,1c-.32.3-1.12,1.19-1.45,1.49l-.84.84c0-.15,0-.3,0-.44Zm-.42,4.08c.72-.56,1.44-1.14,2.12-1.74.94-.8,1.83-1.64,2.72-2.49l-.86,1c-.31.28-1.14,1.22-1.45,1.49-.48.5-.95,1-1.46,1.48l-1,1,0,0C51.14,46.17,51.14,45.92,51.13,45.68Zm.93,3c1-.75,2-1.53,2.9-2.35s1.84-1.67,2.74-2.54l-.84.95c-.28.26-1.14,1.24-1.43,1.5-.48.5-1,1-1.46,1.49l-1,1c-.57.54-1.16,1.07-1.75,1.6,0-.33,0-.67,0-1ZM53.78,51c1-.75,2-1.53,2.89-2.36s1.85-1.7,2.76-2.58l-.81.94c-.27.24-1.16,1.26-1.43,1.5-.47.51-.94,1-1.44,1.5l-1,1c-1.12,1.09-2.29,2.13-3.48,3.16,0-.44,0-.88,0-1.32C52.1,52.22,53,51.61,53.78,51Zm3.45,4.67c1-.75,1.94-1.52,2.85-2.35s1.9-1.78,2.83-2.7l-.78.93c-.23.21-1.18,1.32-1.41,1.52-.47.51-.92,1-1.42,1.52l-1,1a72.83,72.83,0,0,1-7,6V59.61A52.05,52.05,0,0,0,57.23,55.64ZM39.67,37.22l-.15-1c.74-.52,1.48-1,2.2-1.59,1-.76,2-1.54,3-2.36s1.85-1.59,2.76-2.4L46.33,31c-.4.37-1.09,1.09-1.49,1.45s-1,1-1.51,1.45l-1,1c-.86.79-1.74,1.57-2.62,2.34Zm-1.16-7.46c1-.71,1.89-1.43,2.8-2.19s1.9-1.58,2.82-2.4c-.43.43-.86.87-1.3,1.3s-1.08,1-1.52,1.43l-1.52,1.43-1.06,1-.11.1C38.58,30.19,38.55,30,38.51,29.76ZM40,32.28c1-.77,2-1.54,3-2.37s1.88-1.58,2.79-2.4c-.4.41-.81.83-1.22,1.23s-1.08,1.07-1.5,1.45l-1.52,1.43-1.05,1c-.44.41-.89.81-1.34,1.21L39,33C39.36,32.74,39.68,32.52,40,32.28Zm0,7.53,0-.3v-.09c1.18-.8,2.34-1.61,3.47-2.47s2-1.54,3-2.37,1.67-1.44,2.49-2.19v0l-.83.87c-.38.35-1.1,1.11-1.49,1.46s-1,1-1.49,1.45l-1,1c-1.35,1.25-2.73,2.47-4.13,3.68a2.77,2.77,0,0,0,.11-.64Zm5.15-.52c1-.76,2-1.54,3-2.37.22-.18.43-.38.64-.57,0,.11,0,.21,0,.31l-.39.38c-.49.49-1,1-1.49,1.46l-1,1c-3.14,2.95-6.48,5.73-9.87,8.44-.4-.67-.8-1.33-1.22-2A77.87,77.87,0,0,0,45.17,39.29Zm1.72,2.33q.9-.67,1.77-1.38c0,.19,0,.38,0,.57l-1,1c-3.26,3.07-6.74,6-10.31,8.72-.16-.36-.33-.72-.5-1.07s-.4-.72-.61-1.08A71.9,71.9,0,0,0,46.89,41.62ZM48.55,44c0,.29,0,.58,0,.87a129.44,129.44,0,0,1-10.37,8.56,2.52,2.52,0,0,0-.08-.56,9,9,0,0,0-.34-1.24c-.09-.27-.2-.52-.3-.78A67.42,67.42,0,0,0,48.55,44Zm-.06,3.62,0,1.24c-2.58,2.28-5.31,4.43-8.1,6.49q-.93-.82-1.89-1.62l-.22-.17A63.68,63.68,0,0,0,48.49,47.63Zm-.06,3.58c0,.5,0,1,0,1.51-1.91,1.6-3.88,3.12-5.9,4.59-.63-.6-1.27-1.18-1.92-1.75A59,59,0,0,0,48.43,51.21Zm0,3.43c0,.62,0,1.24,0,1.86-1.24,1-2.52,1.93-3.81,2.86-.57-.6-1.16-1.19-1.75-1.75A55.27,55.27,0,0,0,48.39,54.64Zm0,3.33v2.18c-.62.46-1.25.91-1.88,1.35l-.22-.27c-.44-.52-.91-1-1.37-1.52Q46.65,58.92,48.36,58Zm0,3.2v2.52a.57.57,0,0,1-.13.08c-.45-.64-.92-1.26-1.41-1.87C47.31,61.67,47.83,61.43,48.34,61.17ZM59,58c1-.75,1.93-1.53,2.84-2.35s1.92-1.83,2.86-2.77l-.77.94c-.21.19-1.18,1.34-1.4,1.53-.46.51-.91,1-1.41,1.52l-1,1a68.67,68.67,0,0,1-8.75,7.26V62.85A50.64,50.64,0,0,0,59,58Zm1.73,2.33Q62.14,59.2,63.5,58c1-.89,2-1.88,2.9-2.84-.25.32-.51.63-.77.95s-1.19,1.36-1.38,1.54c-.46.51-.91,1-1.41,1.52-.33.35-.66.68-1,1a64.77,64.77,0,0,1-10.55,8.4l0-2.58A47.36,47.36,0,0,0,60.68,60.31Zm9.18-.6.1-.12c-.27.35-.54.7-.82,1-.15.14-1.21,1.42-1.36,1.56-.45.52-.89,1.06-1.39,1.54-.33.34-.66.69-1,1A56.37,56.37,0,0,1,57,71.67c-1.48-.09-3-.18-4.45-.25A42.65,42.65,0,0,0,64.12,65c1-.74,1.9-1.52,2.79-2.34C68,61.73,68.89,60.7,69.86,59.71ZM37.69,22l1,.48c-.32.3-.64.6-.94.86l-.39.36a.29.29,0,0,1,0-.09l-.4-2ZM31.87,72.41l.17-.27a6.41,6.41,0,0,0,.6-1.3,6.55,6.55,0,0,0-.73-5.62,8.06,8.06,0,0,0-1.88-2l-1.76-1.48-3.53-3C22.36,56.88,20,54.93,17.57,53L16,51.75a3.38,3.38,0,0,0,.52-.22A4.66,4.66,0,0,0,18.89,46l-.66-2.21-1.35-4.4-.7-2.2-.13-.41.74.22,2.21.66,2.21.65c.37.11.71.22,1.18.33a4.78,4.78,0,0,0,1.36.05,4.24,4.24,0,0,0,3.61-3.43L27.79,33l.06-.28a.29.29,0,0,1,0-.1.23.23,0,0,1,.16-.1.25.25,0,0,1,.19,0s.2.23.31.35c1,1.18,1.93,2.39,2.9,3.58l2.82,3.64L35,41l.35.46a4.56,4.56,0,0,0,.41.51,2.46,2.46,0,0,0,1.45.73,2.22,2.22,0,0,0,.63,0q-1.66,1.39-3.34,2.76a85,85,0,0,0-5.36-7.09,84.91,84.91,0,0,1,4.08,7.86c0,.07,0,.14.08.2l-.9.74,1-.52c.37.85.7,1.7,1,2.55l-.26.2.28-.14c.12.34.25.68.36,1l.18.68c-1.64-1.24-3.31-2.45-5-3.59-2.95-2-6-3.85-9.09-5.53Q25,45,29.13,48.41q2.88,2.37,5.64,4.85a11.28,11.28,0,0,1-1.56.25c-1.14.11-2.31.15-3.5.15-2.36,0-4.75-.16-7.14-.41,2.29.74,4.61,1.38,7,1.9,1.19.25,2.4.47,3.65.61a17.18,17.18,0,0,0,1.93.1c.33,0,.7,0,1-.07a7.25,7.25,0,0,0,1.11-.25A72.09,72.09,0,0,1,44,62.7c-.46.09-1,.17-1.43.22a33.38,33.38,0,0,1-3.49.14A71.37,71.37,0,0,1,32,62.65c2.28.74,4.6,1.38,7,1.91,1.19.25,2.39.46,3.64.61.63.06,1.27.1,1.94.1.33,0,.69,0,1-.08.08,0,.17,0,.26,0A21.86,21.86,0,0,1,47,67.1a10.84,10.84,0,0,1,1.35,4.26C42.84,71.6,37.35,72,31.87,72.41ZM51.29,69A44.69,44.69,0,0,0,62.4,62.65c1-.74,1.91-1.52,2.8-2.34,1-.91,2-1.92,3-2.91h0l-.77,1c-.17.16-1.2,1.4-1.38,1.55-.45.52-.89,1.06-1.39,1.54l-1,1a61.63,61.63,0,0,1-11.5,8.94l-.84,0ZM64,72.13c1-.6,1.94-1.25,2.86-1.93.05.21.11.43.18.64a6.41,6.41,0,0,0,.6,1.3l.17.27Z"></path></svg>