<svg xmlns="http://www.w3.org/2000/svg" xmlns:xlink="http://www.w3.org/1999/xlink" version="1.1" x="0px" y="0px" viewBox="0 0 64 64" enable-background="new 0 0 64 64" xml:space="preserve"><metadata><?xpacket begin="&#65279;" id="W5M0MpCehiHzreSzNTczkc9d"?><x:xmpmeta xmlns:x="adobe:ns:meta/" x:xmptk="Adobe XMP Core 5.3-c011 66.145661, 2012/02/06-14:56:27        "></x:xmpmeta><?xpacket end="w"?></metadata><g><g><path d="M32,2.018C17.044,2.018,5,20.061,5,35c0,11.568,7.433,22.506,15.294,22.506c2.188,0,4.243-0.823,6.108-2.448    c0.762-0.662,1.32-1.611,1.86-2.528c0.936-1.59,1.625-2.614,2.737-2.815V61c0,0.553,0.447,1,1,1s1-0.447,1-1V49.714    c1.111,0.201,1.801,1.226,2.736,2.814c0.541,0.918,1.1,1.867,1.861,2.529c1.865,1.625,3.921,2.448,6.108,2.448    c0.001,0,0,0,0.001,0c3.797,0,7.69-2.558,10.681-7.017C57.319,46.119,59,40.474,59,35C59,20.061,46.956,2.018,32,2.018z     M52.728,49.375c-2.614,3.896-5.902,6.131-9.021,6.131c-1.69,0-3.305-0.658-4.796-1.957c-0.516-0.448-0.97-1.22-1.45-2.035    c-0.951-1.616-2.137-3.582-4.46-3.799v-1.318c1.306-1.354,7.72-7.628,14.477-7.628c0.553,0,1-0.447,1-1s-0.447-1-1-1    c-6.122,0-11.74,4.337-14.477,6.84V41.48c0.075-0.774,1.568-14.622,11.175-14.622c0.553,0,1-0.448,1-1s-0.447-1-1-1    c-6.076,0-9.39,4.441-11.175,8.715V16.426c0-0.552-0.447-1-1-1s-1,0.448-1,1v17.149c-1.785-4.274-5.099-8.717-11.175-8.717    c-0.553,0-1,0.448-1,1s0.447,1,1,1c9.587,0,11.099,13.848,11.175,14.622v2.128c-2.736-2.503-8.354-6.84-14.477-6.84    c-0.553,0-1,0.447-1,1s0.447,1,1,1c6.743,0,13.17,6.276,14.477,7.629v1.317c-2.324,0.218-3.51,2.184-4.461,3.8    c-0.48,0.815-0.934,1.586-1.449,2.035c-1.491,1.298-3.105,1.956-4.796,1.956C13.585,55.506,7,45.349,7,35    C7,21.054,18.536,4.018,32,4.018S57,21.054,57,35C57,40.087,55.442,45.327,52.728,49.375z"></path><path d="M32,5.793c-0.553,0-1,0.448-1,1s0.447,1,1,1c11.351,0,21.076,14.703,21.076,26.739c0,0.553,0.447,1,1,1s1-0.447,1-1    C55.076,21.596,44.428,5.793,32,5.793z"></path></g></g></svg>